%TF.GenerationSoftware,KiCad,Pcbnew,7.0.1-0*%
%TF.CreationDate,2023-05-21T16:13:56-06:00*%
%TF.ProjectId,100W Amplifier IS,31303057-2041-46d7-906c-696669657220,rev?*%
%TF.SameCoordinates,Original*%
%TF.FileFunction,Copper,L2,Bot*%
%TF.FilePolarity,Positive*%
%FSLAX46Y46*%
G04 Gerber Fmt 4.6, Leading zero omitted, Abs format (unit mm)*
G04 Created by KiCad (PCBNEW 7.0.1-0) date 2023-05-21 16:13:56*
%MOMM*%
%LPD*%
G01*
G04 APERTURE LIST*
%TA.AperFunction,ComponentPad*%
%ADD10C,3.800000*%
%TD*%
%TA.AperFunction,ComponentPad*%
%ADD11C,1.600000*%
%TD*%
%TA.AperFunction,ComponentPad*%
%ADD12O,1.600000X1.600000*%
%TD*%
%TA.AperFunction,ComponentPad*%
%ADD13R,2.000000X2.000000*%
%TD*%
%TA.AperFunction,ComponentPad*%
%ADD14C,2.000000*%
%TD*%
%TA.AperFunction,ComponentPad*%
%ADD15R,2.400000X2.400000*%
%TD*%
%TA.AperFunction,ComponentPad*%
%ADD16C,2.400000*%
%TD*%
%TA.AperFunction,ComponentPad*%
%ADD17R,3.960000X1.980000*%
%TD*%
%TA.AperFunction,ComponentPad*%
%ADD18O,3.960000X1.980000*%
%TD*%
%TA.AperFunction,ComponentPad*%
%ADD19R,1.700000X1.700000*%
%TD*%
%TA.AperFunction,ComponentPad*%
%ADD20O,1.700000X1.700000*%
%TD*%
%TA.AperFunction,ComponentPad*%
%ADD21R,1.980000X3.960000*%
%TD*%
%TA.AperFunction,ComponentPad*%
%ADD22O,1.980000X3.960000*%
%TD*%
%TA.AperFunction,ComponentPad*%
%ADD23R,1.600000X1.600000*%
%TD*%
%TA.AperFunction,ComponentPad*%
%ADD24O,2.200000X1.200000*%
%TD*%
%TA.AperFunction,ComponentPad*%
%ADD25O,1.200000X2.200000*%
%TD*%
%TA.AperFunction,ComponentPad*%
%ADD26O,2.000000X4.000000*%
%TD*%
%TA.AperFunction,ComponentPad*%
%ADD27O,4.000000X2.000000*%
%TD*%
%TA.AperFunction,ViaPad*%
%ADD28C,0.800000*%
%TD*%
%TA.AperFunction,Conductor*%
%ADD29C,0.812800*%
%TD*%
G04 APERTURE END LIST*
D10*
%TO.P,REF\u002A\u002A,1*%
%TO.N,N/C*%
X115500000Y-87300000D03*
%TD*%
%TO.P,,1*%
%TO.N,N/C*%
X115500000Y-87300000D03*
%TD*%
%TO.P,REF\u002A\u002A,1*%
%TO.N,N/C*%
X115600000Y-48350000D03*
%TD*%
%TO.P,,1*%
%TO.N,N/C*%
X115600000Y-48350000D03*
%TD*%
%TO.P,REF\u002A\u002A,1*%
%TO.N,N/C*%
X175400000Y-42250000D03*
%TD*%
%TO.P,,1*%
%TO.N,N/C*%
X175400000Y-42250000D03*
%TD*%
%TO.P,REF\u002A\u002A,1*%
%TO.N,N/C*%
X189500000Y-115700000D03*
%TD*%
D11*
%TO.P,R9,1*%
%TO.N,INV_IN*%
X188390000Y-72290000D03*
D12*
%TO.P,R9,2*%
%TO.N,OUTPUT*%
X188390000Y-62130000D03*
%TD*%
D11*
%TO.P,R10,1*%
%TO.N,SGND*%
X147880000Y-78370000D03*
D12*
%TO.P,R10,2*%
%TO.N,NON INV_IN*%
X158040000Y-78370000D03*
%TD*%
D13*
%TO.P,C10,1*%
%TO.N,BOOTSTRAP*%
X181050000Y-71067677D03*
D14*
%TO.P,C10,2*%
%TO.N,OUTPUT*%
X181050000Y-66067677D03*
%TD*%
D15*
%TO.P,C15,1*%
%TO.N,SGND*%
X134000000Y-93500000D03*
D16*
%TO.P,C15,2*%
%TO.N,-Vs(PWR)*%
X134000000Y-101000000D03*
%TD*%
D17*
%TO.P,J6,1,Pin_1*%
%TO.N,OUTPUT*%
X189050000Y-48600000D03*
D18*
%TO.P,J6,2,Pin_2*%
%TO.N,SGND*%
X189050000Y-43600000D03*
%TD*%
D19*
%TO.P,J3,1,Pin_1*%
%TO.N,SGND*%
X163695000Y-77520000D03*
D20*
%TO.P,J3,2,Pin_2*%
%TO.N,NON INV_IN*%
X163695000Y-74980000D03*
%TO.P,J3,3,Pin_3*%
%TO.N,unconnected-(J3-Pin_3-Pad3)*%
X163695000Y-72440000D03*
%TO.P,J3,4,Pin_4*%
%TO.N,+Vs(PWR)*%
X163695000Y-69900000D03*
%TO.P,J3,5,Pin_5*%
%TO.N,STAND-BY*%
X163695000Y-67360000D03*
%TO.P,J3,6,Pin_6*%
%TO.N,unconnected-(J3-Pin_6-Pad6)*%
X163695000Y-64820000D03*
%TO.P,J3,7,Pin_7*%
%TO.N,+Vs(PWR)*%
X163695000Y-62280000D03*
%TO.P,J3,8,Pin_8*%
%TO.N,-Vs(PWR)*%
X163695000Y-59740000D03*
%TD*%
D19*
%TO.P,J2,1,Pin_1*%
%TO.N,OUTPUT*%
X168765000Y-61010000D03*
D20*
%TO.P,J2,2,Pin_2*%
%TO.N,unconnected-(J2-Pin_2-Pad2)*%
X168765000Y-63550000D03*
%TO.P,J2,3,Pin_3*%
%TO.N,MUTE*%
X168765000Y-66090000D03*
%TO.P,J2,4,Pin_4*%
%TO.N,-Vs(PWR)*%
X168765000Y-68630000D03*
%TO.P,J2,5,Pin_5*%
%TO.N,BOOTSTRAP*%
X168765000Y-71170000D03*
%TO.P,J2,6,Pin_6*%
%TO.N,SGND*%
X168765000Y-73710000D03*
%TO.P,J2,7,Pin_7*%
%TO.N,INV_IN*%
X168765000Y-76250000D03*
%TD*%
D11*
%TO.P,C11,1*%
%TO.N,AUDIO IN+*%
X173020000Y-82290000D03*
%TO.P,C11,2*%
%TO.N,NON INV_IN*%
X168020000Y-82290000D03*
%TD*%
D21*
%TO.P,J7,1,Pin_1*%
%TO.N,-36IN*%
X130235000Y-115000000D03*
D22*
%TO.P,J7,2,Pin_2*%
%TO.N,-Vs(PWR)*%
X135235000Y-115000000D03*
%TD*%
D21*
%TO.P,J8,1,Pin_1*%
%TO.N,+Vs(PWR)*%
X150000000Y-115000000D03*
D22*
%TO.P,J8,2,Pin_2*%
%TO.N,+36IN*%
X155000000Y-115000000D03*
%TD*%
D23*
%TO.P,C13,1*%
%TO.N,STAND-BY*%
X153490000Y-68072651D03*
D11*
%TO.P,C13,2*%
%TO.N,SGND*%
X153490000Y-64572651D03*
%TD*%
D13*
%TO.P,C8,1*%
%TO.N,Net-(C8-Pad1)*%
X183570000Y-81180000D03*
D14*
%TO.P,C8,2*%
%TO.N,SGND*%
X178570000Y-81180000D03*
%TD*%
D24*
%TO.P,J1,R*%
%TO.N,N/C*%
X186000000Y-102000000D03*
D25*
%TO.P,J1,S*%
%TO.N,SGND*%
X191000000Y-97000000D03*
D24*
%TO.P,J1,T*%
%TO.N,AUDIO IN+*%
X186000000Y-92000000D03*
%TD*%
D26*
%TO.P,J4,1*%
%TO.N,SGND*%
X124600000Y-109250000D03*
D27*
%TO.P,J4,2*%
%TO.N,-36IN*%
X121800000Y-113850000D03*
D26*
%TO.P,J4,3*%
%TO.N,unconnected-(J4-Pad3)*%
X118500000Y-109250000D03*
%TD*%
D11*
%TO.P,C16,1*%
%TO.N,SGND*%
X146000000Y-98500000D03*
%TO.P,C16,2*%
%TO.N,+Vs(PWR)*%
X146000000Y-103500000D03*
%TD*%
D15*
%TO.P,C14,1*%
%TO.N,+Vs(PWR)*%
X158000000Y-101500000D03*
D16*
%TO.P,C14,2*%
%TO.N,SGND*%
X158000000Y-94000000D03*
%TD*%
D11*
%TO.P,R11,1*%
%TO.N,+Vs(PWR)*%
X171100000Y-53780000D03*
D12*
%TO.P,R11,2*%
%TO.N,MUTE*%
X181260000Y-53780000D03*
%TD*%
D11*
%TO.P,R8,1*%
%TO.N,Net-(C8-Pad1)*%
X187860000Y-85590000D03*
D12*
%TO.P,R8,2*%
%TO.N,INV_IN*%
X187860000Y-75430000D03*
%TD*%
D11*
%TO.P,C17,1*%
%TO.N,-Vs(PWR)*%
X122000000Y-100500000D03*
%TO.P,C17,2*%
%TO.N,SGND*%
X122000000Y-95500000D03*
%TD*%
D27*
%TO.P,J5,1*%
%TO.N,+36IN*%
X176000000Y-108000000D03*
D26*
%TO.P,J5,2*%
%TO.N,SGND*%
X180600000Y-110800000D03*
D27*
%TO.P,J5,3*%
%TO.N,unconnected-(J5-Pad3)*%
X176000000Y-114100000D03*
%TD*%
D11*
%TO.P,R12,1*%
%TO.N,+Vs(PWR)*%
X160420000Y-72350000D03*
D12*
%TO.P,R12,2*%
%TO.N,STAND-BY*%
X150260000Y-72350000D03*
%TD*%
D23*
%TO.P,C12,1*%
%TO.N,MUTE*%
X174200000Y-60500000D03*
D11*
%TO.P,C12,2*%
%TO.N,SGND*%
X177700000Y-60500000D03*
%TD*%
D28*
%TO.N,OUTPUT*%
X171150000Y-61500000D03*
X172800000Y-65400000D03*
%TO.N,NON INV_IN*%
X158050000Y-75050000D03*
X161000000Y-75100000D03*
%TO.N,STAND-BY*%
X157900000Y-68150000D03*
X160900000Y-68100000D03*
%TO.N,+Vs(PWR)*%
X158400000Y-57250000D03*
X158400000Y-62000000D03*
%TD*%
D29*
%TO.N,OUTPUT*%
X172800000Y-63150000D02*
X171150000Y-61500000D01*
X172800000Y-65400000D02*
X172800000Y-63150000D01*
%TO.N,NON INV_IN*%
X160950000Y-75050000D02*
X161000000Y-75100000D01*
X158050000Y-75050000D02*
X160950000Y-75050000D01*
%TO.N,STAND-BY*%
X157900000Y-68150000D02*
X160850000Y-68150000D01*
X160850000Y-68150000D02*
X160900000Y-68100000D01*
%TO.N,+Vs(PWR)*%
X158400000Y-62000000D02*
X158400000Y-57250000D01*
%TD*%
%TA.AperFunction,Conductor*%
%TO.N,SGND*%
G36*
X195487332Y-36517229D02*
G01*
X195532784Y-36562670D01*
X195549383Y-36624761D01*
X195499500Y-90499900D01*
X195499500Y-94675500D01*
X195482887Y-94737500D01*
X195437500Y-94782887D01*
X195375500Y-94799500D01*
X194447273Y-94799500D01*
X194345412Y-94826792D01*
X194254085Y-94879520D01*
X194179520Y-94954085D01*
X194126792Y-95045412D01*
X194099500Y-95147273D01*
X194099500Y-98852727D01*
X194126792Y-98954587D01*
X194179520Y-99045914D01*
X194254085Y-99120479D01*
X194345412Y-99173207D01*
X194447273Y-99200500D01*
X194499901Y-99200500D01*
X194500000Y-99200500D01*
X194500500Y-99200500D01*
X195375500Y-99200500D01*
X195437500Y-99217113D01*
X195482887Y-99262500D01*
X195499500Y-99324500D01*
X195499500Y-121975353D01*
X195482863Y-122037395D01*
X195437416Y-122082789D01*
X195375354Y-122099353D01*
X110424864Y-121999645D01*
X110362779Y-121982899D01*
X110317430Y-121937309D01*
X110301011Y-121875139D01*
X110320877Y-117027869D01*
X128744500Y-117027869D01*
X128750909Y-117087484D01*
X128776056Y-117154907D01*
X128801204Y-117222331D01*
X128887454Y-117337546D01*
X129002669Y-117423796D01*
X129137517Y-117474091D01*
X129197127Y-117480500D01*
X131272872Y-117480499D01*
X131332483Y-117474091D01*
X131467331Y-117423796D01*
X131582546Y-117337546D01*
X131668796Y-117222331D01*
X131719091Y-117087483D01*
X131725500Y-117027873D01*
X131725500Y-116051651D01*
X133744500Y-116051651D01*
X133759789Y-116236164D01*
X133759789Y-116236167D01*
X133759790Y-116236169D01*
X133820428Y-116475623D01*
X133919652Y-116701831D01*
X134054755Y-116908621D01*
X134222052Y-117090355D01*
X134416980Y-117242073D01*
X134634221Y-117359638D01*
X134751035Y-117399740D01*
X134867846Y-117439842D01*
X134867848Y-117439842D01*
X134867850Y-117439843D01*
X135111494Y-117480500D01*
X135358505Y-117480500D01*
X135358506Y-117480500D01*
X135602150Y-117439843D01*
X135835779Y-117359638D01*
X136053020Y-117242073D01*
X136247948Y-117090355D01*
X136305470Y-117027869D01*
X148509500Y-117027869D01*
X148515909Y-117087484D01*
X148541056Y-117154907D01*
X148566204Y-117222331D01*
X148652454Y-117337546D01*
X148767669Y-117423796D01*
X148902517Y-117474091D01*
X148962127Y-117480500D01*
X151037872Y-117480499D01*
X151097483Y-117474091D01*
X151232331Y-117423796D01*
X151347546Y-117337546D01*
X151433796Y-117222331D01*
X151484091Y-117087483D01*
X151490500Y-117027873D01*
X151490500Y-116051651D01*
X153509500Y-116051651D01*
X153524789Y-116236164D01*
X153524789Y-116236167D01*
X153524790Y-116236169D01*
X153585428Y-116475623D01*
X153684652Y-116701831D01*
X153819755Y-116908621D01*
X153987052Y-117090355D01*
X154181980Y-117242073D01*
X154399221Y-117359638D01*
X154516035Y-117399740D01*
X154632846Y-117439842D01*
X154632848Y-117439842D01*
X154632850Y-117439843D01*
X154876494Y-117480500D01*
X155123505Y-117480500D01*
X155123506Y-117480500D01*
X155367150Y-117439843D01*
X155600779Y-117359638D01*
X155818020Y-117242073D01*
X156012948Y-117090355D01*
X156180245Y-116908621D01*
X156315348Y-116701831D01*
X156414572Y-116475623D01*
X156475210Y-116236169D01*
X156490500Y-116051645D01*
X156490500Y-115699999D01*
X187094753Y-115699999D01*
X187113719Y-116001452D01*
X187170319Y-116298163D01*
X187263658Y-116585428D01*
X187392268Y-116858739D01*
X187499602Y-117027869D01*
X187554115Y-117113768D01*
X187660258Y-117242073D01*
X187746650Y-117346503D01*
X187966839Y-117553276D01*
X188211204Y-117730816D01*
X188343550Y-117803574D01*
X188475896Y-117876332D01*
X188616317Y-117931928D01*
X188756737Y-117987525D01*
X188911141Y-118027168D01*
X189049302Y-118062642D01*
X189298314Y-118094100D01*
X189348972Y-118100500D01*
X189348973Y-118100500D01*
X189651027Y-118100500D01*
X189651028Y-118100500D01*
X189694360Y-118095025D01*
X189950698Y-118062642D01*
X190243262Y-117987525D01*
X190524104Y-117876332D01*
X190788795Y-117730816D01*
X190788795Y-117730815D01*
X191033160Y-117553276D01*
X191153954Y-117439842D01*
X191253349Y-117346504D01*
X191445885Y-117113768D01*
X191607733Y-116858736D01*
X191736341Y-116585430D01*
X191829681Y-116298160D01*
X191886280Y-116001457D01*
X191905246Y-115700000D01*
X191886280Y-115398543D01*
X191829681Y-115101840D01*
X191808991Y-115038164D01*
X191771739Y-114923514D01*
X191736341Y-114814570D01*
X191607733Y-114541264D01*
X191607732Y-114541263D01*
X191607731Y-114541260D01*
X191533440Y-114424197D01*
X191445885Y-114286232D01*
X191253349Y-114053496D01*
X191170468Y-113975665D01*
X191033160Y-113846723D01*
X190788795Y-113669183D01*
X190548059Y-113536837D01*
X190524104Y-113523668D01*
X190524103Y-113523667D01*
X190524102Y-113523667D01*
X190243262Y-113412474D01*
X189950700Y-113337358D01*
X189651028Y-113299500D01*
X189651027Y-113299500D01*
X189348973Y-113299500D01*
X189348972Y-113299500D01*
X189049299Y-113337358D01*
X188756737Y-113412474D01*
X188475897Y-113523667D01*
X188211204Y-113669183D01*
X187966839Y-113846723D01*
X187746650Y-114053496D01*
X187554114Y-114286233D01*
X187392268Y-114541260D01*
X187263658Y-114814571D01*
X187170319Y-115101836D01*
X187113719Y-115398547D01*
X187094753Y-115699999D01*
X156490500Y-115699999D01*
X156490500Y-114224335D01*
X173499500Y-114224335D01*
X173540429Y-114469615D01*
X173610426Y-114673509D01*
X173621172Y-114704810D01*
X173680572Y-114814571D01*
X173739529Y-114923514D01*
X173875036Y-115097612D01*
X173892262Y-115119744D01*
X174075215Y-115288164D01*
X174283393Y-115424173D01*
X174511119Y-115524063D01*
X174752179Y-115585108D01*
X174826480Y-115591264D01*
X174937927Y-115600500D01*
X174937933Y-115600500D01*
X177062067Y-115600500D01*
X177062073Y-115600500D01*
X177163387Y-115592104D01*
X177247821Y-115585108D01*
X177488881Y-115524063D01*
X177716607Y-115424173D01*
X177924785Y-115288164D01*
X178107738Y-115119744D01*
X178260474Y-114923509D01*
X178378828Y-114704810D01*
X178459571Y-114469614D01*
X178500500Y-114224335D01*
X178500500Y-113975665D01*
X178459571Y-113730386D01*
X178378828Y-113495190D01*
X178260474Y-113276491D01*
X178260471Y-113276487D01*
X178260470Y-113276485D01*
X178116395Y-113091379D01*
X178107738Y-113080256D01*
X177924785Y-112911836D01*
X177716607Y-112775827D01*
X177716604Y-112775825D01*
X177591523Y-112720960D01*
X177488881Y-112675937D01*
X177247821Y-112614892D01*
X177247819Y-112614891D01*
X177247816Y-112614891D01*
X177062073Y-112599500D01*
X177062067Y-112599500D01*
X174937933Y-112599500D01*
X174937927Y-112599500D01*
X174752183Y-112614891D01*
X174752179Y-112614891D01*
X174752179Y-112614892D01*
X174511119Y-112675937D01*
X174511116Y-112675938D01*
X174511117Y-112675938D01*
X174283395Y-112775825D01*
X174200078Y-112830259D01*
X174075215Y-112911836D01*
X173914209Y-113060053D01*
X173892259Y-113080259D01*
X173739529Y-113276485D01*
X173621170Y-113495194D01*
X173540429Y-113730384D01*
X173499500Y-113975665D01*
X173499500Y-114224335D01*
X156490500Y-114224335D01*
X156490500Y-113948355D01*
X156475210Y-113763831D01*
X156414572Y-113524377D01*
X156315348Y-113298169D01*
X156180245Y-113091379D01*
X156012948Y-112909645D01*
X155818020Y-112757927D01*
X155600779Y-112640362D01*
X155600775Y-112640360D01*
X155600774Y-112640360D01*
X155367153Y-112560157D01*
X155161913Y-112525909D01*
X155123506Y-112519500D01*
X154876494Y-112519500D01*
X154838087Y-112525909D01*
X154632846Y-112560157D01*
X154399225Y-112640360D01*
X154399221Y-112640361D01*
X154399221Y-112640362D01*
X154254393Y-112718738D01*
X154181978Y-112757928D01*
X153987051Y-112909645D01*
X153879488Y-113026491D01*
X153819755Y-113091379D01*
X153698819Y-113276485D01*
X153684651Y-113298171D01*
X153585428Y-113524375D01*
X153524789Y-113763835D01*
X153509500Y-113948349D01*
X153509500Y-116051651D01*
X151490500Y-116051651D01*
X151490499Y-112972128D01*
X151484091Y-112912517D01*
X151433796Y-112777669D01*
X151347546Y-112662454D01*
X151232331Y-112576204D01*
X151097483Y-112525909D01*
X151037873Y-112519500D01*
X151037869Y-112519500D01*
X148962130Y-112519500D01*
X148902515Y-112525909D01*
X148767669Y-112576204D01*
X148652454Y-112662454D01*
X148566204Y-112777668D01*
X148515909Y-112912516D01*
X148509500Y-112972130D01*
X148509500Y-117027869D01*
X136305470Y-117027869D01*
X136415245Y-116908621D01*
X136550348Y-116701831D01*
X136649572Y-116475623D01*
X136710210Y-116236169D01*
X136725500Y-116051645D01*
X136725500Y-113948355D01*
X136710210Y-113763831D01*
X136649572Y-113524377D01*
X136550348Y-113298169D01*
X136415245Y-113091379D01*
X136247948Y-112909645D01*
X136053020Y-112757927D01*
X135835779Y-112640362D01*
X135835775Y-112640360D01*
X135835774Y-112640360D01*
X135602153Y-112560157D01*
X135396913Y-112525909D01*
X135358506Y-112519500D01*
X135111494Y-112519500D01*
X135073087Y-112525909D01*
X134867846Y-112560157D01*
X134634225Y-112640360D01*
X134634221Y-112640361D01*
X134634221Y-112640362D01*
X134489393Y-112718738D01*
X134416978Y-112757928D01*
X134222051Y-112909645D01*
X134114488Y-113026491D01*
X134054755Y-113091379D01*
X133933819Y-113276485D01*
X133919651Y-113298171D01*
X133820428Y-113524375D01*
X133759789Y-113763835D01*
X133744500Y-113948349D01*
X133744500Y-116051651D01*
X131725500Y-116051651D01*
X131725499Y-112972128D01*
X131719091Y-112912517D01*
X131668796Y-112777669D01*
X131582546Y-112662454D01*
X131467331Y-112576204D01*
X131332483Y-112525909D01*
X131272873Y-112519500D01*
X131272869Y-112519500D01*
X129197130Y-112519500D01*
X129137515Y-112525909D01*
X129002669Y-112576204D01*
X128887454Y-112662454D01*
X128801204Y-112777668D01*
X128750909Y-112912516D01*
X128744500Y-112972130D01*
X128744500Y-117027869D01*
X110320877Y-117027869D01*
X110333391Y-113974335D01*
X119299500Y-113974335D01*
X119340429Y-114219615D01*
X119363299Y-114286232D01*
X119421172Y-114454810D01*
X119467959Y-114541264D01*
X119539529Y-114673514D01*
X119649318Y-114814570D01*
X119692262Y-114869744D01*
X119875215Y-115038164D01*
X120083393Y-115174173D01*
X120311119Y-115274063D01*
X120552179Y-115335108D01*
X120626480Y-115341264D01*
X120737927Y-115350500D01*
X120737933Y-115350500D01*
X122862067Y-115350500D01*
X122862073Y-115350500D01*
X122963387Y-115342104D01*
X123047821Y-115335108D01*
X123288881Y-115274063D01*
X123516607Y-115174173D01*
X123724785Y-115038164D01*
X123907738Y-114869744D01*
X124060474Y-114673509D01*
X124178828Y-114454810D01*
X124259571Y-114219614D01*
X124300500Y-113974335D01*
X124300500Y-113725665D01*
X124259571Y-113480386D01*
X124178828Y-113245190D01*
X124060474Y-113026491D01*
X124060471Y-113026487D01*
X124060470Y-113026485D01*
X123907740Y-112830259D01*
X123907738Y-112830256D01*
X123724785Y-112661836D01*
X123516607Y-112525827D01*
X123516604Y-112525825D01*
X123391523Y-112470960D01*
X123288881Y-112425937D01*
X123047821Y-112364892D01*
X123047819Y-112364891D01*
X123047816Y-112364891D01*
X122862073Y-112349500D01*
X122862067Y-112349500D01*
X120737933Y-112349500D01*
X120737927Y-112349500D01*
X120552183Y-112364891D01*
X120552179Y-112364891D01*
X120552179Y-112364892D01*
X120311119Y-112425937D01*
X120311116Y-112425938D01*
X120311117Y-112425938D01*
X120083395Y-112525825D01*
X119947070Y-112614891D01*
X119875215Y-112661836D01*
X119875213Y-112661837D01*
X119875214Y-112661837D01*
X119692259Y-112830259D01*
X119539529Y-113026485D01*
X119421170Y-113245194D01*
X119340429Y-113480384D01*
X119299500Y-113725665D01*
X119299500Y-113974335D01*
X110333391Y-113974335D01*
X110348400Y-110312073D01*
X116999500Y-110312073D01*
X117014891Y-110497816D01*
X117014891Y-110497819D01*
X117014892Y-110497821D01*
X117075937Y-110738881D01*
X117120960Y-110841523D01*
X117175825Y-110966604D01*
X117175827Y-110966607D01*
X117311836Y-111174785D01*
X117480256Y-111357738D01*
X117480259Y-111357740D01*
X117676485Y-111510470D01*
X117676487Y-111510471D01*
X117676491Y-111510474D01*
X117895190Y-111628828D01*
X118130386Y-111709571D01*
X118375665Y-111750500D01*
X118624335Y-111750500D01*
X118869614Y-111709571D01*
X119104810Y-111628828D01*
X119323509Y-111510474D01*
X119519744Y-111357738D01*
X119688164Y-111174785D01*
X119824173Y-110966607D01*
X119924063Y-110738881D01*
X119985108Y-110497821D01*
X120000500Y-110312067D01*
X120000500Y-109500000D01*
X123100000Y-109500000D01*
X123100000Y-110312049D01*
X123115386Y-110497732D01*
X123176413Y-110738721D01*
X123276266Y-110966365D01*
X123412233Y-111174477D01*
X123580596Y-111357368D01*
X123776766Y-111510053D01*
X123995393Y-111628368D01*
X124230508Y-111709083D01*
X124349999Y-111729023D01*
X124350000Y-111729023D01*
X124350000Y-109500000D01*
X124850000Y-109500000D01*
X124850000Y-111729023D01*
X124969491Y-111709083D01*
X125204606Y-111628368D01*
X125423233Y-111510053D01*
X125619403Y-111357368D01*
X125787766Y-111174477D01*
X125869091Y-111050000D01*
X179100000Y-111050000D01*
X179100000Y-111862049D01*
X179115386Y-112047732D01*
X179176413Y-112288721D01*
X179276266Y-112516365D01*
X179412233Y-112724477D01*
X179580596Y-112907368D01*
X179776766Y-113060053D01*
X179995393Y-113178368D01*
X180230508Y-113259083D01*
X180349999Y-113279023D01*
X180350000Y-113279023D01*
X180350000Y-111050000D01*
X180850000Y-111050000D01*
X180850000Y-113279023D01*
X180969491Y-113259083D01*
X181204606Y-113178368D01*
X181423233Y-113060053D01*
X181619403Y-112907368D01*
X181787766Y-112724477D01*
X181923733Y-112516365D01*
X182023586Y-112288721D01*
X182084613Y-112047732D01*
X182100000Y-111862049D01*
X182100000Y-111050000D01*
X180850000Y-111050000D01*
X180350000Y-111050000D01*
X179100000Y-111050000D01*
X125869091Y-111050000D01*
X125923733Y-110966365D01*
X126023586Y-110738721D01*
X126071377Y-110550000D01*
X179100000Y-110550000D01*
X180350000Y-110550000D01*
X180350000Y-108320978D01*
X180349999Y-108320976D01*
X180850000Y-108320976D01*
X180850000Y-110550000D01*
X182100000Y-110550000D01*
X182100000Y-109737951D01*
X182084613Y-109552267D01*
X182023586Y-109311278D01*
X181923733Y-109083634D01*
X181787766Y-108875522D01*
X181619403Y-108692631D01*
X181423233Y-108539946D01*
X181204606Y-108421631D01*
X180969491Y-108340916D01*
X180850000Y-108320976D01*
X180349999Y-108320976D01*
X180230508Y-108340916D01*
X179995393Y-108421631D01*
X179776766Y-108539946D01*
X179580596Y-108692631D01*
X179412233Y-108875522D01*
X179276266Y-109083634D01*
X179176413Y-109311278D01*
X179115386Y-109552267D01*
X179100000Y-109737951D01*
X179100000Y-110550000D01*
X126071377Y-110550000D01*
X126084613Y-110497732D01*
X126100000Y-110312049D01*
X126100000Y-109500000D01*
X124850000Y-109500000D01*
X124350000Y-109500000D01*
X123100000Y-109500000D01*
X120000500Y-109500000D01*
X120000500Y-109000000D01*
X123100000Y-109000000D01*
X124350000Y-109000000D01*
X124350000Y-106770978D01*
X124349999Y-106770976D01*
X124850000Y-106770976D01*
X124850000Y-109000000D01*
X126100000Y-109000000D01*
X126100000Y-108187951D01*
X126094728Y-108124335D01*
X173499500Y-108124335D01*
X173540429Y-108369614D01*
X173621172Y-108604810D01*
X173739526Y-108823509D01*
X173739529Y-108823514D01*
X173780009Y-108875522D01*
X173892262Y-109019744D01*
X174075215Y-109188164D01*
X174283393Y-109324173D01*
X174511119Y-109424063D01*
X174752179Y-109485108D01*
X174826480Y-109491264D01*
X174937927Y-109500500D01*
X174937933Y-109500500D01*
X177062067Y-109500500D01*
X177062073Y-109500500D01*
X177163387Y-109492104D01*
X177247821Y-109485108D01*
X177488881Y-109424063D01*
X177716607Y-109324173D01*
X177924785Y-109188164D01*
X178107738Y-109019744D01*
X178260474Y-108823509D01*
X178378828Y-108604810D01*
X178459571Y-108369614D01*
X178500500Y-108124335D01*
X178500500Y-107875665D01*
X178459571Y-107630386D01*
X178378828Y-107395190D01*
X178260474Y-107176491D01*
X178260471Y-107176487D01*
X178260470Y-107176485D01*
X178107740Y-106980259D01*
X178107738Y-106980256D01*
X177924785Y-106811836D01*
X177716607Y-106675827D01*
X177716604Y-106675825D01*
X177591523Y-106620960D01*
X177488881Y-106575937D01*
X177247821Y-106514892D01*
X177247819Y-106514891D01*
X177247816Y-106514891D01*
X177062073Y-106499500D01*
X177062067Y-106499500D01*
X174937933Y-106499500D01*
X174937927Y-106499500D01*
X174752183Y-106514891D01*
X174752179Y-106514891D01*
X174752179Y-106514892D01*
X174511119Y-106575937D01*
X174511116Y-106575938D01*
X174511117Y-106575938D01*
X174283395Y-106675825D01*
X174144607Y-106766499D01*
X174075215Y-106811836D01*
X174075213Y-106811837D01*
X174075214Y-106811837D01*
X173892259Y-106980259D01*
X173739529Y-107176485D01*
X173621170Y-107395194D01*
X173540429Y-107630384D01*
X173540429Y-107630386D01*
X173499500Y-107875665D01*
X173499500Y-108124335D01*
X126094728Y-108124335D01*
X126084613Y-108002267D01*
X126023586Y-107761278D01*
X125923733Y-107533634D01*
X125787766Y-107325522D01*
X125619403Y-107142631D01*
X125423233Y-106989946D01*
X125204606Y-106871631D01*
X124969491Y-106790916D01*
X124850000Y-106770976D01*
X124349999Y-106770976D01*
X124230508Y-106790916D01*
X123995393Y-106871631D01*
X123776766Y-106989946D01*
X123580596Y-107142631D01*
X123412233Y-107325522D01*
X123276266Y-107533634D01*
X123176413Y-107761278D01*
X123115386Y-108002267D01*
X123100000Y-108187951D01*
X123100000Y-109000000D01*
X120000500Y-109000000D01*
X120000500Y-108187933D01*
X119985108Y-108002179D01*
X119924063Y-107761119D01*
X119824173Y-107533393D01*
X119688164Y-107325215D01*
X119519744Y-107142262D01*
X119497612Y-107125036D01*
X119323514Y-106989529D01*
X119323510Y-106989526D01*
X119323509Y-106989526D01*
X119104810Y-106871172D01*
X119104806Y-106871170D01*
X119104805Y-106871170D01*
X118869615Y-106790429D01*
X118624335Y-106749500D01*
X118375665Y-106749500D01*
X118130384Y-106790429D01*
X117895194Y-106871170D01*
X117676485Y-106989529D01*
X117480259Y-107142259D01*
X117480256Y-107142261D01*
X117480256Y-107142262D01*
X117311836Y-107325215D01*
X117266499Y-107394607D01*
X117175825Y-107533395D01*
X117075938Y-107761117D01*
X117014891Y-108002183D01*
X116999500Y-108187927D01*
X116999500Y-110312073D01*
X110348400Y-110312073D01*
X110376319Y-103500000D01*
X144694531Y-103500000D01*
X144714364Y-103726689D01*
X144773261Y-103946497D01*
X144869432Y-104152735D01*
X144999953Y-104339140D01*
X145160859Y-104500046D01*
X145347264Y-104630567D01*
X145347265Y-104630567D01*
X145347266Y-104630568D01*
X145553504Y-104726739D01*
X145773308Y-104785635D01*
X146000000Y-104805468D01*
X146226692Y-104785635D01*
X146446496Y-104726739D01*
X146652734Y-104630568D01*
X146839139Y-104500047D01*
X147000047Y-104339139D01*
X147130568Y-104152734D01*
X147226739Y-103946496D01*
X147285635Y-103726692D01*
X147305468Y-103500000D01*
X147285635Y-103273308D01*
X147226739Y-103053504D01*
X147130568Y-102847266D01*
X147122339Y-102835514D01*
X147060970Y-102747869D01*
X156299500Y-102747869D01*
X156305909Y-102807484D01*
X156316364Y-102835514D01*
X156356204Y-102942331D01*
X156442454Y-103057546D01*
X156557669Y-103143796D01*
X156692517Y-103194091D01*
X156752127Y-103200500D01*
X159247872Y-103200499D01*
X159307483Y-103194091D01*
X159442331Y-103143796D01*
X159557546Y-103057546D01*
X159643796Y-102942331D01*
X159694091Y-102807483D01*
X159700500Y-102747873D01*
X159700500Y-101947398D01*
X184395746Y-101947398D01*
X184400458Y-102046314D01*
X184405746Y-102157330D01*
X184455297Y-102361580D01*
X184542602Y-102552752D01*
X184633978Y-102681070D01*
X184664514Y-102723952D01*
X184816622Y-102868986D01*
X184888964Y-102915478D01*
X184993425Y-102982612D01*
X185032580Y-102998287D01*
X185188543Y-103060725D01*
X185317228Y-103085527D01*
X185394914Y-103100500D01*
X185394915Y-103100500D01*
X186552420Y-103100500D01*
X186552425Y-103100500D01*
X186709218Y-103085528D01*
X186910875Y-103026316D01*
X187097682Y-102930011D01*
X187262886Y-102800092D01*
X187400519Y-102641256D01*
X187505604Y-102459244D01*
X187574344Y-102260633D01*
X187604254Y-102052602D01*
X187599542Y-101953685D01*
X190145740Y-101953685D01*
X190155754Y-102138407D01*
X190205245Y-102316658D01*
X190291899Y-102480103D01*
X190411663Y-102621100D01*
X190558936Y-102733055D01*
X190726830Y-102810731D01*
X190726831Y-102810731D01*
X190726833Y-102810732D01*
X190907503Y-102850500D01*
X191046113Y-102850500D01*
X191046115Y-102850500D01*
X191115011Y-102843007D01*
X191183910Y-102835514D01*
X191359221Y-102776444D01*
X191517736Y-102681070D01*
X191652041Y-102553849D01*
X191755858Y-102400730D01*
X191824331Y-102228875D01*
X191854260Y-102046317D01*
X191849238Y-101953685D01*
X192645740Y-101953685D01*
X192655754Y-102138407D01*
X192705245Y-102316658D01*
X192791899Y-102480103D01*
X192911663Y-102621100D01*
X193058936Y-102733055D01*
X193226830Y-102810731D01*
X193226831Y-102810731D01*
X193226833Y-102810732D01*
X193407503Y-102850500D01*
X193546113Y-102850500D01*
X193546115Y-102850500D01*
X193615011Y-102843007D01*
X193683910Y-102835514D01*
X193859221Y-102776444D01*
X194017736Y-102681070D01*
X194152041Y-102553849D01*
X194255858Y-102400730D01*
X194324331Y-102228875D01*
X194354260Y-102046317D01*
X194344245Y-101861593D01*
X194294754Y-101683341D01*
X194208100Y-101519896D01*
X194088337Y-101378900D01*
X194061824Y-101358745D01*
X193941063Y-101266944D01*
X193773169Y-101189268D01*
X193592497Y-101149500D01*
X193453887Y-101149500D01*
X193453885Y-101149500D01*
X193316091Y-101164485D01*
X193140779Y-101223556D01*
X192982262Y-101318931D01*
X192847960Y-101446149D01*
X192744140Y-101599272D01*
X192675669Y-101771121D01*
X192660837Y-101861593D01*
X192646771Y-101947398D01*
X192645740Y-101953685D01*
X191849238Y-101953685D01*
X191844245Y-101861593D01*
X191794754Y-101683341D01*
X191708100Y-101519896D01*
X191588337Y-101378900D01*
X191561824Y-101358745D01*
X191441063Y-101266944D01*
X191273169Y-101189268D01*
X191092497Y-101149500D01*
X190953887Y-101149500D01*
X190953885Y-101149500D01*
X190816091Y-101164485D01*
X190640779Y-101223556D01*
X190482262Y-101318931D01*
X190347960Y-101446149D01*
X190244140Y-101599272D01*
X190175669Y-101771121D01*
X190160837Y-101861593D01*
X190146771Y-101947398D01*
X190145740Y-101953685D01*
X187599542Y-101953685D01*
X187594254Y-101842670D01*
X187544704Y-101638424D01*
X187544702Y-101638419D01*
X187457397Y-101447247D01*
X187335487Y-101276050D01*
X187335486Y-101276048D01*
X187183378Y-101131014D01*
X187151257Y-101110371D01*
X187006574Y-101017387D01*
X186850609Y-100954949D01*
X186811457Y-100939275D01*
X186811456Y-100939274D01*
X186811454Y-100939274D01*
X186605086Y-100899500D01*
X186605085Y-100899500D01*
X185447575Y-100899500D01*
X185349579Y-100908857D01*
X185290779Y-100914472D01*
X185089126Y-100973683D01*
X184902315Y-101069990D01*
X184737115Y-101199906D01*
X184599479Y-101358745D01*
X184494396Y-101540754D01*
X184425655Y-101739366D01*
X184395746Y-101947396D01*
X184395746Y-101947398D01*
X159700500Y-101947398D01*
X159700499Y-100252128D01*
X159694091Y-100192517D01*
X159643796Y-100057669D01*
X159557546Y-99942454D01*
X159442331Y-99856204D01*
X159307483Y-99805909D01*
X159247873Y-99799500D01*
X159247869Y-99799500D01*
X156752130Y-99799500D01*
X156692515Y-99805909D01*
X156557669Y-99856204D01*
X156442454Y-99942454D01*
X156356204Y-100057668D01*
X156305909Y-100192516D01*
X156299500Y-100252130D01*
X156299500Y-102747869D01*
X147060970Y-102747869D01*
X147000046Y-102660859D01*
X146839140Y-102499953D01*
X146652735Y-102369432D01*
X146446497Y-102273261D01*
X146226689Y-102214364D01*
X146000000Y-102194531D01*
X145773310Y-102214364D01*
X145553502Y-102273261D01*
X145347264Y-102369432D01*
X145160859Y-102499953D01*
X144999953Y-102660859D01*
X144869432Y-102847264D01*
X144773261Y-103053502D01*
X144714364Y-103273310D01*
X144694531Y-103500000D01*
X110376319Y-103500000D01*
X110388614Y-100500000D01*
X120694531Y-100500000D01*
X120714364Y-100726689D01*
X120773261Y-100946497D01*
X120869432Y-101152735D01*
X120999953Y-101339140D01*
X121160859Y-101500046D01*
X121347264Y-101630567D01*
X121347265Y-101630567D01*
X121347266Y-101630568D01*
X121553504Y-101726739D01*
X121773308Y-101785635D01*
X122000000Y-101805468D01*
X122226692Y-101785635D01*
X122446496Y-101726739D01*
X122652734Y-101630568D01*
X122839139Y-101500047D01*
X123000047Y-101339139D01*
X123130568Y-101152734D01*
X123201790Y-101000000D01*
X132294731Y-101000000D01*
X132313777Y-101254154D01*
X132370492Y-101502637D01*
X132463608Y-101739891D01*
X132587042Y-101953685D01*
X132591041Y-101960612D01*
X132749950Y-102159877D01*
X132936783Y-102333232D01*
X133147366Y-102476805D01*
X133376996Y-102587389D01*
X133620542Y-102662513D01*
X133872565Y-102700500D01*
X134127435Y-102700500D01*
X134379458Y-102662513D01*
X134623004Y-102587389D01*
X134852634Y-102476805D01*
X135063217Y-102333232D01*
X135250050Y-102159877D01*
X135408959Y-101960612D01*
X135536393Y-101739888D01*
X135629508Y-101502637D01*
X135686222Y-101254157D01*
X135705268Y-101000000D01*
X135686222Y-100745843D01*
X135629508Y-100497363D01*
X135536393Y-100260112D01*
X135531783Y-100252128D01*
X135417109Y-100053504D01*
X135408959Y-100039388D01*
X135250050Y-99840123D01*
X135063217Y-99666768D01*
X134934523Y-99579026D01*
X145274526Y-99579026D01*
X145347515Y-99630133D01*
X145553673Y-99726266D01*
X145773397Y-99785141D01*
X146000000Y-99804966D01*
X146226602Y-99785141D01*
X146446326Y-99726266D01*
X146652480Y-99630134D01*
X146725472Y-99579025D01*
X146000001Y-98853553D01*
X146000000Y-98853553D01*
X145274526Y-99579025D01*
X145274526Y-99579026D01*
X134934523Y-99579026D01*
X134852634Y-99523195D01*
X134623004Y-99412611D01*
X134379458Y-99337487D01*
X134127435Y-99299500D01*
X133872565Y-99299500D01*
X133620542Y-99337487D01*
X133376996Y-99412611D01*
X133195629Y-99499953D01*
X133147366Y-99523195D01*
X133065477Y-99579026D01*
X132936781Y-99666769D01*
X132749950Y-99840123D01*
X132591038Y-100039392D01*
X132463608Y-100260108D01*
X132370492Y-100497362D01*
X132313777Y-100745845D01*
X132294731Y-101000000D01*
X123201790Y-101000000D01*
X123226739Y-100946496D01*
X123285635Y-100726692D01*
X123305468Y-100500000D01*
X123285635Y-100273308D01*
X123226739Y-100053504D01*
X123130568Y-99847266D01*
X123125566Y-99840123D01*
X123000046Y-99660859D01*
X122839140Y-99499953D01*
X122652735Y-99369432D01*
X122446497Y-99273261D01*
X122226689Y-99214364D01*
X122000000Y-99194531D01*
X121773310Y-99214364D01*
X121553502Y-99273261D01*
X121347264Y-99369432D01*
X121160859Y-99499953D01*
X120999953Y-99660859D01*
X120869432Y-99847264D01*
X120773261Y-100053502D01*
X120714364Y-100273310D01*
X120694531Y-100500000D01*
X110388614Y-100500000D01*
X110396811Y-98499999D01*
X144695033Y-98499999D01*
X144714858Y-98726602D01*
X144773733Y-98946326D01*
X144869866Y-99152484D01*
X144920972Y-99225471D01*
X144920974Y-99225472D01*
X145646446Y-98500001D01*
X146353553Y-98500001D01*
X147079025Y-99225472D01*
X147130134Y-99152480D01*
X147226266Y-98946326D01*
X147285141Y-98726602D01*
X147304966Y-98499999D01*
X147285141Y-98273397D01*
X147226266Y-98053673D01*
X147130133Y-97847515D01*
X147079025Y-97774526D01*
X146353553Y-98500000D01*
X146353553Y-98500001D01*
X145646446Y-98500001D01*
X145646446Y-98500000D01*
X144920973Y-97774526D01*
X144920973Y-97774527D01*
X144869865Y-97847516D01*
X144773733Y-98053672D01*
X144714858Y-98273397D01*
X144695033Y-98499999D01*
X110396811Y-98499999D01*
X110401233Y-97420973D01*
X145274526Y-97420973D01*
X146000000Y-98146446D01*
X146000001Y-98146446D01*
X146725472Y-97420974D01*
X146725471Y-97420972D01*
X146652484Y-97369866D01*
X146446326Y-97273733D01*
X146226602Y-97214858D01*
X146000000Y-97195033D01*
X145773397Y-97214858D01*
X145553672Y-97273733D01*
X145347516Y-97369865D01*
X145274527Y-97420973D01*
X145274526Y-97420973D01*
X110401233Y-97420973D01*
X110403148Y-96953685D01*
X185145740Y-96953685D01*
X185155754Y-97138407D01*
X185205245Y-97316658D01*
X185291899Y-97480103D01*
X185411663Y-97621100D01*
X185558936Y-97733055D01*
X185726830Y-97810731D01*
X185726831Y-97810731D01*
X185726833Y-97810732D01*
X185907503Y-97850500D01*
X186046113Y-97850500D01*
X186046115Y-97850500D01*
X186115011Y-97843006D01*
X186183910Y-97835514D01*
X186359221Y-97776444D01*
X186517736Y-97681070D01*
X186652041Y-97553849D01*
X186755858Y-97400730D01*
X186815914Y-97250000D01*
X189900000Y-97250000D01*
X189900000Y-97552399D01*
X189914965Y-97709125D01*
X189974149Y-97910687D01*
X190070412Y-98097412D01*
X190200269Y-98262538D01*
X190359036Y-98400111D01*
X190540963Y-98505146D01*
X190739488Y-98573856D01*
X190750000Y-98575368D01*
X190750000Y-97250000D01*
X191250000Y-97250000D01*
X191250000Y-98571257D01*
X191361410Y-98544229D01*
X191552505Y-98456960D01*
X191723621Y-98335107D01*
X191868592Y-98183066D01*
X191982166Y-98006344D01*
X192060244Y-97811314D01*
X192100000Y-97605038D01*
X192100000Y-97250000D01*
X191250000Y-97250000D01*
X190750000Y-97250000D01*
X189900000Y-97250000D01*
X186815914Y-97250000D01*
X186824331Y-97228875D01*
X186854260Y-97046317D01*
X186844245Y-96861593D01*
X186823018Y-96785141D01*
X186813261Y-96750000D01*
X189900000Y-96750000D01*
X190750000Y-96750000D01*
X190750000Y-95428742D01*
X190638589Y-95455770D01*
X190447494Y-95543039D01*
X190276378Y-95664892D01*
X190131407Y-95816933D01*
X190017833Y-95993655D01*
X189939755Y-96188685D01*
X189900000Y-96394962D01*
X189900000Y-96750000D01*
X186813261Y-96750000D01*
X186794754Y-96683341D01*
X186708100Y-96519896D01*
X186588336Y-96378899D01*
X186441063Y-96266944D01*
X186273169Y-96189268D01*
X186092497Y-96149500D01*
X185953887Y-96149500D01*
X185953885Y-96149500D01*
X185816091Y-96164485D01*
X185640779Y-96223556D01*
X185482262Y-96318931D01*
X185347960Y-96446149D01*
X185244140Y-96599272D01*
X185175669Y-96771121D01*
X185145740Y-96953685D01*
X110403148Y-96953685D01*
X110404684Y-96579026D01*
X121274526Y-96579026D01*
X121347515Y-96630133D01*
X121553673Y-96726266D01*
X121773397Y-96785141D01*
X122000000Y-96804966D01*
X122226602Y-96785141D01*
X122446326Y-96726266D01*
X122652480Y-96630134D01*
X122725472Y-96579025D01*
X122000001Y-95853553D01*
X122000000Y-95853553D01*
X121274526Y-96579025D01*
X121274526Y-96579026D01*
X110404684Y-96579026D01*
X110409106Y-95499999D01*
X120695033Y-95499999D01*
X120714858Y-95726602D01*
X120773733Y-95946326D01*
X120869866Y-96152484D01*
X120920972Y-96225471D01*
X120920974Y-96225472D01*
X121646446Y-95500001D01*
X122353553Y-95500001D01*
X123079025Y-96225472D01*
X123130134Y-96152480D01*
X123226266Y-95946326D01*
X123285141Y-95726602D01*
X123304966Y-95499999D01*
X123293307Y-95366737D01*
X156986813Y-95366737D01*
X157147619Y-95476372D01*
X157377179Y-95586922D01*
X157620654Y-95662025D01*
X157872603Y-95700000D01*
X158127397Y-95700000D01*
X158379345Y-95662025D01*
X158622823Y-95586921D01*
X158852383Y-95476372D01*
X158928272Y-95424631D01*
X191250000Y-95424631D01*
X191250000Y-96750000D01*
X192100000Y-96750000D01*
X192100000Y-96447601D01*
X192085034Y-96290874D01*
X192025850Y-96089312D01*
X191929587Y-95902587D01*
X191799730Y-95737461D01*
X191640963Y-95599888D01*
X191459036Y-95494853D01*
X191260511Y-95426143D01*
X191250000Y-95424631D01*
X158928272Y-95424631D01*
X159013185Y-95366737D01*
X158000000Y-94353553D01*
X156986813Y-95366737D01*
X123293307Y-95366737D01*
X123285141Y-95273397D01*
X123226266Y-95053673D01*
X123130133Y-94847515D01*
X123079025Y-94774526D01*
X122353553Y-95500000D01*
X122353553Y-95500001D01*
X121646446Y-95500001D01*
X121646446Y-95500000D01*
X120920973Y-94774526D01*
X120920973Y-94774527D01*
X120869865Y-94847516D01*
X120773733Y-95053672D01*
X120714858Y-95273397D01*
X120695033Y-95499999D01*
X110409106Y-95499999D01*
X110413528Y-94420973D01*
X121274526Y-94420973D01*
X122000000Y-95146446D01*
X122000001Y-95146446D01*
X122725472Y-94420974D01*
X122725471Y-94420972D01*
X122652484Y-94369866D01*
X122446326Y-94273733D01*
X122226602Y-94214858D01*
X122000000Y-94195033D01*
X121773397Y-94214858D01*
X121553672Y-94273733D01*
X121347516Y-94369865D01*
X121274527Y-94420973D01*
X121274526Y-94420973D01*
X110413528Y-94420973D01*
X110416278Y-93750000D01*
X132300000Y-93750000D01*
X132300000Y-94747824D01*
X132306402Y-94807375D01*
X132356647Y-94942089D01*
X132442811Y-95057188D01*
X132557910Y-95143352D01*
X132692624Y-95193597D01*
X132752176Y-95200000D01*
X133750000Y-95200000D01*
X133750000Y-93750000D01*
X134250000Y-93750000D01*
X134250000Y-95200000D01*
X135247824Y-95200000D01*
X135307375Y-95193597D01*
X135442089Y-95143352D01*
X135557188Y-95057188D01*
X135643352Y-94942089D01*
X135693597Y-94807375D01*
X135700000Y-94747824D01*
X135700000Y-94000000D01*
X156295232Y-94000000D01*
X156314273Y-94254080D01*
X156370971Y-94502491D01*
X156464057Y-94739668D01*
X156591456Y-94960331D01*
X156633452Y-95012993D01*
X156633453Y-95012993D01*
X157646447Y-94000001D01*
X158353553Y-94000001D01*
X159366545Y-95012993D01*
X159366546Y-95012992D01*
X159408545Y-94960328D01*
X159535942Y-94739669D01*
X159629028Y-94502491D01*
X159685726Y-94254080D01*
X159704767Y-94000000D01*
X159685726Y-93745919D01*
X159629028Y-93497508D01*
X159535942Y-93260330D01*
X159408545Y-93039671D01*
X159366546Y-92987005D01*
X158353553Y-94000000D01*
X158353553Y-94000001D01*
X157646447Y-94000001D01*
X157646447Y-94000000D01*
X156633453Y-92987006D01*
X156591453Y-93039673D01*
X156464057Y-93260331D01*
X156370971Y-93497508D01*
X156314273Y-93745919D01*
X156295232Y-94000000D01*
X135700000Y-94000000D01*
X135700000Y-93750000D01*
X134250000Y-93750000D01*
X133750000Y-93750000D01*
X132300000Y-93750000D01*
X110416278Y-93750000D01*
X110418327Y-93250000D01*
X132300000Y-93250000D01*
X133750000Y-93250000D01*
X133750000Y-91800000D01*
X134250000Y-91800000D01*
X134250000Y-93250000D01*
X135700000Y-93250000D01*
X135700000Y-92633261D01*
X156986813Y-92633261D01*
X158000000Y-93646447D01*
X158000001Y-93646447D01*
X159013185Y-92633261D01*
X158852379Y-92523625D01*
X158622823Y-92413078D01*
X158379345Y-92337974D01*
X158127397Y-92300000D01*
X157872603Y-92300000D01*
X157620654Y-92337974D01*
X157377179Y-92413077D01*
X157147615Y-92523628D01*
X156986813Y-92633261D01*
X135700000Y-92633261D01*
X135700000Y-92252176D01*
X135693597Y-92192624D01*
X135643352Y-92057910D01*
X135560622Y-91947398D01*
X184395746Y-91947398D01*
X184400458Y-92046314D01*
X184405746Y-92157330D01*
X184455297Y-92361580D01*
X184542602Y-92552752D01*
X184633978Y-92681070D01*
X184664514Y-92723952D01*
X184816622Y-92868986D01*
X184888964Y-92915478D01*
X184993425Y-92982612D01*
X185004401Y-92987006D01*
X185188543Y-93060725D01*
X185317228Y-93085527D01*
X185394914Y-93100500D01*
X185394915Y-93100500D01*
X186552420Y-93100500D01*
X186552425Y-93100500D01*
X186709218Y-93085528D01*
X186910875Y-93026316D01*
X187097682Y-92930011D01*
X187262886Y-92800092D01*
X187400519Y-92641256D01*
X187505604Y-92459244D01*
X187574344Y-92260633D01*
X187604254Y-92052602D01*
X187599542Y-91953685D01*
X190145740Y-91953685D01*
X190155754Y-92138407D01*
X190205245Y-92316658D01*
X190291899Y-92480103D01*
X190411663Y-92621100D01*
X190558936Y-92733055D01*
X190726830Y-92810731D01*
X190726831Y-92810731D01*
X190726833Y-92810732D01*
X190907503Y-92850500D01*
X191046113Y-92850500D01*
X191046115Y-92850500D01*
X191115011Y-92843006D01*
X191183910Y-92835514D01*
X191359221Y-92776444D01*
X191517736Y-92681070D01*
X191652041Y-92553849D01*
X191755858Y-92400730D01*
X191824331Y-92228875D01*
X191854260Y-92046317D01*
X191849238Y-91953685D01*
X192645740Y-91953685D01*
X192655754Y-92138407D01*
X192705245Y-92316658D01*
X192791899Y-92480103D01*
X192911663Y-92621100D01*
X193058936Y-92733055D01*
X193226830Y-92810731D01*
X193226831Y-92810731D01*
X193226833Y-92810732D01*
X193407503Y-92850500D01*
X193546113Y-92850500D01*
X193546115Y-92850500D01*
X193615011Y-92843006D01*
X193683910Y-92835514D01*
X193859221Y-92776444D01*
X194017736Y-92681070D01*
X194152041Y-92553849D01*
X194255858Y-92400730D01*
X194324331Y-92228875D01*
X194354260Y-92046317D01*
X194344245Y-91861593D01*
X194328921Y-91806402D01*
X194294754Y-91683341D01*
X194208100Y-91519896D01*
X194088336Y-91378899D01*
X193941063Y-91266944D01*
X193773169Y-91189268D01*
X193592497Y-91149500D01*
X193453887Y-91149500D01*
X193453885Y-91149500D01*
X193316091Y-91164485D01*
X193140779Y-91223556D01*
X192982262Y-91318931D01*
X192847960Y-91446149D01*
X192744140Y-91599272D01*
X192675669Y-91771121D01*
X192660837Y-91861593D01*
X192646771Y-91947398D01*
X192645740Y-91953685D01*
X191849238Y-91953685D01*
X191844245Y-91861593D01*
X191828921Y-91806402D01*
X191794754Y-91683341D01*
X191708100Y-91519896D01*
X191588336Y-91378899D01*
X191441063Y-91266944D01*
X191273169Y-91189268D01*
X191092497Y-91149500D01*
X190953887Y-91149500D01*
X190953885Y-91149500D01*
X190816091Y-91164485D01*
X190640779Y-91223556D01*
X190482262Y-91318931D01*
X190347960Y-91446149D01*
X190244140Y-91599272D01*
X190175669Y-91771121D01*
X190160837Y-91861593D01*
X190146771Y-91947398D01*
X190145740Y-91953685D01*
X187599542Y-91953685D01*
X187594254Y-91842670D01*
X187544704Y-91638424D01*
X187526823Y-91599270D01*
X187457397Y-91447247D01*
X187335487Y-91276050D01*
X187335486Y-91276048D01*
X187183378Y-91131014D01*
X187151257Y-91110371D01*
X187006574Y-91017387D01*
X186850609Y-90954949D01*
X186811457Y-90939275D01*
X186811456Y-90939274D01*
X186811454Y-90939274D01*
X186605086Y-90899500D01*
X186605085Y-90899500D01*
X185447575Y-90899500D01*
X185349579Y-90908857D01*
X185290779Y-90914472D01*
X185089126Y-90973683D01*
X184902315Y-91069990D01*
X184737115Y-91199906D01*
X184599479Y-91358745D01*
X184494396Y-91540754D01*
X184425655Y-91739366D01*
X184395746Y-91947396D01*
X184395746Y-91947398D01*
X135560622Y-91947398D01*
X135557188Y-91942811D01*
X135442089Y-91856647D01*
X135307375Y-91806402D01*
X135247824Y-91800000D01*
X134250000Y-91800000D01*
X133750000Y-91800000D01*
X132752176Y-91800000D01*
X132692624Y-91806402D01*
X132557910Y-91856647D01*
X132442811Y-91942811D01*
X132356647Y-92057910D01*
X132306402Y-92192624D01*
X132300000Y-92252176D01*
X132300000Y-93250000D01*
X110418327Y-93250000D01*
X110442712Y-87299999D01*
X113094753Y-87299999D01*
X113113719Y-87601452D01*
X113170319Y-87898163D01*
X113263658Y-88185428D01*
X113392268Y-88458739D01*
X113516968Y-88655234D01*
X113554115Y-88713768D01*
X113706449Y-88897909D01*
X113746650Y-88946503D01*
X113966839Y-89153276D01*
X114211204Y-89330816D01*
X114343550Y-89403573D01*
X114475896Y-89476332D01*
X114616317Y-89531928D01*
X114756737Y-89587525D01*
X114911141Y-89627168D01*
X115049302Y-89662642D01*
X115298314Y-89694100D01*
X115348972Y-89700500D01*
X115348973Y-89700500D01*
X115651027Y-89700500D01*
X115651028Y-89700500D01*
X115694360Y-89695025D01*
X115950698Y-89662642D01*
X116243262Y-89587525D01*
X116524104Y-89476332D01*
X116788795Y-89330816D01*
X116788794Y-89330816D01*
X117033160Y-89153276D01*
X117057079Y-89130814D01*
X117253349Y-88946504D01*
X117445885Y-88713768D01*
X117607733Y-88458736D01*
X117736341Y-88185430D01*
X117829681Y-87898160D01*
X117886280Y-87601457D01*
X117905246Y-87300000D01*
X117886280Y-86998543D01*
X117829681Y-86701840D01*
X117736341Y-86414570D01*
X117607733Y-86141264D01*
X117607732Y-86141263D01*
X117607731Y-86141260D01*
X117533440Y-86024197D01*
X117445885Y-85886232D01*
X117253349Y-85653496D01*
X117185733Y-85590000D01*
X186554531Y-85590000D01*
X186574364Y-85816689D01*
X186633261Y-86036497D01*
X186729432Y-86242735D01*
X186859953Y-86429140D01*
X187020859Y-86590046D01*
X187207264Y-86720567D01*
X187207265Y-86720567D01*
X187207266Y-86720568D01*
X187413504Y-86816739D01*
X187633308Y-86875635D01*
X187860000Y-86895468D01*
X188086692Y-86875635D01*
X188306496Y-86816739D01*
X188512734Y-86720568D01*
X188699139Y-86590047D01*
X188860047Y-86429139D01*
X188990568Y-86242734D01*
X189086739Y-86036496D01*
X189145635Y-85816692D01*
X189165468Y-85590000D01*
X189145635Y-85363308D01*
X189086739Y-85143504D01*
X188990568Y-84937266D01*
X188964124Y-84899500D01*
X188860046Y-84750859D01*
X188699140Y-84589953D01*
X188512735Y-84459432D01*
X188306497Y-84363261D01*
X188086689Y-84304364D01*
X187859999Y-84284531D01*
X187633310Y-84304364D01*
X187413502Y-84363261D01*
X187207264Y-84459432D01*
X187020859Y-84589953D01*
X186859953Y-84750859D01*
X186729432Y-84937264D01*
X186633261Y-85143502D01*
X186574364Y-85363310D01*
X186554531Y-85590000D01*
X117185733Y-85590000D01*
X117033160Y-85446723D01*
X116788795Y-85269183D01*
X116524102Y-85123667D01*
X116243262Y-85012474D01*
X115950700Y-84937358D01*
X115651028Y-84899500D01*
X115651027Y-84899500D01*
X115348973Y-84899500D01*
X115348972Y-84899500D01*
X115049299Y-84937358D01*
X114756737Y-85012474D01*
X114475897Y-85123667D01*
X114211204Y-85269183D01*
X113966839Y-85446723D01*
X113746650Y-85653496D01*
X113554114Y-85886233D01*
X113392268Y-86141260D01*
X113263658Y-86414571D01*
X113170319Y-86701836D01*
X113113719Y-86998547D01*
X113094753Y-87299999D01*
X110442712Y-87299999D01*
X110463245Y-82289999D01*
X166714531Y-82289999D01*
X166734364Y-82516689D01*
X166793261Y-82736497D01*
X166889432Y-82942735D01*
X167019953Y-83129140D01*
X167180859Y-83290046D01*
X167367264Y-83420567D01*
X167367265Y-83420567D01*
X167367266Y-83420568D01*
X167573504Y-83516739D01*
X167793308Y-83575635D01*
X167944436Y-83588857D01*
X168019999Y-83595468D01*
X168019999Y-83595467D01*
X168020000Y-83595468D01*
X168246692Y-83575635D01*
X168466496Y-83516739D01*
X168672734Y-83420568D01*
X168859139Y-83290047D01*
X169020047Y-83129139D01*
X169150568Y-82942734D01*
X169246739Y-82736496D01*
X169305635Y-82516692D01*
X169325468Y-82290000D01*
X169325468Y-82289999D01*
X171714531Y-82289999D01*
X171734364Y-82516689D01*
X171793261Y-82736497D01*
X171889432Y-82942735D01*
X172019953Y-83129140D01*
X172180859Y-83290046D01*
X172367264Y-83420567D01*
X172367265Y-83420567D01*
X172367266Y-83420568D01*
X172573504Y-83516739D01*
X172793308Y-83575635D01*
X172944436Y-83588857D01*
X173019999Y-83595468D01*
X173019999Y-83595467D01*
X173020000Y-83595468D01*
X173246692Y-83575635D01*
X173466496Y-83516739D01*
X173672734Y-83420568D01*
X173859139Y-83290047D01*
X174020047Y-83129139D01*
X174150568Y-82942734D01*
X174246739Y-82736496D01*
X174305635Y-82516692D01*
X174315528Y-82403610D01*
X177699942Y-82403610D01*
X177746766Y-82440055D01*
X177965393Y-82558368D01*
X178200506Y-82639083D01*
X178445707Y-82680000D01*
X178694293Y-82680000D01*
X178939493Y-82639083D01*
X179174606Y-82558368D01*
X179393233Y-82440053D01*
X179440056Y-82403609D01*
X179264316Y-82227869D01*
X182069500Y-82227869D01*
X182075909Y-82287484D01*
X182101056Y-82354906D01*
X182126204Y-82422331D01*
X182212454Y-82537546D01*
X182327669Y-82623796D01*
X182462517Y-82674091D01*
X182522127Y-82680500D01*
X184617872Y-82680499D01*
X184677483Y-82674091D01*
X184812331Y-82623796D01*
X184927546Y-82537546D01*
X185013796Y-82422331D01*
X185064091Y-82287483D01*
X185070500Y-82227873D01*
X185070499Y-80132128D01*
X185064091Y-80072517D01*
X185013796Y-79937669D01*
X184927546Y-79822454D01*
X184812331Y-79736204D01*
X184677483Y-79685909D01*
X184617873Y-79679500D01*
X184617869Y-79679500D01*
X182522130Y-79679500D01*
X182462515Y-79685909D01*
X182327669Y-79736204D01*
X182212454Y-79822454D01*
X182126204Y-79937668D01*
X182075909Y-80072516D01*
X182069500Y-80132130D01*
X182069500Y-82227869D01*
X179264316Y-82227869D01*
X178570000Y-81533553D01*
X177699942Y-82403609D01*
X177699942Y-82403610D01*
X174315528Y-82403610D01*
X174325468Y-82290000D01*
X174320032Y-82227872D01*
X174305635Y-82063310D01*
X174305635Y-82063308D01*
X174246739Y-81843504D01*
X174150568Y-81637266D01*
X174020047Y-81450861D01*
X174020046Y-81450859D01*
X173859140Y-81289953D01*
X173702109Y-81180000D01*
X177064858Y-81180000D01*
X177085386Y-81427732D01*
X177146413Y-81668721D01*
X177246268Y-81896370D01*
X177346563Y-82049882D01*
X177346564Y-82049882D01*
X178216447Y-81180001D01*
X178923553Y-81180001D01*
X179793434Y-82049882D01*
X179893730Y-81896369D01*
X179993586Y-81668721D01*
X180054613Y-81427732D01*
X180075141Y-81180000D01*
X180054613Y-80932267D01*
X179993586Y-80691278D01*
X179893730Y-80463630D01*
X179793434Y-80310116D01*
X178923553Y-81180000D01*
X178923553Y-81180001D01*
X178216447Y-81180001D01*
X178216447Y-81180000D01*
X177346564Y-80310116D01*
X177246266Y-80463634D01*
X177146413Y-80691278D01*
X177085386Y-80932267D01*
X177064858Y-81180000D01*
X173702109Y-81180000D01*
X173672735Y-81159432D01*
X173466497Y-81063261D01*
X173246689Y-81004364D01*
X173020000Y-80984531D01*
X172793310Y-81004364D01*
X172573502Y-81063261D01*
X172367264Y-81159432D01*
X172180859Y-81289953D01*
X172019953Y-81450859D01*
X171889432Y-81637264D01*
X171793261Y-81843502D01*
X171734364Y-82063310D01*
X171714531Y-82289999D01*
X169325468Y-82289999D01*
X169320032Y-82227872D01*
X169305635Y-82063310D01*
X169305635Y-82063308D01*
X169246739Y-81843504D01*
X169150568Y-81637266D01*
X169020047Y-81450861D01*
X169020046Y-81450859D01*
X168859140Y-81289953D01*
X168672735Y-81159432D01*
X168466497Y-81063261D01*
X168246689Y-81004364D01*
X168020000Y-80984531D01*
X167793310Y-81004364D01*
X167573502Y-81063261D01*
X167367264Y-81159432D01*
X167180859Y-81289953D01*
X167019953Y-81450859D01*
X166889432Y-81637264D01*
X166793261Y-81843502D01*
X166734364Y-82063310D01*
X166714531Y-82289999D01*
X110463245Y-82289999D01*
X110472809Y-79956390D01*
X177699942Y-79956390D01*
X178570000Y-80826447D01*
X178570001Y-80826447D01*
X179440057Y-79956390D01*
X179440056Y-79956388D01*
X179393235Y-79919947D01*
X179174606Y-79801631D01*
X178939493Y-79720916D01*
X178694293Y-79680000D01*
X178445707Y-79680000D01*
X178200506Y-79720916D01*
X177965393Y-79801631D01*
X177746764Y-79919946D01*
X177699942Y-79956388D01*
X177699942Y-79956390D01*
X110472809Y-79956390D01*
X110474888Y-79449026D01*
X147154526Y-79449026D01*
X147227515Y-79500133D01*
X147433673Y-79596266D01*
X147653397Y-79655141D01*
X147879999Y-79674966D01*
X148106602Y-79655141D01*
X148326326Y-79596266D01*
X148532480Y-79500134D01*
X148605472Y-79449025D01*
X147880001Y-78723553D01*
X147880000Y-78723553D01*
X147154526Y-79449025D01*
X147154526Y-79449026D01*
X110474888Y-79449026D01*
X110479310Y-78370000D01*
X146575033Y-78370000D01*
X146594858Y-78596602D01*
X146653733Y-78816326D01*
X146749866Y-79022484D01*
X146800972Y-79095471D01*
X146800974Y-79095472D01*
X147526446Y-78370001D01*
X148233553Y-78370001D01*
X148959025Y-79095472D01*
X149010134Y-79022480D01*
X149106266Y-78816326D01*
X149165141Y-78596602D01*
X149184966Y-78370000D01*
X156734531Y-78370000D01*
X156754364Y-78596689D01*
X156813261Y-78816497D01*
X156909432Y-79022735D01*
X157039953Y-79209140D01*
X157200859Y-79370046D01*
X157387264Y-79500567D01*
X157387265Y-79500567D01*
X157387266Y-79500568D01*
X157593504Y-79596739D01*
X157813308Y-79655635D01*
X158040000Y-79675468D01*
X158266692Y-79655635D01*
X158486496Y-79596739D01*
X158692734Y-79500568D01*
X158879139Y-79370047D01*
X159040047Y-79209139D01*
X159170568Y-79022734D01*
X159266739Y-78816496D01*
X159325635Y-78596692D01*
X159345468Y-78370000D01*
X159325635Y-78143308D01*
X159266739Y-77923504D01*
X159195158Y-77770000D01*
X162345000Y-77770000D01*
X162345000Y-78417824D01*
X162351402Y-78477375D01*
X162401647Y-78612089D01*
X162487811Y-78727188D01*
X162602910Y-78813352D01*
X162737624Y-78863597D01*
X162797176Y-78870000D01*
X163445000Y-78870000D01*
X163445000Y-77770000D01*
X163945000Y-77770000D01*
X163945000Y-78870000D01*
X164592824Y-78870000D01*
X164652375Y-78863597D01*
X164787089Y-78813352D01*
X164902188Y-78727188D01*
X164988352Y-78612089D01*
X165038597Y-78477375D01*
X165045000Y-78417824D01*
X165045000Y-77770000D01*
X163945000Y-77770000D01*
X163445000Y-77770000D01*
X162345000Y-77770000D01*
X159195158Y-77770000D01*
X159170568Y-77717266D01*
X159119635Y-77644526D01*
X159040046Y-77530859D01*
X158879140Y-77369953D01*
X158692735Y-77239432D01*
X158486497Y-77143261D01*
X158266689Y-77084364D01*
X158040000Y-77064531D01*
X157813310Y-77084364D01*
X157593502Y-77143261D01*
X157387264Y-77239432D01*
X157200859Y-77369953D01*
X157039953Y-77530859D01*
X156909432Y-77717264D01*
X156813261Y-77923502D01*
X156754364Y-78143310D01*
X156734531Y-78370000D01*
X149184966Y-78370000D01*
X149165141Y-78143397D01*
X149106266Y-77923673D01*
X149010133Y-77717515D01*
X148959025Y-77644526D01*
X148233553Y-78370000D01*
X148233553Y-78370001D01*
X147526446Y-78370001D01*
X147526446Y-78370000D01*
X146800973Y-77644526D01*
X146800973Y-77644527D01*
X146749865Y-77717516D01*
X146653733Y-77923672D01*
X146594858Y-78143397D01*
X146575033Y-78370000D01*
X110479310Y-78370000D01*
X110483732Y-77290973D01*
X147154526Y-77290973D01*
X147880000Y-78016446D01*
X147880001Y-78016446D01*
X148605472Y-77290974D01*
X148605471Y-77290972D01*
X148532484Y-77239866D01*
X148326326Y-77143733D01*
X148106602Y-77084858D01*
X147880000Y-77065033D01*
X147653397Y-77084858D01*
X147433672Y-77143733D01*
X147227516Y-77239865D01*
X147154527Y-77290973D01*
X147154526Y-77290973D01*
X110483732Y-77290973D01*
X110492526Y-75145321D01*
X157143100Y-75145321D01*
X157182734Y-75331786D01*
X157260277Y-75505951D01*
X157372328Y-75660176D01*
X157514001Y-75787739D01*
X157679098Y-75883058D01*
X157766361Y-75911411D01*
X157860406Y-75941968D01*
X158002475Y-75956900D01*
X160677676Y-75956900D01*
X160709769Y-75961125D01*
X160857348Y-76000668D01*
X161047725Y-76010646D01*
X161236016Y-75980823D01*
X161413992Y-75912505D01*
X161573875Y-75808676D01*
X161708676Y-75673875D01*
X161812505Y-75513992D01*
X161880823Y-75336016D01*
X161910646Y-75147725D01*
X161901855Y-74979999D01*
X162339340Y-74979999D01*
X162359936Y-75215407D01*
X162391120Y-75331786D01*
X162421097Y-75443663D01*
X162520965Y-75657830D01*
X162656505Y-75851401D01*
X162656507Y-75851403D01*
X162656508Y-75851404D01*
X162778818Y-75973714D01*
X162810114Y-76026460D01*
X162812303Y-76087753D01*
X162784850Y-76142597D01*
X162734472Y-76177576D01*
X162602913Y-76226646D01*
X162487811Y-76312811D01*
X162401647Y-76427910D01*
X162351402Y-76562624D01*
X162345000Y-76622176D01*
X162345000Y-77270000D01*
X165045000Y-77270000D01*
X165045000Y-76622176D01*
X165038597Y-76562624D01*
X164988352Y-76427910D01*
X164902188Y-76312811D01*
X164818284Y-76250000D01*
X167409340Y-76250000D01*
X167429936Y-76485407D01*
X167466583Y-76622176D01*
X167491097Y-76713663D01*
X167590965Y-76927830D01*
X167726505Y-77121401D01*
X167893599Y-77288495D01*
X168087170Y-77424035D01*
X168301337Y-77523903D01*
X168529592Y-77585063D01*
X168765000Y-77605659D01*
X169000408Y-77585063D01*
X169228663Y-77523903D01*
X169442830Y-77424035D01*
X169636401Y-77288495D01*
X169803495Y-77121401D01*
X169939035Y-76927830D01*
X170038903Y-76713663D01*
X170100063Y-76485408D01*
X170120659Y-76250000D01*
X170100063Y-76014592D01*
X170038903Y-75786337D01*
X169939035Y-75572171D01*
X169839486Y-75429999D01*
X186554531Y-75429999D01*
X186574364Y-75656689D01*
X186633261Y-75876497D01*
X186729432Y-76082735D01*
X186859953Y-76269140D01*
X187020859Y-76430046D01*
X187207264Y-76560567D01*
X187207265Y-76560567D01*
X187207266Y-76560568D01*
X187413504Y-76656739D01*
X187633308Y-76715635D01*
X187860000Y-76735468D01*
X188086692Y-76715635D01*
X188306496Y-76656739D01*
X188512734Y-76560568D01*
X188699139Y-76430047D01*
X188860047Y-76269139D01*
X188990568Y-76082734D01*
X189086739Y-75876496D01*
X189145635Y-75656692D01*
X189165468Y-75430000D01*
X189145635Y-75203308D01*
X189086739Y-74983504D01*
X188990568Y-74777266D01*
X188987725Y-74773206D01*
X188860046Y-74590859D01*
X188699140Y-74429953D01*
X188512735Y-74299432D01*
X188306497Y-74203261D01*
X188086689Y-74144364D01*
X187859999Y-74124531D01*
X187633310Y-74144364D01*
X187413502Y-74203261D01*
X187207264Y-74299432D01*
X187020859Y-74429953D01*
X186859953Y-74590859D01*
X186729432Y-74777264D01*
X186633261Y-74983502D01*
X186574364Y-75203310D01*
X186554531Y-75429999D01*
X169839486Y-75429999D01*
X169803495Y-75378599D01*
X169636401Y-75211505D01*
X169450402Y-75081267D01*
X169411539Y-75036951D01*
X169397528Y-74979694D01*
X169411539Y-74922437D01*
X169450405Y-74878119D01*
X169636078Y-74748109D01*
X169803106Y-74581081D01*
X169938600Y-74387576D01*
X170038430Y-74173492D01*
X170095636Y-73960000D01*
X167434364Y-73960000D01*
X167491569Y-74173492D01*
X167591399Y-74387576D01*
X167726893Y-74581081D01*
X167893918Y-74748106D01*
X168079595Y-74878119D01*
X168118460Y-74922437D01*
X168132471Y-74979694D01*
X168118460Y-75036951D01*
X168079595Y-75081269D01*
X167893595Y-75211508D01*
X167726505Y-75378598D01*
X167590965Y-75572170D01*
X167491097Y-75786336D01*
X167429936Y-76014592D01*
X167409340Y-76250000D01*
X164818284Y-76250000D01*
X164787088Y-76226647D01*
X164655528Y-76177577D01*
X164605149Y-76142597D01*
X164577696Y-76087752D01*
X164579885Y-76026460D01*
X164611178Y-75973717D01*
X164733495Y-75851401D01*
X164869035Y-75657830D01*
X164968903Y-75443663D01*
X165030063Y-75215408D01*
X165050659Y-74980000D01*
X165032921Y-74777264D01*
X165030063Y-74744592D01*
X164988871Y-74590861D01*
X164968903Y-74516337D01*
X164869035Y-74302171D01*
X164733495Y-74108599D01*
X164566401Y-73941505D01*
X164380839Y-73811573D01*
X164341974Y-73767255D01*
X164327964Y-73709999D01*
X164341975Y-73652742D01*
X164380837Y-73608428D01*
X164566401Y-73478495D01*
X164733495Y-73311401D01*
X164869035Y-73117830D01*
X164968903Y-72903663D01*
X165030063Y-72675408D01*
X165050659Y-72440000D01*
X165030063Y-72204592D01*
X164968903Y-71976337D01*
X164869035Y-71762171D01*
X164733495Y-71568599D01*
X164566401Y-71401505D01*
X164380839Y-71271573D01*
X164341975Y-71227257D01*
X164327964Y-71170000D01*
X167409340Y-71170000D01*
X167429936Y-71405407D01*
X167473663Y-71568598D01*
X167491097Y-71633663D01*
X167590965Y-71847830D01*
X167726505Y-72041401D01*
X167893599Y-72208495D01*
X168079597Y-72338732D01*
X168118460Y-72383048D01*
X168132471Y-72440305D01*
X168118461Y-72497561D01*
X168079595Y-72541880D01*
X167893919Y-72671892D01*
X167726890Y-72838921D01*
X167591400Y-73032421D01*
X167491569Y-73246507D01*
X167434364Y-73459999D01*
X167434364Y-73460000D01*
X170095636Y-73460000D01*
X170095635Y-73459999D01*
X170038430Y-73246507D01*
X169938599Y-73032421D01*
X169803109Y-72838921D01*
X169636081Y-72671893D01*
X169450404Y-72541880D01*
X169411539Y-72497562D01*
X169397528Y-72440305D01*
X169411539Y-72383048D01*
X169450402Y-72338732D01*
X169636401Y-72208495D01*
X169729350Y-72115546D01*
X179549500Y-72115546D01*
X179555909Y-72175161D01*
X179568342Y-72208494D01*
X179606204Y-72310008D01*
X179692454Y-72425223D01*
X179807669Y-72511473D01*
X179942517Y-72561768D01*
X180002127Y-72568177D01*
X182097872Y-72568176D01*
X182157483Y-72561768D01*
X182292331Y-72511473D01*
X182407546Y-72425223D01*
X182493796Y-72310008D01*
X182501259Y-72289999D01*
X187084531Y-72289999D01*
X187104364Y-72516689D01*
X187163261Y-72736497D01*
X187259432Y-72942735D01*
X187389953Y-73129140D01*
X187550859Y-73290046D01*
X187737264Y-73420567D01*
X187737265Y-73420567D01*
X187737266Y-73420568D01*
X187943504Y-73516739D01*
X188163308Y-73575635D01*
X188390000Y-73595468D01*
X188616692Y-73575635D01*
X188836496Y-73516739D01*
X189042734Y-73420568D01*
X189229139Y-73290047D01*
X189390047Y-73129139D01*
X189520568Y-72942734D01*
X189616739Y-72736496D01*
X189675635Y-72516692D01*
X189695468Y-72290000D01*
X189675635Y-72063308D01*
X189616739Y-71843504D01*
X189520568Y-71637266D01*
X189518045Y-71633663D01*
X189390046Y-71450859D01*
X189229140Y-71289953D01*
X189042735Y-71159432D01*
X188836497Y-71063261D01*
X188616689Y-71004364D01*
X188390000Y-70984531D01*
X188163310Y-71004364D01*
X187943502Y-71063261D01*
X187737264Y-71159432D01*
X187550859Y-71289953D01*
X187389953Y-71450859D01*
X187259432Y-71637264D01*
X187163261Y-71843502D01*
X187104364Y-72063310D01*
X187084531Y-72289999D01*
X182501259Y-72289999D01*
X182544091Y-72175160D01*
X182550500Y-72115550D01*
X182550499Y-70019805D01*
X182544091Y-69960194D01*
X182493796Y-69825346D01*
X182407546Y-69710131D01*
X182292331Y-69623881D01*
X182157483Y-69573586D01*
X182097873Y-69567177D01*
X182097869Y-69567177D01*
X180002130Y-69567177D01*
X179942515Y-69573586D01*
X179807669Y-69623881D01*
X179692454Y-69710131D01*
X179606204Y-69825345D01*
X179555909Y-69960193D01*
X179549500Y-70019807D01*
X179549500Y-72115546D01*
X169729350Y-72115546D01*
X169803495Y-72041401D01*
X169939035Y-71847830D01*
X170038903Y-71633663D01*
X170100063Y-71405408D01*
X170120659Y-71170000D01*
X170100063Y-70934592D01*
X170038903Y-70706337D01*
X169939035Y-70492171D01*
X169803495Y-70298599D01*
X169636401Y-70131505D01*
X169450839Y-70001573D01*
X169411975Y-69957257D01*
X169397964Y-69900000D01*
X169411975Y-69842743D01*
X169450839Y-69798426D01*
X169636401Y-69668495D01*
X169803495Y-69501401D01*
X169939035Y-69307830D01*
X170038903Y-69093663D01*
X170100063Y-68865408D01*
X170120659Y-68630000D01*
X170100063Y-68394592D01*
X170038903Y-68166337D01*
X169939035Y-67952171D01*
X169803495Y-67758599D01*
X169636401Y-67591505D01*
X169450839Y-67461573D01*
X169411975Y-67417257D01*
X169397964Y-67360000D01*
X169411975Y-67302743D01*
X169450839Y-67258426D01*
X169636401Y-67128495D01*
X169803495Y-66961401D01*
X169939035Y-66767830D01*
X170038903Y-66553663D01*
X170100063Y-66325408D01*
X170120659Y-66090000D01*
X170100063Y-65854592D01*
X170038903Y-65626337D01*
X169939035Y-65412171D01*
X169803495Y-65218599D01*
X169636401Y-65051505D01*
X169450839Y-64921573D01*
X169411974Y-64877255D01*
X169397964Y-64819999D01*
X169411975Y-64762742D01*
X169450837Y-64718428D01*
X169636401Y-64588495D01*
X169803495Y-64421401D01*
X169939035Y-64227830D01*
X170038903Y-64013663D01*
X170100063Y-63785408D01*
X170120659Y-63550000D01*
X170100063Y-63314592D01*
X170038903Y-63086337D01*
X169939035Y-62872171D01*
X169803495Y-62678599D01*
X169681569Y-62556673D01*
X169650273Y-62503927D01*
X169648084Y-62442634D01*
X169675537Y-62387789D01*
X169725916Y-62352810D01*
X169857331Y-62303796D01*
X169972546Y-62217546D01*
X170058796Y-62102331D01*
X170109091Y-61967483D01*
X170110059Y-61958473D01*
X170132408Y-61899705D01*
X170180710Y-61859453D01*
X170242546Y-61848067D01*
X170302017Y-61868474D01*
X170343833Y-61915429D01*
X170385218Y-61996651D01*
X170385220Y-61996653D01*
X170475120Y-62107670D01*
X170475123Y-62107673D01*
X171856781Y-63489331D01*
X171883661Y-63529559D01*
X171893100Y-63577012D01*
X171893100Y-65447522D01*
X171908032Y-65589595D01*
X171966941Y-65770901D01*
X172062260Y-65935998D01*
X172189821Y-66077669D01*
X172344052Y-66189724D01*
X172518211Y-66267265D01*
X172704679Y-66306900D01*
X172704681Y-66306900D01*
X172895319Y-66306900D01*
X172895321Y-66306900D01*
X173081786Y-66267265D01*
X173081785Y-66267265D01*
X173081791Y-66267264D01*
X173255947Y-66189724D01*
X173255947Y-66189723D01*
X173255951Y-66189722D01*
X173410176Y-66077671D01*
X173419176Y-66067676D01*
X179544356Y-66067676D01*
X179564891Y-66315493D01*
X179564891Y-66315496D01*
X179564892Y-66315498D01*
X179625937Y-66556558D01*
X179670960Y-66659200D01*
X179725825Y-66784281D01*
X179725827Y-66784284D01*
X179861836Y-66992462D01*
X180030256Y-67175415D01*
X180030259Y-67175417D01*
X180226485Y-67328147D01*
X180226487Y-67328148D01*
X180226491Y-67328151D01*
X180445190Y-67446505D01*
X180680386Y-67527248D01*
X180925665Y-67568177D01*
X181174335Y-67568177D01*
X181419614Y-67527248D01*
X181654810Y-67446505D01*
X181873509Y-67328151D01*
X182069744Y-67175415D01*
X182238164Y-66992462D01*
X182374173Y-66784284D01*
X182474063Y-66556558D01*
X182535108Y-66315498D01*
X182555643Y-66067677D01*
X182535108Y-65819856D01*
X182474063Y-65578796D01*
X182374173Y-65351070D01*
X182238164Y-65142892D01*
X182069744Y-64959939D01*
X182013246Y-64915965D01*
X181873514Y-64807206D01*
X181873510Y-64807203D01*
X181873509Y-64807203D01*
X181654810Y-64688849D01*
X181654806Y-64688847D01*
X181654805Y-64688847D01*
X181419615Y-64608106D01*
X181174335Y-64567177D01*
X180925665Y-64567177D01*
X180680384Y-64608106D01*
X180445194Y-64688847D01*
X180226485Y-64807206D01*
X180030259Y-64959936D01*
X179861837Y-65142891D01*
X179725825Y-65351072D01*
X179661453Y-65497827D01*
X179625937Y-65578796D01*
X179597421Y-65691404D01*
X179564891Y-65819860D01*
X179544356Y-66067676D01*
X173419176Y-66067676D01*
X173490534Y-65988425D01*
X173537739Y-65935998D01*
X173633058Y-65770901D01*
X173691968Y-65589594D01*
X173706900Y-65447525D01*
X173706900Y-63231126D01*
X173708427Y-63211727D01*
X173710645Y-63197724D01*
X173707069Y-63129506D01*
X173706900Y-63123018D01*
X173706900Y-63102475D01*
X173704751Y-63082037D01*
X173704243Y-63075577D01*
X173700668Y-63007349D01*
X173700668Y-63007347D01*
X173696994Y-62993639D01*
X173693449Y-62974504D01*
X173692885Y-62969140D01*
X173691968Y-62960406D01*
X173670842Y-62895389D01*
X173669016Y-62889223D01*
X173651327Y-62823205D01*
X173644884Y-62810561D01*
X173637443Y-62792597D01*
X173633058Y-62779099D01*
X173598901Y-62719937D01*
X173595803Y-62714232D01*
X173564780Y-62653346D01*
X173555847Y-62642316D01*
X173544831Y-62626287D01*
X173537739Y-62614002D01*
X173492026Y-62563232D01*
X173487813Y-62558299D01*
X173474880Y-62542329D01*
X173460362Y-62527811D01*
X173455894Y-62523103D01*
X173410178Y-62472331D01*
X173398695Y-62463988D01*
X173383903Y-62451353D01*
X173062550Y-62130000D01*
X187084531Y-62130000D01*
X187104364Y-62356689D01*
X187163261Y-62576497D01*
X187259432Y-62782735D01*
X187389953Y-62969140D01*
X187550859Y-63130046D01*
X187737264Y-63260567D01*
X187737265Y-63260567D01*
X187737266Y-63260568D01*
X187943504Y-63356739D01*
X188163308Y-63415635D01*
X188390000Y-63435468D01*
X188616692Y-63415635D01*
X188836496Y-63356739D01*
X189042734Y-63260568D01*
X189229139Y-63130047D01*
X189390047Y-62969139D01*
X189520568Y-62782734D01*
X189616739Y-62576496D01*
X189675635Y-62356692D01*
X189695468Y-62130000D01*
X189675635Y-61903308D01*
X189616739Y-61683504D01*
X189520568Y-61477266D01*
X189503069Y-61452275D01*
X189390046Y-61290859D01*
X189229140Y-61129953D01*
X189042735Y-60999432D01*
X188836497Y-60903261D01*
X188616689Y-60844364D01*
X188390000Y-60824531D01*
X188163310Y-60844364D01*
X187943502Y-60903261D01*
X187737264Y-60999432D01*
X187550859Y-61129953D01*
X187389953Y-61290859D01*
X187259432Y-61477264D01*
X187163261Y-61683502D01*
X187104364Y-61903310D01*
X187084531Y-62130000D01*
X173062550Y-62130000D01*
X172280419Y-61347869D01*
X172899500Y-61347869D01*
X172905909Y-61407483D01*
X172956204Y-61542331D01*
X173042454Y-61657546D01*
X173157669Y-61743796D01*
X173292517Y-61794091D01*
X173352127Y-61800500D01*
X175047872Y-61800499D01*
X175107483Y-61794091D01*
X175242331Y-61743796D01*
X175357546Y-61657546D01*
X175416326Y-61579026D01*
X176974526Y-61579026D01*
X177047515Y-61630133D01*
X177253673Y-61726266D01*
X177473397Y-61785141D01*
X177700000Y-61804966D01*
X177926602Y-61785141D01*
X178146326Y-61726266D01*
X178352480Y-61630134D01*
X178425472Y-61579025D01*
X177700001Y-60853553D01*
X177700000Y-60853553D01*
X176974526Y-61579025D01*
X176974526Y-61579026D01*
X175416326Y-61579026D01*
X175443796Y-61542331D01*
X175494091Y-61407483D01*
X175500500Y-61347873D01*
X175500499Y-60500000D01*
X176395033Y-60500000D01*
X176414858Y-60726602D01*
X176473733Y-60946326D01*
X176569866Y-61152484D01*
X176620972Y-61225471D01*
X176620974Y-61225472D01*
X177346446Y-60500001D01*
X178053553Y-60500001D01*
X178779025Y-61225472D01*
X178830134Y-61152480D01*
X178926266Y-60946326D01*
X178985141Y-60726602D01*
X179004966Y-60500000D01*
X178985141Y-60273397D01*
X178926266Y-60053673D01*
X178830133Y-59847515D01*
X178779025Y-59774526D01*
X178053553Y-60500000D01*
X178053553Y-60500001D01*
X177346446Y-60500001D01*
X177346446Y-60500000D01*
X176620973Y-59774526D01*
X176620973Y-59774527D01*
X176569865Y-59847516D01*
X176473733Y-60053672D01*
X176414858Y-60273397D01*
X176395033Y-60500000D01*
X175500499Y-60500000D01*
X175500499Y-59652128D01*
X175494091Y-59592517D01*
X175443796Y-59457669D01*
X175416325Y-59420973D01*
X176974526Y-59420973D01*
X177700000Y-60146446D01*
X177700001Y-60146446D01*
X178425472Y-59420974D01*
X178425471Y-59420972D01*
X178352484Y-59369866D01*
X178146326Y-59273733D01*
X177926602Y-59214858D01*
X177700000Y-59195033D01*
X177473397Y-59214858D01*
X177253672Y-59273733D01*
X177047516Y-59369865D01*
X176974527Y-59420973D01*
X176974526Y-59420973D01*
X175416325Y-59420973D01*
X175357546Y-59342454D01*
X175242331Y-59256204D01*
X175107483Y-59205909D01*
X175047873Y-59199500D01*
X175047869Y-59199500D01*
X173352130Y-59199500D01*
X173292515Y-59205909D01*
X173157669Y-59256204D01*
X173042454Y-59342454D01*
X172956204Y-59457668D01*
X172905909Y-59592516D01*
X172899500Y-59652130D01*
X172899500Y-61347869D01*
X172280419Y-61347869D01*
X171757673Y-60825123D01*
X171757672Y-60825122D01*
X171757670Y-60825120D01*
X171646653Y-60735220D01*
X171476794Y-60648672D01*
X171476793Y-60648671D01*
X171476792Y-60648671D01*
X171292651Y-60599331D01*
X171102273Y-60589354D01*
X170913986Y-60619176D01*
X170736009Y-60687493D01*
X170576123Y-60791325D01*
X170441325Y-60926123D01*
X170343494Y-61076769D01*
X170296947Y-61119122D01*
X170235604Y-61133172D01*
X170175263Y-61115298D01*
X170131468Y-61070105D01*
X170115499Y-61009233D01*
X170115499Y-60112130D01*
X170115499Y-60112127D01*
X170109091Y-60052517D01*
X170058796Y-59917669D01*
X169972546Y-59802454D01*
X169857331Y-59716204D01*
X169722483Y-59665909D01*
X169662873Y-59659500D01*
X169662869Y-59659500D01*
X167867130Y-59659500D01*
X167807515Y-59665909D01*
X167672669Y-59716204D01*
X167557454Y-59802454D01*
X167471204Y-59917668D01*
X167420909Y-60052516D01*
X167414500Y-60112130D01*
X167414500Y-61907869D01*
X167420909Y-61967484D01*
X167446056Y-62034907D01*
X167471204Y-62102331D01*
X167557454Y-62217546D01*
X167672669Y-62303796D01*
X167784907Y-62345658D01*
X167804082Y-62352810D01*
X167854462Y-62387789D01*
X167881915Y-62442634D01*
X167879726Y-62503926D01*
X167848431Y-62556673D01*
X167726503Y-62678601D01*
X167590965Y-62872170D01*
X167491097Y-63086336D01*
X167429936Y-63314592D01*
X167409340Y-63550000D01*
X167429936Y-63785407D01*
X167446488Y-63847178D01*
X167491097Y-64013663D01*
X167590965Y-64227830D01*
X167726505Y-64421401D01*
X167893599Y-64588495D01*
X168079160Y-64718426D01*
X168118024Y-64762743D01*
X168132035Y-64820000D01*
X168118024Y-64877257D01*
X168079159Y-64921575D01*
X167893595Y-65051508D01*
X167726505Y-65218598D01*
X167590965Y-65412170D01*
X167491097Y-65626336D01*
X167429936Y-65854592D01*
X167409340Y-66089999D01*
X167429936Y-66325407D01*
X167473663Y-66488598D01*
X167491097Y-66553663D01*
X167590965Y-66767830D01*
X167726505Y-66961401D01*
X167893599Y-67128495D01*
X168079160Y-67258426D01*
X168118024Y-67302743D01*
X168132035Y-67360000D01*
X168118024Y-67417257D01*
X168079159Y-67461575D01*
X167893595Y-67591508D01*
X167726505Y-67758598D01*
X167590965Y-67952170D01*
X167491097Y-68166336D01*
X167429936Y-68394592D01*
X167409340Y-68630000D01*
X167429936Y-68865407D01*
X167461460Y-68983056D01*
X167491097Y-69093663D01*
X167590965Y-69307830D01*
X167726505Y-69501401D01*
X167893599Y-69668495D01*
X168079160Y-69798426D01*
X168118024Y-69842743D01*
X168132035Y-69900000D01*
X168118024Y-69957257D01*
X168079159Y-70001575D01*
X167893595Y-70131508D01*
X167726505Y-70298598D01*
X167590965Y-70492170D01*
X167491097Y-70706336D01*
X167429936Y-70934592D01*
X167409340Y-71170000D01*
X164327964Y-71170000D01*
X164341975Y-71112743D01*
X164380839Y-71068426D01*
X164566401Y-70938495D01*
X164733495Y-70771401D01*
X164869035Y-70577830D01*
X164968903Y-70363663D01*
X165030063Y-70135408D01*
X165050659Y-69900000D01*
X165044127Y-69825346D01*
X165030063Y-69664592D01*
X164986337Y-69501404D01*
X164968903Y-69436337D01*
X164869035Y-69222171D01*
X164733495Y-69028599D01*
X164566401Y-68861505D01*
X164380839Y-68731573D01*
X164341975Y-68687257D01*
X164327964Y-68630000D01*
X164341975Y-68572743D01*
X164380839Y-68528426D01*
X164566401Y-68398495D01*
X164733495Y-68231401D01*
X164869035Y-68037830D01*
X164968903Y-67823663D01*
X165030063Y-67595408D01*
X165050659Y-67360000D01*
X165030063Y-67124592D01*
X164968903Y-66896337D01*
X164869035Y-66682171D01*
X164733495Y-66488599D01*
X164566401Y-66321505D01*
X164380839Y-66191573D01*
X164341975Y-66147257D01*
X164327964Y-66090000D01*
X164341975Y-66032743D01*
X164380839Y-65988426D01*
X164566401Y-65858495D01*
X164733495Y-65691401D01*
X164869035Y-65497830D01*
X164968903Y-65283663D01*
X165030063Y-65055408D01*
X165050659Y-64820000D01*
X165045649Y-64762742D01*
X165030063Y-64584592D01*
X164986337Y-64421404D01*
X164968903Y-64356337D01*
X164869035Y-64142171D01*
X164733495Y-63948599D01*
X164566401Y-63781505D01*
X164380839Y-63651573D01*
X164341975Y-63607257D01*
X164327964Y-63550000D01*
X164341975Y-63492743D01*
X164380839Y-63448426D01*
X164566401Y-63318495D01*
X164733495Y-63151401D01*
X164869035Y-62957830D01*
X164968903Y-62743663D01*
X165030063Y-62515408D01*
X165050659Y-62280000D01*
X165030063Y-62044592D01*
X164968903Y-61816337D01*
X164869035Y-61602171D01*
X164733495Y-61408599D01*
X164566401Y-61241505D01*
X164380839Y-61111573D01*
X164341976Y-61067257D01*
X164327965Y-61010000D01*
X164341976Y-60952743D01*
X164380839Y-60908426D01*
X164566401Y-60778495D01*
X164733495Y-60611401D01*
X164869035Y-60417830D01*
X164968903Y-60203663D01*
X165030063Y-59975408D01*
X165050659Y-59740000D01*
X165030063Y-59504592D01*
X164968903Y-59276337D01*
X164869035Y-59062171D01*
X164733495Y-58868599D01*
X164566401Y-58701505D01*
X164372830Y-58565965D01*
X164158663Y-58466097D01*
X164097501Y-58449709D01*
X163930407Y-58404936D01*
X163695000Y-58384340D01*
X163459592Y-58404936D01*
X163231336Y-58466097D01*
X163017170Y-58565965D01*
X162823598Y-58701505D01*
X162656505Y-58868598D01*
X162520965Y-59062170D01*
X162421097Y-59276336D01*
X162359936Y-59504592D01*
X162339340Y-59739999D01*
X162359936Y-59975407D01*
X162396571Y-60112130D01*
X162421097Y-60203663D01*
X162520965Y-60417830D01*
X162656505Y-60611401D01*
X162823599Y-60778495D01*
X163009160Y-60908426D01*
X163048024Y-60952743D01*
X163062035Y-61010000D01*
X163048024Y-61067257D01*
X163009159Y-61111575D01*
X162823595Y-61241508D01*
X162656505Y-61408598D01*
X162520965Y-61602170D01*
X162421097Y-61816336D01*
X162359936Y-62044592D01*
X162339340Y-62280000D01*
X162359936Y-62515407D01*
X162386354Y-62613999D01*
X162421097Y-62743663D01*
X162520965Y-62957830D01*
X162656505Y-63151401D01*
X162823599Y-63318495D01*
X163009160Y-63448426D01*
X163048024Y-63492743D01*
X163062035Y-63550000D01*
X163048024Y-63607257D01*
X163009159Y-63651575D01*
X162823595Y-63781508D01*
X162656505Y-63948598D01*
X162520965Y-64142170D01*
X162421097Y-64356336D01*
X162359936Y-64584592D01*
X162339340Y-64819999D01*
X162359936Y-65055407D01*
X162383378Y-65142892D01*
X162421097Y-65283663D01*
X162520965Y-65497830D01*
X162656505Y-65691401D01*
X162823599Y-65858495D01*
X163009160Y-65988426D01*
X163048024Y-66032743D01*
X163062035Y-66090000D01*
X163048024Y-66147257D01*
X163009159Y-66191575D01*
X162823595Y-66321508D01*
X162656505Y-66488598D01*
X162520965Y-66682170D01*
X162421097Y-66896336D01*
X162359936Y-67124592D01*
X162339340Y-67360000D01*
X162359936Y-67595407D01*
X162384213Y-67686008D01*
X162421097Y-67823663D01*
X162520965Y-68037830D01*
X162656505Y-68231401D01*
X162823599Y-68398495D01*
X163009160Y-68528426D01*
X163048024Y-68572743D01*
X163062035Y-68630000D01*
X163048024Y-68687257D01*
X163009158Y-68731575D01*
X162899923Y-68808063D01*
X162823595Y-68861508D01*
X162656505Y-69028598D01*
X162520965Y-69222170D01*
X162421097Y-69436336D01*
X162359936Y-69664592D01*
X162339340Y-69899999D01*
X162359936Y-70135407D01*
X162403663Y-70298598D01*
X162421097Y-70363663D01*
X162520965Y-70577830D01*
X162656505Y-70771401D01*
X162823599Y-70938495D01*
X163009160Y-71068426D01*
X163048024Y-71112743D01*
X163062035Y-71170000D01*
X163048024Y-71227257D01*
X163009159Y-71271575D01*
X162823595Y-71401508D01*
X162656505Y-71568598D01*
X162520965Y-71762170D01*
X162421097Y-71976336D01*
X162359936Y-72204592D01*
X162339340Y-72440000D01*
X162359936Y-72675407D01*
X162392382Y-72796496D01*
X162421097Y-72903663D01*
X162520965Y-73117830D01*
X162656505Y-73311401D01*
X162823599Y-73478495D01*
X163009160Y-73608426D01*
X163048024Y-73652743D01*
X163062035Y-73710000D01*
X163048024Y-73767257D01*
X163009159Y-73811575D01*
X162823595Y-73941508D01*
X162656505Y-74108598D01*
X162520965Y-74302170D01*
X162421097Y-74516336D01*
X162359936Y-74744592D01*
X162339340Y-74979999D01*
X161901855Y-74979999D01*
X161900668Y-74957348D01*
X161851328Y-74773206D01*
X161764780Y-74603347D01*
X161674881Y-74492330D01*
X161648637Y-74466086D01*
X161636006Y-74451297D01*
X161627671Y-74439825D01*
X161627670Y-74439823D01*
X161576876Y-74394088D01*
X161572186Y-74389636D01*
X161557673Y-74375123D01*
X161557670Y-74375120D01*
X161541710Y-74362196D01*
X161536788Y-74357992D01*
X161485997Y-74312260D01*
X161473712Y-74305167D01*
X161457676Y-74294146D01*
X161446653Y-74285220D01*
X161385768Y-74254197D01*
X161380063Y-74251099D01*
X161320900Y-74216941D01*
X161307410Y-74212558D01*
X161289436Y-74205113D01*
X161276794Y-74198672D01*
X161271476Y-74197247D01*
X161210782Y-74180983D01*
X161204560Y-74179140D01*
X161139593Y-74158031D01*
X161125481Y-74156548D01*
X161106353Y-74153003D01*
X161092651Y-74149331D01*
X161024423Y-74145755D01*
X161017961Y-74145246D01*
X160997532Y-74143100D01*
X160997525Y-74143100D01*
X160976981Y-74143100D01*
X160970492Y-74142930D01*
X160944598Y-74141573D01*
X160902275Y-74139355D01*
X160902274Y-74139355D01*
X160894909Y-74140521D01*
X160888270Y-74141573D01*
X160868873Y-74143100D01*
X158002475Y-74143100D01*
X157917233Y-74152059D01*
X157860404Y-74158032D01*
X157679098Y-74216941D01*
X157514001Y-74312260D01*
X157372330Y-74439821D01*
X157260275Y-74594052D01*
X157182734Y-74768211D01*
X157143100Y-74954679D01*
X157143100Y-75145321D01*
X110492526Y-75145321D01*
X110503982Y-72350000D01*
X148954531Y-72350000D01*
X148974364Y-72576689D01*
X149033261Y-72796497D01*
X149129432Y-73002735D01*
X149259953Y-73189140D01*
X149420859Y-73350046D01*
X149607264Y-73480567D01*
X149607265Y-73480567D01*
X149607266Y-73480568D01*
X149813504Y-73576739D01*
X150033308Y-73635635D01*
X150260000Y-73655468D01*
X150486692Y-73635635D01*
X150706496Y-73576739D01*
X150912734Y-73480568D01*
X151099139Y-73350047D01*
X151260047Y-73189139D01*
X151390568Y-73002734D01*
X151486739Y-72796496D01*
X151545635Y-72576692D01*
X151565468Y-72350000D01*
X159114531Y-72350000D01*
X159134364Y-72576689D01*
X159193261Y-72796497D01*
X159289432Y-73002735D01*
X159419953Y-73189140D01*
X159580859Y-73350046D01*
X159767264Y-73480567D01*
X159767265Y-73480567D01*
X159767266Y-73480568D01*
X159973504Y-73576739D01*
X160193308Y-73635635D01*
X160420000Y-73655468D01*
X160646692Y-73635635D01*
X160866496Y-73576739D01*
X161072734Y-73480568D01*
X161259139Y-73350047D01*
X161420047Y-73189139D01*
X161550568Y-73002734D01*
X161646739Y-72796496D01*
X161705635Y-72576692D01*
X161725468Y-72350000D01*
X161705635Y-72123308D01*
X161646739Y-71903504D01*
X161550568Y-71697266D01*
X161506033Y-71633663D01*
X161420046Y-71510859D01*
X161259140Y-71349953D01*
X161072735Y-71219432D01*
X160866497Y-71123261D01*
X160646689Y-71064364D01*
X160420000Y-71044531D01*
X160193310Y-71064364D01*
X159973502Y-71123261D01*
X159767264Y-71219432D01*
X159580859Y-71349953D01*
X159419953Y-71510859D01*
X159289432Y-71697264D01*
X159193261Y-71903502D01*
X159134364Y-72123310D01*
X159114531Y-72350000D01*
X151565468Y-72350000D01*
X151545635Y-72123308D01*
X151486739Y-71903504D01*
X151390568Y-71697266D01*
X151346033Y-71633663D01*
X151260046Y-71510859D01*
X151099140Y-71349953D01*
X150912735Y-71219432D01*
X150706497Y-71123261D01*
X150486689Y-71064364D01*
X150260000Y-71044531D01*
X150033310Y-71064364D01*
X149813502Y-71123261D01*
X149607264Y-71219432D01*
X149420859Y-71349953D01*
X149259953Y-71510859D01*
X149129432Y-71697264D01*
X149033261Y-71903502D01*
X148974364Y-72123310D01*
X148954531Y-72350000D01*
X110503982Y-72350000D01*
X110518037Y-68920520D01*
X152189500Y-68920520D01*
X152195909Y-68980135D01*
X152198633Y-68987438D01*
X152246204Y-69114982D01*
X152332454Y-69230197D01*
X152447669Y-69316447D01*
X152582517Y-69366742D01*
X152642127Y-69373151D01*
X154337872Y-69373150D01*
X154397483Y-69366742D01*
X154532331Y-69316447D01*
X154647546Y-69230197D01*
X154733796Y-69114982D01*
X154784091Y-68980134D01*
X154790500Y-68920524D01*
X154790500Y-68245321D01*
X156993100Y-68245321D01*
X157032734Y-68431786D01*
X157110277Y-68605951D01*
X157222328Y-68760176D01*
X157364001Y-68887739D01*
X157529098Y-68983058D01*
X157565520Y-68994892D01*
X157710406Y-69041968D01*
X157852475Y-69056900D01*
X160768873Y-69056900D01*
X160788271Y-69058426D01*
X160802275Y-69060645D01*
X160870492Y-69057069D01*
X160876981Y-69056900D01*
X160897525Y-69056900D01*
X160917965Y-69054751D01*
X160924411Y-69054243D01*
X160992652Y-69050668D01*
X161006351Y-69046996D01*
X161025478Y-69043451D01*
X161039594Y-69041968D01*
X161088413Y-69026105D01*
X161104579Y-69020853D01*
X161110805Y-69019009D01*
X161176794Y-69001328D01*
X161189432Y-68994887D01*
X161207410Y-68987440D01*
X161220901Y-68983058D01*
X161280086Y-68948886D01*
X161285753Y-68945809D01*
X161346653Y-68914780D01*
X161357677Y-68905852D01*
X161373706Y-68894834D01*
X161385998Y-68887739D01*
X161400344Y-68874820D01*
X161436780Y-68842014D01*
X161441701Y-68837809D01*
X161457670Y-68824880D01*
X161472214Y-68810334D01*
X161476883Y-68805903D01*
X161527670Y-68760177D01*
X161536004Y-68748704D01*
X161548644Y-68733906D01*
X161556585Y-68725965D01*
X161574881Y-68707670D01*
X161664780Y-68596653D01*
X161751328Y-68426794D01*
X161800668Y-68242652D01*
X161810646Y-68052275D01*
X161780823Y-67863984D01*
X161740370Y-67758599D01*
X161712505Y-67686007D01*
X161608676Y-67526124D01*
X161473875Y-67391323D01*
X161313992Y-67287494D01*
X161136015Y-67219176D01*
X160947726Y-67189354D01*
X160947725Y-67189354D01*
X160938244Y-67189850D01*
X160757348Y-67199331D01*
X160609769Y-67238875D01*
X160577676Y-67243100D01*
X157852475Y-67243100D01*
X157767233Y-67252059D01*
X157710404Y-67258032D01*
X157529098Y-67316941D01*
X157364001Y-67412260D01*
X157222330Y-67539821D01*
X157110275Y-67694052D01*
X157032734Y-67868211D01*
X156993100Y-68054679D01*
X156993100Y-68245321D01*
X154790500Y-68245321D01*
X154790499Y-67224779D01*
X154784091Y-67165168D01*
X154733796Y-67030320D01*
X154647546Y-66915105D01*
X154532331Y-66828855D01*
X154397483Y-66778560D01*
X154337873Y-66772151D01*
X154337869Y-66772151D01*
X152642130Y-66772151D01*
X152582515Y-66778560D01*
X152447669Y-66828855D01*
X152332454Y-66915105D01*
X152246204Y-67030319D01*
X152195909Y-67165166D01*
X152195909Y-67165168D01*
X152190103Y-67219176D01*
X152189500Y-67224781D01*
X152189500Y-68920520D01*
X110518037Y-68920520D01*
X110531434Y-65651677D01*
X152764526Y-65651677D01*
X152837515Y-65702784D01*
X153043673Y-65798917D01*
X153263397Y-65857792D01*
X153490000Y-65877617D01*
X153716602Y-65857792D01*
X153936326Y-65798917D01*
X154142480Y-65702785D01*
X154215472Y-65651676D01*
X153490001Y-64926204D01*
X153490000Y-64926204D01*
X152764526Y-65651676D01*
X152764526Y-65651677D01*
X110531434Y-65651677D01*
X110535856Y-64572651D01*
X152185033Y-64572651D01*
X152204858Y-64799253D01*
X152263733Y-65018977D01*
X152359866Y-65225135D01*
X152410972Y-65298122D01*
X152410974Y-65298123D01*
X153136446Y-64572652D01*
X153843553Y-64572652D01*
X154569025Y-65298123D01*
X154620134Y-65225131D01*
X154716266Y-65018977D01*
X154775141Y-64799253D01*
X154794966Y-64572651D01*
X154775141Y-64346048D01*
X154716266Y-64126324D01*
X154620133Y-63920166D01*
X154569025Y-63847177D01*
X153843553Y-64572651D01*
X153843553Y-64572652D01*
X153136446Y-64572652D01*
X153136446Y-64572651D01*
X152410973Y-63847177D01*
X152410973Y-63847178D01*
X152359865Y-63920167D01*
X152263733Y-64126323D01*
X152204858Y-64346048D01*
X152185033Y-64572651D01*
X110535856Y-64572651D01*
X110540278Y-63493624D01*
X152764526Y-63493624D01*
X153490000Y-64219097D01*
X153490001Y-64219097D01*
X154215472Y-63493625D01*
X154215471Y-63493623D01*
X154142484Y-63442517D01*
X153936326Y-63346384D01*
X153716602Y-63287509D01*
X153490000Y-63267684D01*
X153263397Y-63287509D01*
X153043672Y-63346384D01*
X152837516Y-63442516D01*
X152764527Y-63493624D01*
X152764526Y-63493624D01*
X110540278Y-63493624D01*
X110546205Y-62047525D01*
X157493100Y-62047525D01*
X157504298Y-62154076D01*
X157508032Y-62189595D01*
X157566941Y-62370901D01*
X157662260Y-62535998D01*
X157789821Y-62677669D01*
X157944052Y-62789724D01*
X158118211Y-62867265D01*
X158304679Y-62906900D01*
X158304681Y-62906900D01*
X158495319Y-62906900D01*
X158495321Y-62906900D01*
X158681786Y-62867265D01*
X158681785Y-62867265D01*
X158681791Y-62867264D01*
X158855947Y-62789724D01*
X158855947Y-62789723D01*
X158855951Y-62789722D01*
X159010176Y-62677671D01*
X159056451Y-62626278D01*
X159137739Y-62535998D01*
X159233058Y-62370901D01*
X159291968Y-62189594D01*
X159306900Y-62047525D01*
X159306900Y-57202475D01*
X159291968Y-57060406D01*
X159233058Y-56879099D01*
X159233058Y-56879098D01*
X159137739Y-56714001D01*
X159010178Y-56572330D01*
X158855947Y-56460275D01*
X158681788Y-56382734D01*
X158495321Y-56343100D01*
X158495319Y-56343100D01*
X158304681Y-56343100D01*
X158304679Y-56343100D01*
X158118213Y-56382734D01*
X157944048Y-56460277D01*
X157789823Y-56572328D01*
X157662260Y-56714001D01*
X157566941Y-56879098D01*
X157508032Y-57060404D01*
X157508031Y-57060406D01*
X157508032Y-57060406D01*
X157493100Y-57202475D01*
X157493100Y-62047525D01*
X110546205Y-62047525D01*
X110580089Y-53779999D01*
X169794531Y-53779999D01*
X169814364Y-54006689D01*
X169873261Y-54226497D01*
X169969432Y-54432735D01*
X170099953Y-54619140D01*
X170260859Y-54780046D01*
X170447264Y-54910567D01*
X170447265Y-54910567D01*
X170447266Y-54910568D01*
X170653504Y-55006739D01*
X170873308Y-55065635D01*
X171100000Y-55085468D01*
X171326692Y-55065635D01*
X171546496Y-55006739D01*
X171752734Y-54910568D01*
X171939139Y-54780047D01*
X172100047Y-54619139D01*
X172230568Y-54432734D01*
X172326739Y-54226496D01*
X172385635Y-54006692D01*
X172405468Y-53780000D01*
X172405468Y-53779999D01*
X179954531Y-53779999D01*
X179974364Y-54006689D01*
X180033261Y-54226497D01*
X180129432Y-54432735D01*
X180259953Y-54619140D01*
X180420859Y-54780046D01*
X180607264Y-54910567D01*
X180607265Y-54910567D01*
X180607266Y-54910568D01*
X180813504Y-55006739D01*
X181033308Y-55065635D01*
X181260000Y-55085468D01*
X181486692Y-55065635D01*
X181706496Y-55006739D01*
X181912734Y-54910568D01*
X182099139Y-54780047D01*
X182260047Y-54619139D01*
X182390568Y-54432734D01*
X182486739Y-54226496D01*
X182545635Y-54006692D01*
X182565468Y-53780000D01*
X182545635Y-53553308D01*
X182486739Y-53333504D01*
X182390568Y-53127266D01*
X182260047Y-52940861D01*
X182260046Y-52940859D01*
X182099140Y-52779953D01*
X181912735Y-52649432D01*
X181706497Y-52553261D01*
X181486689Y-52494364D01*
X181260000Y-52474531D01*
X181033310Y-52494364D01*
X180813502Y-52553261D01*
X180607264Y-52649432D01*
X180420859Y-52779953D01*
X180259953Y-52940859D01*
X180129432Y-53127264D01*
X180033261Y-53333502D01*
X179974364Y-53553310D01*
X179954531Y-53779999D01*
X172405468Y-53779999D01*
X172385635Y-53553308D01*
X172326739Y-53333504D01*
X172230568Y-53127266D01*
X172100047Y-52940861D01*
X172100046Y-52940859D01*
X171939140Y-52779953D01*
X171752735Y-52649432D01*
X171546497Y-52553261D01*
X171326689Y-52494364D01*
X171100000Y-52474531D01*
X170873310Y-52494364D01*
X170653502Y-52553261D01*
X170447264Y-52649432D01*
X170260859Y-52779953D01*
X170099953Y-52940859D01*
X169969432Y-53127264D01*
X169873261Y-53333502D01*
X169814364Y-53553310D01*
X169794531Y-53779999D01*
X110580089Y-53779999D01*
X110602343Y-48349999D01*
X113194753Y-48349999D01*
X113213719Y-48651452D01*
X113270319Y-48948163D01*
X113363658Y-49235428D01*
X113492268Y-49508739D01*
X113612049Y-49697483D01*
X113654115Y-49763768D01*
X113806149Y-49947545D01*
X113846650Y-49996503D01*
X114066839Y-50203276D01*
X114311204Y-50380816D01*
X114443550Y-50453573D01*
X114575896Y-50526332D01*
X114716317Y-50581928D01*
X114856737Y-50637525D01*
X115011141Y-50677168D01*
X115149302Y-50712642D01*
X115398314Y-50744100D01*
X115448972Y-50750500D01*
X115448973Y-50750500D01*
X115751027Y-50750500D01*
X115751028Y-50750500D01*
X115794360Y-50745025D01*
X116050698Y-50712642D01*
X116343262Y-50637525D01*
X116624104Y-50526332D01*
X116888795Y-50380816D01*
X116888794Y-50380816D01*
X117133160Y-50203276D01*
X117157079Y-50180814D01*
X117353349Y-49996504D01*
X117545885Y-49763768D01*
X117625783Y-49637869D01*
X186569500Y-49637869D01*
X186575909Y-49697483D01*
X186626204Y-49832331D01*
X186712454Y-49947546D01*
X186827669Y-50033796D01*
X186962517Y-50084091D01*
X187022127Y-50090500D01*
X191077872Y-50090499D01*
X191137483Y-50084091D01*
X191272331Y-50033796D01*
X191387546Y-49947546D01*
X191473796Y-49832331D01*
X191524091Y-49697483D01*
X191530500Y-49637873D01*
X191530499Y-47562128D01*
X191524091Y-47502517D01*
X191473796Y-47367669D01*
X191387546Y-47252454D01*
X191272331Y-47166204D01*
X191137483Y-47115909D01*
X191077873Y-47109500D01*
X191077869Y-47109500D01*
X187022130Y-47109500D01*
X186962515Y-47115909D01*
X186827669Y-47166204D01*
X186712454Y-47252454D01*
X186626204Y-47367668D01*
X186575909Y-47502516D01*
X186569500Y-47562130D01*
X186569500Y-49637869D01*
X117625783Y-49637869D01*
X117707733Y-49508736D01*
X117836341Y-49235430D01*
X117929681Y-48948160D01*
X117986280Y-48651457D01*
X118005246Y-48350000D01*
X117986280Y-48048543D01*
X117929681Y-47751840D01*
X117836341Y-47464570D01*
X117707733Y-47191264D01*
X117707732Y-47191263D01*
X117707731Y-47191260D01*
X117633440Y-47074197D01*
X117545885Y-46936232D01*
X117353349Y-46703496D01*
X117353348Y-46703495D01*
X117133160Y-46496723D01*
X116888795Y-46319183D01*
X116624102Y-46173667D01*
X116343262Y-46062474D01*
X116050700Y-45987358D01*
X115751028Y-45949500D01*
X115751027Y-45949500D01*
X115448973Y-45949500D01*
X115448972Y-45949500D01*
X115149299Y-45987358D01*
X114856737Y-46062474D01*
X114575897Y-46173667D01*
X114311204Y-46319183D01*
X114066839Y-46496723D01*
X113846650Y-46703496D01*
X113654114Y-46936233D01*
X113492268Y-47191260D01*
X113363658Y-47464571D01*
X113270319Y-47751836D01*
X113213719Y-48048547D01*
X113194753Y-48349999D01*
X110602343Y-48349999D01*
X110627343Y-42250000D01*
X172994753Y-42250000D01*
X173013719Y-42551452D01*
X173070319Y-42848163D01*
X173163658Y-43135428D01*
X173292268Y-43408739D01*
X173416968Y-43605234D01*
X173454115Y-43663768D01*
X173606449Y-43847909D01*
X173646650Y-43896503D01*
X173866839Y-44103276D01*
X174111204Y-44280816D01*
X174243550Y-44353573D01*
X174375896Y-44426332D01*
X174516317Y-44481928D01*
X174656737Y-44537525D01*
X174811141Y-44577168D01*
X174949302Y-44612642D01*
X175198314Y-44644100D01*
X175248972Y-44650500D01*
X175248973Y-44650500D01*
X175551027Y-44650500D01*
X175551028Y-44650500D01*
X175594360Y-44645025D01*
X175850698Y-44612642D01*
X176143262Y-44537525D01*
X176424104Y-44426332D01*
X176688795Y-44280816D01*
X176799241Y-44200573D01*
X176933160Y-44103276D01*
X176957079Y-44080814D01*
X177153349Y-43896504D01*
X177191820Y-43850000D01*
X186591115Y-43850000D01*
X186610643Y-43967028D01*
X186690819Y-44200573D01*
X186808348Y-44417746D01*
X186960014Y-44612608D01*
X187141687Y-44779849D01*
X187348407Y-44914906D01*
X187574536Y-45014096D01*
X187813918Y-45074716D01*
X187998361Y-45090000D01*
X188800000Y-45090000D01*
X188800000Y-43850000D01*
X189300000Y-43850000D01*
X189300000Y-45090000D01*
X190101639Y-45090000D01*
X190286081Y-45074716D01*
X190525463Y-45014096D01*
X190751592Y-44914906D01*
X190958312Y-44779849D01*
X191139985Y-44612608D01*
X191291651Y-44417746D01*
X191409180Y-44200573D01*
X191489356Y-43967028D01*
X191508885Y-43850000D01*
X189300000Y-43850000D01*
X188800000Y-43850000D01*
X186591115Y-43850000D01*
X177191820Y-43850000D01*
X177345885Y-43663768D01*
X177507733Y-43408736D01*
X177535373Y-43349999D01*
X186591114Y-43349999D01*
X186591116Y-43350000D01*
X188800000Y-43350000D01*
X188800000Y-42110000D01*
X189300000Y-42110000D01*
X189300000Y-43350000D01*
X191508884Y-43350000D01*
X191508885Y-43349999D01*
X191489356Y-43232971D01*
X191409180Y-42999426D01*
X191291651Y-42782253D01*
X191139985Y-42587391D01*
X190958312Y-42420150D01*
X190751592Y-42285093D01*
X190525463Y-42185903D01*
X190286081Y-42125283D01*
X190101639Y-42110000D01*
X189300000Y-42110000D01*
X188800000Y-42110000D01*
X187998361Y-42110000D01*
X187813918Y-42125283D01*
X187574536Y-42185903D01*
X187348407Y-42285093D01*
X187141687Y-42420150D01*
X186960014Y-42587391D01*
X186808348Y-42782253D01*
X186690819Y-42999426D01*
X186610643Y-43232971D01*
X186591114Y-43349999D01*
X177535373Y-43349999D01*
X177636341Y-43135430D01*
X177729681Y-42848160D01*
X177786280Y-42551457D01*
X177805246Y-42250000D01*
X177786280Y-41948543D01*
X177729681Y-41651840D01*
X177636341Y-41364570D01*
X177507733Y-41091264D01*
X177507732Y-41091263D01*
X177507731Y-41091260D01*
X177433440Y-40974197D01*
X177345885Y-40836232D01*
X177153349Y-40603496D01*
X177153348Y-40603495D01*
X176933160Y-40396723D01*
X176688795Y-40219183D01*
X176424102Y-40073667D01*
X176143262Y-39962474D01*
X175850700Y-39887358D01*
X175551028Y-39849500D01*
X175551027Y-39849500D01*
X175248973Y-39849500D01*
X175248972Y-39849500D01*
X174949299Y-39887358D01*
X174656737Y-39962474D01*
X174375897Y-40073667D01*
X174111204Y-40219183D01*
X173866839Y-40396723D01*
X173646650Y-40603496D01*
X173454114Y-40836233D01*
X173292268Y-41091260D01*
X173163658Y-41364571D01*
X173070319Y-41651836D01*
X173013719Y-41948547D01*
X172994753Y-42250000D01*
X110627343Y-42250000D01*
X110649991Y-36723843D01*
X110666748Y-36662102D01*
X110712052Y-36616930D01*
X110773841Y-36600353D01*
X195425238Y-36500646D01*
X195487332Y-36517229D01*
G37*
%TD.AperFunction*%
%TD*%
M02*
