M48
; DRILL file {KiCad 7.0.1-0} date 2023 May 21, Sunday 16:13:24
; FORMAT={-:-/ absolute / inch / decimal}
; #@! TF.CreationDate,2023-05-21T16:13:24-06:00
; #@! TF.GenerationSoftware,Kicad,Pcbnew,7.0.1-0
; #@! TF.FileFunction,Plated,1,2,PTH
FMAT,2
INCH
; #@! TA.AperFunction,Plated,PTH,ViaDrill
T1C0.0157
; #@! TA.AperFunction,Plated,PTH,ComponentDrill
T2C0.0157
; #@! TA.AperFunction,Plated,PTH,ComponentDrill
T3C0.0315
; #@! TA.AperFunction,Plated,PTH,ComponentDrill
T4C0.0394
; #@! TA.AperFunction,Plated,PTH,ComponentDrill
T5C0.0472
; #@! TA.AperFunction,Plated,PTH,ComponentDrill
T6C0.0520
; #@! TA.AperFunction,Plated,PTH,ComponentDrill
T7C0.0866
%
G90
G05
T1
X6.2165Y-2.6831
X6.2224Y-2.9547
X6.2362Y-2.2539
X6.2362Y-2.4409
X6.3346Y-2.6811
X6.3386Y-2.9567
X6.7382Y-2.4213
X6.8031Y-2.5748
T3
X4.8031Y-3.7598
X4.8031Y-3.9567
X5.748Y-3.878
X5.748Y-4.0748
X5.822Y-3.0854
X5.9157Y-2.8484
X6.0429Y-2.5422
X6.0429Y-2.68
X6.222Y-3.0854
X6.3157Y-2.8484
X6.615Y-3.2398
X6.7362Y-2.1173
X6.8118Y-3.2398
X6.8583Y-2.3819
X6.9961Y-2.3819
X7.1362Y-2.1173
X7.3961Y-2.9697
X7.3961Y-3.3697
X7.4169Y-2.4461
X7.4169Y-2.8461
T4
X6.4447Y-2.352
X6.4447Y-2.452
X6.4447Y-2.552
X6.4447Y-2.652
X6.4447Y-2.752
X6.4447Y-2.852
X6.4447Y-2.952
X6.4447Y-3.052
X6.6443Y-2.402
X6.6443Y-2.502
X6.6443Y-2.602
X6.6443Y-2.702
X6.6443Y-2.802
X6.6443Y-2.902
X6.6443Y-3.002
X7.0303Y-3.1961
X7.128Y-2.6011
X7.128Y-2.7979
X7.2272Y-3.1961
T5
X5.2756Y-3.6811
X5.2756Y-3.9764
X6.2205Y-3.7008
X6.2205Y-3.9961
T6
X5.1274Y-4.5276
X5.3242Y-4.5276
X5.9055Y-4.5276
X6.1024Y-4.5276
X7.4429Y-1.7165
X7.4429Y-1.9134
T7
X4.5472Y-3.437
X4.5472Y-3.437
X4.5512Y-1.9035
X4.5512Y-1.9035
X6.9055Y-1.6634
X6.9055Y-1.6634
X7.4606Y-4.5551
T2
G00X7.3425Y-3.622
M15
G01X7.3031Y-3.622
M16
G05
G00X7.3031Y-4.0157
M15
G01X7.3425Y-4.0157
M16
G05
G00X7.5197Y-3.8386
M15
G01X7.5197Y-3.7992
M16
G05
T3
G00X4.6654Y-4.2579
M15
G01X4.6654Y-4.3445
M16
G05
G00X4.752Y-4.4823
M15
G01X4.8386Y-4.4823
M16
G05
G00X4.9055Y-4.2579
M15
G01X4.9055Y-4.3445
M16
G05
G00X6.8858Y-4.252
M15
G01X6.9724Y-4.252
M16
G05
G00X6.8858Y-4.4921
M15
G01X6.9724Y-4.4921
M16
G05
G00X7.1102Y-4.4055
M15
G01X7.1102Y-4.3189
M16
G05
T0
M30
