%TF.GenerationSoftware,KiCad,Pcbnew,7.0.1-0*%
%TF.CreationDate,2023-05-21T16:13:56-06:00*%
%TF.ProjectId,100W Amplifier IS,31303057-2041-46d7-906c-696669657220,rev?*%
%TF.SameCoordinates,Original*%
%TF.FileFunction,Legend,Top*%
%TF.FilePolarity,Positive*%
%FSLAX46Y46*%
G04 Gerber Fmt 4.6, Leading zero omitted, Abs format (unit mm)*
G04 Created by KiCad (PCBNEW 7.0.1-0) date 2023-05-21 16:13:56*
%MOMM*%
%LPD*%
G01*
G04 APERTURE LIST*
%ADD10C,0.150000*%
%ADD11C,0.120000*%
%ADD12C,0.127000*%
%ADD13C,0.200000*%
G04 APERTURE END LIST*
D10*
X113811904Y-40257619D02*
X113240476Y-40257619D01*
X113526190Y-40257619D02*
X113526190Y-39257619D01*
X113526190Y-39257619D02*
X113430952Y-39400476D01*
X113430952Y-39400476D02*
X113335714Y-39495714D01*
X113335714Y-39495714D02*
X113240476Y-39543333D01*
X114430952Y-39257619D02*
X114526190Y-39257619D01*
X114526190Y-39257619D02*
X114621428Y-39305238D01*
X114621428Y-39305238D02*
X114669047Y-39352857D01*
X114669047Y-39352857D02*
X114716666Y-39448095D01*
X114716666Y-39448095D02*
X114764285Y-39638571D01*
X114764285Y-39638571D02*
X114764285Y-39876666D01*
X114764285Y-39876666D02*
X114716666Y-40067142D01*
X114716666Y-40067142D02*
X114669047Y-40162380D01*
X114669047Y-40162380D02*
X114621428Y-40210000D01*
X114621428Y-40210000D02*
X114526190Y-40257619D01*
X114526190Y-40257619D02*
X114430952Y-40257619D01*
X114430952Y-40257619D02*
X114335714Y-40210000D01*
X114335714Y-40210000D02*
X114288095Y-40162380D01*
X114288095Y-40162380D02*
X114240476Y-40067142D01*
X114240476Y-40067142D02*
X114192857Y-39876666D01*
X114192857Y-39876666D02*
X114192857Y-39638571D01*
X114192857Y-39638571D02*
X114240476Y-39448095D01*
X114240476Y-39448095D02*
X114288095Y-39352857D01*
X114288095Y-39352857D02*
X114335714Y-39305238D01*
X114335714Y-39305238D02*
X114430952Y-39257619D01*
X115383333Y-39257619D02*
X115478571Y-39257619D01*
X115478571Y-39257619D02*
X115573809Y-39305238D01*
X115573809Y-39305238D02*
X115621428Y-39352857D01*
X115621428Y-39352857D02*
X115669047Y-39448095D01*
X115669047Y-39448095D02*
X115716666Y-39638571D01*
X115716666Y-39638571D02*
X115716666Y-39876666D01*
X115716666Y-39876666D02*
X115669047Y-40067142D01*
X115669047Y-40067142D02*
X115621428Y-40162380D01*
X115621428Y-40162380D02*
X115573809Y-40210000D01*
X115573809Y-40210000D02*
X115478571Y-40257619D01*
X115478571Y-40257619D02*
X115383333Y-40257619D01*
X115383333Y-40257619D02*
X115288095Y-40210000D01*
X115288095Y-40210000D02*
X115240476Y-40162380D01*
X115240476Y-40162380D02*
X115192857Y-40067142D01*
X115192857Y-40067142D02*
X115145238Y-39876666D01*
X115145238Y-39876666D02*
X115145238Y-39638571D01*
X115145238Y-39638571D02*
X115192857Y-39448095D01*
X115192857Y-39448095D02*
X115240476Y-39352857D01*
X115240476Y-39352857D02*
X115288095Y-39305238D01*
X115288095Y-39305238D02*
X115383333Y-39257619D01*
X116050000Y-39257619D02*
X116288095Y-40257619D01*
X116288095Y-40257619D02*
X116478571Y-39543333D01*
X116478571Y-39543333D02*
X116669047Y-40257619D01*
X116669047Y-40257619D02*
X116907143Y-39257619D01*
X118050000Y-40257619D02*
X118050000Y-39257619D01*
X118050000Y-39257619D02*
X118383333Y-39971904D01*
X118383333Y-39971904D02*
X118716666Y-39257619D01*
X118716666Y-39257619D02*
X118716666Y-40257619D01*
X119335714Y-40257619D02*
X119240476Y-40210000D01*
X119240476Y-40210000D02*
X119192857Y-40162380D01*
X119192857Y-40162380D02*
X119145238Y-40067142D01*
X119145238Y-40067142D02*
X119145238Y-39781428D01*
X119145238Y-39781428D02*
X119192857Y-39686190D01*
X119192857Y-39686190D02*
X119240476Y-39638571D01*
X119240476Y-39638571D02*
X119335714Y-39590952D01*
X119335714Y-39590952D02*
X119478571Y-39590952D01*
X119478571Y-39590952D02*
X119573809Y-39638571D01*
X119573809Y-39638571D02*
X119621428Y-39686190D01*
X119621428Y-39686190D02*
X119669047Y-39781428D01*
X119669047Y-39781428D02*
X119669047Y-40067142D01*
X119669047Y-40067142D02*
X119621428Y-40162380D01*
X119621428Y-40162380D02*
X119573809Y-40210000D01*
X119573809Y-40210000D02*
X119478571Y-40257619D01*
X119478571Y-40257619D02*
X119335714Y-40257619D01*
X120097619Y-39590952D02*
X120097619Y-40257619D01*
X120097619Y-39686190D02*
X120145238Y-39638571D01*
X120145238Y-39638571D02*
X120240476Y-39590952D01*
X120240476Y-39590952D02*
X120383333Y-39590952D01*
X120383333Y-39590952D02*
X120478571Y-39638571D01*
X120478571Y-39638571D02*
X120526190Y-39733809D01*
X120526190Y-39733809D02*
X120526190Y-40257619D01*
X121145238Y-40257619D02*
X121050000Y-40210000D01*
X121050000Y-40210000D02*
X121002381Y-40162380D01*
X121002381Y-40162380D02*
X120954762Y-40067142D01*
X120954762Y-40067142D02*
X120954762Y-39781428D01*
X120954762Y-39781428D02*
X121002381Y-39686190D01*
X121002381Y-39686190D02*
X121050000Y-39638571D01*
X121050000Y-39638571D02*
X121145238Y-39590952D01*
X121145238Y-39590952D02*
X121288095Y-39590952D01*
X121288095Y-39590952D02*
X121383333Y-39638571D01*
X121383333Y-39638571D02*
X121430952Y-39686190D01*
X121430952Y-39686190D02*
X121478571Y-39781428D01*
X121478571Y-39781428D02*
X121478571Y-40067142D01*
X121478571Y-40067142D02*
X121430952Y-40162380D01*
X121430952Y-40162380D02*
X121383333Y-40210000D01*
X121383333Y-40210000D02*
X121288095Y-40257619D01*
X121288095Y-40257619D02*
X121145238Y-40257619D01*
X122621429Y-39971904D02*
X123097619Y-39971904D01*
X122526191Y-40257619D02*
X122859524Y-39257619D01*
X122859524Y-39257619D02*
X123192857Y-40257619D01*
X123526191Y-40257619D02*
X123526191Y-39590952D01*
X123526191Y-39686190D02*
X123573810Y-39638571D01*
X123573810Y-39638571D02*
X123669048Y-39590952D01*
X123669048Y-39590952D02*
X123811905Y-39590952D01*
X123811905Y-39590952D02*
X123907143Y-39638571D01*
X123907143Y-39638571D02*
X123954762Y-39733809D01*
X123954762Y-39733809D02*
X123954762Y-40257619D01*
X123954762Y-39733809D02*
X124002381Y-39638571D01*
X124002381Y-39638571D02*
X124097619Y-39590952D01*
X124097619Y-39590952D02*
X124240476Y-39590952D01*
X124240476Y-39590952D02*
X124335715Y-39638571D01*
X124335715Y-39638571D02*
X124383334Y-39733809D01*
X124383334Y-39733809D02*
X124383334Y-40257619D01*
X124859524Y-39590952D02*
X124859524Y-40590952D01*
X124859524Y-39638571D02*
X124954762Y-39590952D01*
X124954762Y-39590952D02*
X125145238Y-39590952D01*
X125145238Y-39590952D02*
X125240476Y-39638571D01*
X125240476Y-39638571D02*
X125288095Y-39686190D01*
X125288095Y-39686190D02*
X125335714Y-39781428D01*
X125335714Y-39781428D02*
X125335714Y-40067142D01*
X125335714Y-40067142D02*
X125288095Y-40162380D01*
X125288095Y-40162380D02*
X125240476Y-40210000D01*
X125240476Y-40210000D02*
X125145238Y-40257619D01*
X125145238Y-40257619D02*
X124954762Y-40257619D01*
X124954762Y-40257619D02*
X124859524Y-40210000D01*
X125907143Y-40257619D02*
X125811905Y-40210000D01*
X125811905Y-40210000D02*
X125764286Y-40114761D01*
X125764286Y-40114761D02*
X125764286Y-39257619D01*
X126288096Y-40257619D02*
X126288096Y-39590952D01*
X126288096Y-39257619D02*
X126240477Y-39305238D01*
X126240477Y-39305238D02*
X126288096Y-39352857D01*
X126288096Y-39352857D02*
X126335715Y-39305238D01*
X126335715Y-39305238D02*
X126288096Y-39257619D01*
X126288096Y-39257619D02*
X126288096Y-39352857D01*
X126621429Y-39590952D02*
X127002381Y-39590952D01*
X126764286Y-40257619D02*
X126764286Y-39400476D01*
X126764286Y-39400476D02*
X126811905Y-39305238D01*
X126811905Y-39305238D02*
X126907143Y-39257619D01*
X126907143Y-39257619D02*
X127002381Y-39257619D01*
X127335715Y-40257619D02*
X127335715Y-39590952D01*
X127335715Y-39257619D02*
X127288096Y-39305238D01*
X127288096Y-39305238D02*
X127335715Y-39352857D01*
X127335715Y-39352857D02*
X127383334Y-39305238D01*
X127383334Y-39305238D02*
X127335715Y-39257619D01*
X127335715Y-39257619D02*
X127335715Y-39352857D01*
X128192857Y-40210000D02*
X128097619Y-40257619D01*
X128097619Y-40257619D02*
X127907143Y-40257619D01*
X127907143Y-40257619D02*
X127811905Y-40210000D01*
X127811905Y-40210000D02*
X127764286Y-40114761D01*
X127764286Y-40114761D02*
X127764286Y-39733809D01*
X127764286Y-39733809D02*
X127811905Y-39638571D01*
X127811905Y-39638571D02*
X127907143Y-39590952D01*
X127907143Y-39590952D02*
X128097619Y-39590952D01*
X128097619Y-39590952D02*
X128192857Y-39638571D01*
X128192857Y-39638571D02*
X128240476Y-39733809D01*
X128240476Y-39733809D02*
X128240476Y-39829047D01*
X128240476Y-39829047D02*
X127764286Y-39924285D01*
X128669048Y-40257619D02*
X128669048Y-39590952D01*
X128669048Y-39781428D02*
X128716667Y-39686190D01*
X128716667Y-39686190D02*
X128764286Y-39638571D01*
X128764286Y-39638571D02*
X128859524Y-39590952D01*
X128859524Y-39590952D02*
X128954762Y-39590952D01*
X129954763Y-39590952D02*
X130192858Y-40257619D01*
X130192858Y-40257619D02*
X130430953Y-39590952D01*
X131335715Y-40257619D02*
X130764287Y-40257619D01*
X131050001Y-40257619D02*
X131050001Y-39257619D01*
X131050001Y-39257619D02*
X130954763Y-39400476D01*
X130954763Y-39400476D02*
X130859525Y-39495714D01*
X130859525Y-39495714D02*
X130764287Y-39543333D01*
X131764287Y-40162380D02*
X131811906Y-40210000D01*
X131811906Y-40210000D02*
X131764287Y-40257619D01*
X131764287Y-40257619D02*
X131716668Y-40210000D01*
X131716668Y-40210000D02*
X131764287Y-40162380D01*
X131764287Y-40162380D02*
X131764287Y-40257619D01*
X132430953Y-39257619D02*
X132526191Y-39257619D01*
X132526191Y-39257619D02*
X132621429Y-39305238D01*
X132621429Y-39305238D02*
X132669048Y-39352857D01*
X132669048Y-39352857D02*
X132716667Y-39448095D01*
X132716667Y-39448095D02*
X132764286Y-39638571D01*
X132764286Y-39638571D02*
X132764286Y-39876666D01*
X132764286Y-39876666D02*
X132716667Y-40067142D01*
X132716667Y-40067142D02*
X132669048Y-40162380D01*
X132669048Y-40162380D02*
X132621429Y-40210000D01*
X132621429Y-40210000D02*
X132526191Y-40257619D01*
X132526191Y-40257619D02*
X132430953Y-40257619D01*
X132430953Y-40257619D02*
X132335715Y-40210000D01*
X132335715Y-40210000D02*
X132288096Y-40162380D01*
X132288096Y-40162380D02*
X132240477Y-40067142D01*
X132240477Y-40067142D02*
X132192858Y-39876666D01*
X132192858Y-39876666D02*
X132192858Y-39638571D01*
X132192858Y-39638571D02*
X132240477Y-39448095D01*
X132240477Y-39448095D02*
X132288096Y-39352857D01*
X132288096Y-39352857D02*
X132335715Y-39305238D01*
X132335715Y-39305238D02*
X132430953Y-39257619D01*
X113288095Y-41877619D02*
X113288095Y-40877619D01*
X113288095Y-40877619D02*
X113621428Y-41591904D01*
X113621428Y-41591904D02*
X113954761Y-40877619D01*
X113954761Y-40877619D02*
X113954761Y-41877619D01*
X114859523Y-41877619D02*
X114859523Y-41353809D01*
X114859523Y-41353809D02*
X114811904Y-41258571D01*
X114811904Y-41258571D02*
X114716666Y-41210952D01*
X114716666Y-41210952D02*
X114526190Y-41210952D01*
X114526190Y-41210952D02*
X114430952Y-41258571D01*
X114859523Y-41830000D02*
X114764285Y-41877619D01*
X114764285Y-41877619D02*
X114526190Y-41877619D01*
X114526190Y-41877619D02*
X114430952Y-41830000D01*
X114430952Y-41830000D02*
X114383333Y-41734761D01*
X114383333Y-41734761D02*
X114383333Y-41639523D01*
X114383333Y-41639523D02*
X114430952Y-41544285D01*
X114430952Y-41544285D02*
X114526190Y-41496666D01*
X114526190Y-41496666D02*
X114764285Y-41496666D01*
X114764285Y-41496666D02*
X114859523Y-41449047D01*
X115764285Y-41877619D02*
X115764285Y-40877619D01*
X115764285Y-41830000D02*
X115669047Y-41877619D01*
X115669047Y-41877619D02*
X115478571Y-41877619D01*
X115478571Y-41877619D02*
X115383333Y-41830000D01*
X115383333Y-41830000D02*
X115335714Y-41782380D01*
X115335714Y-41782380D02*
X115288095Y-41687142D01*
X115288095Y-41687142D02*
X115288095Y-41401428D01*
X115288095Y-41401428D02*
X115335714Y-41306190D01*
X115335714Y-41306190D02*
X115383333Y-41258571D01*
X115383333Y-41258571D02*
X115478571Y-41210952D01*
X115478571Y-41210952D02*
X115669047Y-41210952D01*
X115669047Y-41210952D02*
X115764285Y-41258571D01*
X116621428Y-41830000D02*
X116526190Y-41877619D01*
X116526190Y-41877619D02*
X116335714Y-41877619D01*
X116335714Y-41877619D02*
X116240476Y-41830000D01*
X116240476Y-41830000D02*
X116192857Y-41734761D01*
X116192857Y-41734761D02*
X116192857Y-41353809D01*
X116192857Y-41353809D02*
X116240476Y-41258571D01*
X116240476Y-41258571D02*
X116335714Y-41210952D01*
X116335714Y-41210952D02*
X116526190Y-41210952D01*
X116526190Y-41210952D02*
X116621428Y-41258571D01*
X116621428Y-41258571D02*
X116669047Y-41353809D01*
X116669047Y-41353809D02*
X116669047Y-41449047D01*
X116669047Y-41449047D02*
X116192857Y-41544285D01*
X118192857Y-41353809D02*
X118335714Y-41401428D01*
X118335714Y-41401428D02*
X118383333Y-41449047D01*
X118383333Y-41449047D02*
X118430952Y-41544285D01*
X118430952Y-41544285D02*
X118430952Y-41687142D01*
X118430952Y-41687142D02*
X118383333Y-41782380D01*
X118383333Y-41782380D02*
X118335714Y-41830000D01*
X118335714Y-41830000D02*
X118240476Y-41877619D01*
X118240476Y-41877619D02*
X117859524Y-41877619D01*
X117859524Y-41877619D02*
X117859524Y-40877619D01*
X117859524Y-40877619D02*
X118192857Y-40877619D01*
X118192857Y-40877619D02*
X118288095Y-40925238D01*
X118288095Y-40925238D02*
X118335714Y-40972857D01*
X118335714Y-40972857D02*
X118383333Y-41068095D01*
X118383333Y-41068095D02*
X118383333Y-41163333D01*
X118383333Y-41163333D02*
X118335714Y-41258571D01*
X118335714Y-41258571D02*
X118288095Y-41306190D01*
X118288095Y-41306190D02*
X118192857Y-41353809D01*
X118192857Y-41353809D02*
X117859524Y-41353809D01*
X118764286Y-41210952D02*
X119002381Y-41877619D01*
X119240476Y-41210952D02*
X119002381Y-41877619D01*
X119002381Y-41877619D02*
X118907143Y-42115714D01*
X118907143Y-42115714D02*
X118859524Y-42163333D01*
X118859524Y-42163333D02*
X118764286Y-42210952D01*
X120954762Y-41782380D02*
X120907143Y-41830000D01*
X120907143Y-41830000D02*
X120764286Y-41877619D01*
X120764286Y-41877619D02*
X120669048Y-41877619D01*
X120669048Y-41877619D02*
X120526191Y-41830000D01*
X120526191Y-41830000D02*
X120430953Y-41734761D01*
X120430953Y-41734761D02*
X120383334Y-41639523D01*
X120383334Y-41639523D02*
X120335715Y-41449047D01*
X120335715Y-41449047D02*
X120335715Y-41306190D01*
X120335715Y-41306190D02*
X120383334Y-41115714D01*
X120383334Y-41115714D02*
X120430953Y-41020476D01*
X120430953Y-41020476D02*
X120526191Y-40925238D01*
X120526191Y-40925238D02*
X120669048Y-40877619D01*
X120669048Y-40877619D02*
X120764286Y-40877619D01*
X120764286Y-40877619D02*
X120907143Y-40925238D01*
X120907143Y-40925238D02*
X120954762Y-40972857D01*
X121383334Y-41877619D02*
X121383334Y-40877619D01*
X121811905Y-41877619D02*
X121811905Y-41353809D01*
X121811905Y-41353809D02*
X121764286Y-41258571D01*
X121764286Y-41258571D02*
X121669048Y-41210952D01*
X121669048Y-41210952D02*
X121526191Y-41210952D01*
X121526191Y-41210952D02*
X121430953Y-41258571D01*
X121430953Y-41258571D02*
X121383334Y-41306190D01*
X122288096Y-41877619D02*
X122288096Y-41210952D01*
X122288096Y-41401428D02*
X122335715Y-41306190D01*
X122335715Y-41306190D02*
X122383334Y-41258571D01*
X122383334Y-41258571D02*
X122478572Y-41210952D01*
X122478572Y-41210952D02*
X122573810Y-41210952D01*
X122907144Y-41877619D02*
X122907144Y-41210952D01*
X122907144Y-40877619D02*
X122859525Y-40925238D01*
X122859525Y-40925238D02*
X122907144Y-40972857D01*
X122907144Y-40972857D02*
X122954763Y-40925238D01*
X122954763Y-40925238D02*
X122907144Y-40877619D01*
X122907144Y-40877619D02*
X122907144Y-40972857D01*
X123335715Y-41830000D02*
X123430953Y-41877619D01*
X123430953Y-41877619D02*
X123621429Y-41877619D01*
X123621429Y-41877619D02*
X123716667Y-41830000D01*
X123716667Y-41830000D02*
X123764286Y-41734761D01*
X123764286Y-41734761D02*
X123764286Y-41687142D01*
X123764286Y-41687142D02*
X123716667Y-41591904D01*
X123716667Y-41591904D02*
X123621429Y-41544285D01*
X123621429Y-41544285D02*
X123478572Y-41544285D01*
X123478572Y-41544285D02*
X123383334Y-41496666D01*
X123383334Y-41496666D02*
X123335715Y-41401428D01*
X123335715Y-41401428D02*
X123335715Y-41353809D01*
X123335715Y-41353809D02*
X123383334Y-41258571D01*
X123383334Y-41258571D02*
X123478572Y-41210952D01*
X123478572Y-41210952D02*
X123621429Y-41210952D01*
X123621429Y-41210952D02*
X123716667Y-41258571D01*
X124954763Y-41877619D02*
X124954763Y-40877619D01*
X124954763Y-40877619D02*
X125526191Y-41877619D01*
X125526191Y-41877619D02*
X125526191Y-40877619D01*
X126145239Y-41877619D02*
X126050001Y-41830000D01*
X126050001Y-41830000D02*
X126002382Y-41782380D01*
X126002382Y-41782380D02*
X125954763Y-41687142D01*
X125954763Y-41687142D02*
X125954763Y-41401428D01*
X125954763Y-41401428D02*
X126002382Y-41306190D01*
X126002382Y-41306190D02*
X126050001Y-41258571D01*
X126050001Y-41258571D02*
X126145239Y-41210952D01*
X126145239Y-41210952D02*
X126288096Y-41210952D01*
X126288096Y-41210952D02*
X126383334Y-41258571D01*
X126383334Y-41258571D02*
X126430953Y-41306190D01*
X126430953Y-41306190D02*
X126478572Y-41401428D01*
X126478572Y-41401428D02*
X126478572Y-41687142D01*
X126478572Y-41687142D02*
X126430953Y-41782380D01*
X126430953Y-41782380D02*
X126383334Y-41830000D01*
X126383334Y-41830000D02*
X126288096Y-41877619D01*
X126288096Y-41877619D02*
X126145239Y-41877619D01*
X127335715Y-41877619D02*
X127335715Y-40877619D01*
X127335715Y-41830000D02*
X127240477Y-41877619D01*
X127240477Y-41877619D02*
X127050001Y-41877619D01*
X127050001Y-41877619D02*
X126954763Y-41830000D01*
X126954763Y-41830000D02*
X126907144Y-41782380D01*
X126907144Y-41782380D02*
X126859525Y-41687142D01*
X126859525Y-41687142D02*
X126859525Y-41401428D01*
X126859525Y-41401428D02*
X126907144Y-41306190D01*
X126907144Y-41306190D02*
X126954763Y-41258571D01*
X126954763Y-41258571D02*
X127050001Y-41210952D01*
X127050001Y-41210952D02*
X127240477Y-41210952D01*
X127240477Y-41210952D02*
X127335715Y-41258571D01*
X127811906Y-41877619D02*
X127811906Y-41210952D01*
X127811906Y-40877619D02*
X127764287Y-40925238D01*
X127764287Y-40925238D02*
X127811906Y-40972857D01*
X127811906Y-40972857D02*
X127859525Y-40925238D01*
X127859525Y-40925238D02*
X127811906Y-40877619D01*
X127811906Y-40877619D02*
X127811906Y-40972857D01*
X128288096Y-41210952D02*
X128288096Y-41877619D01*
X128288096Y-41306190D02*
X128335715Y-41258571D01*
X128335715Y-41258571D02*
X128430953Y-41210952D01*
X128430953Y-41210952D02*
X128573810Y-41210952D01*
X128573810Y-41210952D02*
X128669048Y-41258571D01*
X128669048Y-41258571D02*
X128716667Y-41353809D01*
X128716667Y-41353809D02*
X128716667Y-41877619D01*
X129573810Y-41830000D02*
X129478572Y-41877619D01*
X129478572Y-41877619D02*
X129288096Y-41877619D01*
X129288096Y-41877619D02*
X129192858Y-41830000D01*
X129192858Y-41830000D02*
X129145239Y-41734761D01*
X129145239Y-41734761D02*
X129145239Y-41353809D01*
X129145239Y-41353809D02*
X129192858Y-41258571D01*
X129192858Y-41258571D02*
X129288096Y-41210952D01*
X129288096Y-41210952D02*
X129478572Y-41210952D01*
X129478572Y-41210952D02*
X129573810Y-41258571D01*
X129573810Y-41258571D02*
X129621429Y-41353809D01*
X129621429Y-41353809D02*
X129621429Y-41449047D01*
X129621429Y-41449047D02*
X129145239Y-41544285D01*
%TO.C,*%
%TO.C,R9*%
X190933333Y-67662619D02*
X190600000Y-67186428D01*
X190361905Y-67662619D02*
X190361905Y-66662619D01*
X190361905Y-66662619D02*
X190742857Y-66662619D01*
X190742857Y-66662619D02*
X190838095Y-66710238D01*
X190838095Y-66710238D02*
X190885714Y-66757857D01*
X190885714Y-66757857D02*
X190933333Y-66853095D01*
X190933333Y-66853095D02*
X190933333Y-66995952D01*
X190933333Y-66995952D02*
X190885714Y-67091190D01*
X190885714Y-67091190D02*
X190838095Y-67138809D01*
X190838095Y-67138809D02*
X190742857Y-67186428D01*
X190742857Y-67186428D02*
X190361905Y-67186428D01*
X191409524Y-67662619D02*
X191600000Y-67662619D01*
X191600000Y-67662619D02*
X191695238Y-67615000D01*
X191695238Y-67615000D02*
X191742857Y-67567380D01*
X191742857Y-67567380D02*
X191838095Y-67424523D01*
X191838095Y-67424523D02*
X191885714Y-67234047D01*
X191885714Y-67234047D02*
X191885714Y-66853095D01*
X191885714Y-66853095D02*
X191838095Y-66757857D01*
X191838095Y-66757857D02*
X191790476Y-66710238D01*
X191790476Y-66710238D02*
X191695238Y-66662619D01*
X191695238Y-66662619D02*
X191504762Y-66662619D01*
X191504762Y-66662619D02*
X191409524Y-66710238D01*
X191409524Y-66710238D02*
X191361905Y-66757857D01*
X191361905Y-66757857D02*
X191314286Y-66853095D01*
X191314286Y-66853095D02*
X191314286Y-67091190D01*
X191314286Y-67091190D02*
X191361905Y-67186428D01*
X191361905Y-67186428D02*
X191409524Y-67234047D01*
X191409524Y-67234047D02*
X191504762Y-67281666D01*
X191504762Y-67281666D02*
X191695238Y-67281666D01*
X191695238Y-67281666D02*
X191790476Y-67234047D01*
X191790476Y-67234047D02*
X191838095Y-67186428D01*
X191838095Y-67186428D02*
X191885714Y-67091190D01*
X190383333Y-68257857D02*
X190430952Y-68210238D01*
X190430952Y-68210238D02*
X190526190Y-68162619D01*
X190526190Y-68162619D02*
X190764285Y-68162619D01*
X190764285Y-68162619D02*
X190859523Y-68210238D01*
X190859523Y-68210238D02*
X190907142Y-68257857D01*
X190907142Y-68257857D02*
X190954761Y-68353095D01*
X190954761Y-68353095D02*
X190954761Y-68448333D01*
X190954761Y-68448333D02*
X190907142Y-68591190D01*
X190907142Y-68591190D02*
X190335714Y-69162619D01*
X190335714Y-69162619D02*
X190954761Y-69162619D01*
X191335714Y-68257857D02*
X191383333Y-68210238D01*
X191383333Y-68210238D02*
X191478571Y-68162619D01*
X191478571Y-68162619D02*
X191716666Y-68162619D01*
X191716666Y-68162619D02*
X191811904Y-68210238D01*
X191811904Y-68210238D02*
X191859523Y-68257857D01*
X191859523Y-68257857D02*
X191907142Y-68353095D01*
X191907142Y-68353095D02*
X191907142Y-68448333D01*
X191907142Y-68448333D02*
X191859523Y-68591190D01*
X191859523Y-68591190D02*
X191288095Y-69162619D01*
X191288095Y-69162619D02*
X191907142Y-69162619D01*
X192335714Y-69162619D02*
X192335714Y-68162619D01*
X192430952Y-68781666D02*
X192716666Y-69162619D01*
X192716666Y-68495952D02*
X192335714Y-68876904D01*
%TO.C,R10*%
X154057142Y-81412619D02*
X153723809Y-80936428D01*
X153485714Y-81412619D02*
X153485714Y-80412619D01*
X153485714Y-80412619D02*
X153866666Y-80412619D01*
X153866666Y-80412619D02*
X153961904Y-80460238D01*
X153961904Y-80460238D02*
X154009523Y-80507857D01*
X154009523Y-80507857D02*
X154057142Y-80603095D01*
X154057142Y-80603095D02*
X154057142Y-80745952D01*
X154057142Y-80745952D02*
X154009523Y-80841190D01*
X154009523Y-80841190D02*
X153961904Y-80888809D01*
X153961904Y-80888809D02*
X153866666Y-80936428D01*
X153866666Y-80936428D02*
X153485714Y-80936428D01*
X155009523Y-81412619D02*
X154438095Y-81412619D01*
X154723809Y-81412619D02*
X154723809Y-80412619D01*
X154723809Y-80412619D02*
X154628571Y-80555476D01*
X154628571Y-80555476D02*
X154533333Y-80650714D01*
X154533333Y-80650714D02*
X154438095Y-80698333D01*
X155628571Y-80412619D02*
X155723809Y-80412619D01*
X155723809Y-80412619D02*
X155819047Y-80460238D01*
X155819047Y-80460238D02*
X155866666Y-80507857D01*
X155866666Y-80507857D02*
X155914285Y-80603095D01*
X155914285Y-80603095D02*
X155961904Y-80793571D01*
X155961904Y-80793571D02*
X155961904Y-81031666D01*
X155961904Y-81031666D02*
X155914285Y-81222142D01*
X155914285Y-81222142D02*
X155866666Y-81317380D01*
X155866666Y-81317380D02*
X155819047Y-81365000D01*
X155819047Y-81365000D02*
X155723809Y-81412619D01*
X155723809Y-81412619D02*
X155628571Y-81412619D01*
X155628571Y-81412619D02*
X155533333Y-81365000D01*
X155533333Y-81365000D02*
X155485714Y-81317380D01*
X155485714Y-81317380D02*
X155438095Y-81222142D01*
X155438095Y-81222142D02*
X155390476Y-81031666D01*
X155390476Y-81031666D02*
X155390476Y-80793571D01*
X155390476Y-80793571D02*
X155438095Y-80603095D01*
X155438095Y-80603095D02*
X155485714Y-80507857D01*
X155485714Y-80507857D02*
X155533333Y-80460238D01*
X155533333Y-80460238D02*
X155628571Y-80412619D01*
X150333333Y-80657857D02*
X150380952Y-80610238D01*
X150380952Y-80610238D02*
X150476190Y-80562619D01*
X150476190Y-80562619D02*
X150714285Y-80562619D01*
X150714285Y-80562619D02*
X150809523Y-80610238D01*
X150809523Y-80610238D02*
X150857142Y-80657857D01*
X150857142Y-80657857D02*
X150904761Y-80753095D01*
X150904761Y-80753095D02*
X150904761Y-80848333D01*
X150904761Y-80848333D02*
X150857142Y-80991190D01*
X150857142Y-80991190D02*
X150285714Y-81562619D01*
X150285714Y-81562619D02*
X150904761Y-81562619D01*
X151285714Y-80657857D02*
X151333333Y-80610238D01*
X151333333Y-80610238D02*
X151428571Y-80562619D01*
X151428571Y-80562619D02*
X151666666Y-80562619D01*
X151666666Y-80562619D02*
X151761904Y-80610238D01*
X151761904Y-80610238D02*
X151809523Y-80657857D01*
X151809523Y-80657857D02*
X151857142Y-80753095D01*
X151857142Y-80753095D02*
X151857142Y-80848333D01*
X151857142Y-80848333D02*
X151809523Y-80991190D01*
X151809523Y-80991190D02*
X151238095Y-81562619D01*
X151238095Y-81562619D02*
X151857142Y-81562619D01*
X152285714Y-81562619D02*
X152285714Y-80562619D01*
X152380952Y-81181666D02*
X152666666Y-81562619D01*
X152666666Y-80895952D02*
X152285714Y-81276904D01*
%TO.C,C10*%
X173407142Y-69617380D02*
X173359523Y-69665000D01*
X173359523Y-69665000D02*
X173216666Y-69712619D01*
X173216666Y-69712619D02*
X173121428Y-69712619D01*
X173121428Y-69712619D02*
X172978571Y-69665000D01*
X172978571Y-69665000D02*
X172883333Y-69569761D01*
X172883333Y-69569761D02*
X172835714Y-69474523D01*
X172835714Y-69474523D02*
X172788095Y-69284047D01*
X172788095Y-69284047D02*
X172788095Y-69141190D01*
X172788095Y-69141190D02*
X172835714Y-68950714D01*
X172835714Y-68950714D02*
X172883333Y-68855476D01*
X172883333Y-68855476D02*
X172978571Y-68760238D01*
X172978571Y-68760238D02*
X173121428Y-68712619D01*
X173121428Y-68712619D02*
X173216666Y-68712619D01*
X173216666Y-68712619D02*
X173359523Y-68760238D01*
X173359523Y-68760238D02*
X173407142Y-68807857D01*
X174359523Y-69712619D02*
X173788095Y-69712619D01*
X174073809Y-69712619D02*
X174073809Y-68712619D01*
X174073809Y-68712619D02*
X173978571Y-68855476D01*
X173978571Y-68855476D02*
X173883333Y-68950714D01*
X173883333Y-68950714D02*
X173788095Y-68998333D01*
X174978571Y-68712619D02*
X175073809Y-68712619D01*
X175073809Y-68712619D02*
X175169047Y-68760238D01*
X175169047Y-68760238D02*
X175216666Y-68807857D01*
X175216666Y-68807857D02*
X175264285Y-68903095D01*
X175264285Y-68903095D02*
X175311904Y-69093571D01*
X175311904Y-69093571D02*
X175311904Y-69331666D01*
X175311904Y-69331666D02*
X175264285Y-69522142D01*
X175264285Y-69522142D02*
X175216666Y-69617380D01*
X175216666Y-69617380D02*
X175169047Y-69665000D01*
X175169047Y-69665000D02*
X175073809Y-69712619D01*
X175073809Y-69712619D02*
X174978571Y-69712619D01*
X174978571Y-69712619D02*
X174883333Y-69665000D01*
X174883333Y-69665000D02*
X174835714Y-69617380D01*
X174835714Y-69617380D02*
X174788095Y-69522142D01*
X174788095Y-69522142D02*
X174740476Y-69331666D01*
X174740476Y-69331666D02*
X174740476Y-69093571D01*
X174740476Y-69093571D02*
X174788095Y-68903095D01*
X174788095Y-68903095D02*
X174835714Y-68807857D01*
X174835714Y-68807857D02*
X174883333Y-68760238D01*
X174883333Y-68760238D02*
X174978571Y-68712619D01*
X172507143Y-67057857D02*
X172554762Y-67010238D01*
X172554762Y-67010238D02*
X172650000Y-66962619D01*
X172650000Y-66962619D02*
X172888095Y-66962619D01*
X172888095Y-66962619D02*
X172983333Y-67010238D01*
X172983333Y-67010238D02*
X173030952Y-67057857D01*
X173030952Y-67057857D02*
X173078571Y-67153095D01*
X173078571Y-67153095D02*
X173078571Y-67248333D01*
X173078571Y-67248333D02*
X173030952Y-67391190D01*
X173030952Y-67391190D02*
X172459524Y-67962619D01*
X172459524Y-67962619D02*
X173078571Y-67962619D01*
X173459524Y-67057857D02*
X173507143Y-67010238D01*
X173507143Y-67010238D02*
X173602381Y-66962619D01*
X173602381Y-66962619D02*
X173840476Y-66962619D01*
X173840476Y-66962619D02*
X173935714Y-67010238D01*
X173935714Y-67010238D02*
X173983333Y-67057857D01*
X173983333Y-67057857D02*
X174030952Y-67153095D01*
X174030952Y-67153095D02*
X174030952Y-67248333D01*
X174030952Y-67248333D02*
X173983333Y-67391190D01*
X173983333Y-67391190D02*
X173411905Y-67962619D01*
X173411905Y-67962619D02*
X174030952Y-67962619D01*
X174888095Y-67295952D02*
X174888095Y-67962619D01*
X174459524Y-67295952D02*
X174459524Y-67819761D01*
X174459524Y-67819761D02*
X174507143Y-67915000D01*
X174507143Y-67915000D02*
X174602381Y-67962619D01*
X174602381Y-67962619D02*
X174745238Y-67962619D01*
X174745238Y-67962619D02*
X174840476Y-67915000D01*
X174840476Y-67915000D02*
X174888095Y-67867380D01*
X175697619Y-67438809D02*
X175364286Y-67438809D01*
X175364286Y-67962619D02*
X175364286Y-66962619D01*
X175364286Y-66962619D02*
X175840476Y-66962619D01*
%TO.C,C15*%
X124607142Y-88817380D02*
X124559523Y-88865000D01*
X124559523Y-88865000D02*
X124416666Y-88912619D01*
X124416666Y-88912619D02*
X124321428Y-88912619D01*
X124321428Y-88912619D02*
X124178571Y-88865000D01*
X124178571Y-88865000D02*
X124083333Y-88769761D01*
X124083333Y-88769761D02*
X124035714Y-88674523D01*
X124035714Y-88674523D02*
X123988095Y-88484047D01*
X123988095Y-88484047D02*
X123988095Y-88341190D01*
X123988095Y-88341190D02*
X124035714Y-88150714D01*
X124035714Y-88150714D02*
X124083333Y-88055476D01*
X124083333Y-88055476D02*
X124178571Y-87960238D01*
X124178571Y-87960238D02*
X124321428Y-87912619D01*
X124321428Y-87912619D02*
X124416666Y-87912619D01*
X124416666Y-87912619D02*
X124559523Y-87960238D01*
X124559523Y-87960238D02*
X124607142Y-88007857D01*
X125559523Y-88912619D02*
X124988095Y-88912619D01*
X125273809Y-88912619D02*
X125273809Y-87912619D01*
X125273809Y-87912619D02*
X125178571Y-88055476D01*
X125178571Y-88055476D02*
X125083333Y-88150714D01*
X125083333Y-88150714D02*
X124988095Y-88198333D01*
X126464285Y-87912619D02*
X125988095Y-87912619D01*
X125988095Y-87912619D02*
X125940476Y-88388809D01*
X125940476Y-88388809D02*
X125988095Y-88341190D01*
X125988095Y-88341190D02*
X126083333Y-88293571D01*
X126083333Y-88293571D02*
X126321428Y-88293571D01*
X126321428Y-88293571D02*
X126416666Y-88341190D01*
X126416666Y-88341190D02*
X126464285Y-88388809D01*
X126464285Y-88388809D02*
X126511904Y-88484047D01*
X126511904Y-88484047D02*
X126511904Y-88722142D01*
X126511904Y-88722142D02*
X126464285Y-88817380D01*
X126464285Y-88817380D02*
X126416666Y-88865000D01*
X126416666Y-88865000D02*
X126321428Y-88912619D01*
X126321428Y-88912619D02*
X126083333Y-88912619D01*
X126083333Y-88912619D02*
X125988095Y-88865000D01*
X125988095Y-88865000D02*
X125940476Y-88817380D01*
X122326190Y-91462619D02*
X121754762Y-91462619D01*
X122040476Y-91462619D02*
X122040476Y-90462619D01*
X122040476Y-90462619D02*
X121945238Y-90605476D01*
X121945238Y-90605476D02*
X121850000Y-90700714D01*
X121850000Y-90700714D02*
X121754762Y-90748333D01*
X122945238Y-90462619D02*
X123040476Y-90462619D01*
X123040476Y-90462619D02*
X123135714Y-90510238D01*
X123135714Y-90510238D02*
X123183333Y-90557857D01*
X123183333Y-90557857D02*
X123230952Y-90653095D01*
X123230952Y-90653095D02*
X123278571Y-90843571D01*
X123278571Y-90843571D02*
X123278571Y-91081666D01*
X123278571Y-91081666D02*
X123230952Y-91272142D01*
X123230952Y-91272142D02*
X123183333Y-91367380D01*
X123183333Y-91367380D02*
X123135714Y-91415000D01*
X123135714Y-91415000D02*
X123040476Y-91462619D01*
X123040476Y-91462619D02*
X122945238Y-91462619D01*
X122945238Y-91462619D02*
X122850000Y-91415000D01*
X122850000Y-91415000D02*
X122802381Y-91367380D01*
X122802381Y-91367380D02*
X122754762Y-91272142D01*
X122754762Y-91272142D02*
X122707143Y-91081666D01*
X122707143Y-91081666D02*
X122707143Y-90843571D01*
X122707143Y-90843571D02*
X122754762Y-90653095D01*
X122754762Y-90653095D02*
X122802381Y-90557857D01*
X122802381Y-90557857D02*
X122850000Y-90510238D01*
X122850000Y-90510238D02*
X122945238Y-90462619D01*
X123897619Y-90462619D02*
X123992857Y-90462619D01*
X123992857Y-90462619D02*
X124088095Y-90510238D01*
X124088095Y-90510238D02*
X124135714Y-90557857D01*
X124135714Y-90557857D02*
X124183333Y-90653095D01*
X124183333Y-90653095D02*
X124230952Y-90843571D01*
X124230952Y-90843571D02*
X124230952Y-91081666D01*
X124230952Y-91081666D02*
X124183333Y-91272142D01*
X124183333Y-91272142D02*
X124135714Y-91367380D01*
X124135714Y-91367380D02*
X124088095Y-91415000D01*
X124088095Y-91415000D02*
X123992857Y-91462619D01*
X123992857Y-91462619D02*
X123897619Y-91462619D01*
X123897619Y-91462619D02*
X123802381Y-91415000D01*
X123802381Y-91415000D02*
X123754762Y-91367380D01*
X123754762Y-91367380D02*
X123707143Y-91272142D01*
X123707143Y-91272142D02*
X123659524Y-91081666D01*
X123659524Y-91081666D02*
X123659524Y-90843571D01*
X123659524Y-90843571D02*
X123707143Y-90653095D01*
X123707143Y-90653095D02*
X123754762Y-90557857D01*
X123754762Y-90557857D02*
X123802381Y-90510238D01*
X123802381Y-90510238D02*
X123897619Y-90462619D01*
X124850000Y-90462619D02*
X124945238Y-90462619D01*
X124945238Y-90462619D02*
X125040476Y-90510238D01*
X125040476Y-90510238D02*
X125088095Y-90557857D01*
X125088095Y-90557857D02*
X125135714Y-90653095D01*
X125135714Y-90653095D02*
X125183333Y-90843571D01*
X125183333Y-90843571D02*
X125183333Y-91081666D01*
X125183333Y-91081666D02*
X125135714Y-91272142D01*
X125135714Y-91272142D02*
X125088095Y-91367380D01*
X125088095Y-91367380D02*
X125040476Y-91415000D01*
X125040476Y-91415000D02*
X124945238Y-91462619D01*
X124945238Y-91462619D02*
X124850000Y-91462619D01*
X124850000Y-91462619D02*
X124754762Y-91415000D01*
X124754762Y-91415000D02*
X124707143Y-91367380D01*
X124707143Y-91367380D02*
X124659524Y-91272142D01*
X124659524Y-91272142D02*
X124611905Y-91081666D01*
X124611905Y-91081666D02*
X124611905Y-90843571D01*
X124611905Y-90843571D02*
X124659524Y-90653095D01*
X124659524Y-90653095D02*
X124707143Y-90557857D01*
X124707143Y-90557857D02*
X124754762Y-90510238D01*
X124754762Y-90510238D02*
X124850000Y-90462619D01*
X126040476Y-90795952D02*
X126040476Y-91462619D01*
X125611905Y-90795952D02*
X125611905Y-91319761D01*
X125611905Y-91319761D02*
X125659524Y-91415000D01*
X125659524Y-91415000D02*
X125754762Y-91462619D01*
X125754762Y-91462619D02*
X125897619Y-91462619D01*
X125897619Y-91462619D02*
X125992857Y-91415000D01*
X125992857Y-91415000D02*
X126040476Y-91367380D01*
X126850000Y-90938809D02*
X126516667Y-90938809D01*
X126516667Y-91462619D02*
X126516667Y-90462619D01*
X126516667Y-90462619D02*
X126992857Y-90462619D01*
%TO.C,J6*%
X181116666Y-45962619D02*
X181116666Y-46676904D01*
X181116666Y-46676904D02*
X181069047Y-46819761D01*
X181069047Y-46819761D02*
X180973809Y-46915000D01*
X180973809Y-46915000D02*
X180830952Y-46962619D01*
X180830952Y-46962619D02*
X180735714Y-46962619D01*
X182021428Y-45962619D02*
X181830952Y-45962619D01*
X181830952Y-45962619D02*
X181735714Y-46010238D01*
X181735714Y-46010238D02*
X181688095Y-46057857D01*
X181688095Y-46057857D02*
X181592857Y-46200714D01*
X181592857Y-46200714D02*
X181545238Y-46391190D01*
X181545238Y-46391190D02*
X181545238Y-46772142D01*
X181545238Y-46772142D02*
X181592857Y-46867380D01*
X181592857Y-46867380D02*
X181640476Y-46915000D01*
X181640476Y-46915000D02*
X181735714Y-46962619D01*
X181735714Y-46962619D02*
X181926190Y-46962619D01*
X181926190Y-46962619D02*
X182021428Y-46915000D01*
X182021428Y-46915000D02*
X182069047Y-46867380D01*
X182069047Y-46867380D02*
X182116666Y-46772142D01*
X182116666Y-46772142D02*
X182116666Y-46534047D01*
X182116666Y-46534047D02*
X182069047Y-46438809D01*
X182069047Y-46438809D02*
X182021428Y-46391190D01*
X182021428Y-46391190D02*
X181926190Y-46343571D01*
X181926190Y-46343571D02*
X181735714Y-46343571D01*
X181735714Y-46343571D02*
X181640476Y-46391190D01*
X181640476Y-46391190D02*
X181592857Y-46438809D01*
X181592857Y-46438809D02*
X181545238Y-46534047D01*
X183354761Y-39015000D02*
X183497618Y-39062619D01*
X183497618Y-39062619D02*
X183735713Y-39062619D01*
X183735713Y-39062619D02*
X183830951Y-39015000D01*
X183830951Y-39015000D02*
X183878570Y-38967380D01*
X183878570Y-38967380D02*
X183926189Y-38872142D01*
X183926189Y-38872142D02*
X183926189Y-38776904D01*
X183926189Y-38776904D02*
X183878570Y-38681666D01*
X183878570Y-38681666D02*
X183830951Y-38634047D01*
X183830951Y-38634047D02*
X183735713Y-38586428D01*
X183735713Y-38586428D02*
X183545237Y-38538809D01*
X183545237Y-38538809D02*
X183449999Y-38491190D01*
X183449999Y-38491190D02*
X183402380Y-38443571D01*
X183402380Y-38443571D02*
X183354761Y-38348333D01*
X183354761Y-38348333D02*
X183354761Y-38253095D01*
X183354761Y-38253095D02*
X183402380Y-38157857D01*
X183402380Y-38157857D02*
X183449999Y-38110238D01*
X183449999Y-38110238D02*
X183545237Y-38062619D01*
X183545237Y-38062619D02*
X183783332Y-38062619D01*
X183783332Y-38062619D02*
X183926189Y-38110238D01*
X184354761Y-38395952D02*
X184354761Y-39395952D01*
X184354761Y-38443571D02*
X184449999Y-38395952D01*
X184449999Y-38395952D02*
X184640475Y-38395952D01*
X184640475Y-38395952D02*
X184735713Y-38443571D01*
X184735713Y-38443571D02*
X184783332Y-38491190D01*
X184783332Y-38491190D02*
X184830951Y-38586428D01*
X184830951Y-38586428D02*
X184830951Y-38872142D01*
X184830951Y-38872142D02*
X184783332Y-38967380D01*
X184783332Y-38967380D02*
X184735713Y-39015000D01*
X184735713Y-39015000D02*
X184640475Y-39062619D01*
X184640475Y-39062619D02*
X184449999Y-39062619D01*
X184449999Y-39062619D02*
X184354761Y-39015000D01*
X185640475Y-39015000D02*
X185545237Y-39062619D01*
X185545237Y-39062619D02*
X185354761Y-39062619D01*
X185354761Y-39062619D02*
X185259523Y-39015000D01*
X185259523Y-39015000D02*
X185211904Y-38919761D01*
X185211904Y-38919761D02*
X185211904Y-38538809D01*
X185211904Y-38538809D02*
X185259523Y-38443571D01*
X185259523Y-38443571D02*
X185354761Y-38395952D01*
X185354761Y-38395952D02*
X185545237Y-38395952D01*
X185545237Y-38395952D02*
X185640475Y-38443571D01*
X185640475Y-38443571D02*
X185688094Y-38538809D01*
X185688094Y-38538809D02*
X185688094Y-38634047D01*
X185688094Y-38634047D02*
X185211904Y-38729285D01*
X186545237Y-39062619D02*
X186545237Y-38538809D01*
X186545237Y-38538809D02*
X186497618Y-38443571D01*
X186497618Y-38443571D02*
X186402380Y-38395952D01*
X186402380Y-38395952D02*
X186211904Y-38395952D01*
X186211904Y-38395952D02*
X186116666Y-38443571D01*
X186545237Y-39015000D02*
X186449999Y-39062619D01*
X186449999Y-39062619D02*
X186211904Y-39062619D01*
X186211904Y-39062619D02*
X186116666Y-39015000D01*
X186116666Y-39015000D02*
X186069047Y-38919761D01*
X186069047Y-38919761D02*
X186069047Y-38824523D01*
X186069047Y-38824523D02*
X186116666Y-38729285D01*
X186116666Y-38729285D02*
X186211904Y-38681666D01*
X186211904Y-38681666D02*
X186449999Y-38681666D01*
X186449999Y-38681666D02*
X186545237Y-38634047D01*
X187021428Y-39062619D02*
X187021428Y-38062619D01*
X187116666Y-38681666D02*
X187402380Y-39062619D01*
X187402380Y-38395952D02*
X187021428Y-38776904D01*
X188211904Y-39015000D02*
X188116666Y-39062619D01*
X188116666Y-39062619D02*
X187926190Y-39062619D01*
X187926190Y-39062619D02*
X187830952Y-39015000D01*
X187830952Y-39015000D02*
X187783333Y-38919761D01*
X187783333Y-38919761D02*
X187783333Y-38538809D01*
X187783333Y-38538809D02*
X187830952Y-38443571D01*
X187830952Y-38443571D02*
X187926190Y-38395952D01*
X187926190Y-38395952D02*
X188116666Y-38395952D01*
X188116666Y-38395952D02*
X188211904Y-38443571D01*
X188211904Y-38443571D02*
X188259523Y-38538809D01*
X188259523Y-38538809D02*
X188259523Y-38634047D01*
X188259523Y-38634047D02*
X187783333Y-38729285D01*
X188688095Y-39062619D02*
X188688095Y-38395952D01*
X188688095Y-38586428D02*
X188735714Y-38491190D01*
X188735714Y-38491190D02*
X188783333Y-38443571D01*
X188783333Y-38443571D02*
X188878571Y-38395952D01*
X188878571Y-38395952D02*
X188973809Y-38395952D01*
X190259524Y-38062619D02*
X190450000Y-38062619D01*
X190450000Y-38062619D02*
X190545238Y-38110238D01*
X190545238Y-38110238D02*
X190640476Y-38205476D01*
X190640476Y-38205476D02*
X190688095Y-38395952D01*
X190688095Y-38395952D02*
X190688095Y-38729285D01*
X190688095Y-38729285D02*
X190640476Y-38919761D01*
X190640476Y-38919761D02*
X190545238Y-39015000D01*
X190545238Y-39015000D02*
X190450000Y-39062619D01*
X190450000Y-39062619D02*
X190259524Y-39062619D01*
X190259524Y-39062619D02*
X190164286Y-39015000D01*
X190164286Y-39015000D02*
X190069048Y-38919761D01*
X190069048Y-38919761D02*
X190021429Y-38729285D01*
X190021429Y-38729285D02*
X190021429Y-38395952D01*
X190021429Y-38395952D02*
X190069048Y-38205476D01*
X190069048Y-38205476D02*
X190164286Y-38110238D01*
X190164286Y-38110238D02*
X190259524Y-38062619D01*
X191545238Y-38395952D02*
X191545238Y-39062619D01*
X191116667Y-38395952D02*
X191116667Y-38919761D01*
X191116667Y-38919761D02*
X191164286Y-39015000D01*
X191164286Y-39015000D02*
X191259524Y-39062619D01*
X191259524Y-39062619D02*
X191402381Y-39062619D01*
X191402381Y-39062619D02*
X191497619Y-39015000D01*
X191497619Y-39015000D02*
X191545238Y-38967380D01*
X191878572Y-38395952D02*
X192259524Y-38395952D01*
X192021429Y-38062619D02*
X192021429Y-38919761D01*
X192021429Y-38919761D02*
X192069048Y-39015000D01*
X192069048Y-39015000D02*
X192164286Y-39062619D01*
X192164286Y-39062619D02*
X192259524Y-39062619D01*
X193021429Y-38395952D02*
X193021429Y-39062619D01*
X192592858Y-38395952D02*
X192592858Y-38919761D01*
X192592858Y-38919761D02*
X192640477Y-39015000D01*
X192640477Y-39015000D02*
X192735715Y-39062619D01*
X192735715Y-39062619D02*
X192878572Y-39062619D01*
X192878572Y-39062619D02*
X192973810Y-39015000D01*
X192973810Y-39015000D02*
X193021429Y-38967380D01*
X193497620Y-38395952D02*
X193497620Y-39395952D01*
X193497620Y-38443571D02*
X193592858Y-38395952D01*
X193592858Y-38395952D02*
X193783334Y-38395952D01*
X193783334Y-38395952D02*
X193878572Y-38443571D01*
X193878572Y-38443571D02*
X193926191Y-38491190D01*
X193926191Y-38491190D02*
X193973810Y-38586428D01*
X193973810Y-38586428D02*
X193973810Y-38872142D01*
X193973810Y-38872142D02*
X193926191Y-38967380D01*
X193926191Y-38967380D02*
X193878572Y-39015000D01*
X193878572Y-39015000D02*
X193783334Y-39062619D01*
X193783334Y-39062619D02*
X193592858Y-39062619D01*
X193592858Y-39062619D02*
X193497620Y-39015000D01*
X194259525Y-38395952D02*
X194640477Y-38395952D01*
X194402382Y-38062619D02*
X194402382Y-38919761D01*
X194402382Y-38919761D02*
X194450001Y-39015000D01*
X194450001Y-39015000D02*
X194545239Y-39062619D01*
X194545239Y-39062619D02*
X194640477Y-39062619D01*
%TO.C,J3*%
X159876666Y-76862619D02*
X159876666Y-77576904D01*
X159876666Y-77576904D02*
X159829047Y-77719761D01*
X159829047Y-77719761D02*
X159733809Y-77815000D01*
X159733809Y-77815000D02*
X159590952Y-77862619D01*
X159590952Y-77862619D02*
X159495714Y-77862619D01*
X160257619Y-76862619D02*
X160876666Y-76862619D01*
X160876666Y-76862619D02*
X160543333Y-77243571D01*
X160543333Y-77243571D02*
X160686190Y-77243571D01*
X160686190Y-77243571D02*
X160781428Y-77291190D01*
X160781428Y-77291190D02*
X160829047Y-77338809D01*
X160829047Y-77338809D02*
X160876666Y-77434047D01*
X160876666Y-77434047D02*
X160876666Y-77672142D01*
X160876666Y-77672142D02*
X160829047Y-77767380D01*
X160829047Y-77767380D02*
X160781428Y-77815000D01*
X160781428Y-77815000D02*
X160686190Y-77862619D01*
X160686190Y-77862619D02*
X160400476Y-77862619D01*
X160400476Y-77862619D02*
X160305238Y-77815000D01*
X160305238Y-77815000D02*
X160257619Y-77767380D01*
X157599760Y-56908809D02*
X157266427Y-56908809D01*
X157266427Y-57432619D02*
X157266427Y-56432619D01*
X157266427Y-56432619D02*
X157742617Y-56432619D01*
X158123570Y-57432619D02*
X158123570Y-56765952D01*
X158123570Y-56956428D02*
X158171189Y-56861190D01*
X158171189Y-56861190D02*
X158218808Y-56813571D01*
X158218808Y-56813571D02*
X158314046Y-56765952D01*
X158314046Y-56765952D02*
X158409284Y-56765952D01*
X158885475Y-57432619D02*
X158790237Y-57385000D01*
X158790237Y-57385000D02*
X158742618Y-57337380D01*
X158742618Y-57337380D02*
X158694999Y-57242142D01*
X158694999Y-57242142D02*
X158694999Y-56956428D01*
X158694999Y-56956428D02*
X158742618Y-56861190D01*
X158742618Y-56861190D02*
X158790237Y-56813571D01*
X158790237Y-56813571D02*
X158885475Y-56765952D01*
X158885475Y-56765952D02*
X159028332Y-56765952D01*
X159028332Y-56765952D02*
X159123570Y-56813571D01*
X159123570Y-56813571D02*
X159171189Y-56861190D01*
X159171189Y-56861190D02*
X159218808Y-56956428D01*
X159218808Y-56956428D02*
X159218808Y-57242142D01*
X159218808Y-57242142D02*
X159171189Y-57337380D01*
X159171189Y-57337380D02*
X159123570Y-57385000D01*
X159123570Y-57385000D02*
X159028332Y-57432619D01*
X159028332Y-57432619D02*
X158885475Y-57432619D01*
X159647380Y-56765952D02*
X159647380Y-57432619D01*
X159647380Y-56861190D02*
X159694999Y-56813571D01*
X159694999Y-56813571D02*
X159790237Y-56765952D01*
X159790237Y-56765952D02*
X159933094Y-56765952D01*
X159933094Y-56765952D02*
X160028332Y-56813571D01*
X160028332Y-56813571D02*
X160075951Y-56908809D01*
X160075951Y-56908809D02*
X160075951Y-57432619D01*
X160409285Y-56765952D02*
X160790237Y-56765952D01*
X160552142Y-56432619D02*
X160552142Y-57289761D01*
X160552142Y-57289761D02*
X160599761Y-57385000D01*
X160599761Y-57385000D02*
X160694999Y-57432619D01*
X160694999Y-57432619D02*
X160790237Y-57432619D01*
X161885476Y-57432619D02*
X161885476Y-56432619D01*
X161885476Y-56432619D02*
X162266428Y-56432619D01*
X162266428Y-56432619D02*
X162361666Y-56480238D01*
X162361666Y-56480238D02*
X162409285Y-56527857D01*
X162409285Y-56527857D02*
X162456904Y-56623095D01*
X162456904Y-56623095D02*
X162456904Y-56765952D01*
X162456904Y-56765952D02*
X162409285Y-56861190D01*
X162409285Y-56861190D02*
X162361666Y-56908809D01*
X162361666Y-56908809D02*
X162266428Y-56956428D01*
X162266428Y-56956428D02*
X161885476Y-56956428D01*
X162885476Y-57432619D02*
X162885476Y-56765952D01*
X162885476Y-56432619D02*
X162837857Y-56480238D01*
X162837857Y-56480238D02*
X162885476Y-56527857D01*
X162885476Y-56527857D02*
X162933095Y-56480238D01*
X162933095Y-56480238D02*
X162885476Y-56432619D01*
X162885476Y-56432619D02*
X162885476Y-56527857D01*
X163361666Y-56765952D02*
X163361666Y-57432619D01*
X163361666Y-56861190D02*
X163409285Y-56813571D01*
X163409285Y-56813571D02*
X163504523Y-56765952D01*
X163504523Y-56765952D02*
X163647380Y-56765952D01*
X163647380Y-56765952D02*
X163742618Y-56813571D01*
X163742618Y-56813571D02*
X163790237Y-56908809D01*
X163790237Y-56908809D02*
X163790237Y-57432619D01*
X164218809Y-57385000D02*
X164314047Y-57432619D01*
X164314047Y-57432619D02*
X164504523Y-57432619D01*
X164504523Y-57432619D02*
X164599761Y-57385000D01*
X164599761Y-57385000D02*
X164647380Y-57289761D01*
X164647380Y-57289761D02*
X164647380Y-57242142D01*
X164647380Y-57242142D02*
X164599761Y-57146904D01*
X164599761Y-57146904D02*
X164504523Y-57099285D01*
X164504523Y-57099285D02*
X164361666Y-57099285D01*
X164361666Y-57099285D02*
X164266428Y-57051666D01*
X164266428Y-57051666D02*
X164218809Y-56956428D01*
X164218809Y-56956428D02*
X164218809Y-56908809D01*
X164218809Y-56908809D02*
X164266428Y-56813571D01*
X164266428Y-56813571D02*
X164361666Y-56765952D01*
X164361666Y-56765952D02*
X164504523Y-56765952D01*
X164504523Y-56765952D02*
X164599761Y-56813571D01*
X166123571Y-57813571D02*
X166075952Y-57765952D01*
X166075952Y-57765952D02*
X165980714Y-57623095D01*
X165980714Y-57623095D02*
X165933095Y-57527857D01*
X165933095Y-57527857D02*
X165885476Y-57385000D01*
X165885476Y-57385000D02*
X165837857Y-57146904D01*
X165837857Y-57146904D02*
X165837857Y-56956428D01*
X165837857Y-56956428D02*
X165885476Y-56718333D01*
X165885476Y-56718333D02*
X165933095Y-56575476D01*
X165933095Y-56575476D02*
X165980714Y-56480238D01*
X165980714Y-56480238D02*
X166075952Y-56337380D01*
X166075952Y-56337380D02*
X166123571Y-56289761D01*
X166504524Y-56908809D02*
X166837857Y-56908809D01*
X166980714Y-57432619D02*
X166504524Y-57432619D01*
X166504524Y-57432619D02*
X166504524Y-56432619D01*
X166504524Y-56432619D02*
X166980714Y-56432619D01*
X167314048Y-56765952D02*
X167552143Y-57432619D01*
X167552143Y-57432619D02*
X167790238Y-56765952D01*
X168552143Y-57385000D02*
X168456905Y-57432619D01*
X168456905Y-57432619D02*
X168266429Y-57432619D01*
X168266429Y-57432619D02*
X168171191Y-57385000D01*
X168171191Y-57385000D02*
X168123572Y-57289761D01*
X168123572Y-57289761D02*
X168123572Y-56908809D01*
X168123572Y-56908809D02*
X168171191Y-56813571D01*
X168171191Y-56813571D02*
X168266429Y-56765952D01*
X168266429Y-56765952D02*
X168456905Y-56765952D01*
X168456905Y-56765952D02*
X168552143Y-56813571D01*
X168552143Y-56813571D02*
X168599762Y-56908809D01*
X168599762Y-56908809D02*
X168599762Y-57004047D01*
X168599762Y-57004047D02*
X168123572Y-57099285D01*
X169028334Y-56765952D02*
X169028334Y-57432619D01*
X169028334Y-56861190D02*
X169075953Y-56813571D01*
X169075953Y-56813571D02*
X169171191Y-56765952D01*
X169171191Y-56765952D02*
X169314048Y-56765952D01*
X169314048Y-56765952D02*
X169409286Y-56813571D01*
X169409286Y-56813571D02*
X169456905Y-56908809D01*
X169456905Y-56908809D02*
X169456905Y-57432619D01*
X169837858Y-57813571D02*
X169885477Y-57765952D01*
X169885477Y-57765952D02*
X169980715Y-57623095D01*
X169980715Y-57623095D02*
X170028334Y-57527857D01*
X170028334Y-57527857D02*
X170075953Y-57385000D01*
X170075953Y-57385000D02*
X170123572Y-57146904D01*
X170123572Y-57146904D02*
X170123572Y-56956428D01*
X170123572Y-56956428D02*
X170075953Y-56718333D01*
X170075953Y-56718333D02*
X170028334Y-56575476D01*
X170028334Y-56575476D02*
X169980715Y-56480238D01*
X169980715Y-56480238D02*
X169885477Y-56337380D01*
X169885477Y-56337380D02*
X169837858Y-56289761D01*
%TO.C,J2*%
X168431666Y-57702619D02*
X168431666Y-58416904D01*
X168431666Y-58416904D02*
X168384047Y-58559761D01*
X168384047Y-58559761D02*
X168288809Y-58655000D01*
X168288809Y-58655000D02*
X168145952Y-58702619D01*
X168145952Y-58702619D02*
X168050714Y-58702619D01*
X168860238Y-57797857D02*
X168907857Y-57750238D01*
X168907857Y-57750238D02*
X169003095Y-57702619D01*
X169003095Y-57702619D02*
X169241190Y-57702619D01*
X169241190Y-57702619D02*
X169336428Y-57750238D01*
X169336428Y-57750238D02*
X169384047Y-57797857D01*
X169384047Y-57797857D02*
X169431666Y-57893095D01*
X169431666Y-57893095D02*
X169431666Y-57988333D01*
X169431666Y-57988333D02*
X169384047Y-58131190D01*
X169384047Y-58131190D02*
X168812619Y-58702619D01*
X168812619Y-58702619D02*
X169431666Y-58702619D01*
X163953332Y-79968809D02*
X164096189Y-80016428D01*
X164096189Y-80016428D02*
X164143808Y-80064047D01*
X164143808Y-80064047D02*
X164191427Y-80159285D01*
X164191427Y-80159285D02*
X164191427Y-80302142D01*
X164191427Y-80302142D02*
X164143808Y-80397380D01*
X164143808Y-80397380D02*
X164096189Y-80445000D01*
X164096189Y-80445000D02*
X164000951Y-80492619D01*
X164000951Y-80492619D02*
X163619999Y-80492619D01*
X163619999Y-80492619D02*
X163619999Y-79492619D01*
X163619999Y-79492619D02*
X163953332Y-79492619D01*
X163953332Y-79492619D02*
X164048570Y-79540238D01*
X164048570Y-79540238D02*
X164096189Y-79587857D01*
X164096189Y-79587857D02*
X164143808Y-79683095D01*
X164143808Y-79683095D02*
X164143808Y-79778333D01*
X164143808Y-79778333D02*
X164096189Y-79873571D01*
X164096189Y-79873571D02*
X164048570Y-79921190D01*
X164048570Y-79921190D02*
X163953332Y-79968809D01*
X163953332Y-79968809D02*
X163619999Y-79968809D01*
X165048570Y-80492619D02*
X165048570Y-79968809D01*
X165048570Y-79968809D02*
X165000951Y-79873571D01*
X165000951Y-79873571D02*
X164905713Y-79825952D01*
X164905713Y-79825952D02*
X164715237Y-79825952D01*
X164715237Y-79825952D02*
X164619999Y-79873571D01*
X165048570Y-80445000D02*
X164953332Y-80492619D01*
X164953332Y-80492619D02*
X164715237Y-80492619D01*
X164715237Y-80492619D02*
X164619999Y-80445000D01*
X164619999Y-80445000D02*
X164572380Y-80349761D01*
X164572380Y-80349761D02*
X164572380Y-80254523D01*
X164572380Y-80254523D02*
X164619999Y-80159285D01*
X164619999Y-80159285D02*
X164715237Y-80111666D01*
X164715237Y-80111666D02*
X164953332Y-80111666D01*
X164953332Y-80111666D02*
X165048570Y-80064047D01*
X165953332Y-80445000D02*
X165858094Y-80492619D01*
X165858094Y-80492619D02*
X165667618Y-80492619D01*
X165667618Y-80492619D02*
X165572380Y-80445000D01*
X165572380Y-80445000D02*
X165524761Y-80397380D01*
X165524761Y-80397380D02*
X165477142Y-80302142D01*
X165477142Y-80302142D02*
X165477142Y-80016428D01*
X165477142Y-80016428D02*
X165524761Y-79921190D01*
X165524761Y-79921190D02*
X165572380Y-79873571D01*
X165572380Y-79873571D02*
X165667618Y-79825952D01*
X165667618Y-79825952D02*
X165858094Y-79825952D01*
X165858094Y-79825952D02*
X165953332Y-79873571D01*
X166381904Y-80492619D02*
X166381904Y-79492619D01*
X166477142Y-80111666D02*
X166762856Y-80492619D01*
X166762856Y-79825952D02*
X166381904Y-80206904D01*
X167953333Y-80492619D02*
X167953333Y-79492619D01*
X167953333Y-79492619D02*
X168334285Y-79492619D01*
X168334285Y-79492619D02*
X168429523Y-79540238D01*
X168429523Y-79540238D02*
X168477142Y-79587857D01*
X168477142Y-79587857D02*
X168524761Y-79683095D01*
X168524761Y-79683095D02*
X168524761Y-79825952D01*
X168524761Y-79825952D02*
X168477142Y-79921190D01*
X168477142Y-79921190D02*
X168429523Y-79968809D01*
X168429523Y-79968809D02*
X168334285Y-80016428D01*
X168334285Y-80016428D02*
X167953333Y-80016428D01*
X168953333Y-80492619D02*
X168953333Y-79825952D01*
X168953333Y-79492619D02*
X168905714Y-79540238D01*
X168905714Y-79540238D02*
X168953333Y-79587857D01*
X168953333Y-79587857D02*
X169000952Y-79540238D01*
X169000952Y-79540238D02*
X168953333Y-79492619D01*
X168953333Y-79492619D02*
X168953333Y-79587857D01*
X169429523Y-79825952D02*
X169429523Y-80492619D01*
X169429523Y-79921190D02*
X169477142Y-79873571D01*
X169477142Y-79873571D02*
X169572380Y-79825952D01*
X169572380Y-79825952D02*
X169715237Y-79825952D01*
X169715237Y-79825952D02*
X169810475Y-79873571D01*
X169810475Y-79873571D02*
X169858094Y-79968809D01*
X169858094Y-79968809D02*
X169858094Y-80492619D01*
X170286666Y-80445000D02*
X170381904Y-80492619D01*
X170381904Y-80492619D02*
X170572380Y-80492619D01*
X170572380Y-80492619D02*
X170667618Y-80445000D01*
X170667618Y-80445000D02*
X170715237Y-80349761D01*
X170715237Y-80349761D02*
X170715237Y-80302142D01*
X170715237Y-80302142D02*
X170667618Y-80206904D01*
X170667618Y-80206904D02*
X170572380Y-80159285D01*
X170572380Y-80159285D02*
X170429523Y-80159285D01*
X170429523Y-80159285D02*
X170334285Y-80111666D01*
X170334285Y-80111666D02*
X170286666Y-80016428D01*
X170286666Y-80016428D02*
X170286666Y-79968809D01*
X170286666Y-79968809D02*
X170334285Y-79873571D01*
X170334285Y-79873571D02*
X170429523Y-79825952D01*
X170429523Y-79825952D02*
X170572380Y-79825952D01*
X170572380Y-79825952D02*
X170667618Y-79873571D01*
X172191428Y-80873571D02*
X172143809Y-80825952D01*
X172143809Y-80825952D02*
X172048571Y-80683095D01*
X172048571Y-80683095D02*
X172000952Y-80587857D01*
X172000952Y-80587857D02*
X171953333Y-80445000D01*
X171953333Y-80445000D02*
X171905714Y-80206904D01*
X171905714Y-80206904D02*
X171905714Y-80016428D01*
X171905714Y-80016428D02*
X171953333Y-79778333D01*
X171953333Y-79778333D02*
X172000952Y-79635476D01*
X172000952Y-79635476D02*
X172048571Y-79540238D01*
X172048571Y-79540238D02*
X172143809Y-79397380D01*
X172143809Y-79397380D02*
X172191428Y-79349761D01*
X172762857Y-79492619D02*
X172953333Y-79492619D01*
X172953333Y-79492619D02*
X173048571Y-79540238D01*
X173048571Y-79540238D02*
X173143809Y-79635476D01*
X173143809Y-79635476D02*
X173191428Y-79825952D01*
X173191428Y-79825952D02*
X173191428Y-80159285D01*
X173191428Y-80159285D02*
X173143809Y-80349761D01*
X173143809Y-80349761D02*
X173048571Y-80445000D01*
X173048571Y-80445000D02*
X172953333Y-80492619D01*
X172953333Y-80492619D02*
X172762857Y-80492619D01*
X172762857Y-80492619D02*
X172667619Y-80445000D01*
X172667619Y-80445000D02*
X172572381Y-80349761D01*
X172572381Y-80349761D02*
X172524762Y-80159285D01*
X172524762Y-80159285D02*
X172524762Y-79825952D01*
X172524762Y-79825952D02*
X172572381Y-79635476D01*
X172572381Y-79635476D02*
X172667619Y-79540238D01*
X172667619Y-79540238D02*
X172762857Y-79492619D01*
X174048571Y-80492619D02*
X174048571Y-79492619D01*
X174048571Y-80445000D02*
X173953333Y-80492619D01*
X173953333Y-80492619D02*
X173762857Y-80492619D01*
X173762857Y-80492619D02*
X173667619Y-80445000D01*
X173667619Y-80445000D02*
X173620000Y-80397380D01*
X173620000Y-80397380D02*
X173572381Y-80302142D01*
X173572381Y-80302142D02*
X173572381Y-80016428D01*
X173572381Y-80016428D02*
X173620000Y-79921190D01*
X173620000Y-79921190D02*
X173667619Y-79873571D01*
X173667619Y-79873571D02*
X173762857Y-79825952D01*
X173762857Y-79825952D02*
X173953333Y-79825952D01*
X173953333Y-79825952D02*
X174048571Y-79873571D01*
X174953333Y-80492619D02*
X174953333Y-79492619D01*
X174953333Y-80445000D02*
X174858095Y-80492619D01*
X174858095Y-80492619D02*
X174667619Y-80492619D01*
X174667619Y-80492619D02*
X174572381Y-80445000D01*
X174572381Y-80445000D02*
X174524762Y-80397380D01*
X174524762Y-80397380D02*
X174477143Y-80302142D01*
X174477143Y-80302142D02*
X174477143Y-80016428D01*
X174477143Y-80016428D02*
X174524762Y-79921190D01*
X174524762Y-79921190D02*
X174572381Y-79873571D01*
X174572381Y-79873571D02*
X174667619Y-79825952D01*
X174667619Y-79825952D02*
X174858095Y-79825952D01*
X174858095Y-79825952D02*
X174953333Y-79873571D01*
X175334286Y-80873571D02*
X175381905Y-80825952D01*
X175381905Y-80825952D02*
X175477143Y-80683095D01*
X175477143Y-80683095D02*
X175524762Y-80587857D01*
X175524762Y-80587857D02*
X175572381Y-80445000D01*
X175572381Y-80445000D02*
X175620000Y-80206904D01*
X175620000Y-80206904D02*
X175620000Y-80016428D01*
X175620000Y-80016428D02*
X175572381Y-79778333D01*
X175572381Y-79778333D02*
X175524762Y-79635476D01*
X175524762Y-79635476D02*
X175477143Y-79540238D01*
X175477143Y-79540238D02*
X175381905Y-79397380D01*
X175381905Y-79397380D02*
X175334286Y-79349761D01*
%TO.C,C11*%
X170157142Y-85567380D02*
X170109523Y-85615000D01*
X170109523Y-85615000D02*
X169966666Y-85662619D01*
X169966666Y-85662619D02*
X169871428Y-85662619D01*
X169871428Y-85662619D02*
X169728571Y-85615000D01*
X169728571Y-85615000D02*
X169633333Y-85519761D01*
X169633333Y-85519761D02*
X169585714Y-85424523D01*
X169585714Y-85424523D02*
X169538095Y-85234047D01*
X169538095Y-85234047D02*
X169538095Y-85091190D01*
X169538095Y-85091190D02*
X169585714Y-84900714D01*
X169585714Y-84900714D02*
X169633333Y-84805476D01*
X169633333Y-84805476D02*
X169728571Y-84710238D01*
X169728571Y-84710238D02*
X169871428Y-84662619D01*
X169871428Y-84662619D02*
X169966666Y-84662619D01*
X169966666Y-84662619D02*
X170109523Y-84710238D01*
X170109523Y-84710238D02*
X170157142Y-84757857D01*
X171109523Y-85662619D02*
X170538095Y-85662619D01*
X170823809Y-85662619D02*
X170823809Y-84662619D01*
X170823809Y-84662619D02*
X170728571Y-84805476D01*
X170728571Y-84805476D02*
X170633333Y-84900714D01*
X170633333Y-84900714D02*
X170538095Y-84948333D01*
X172061904Y-85662619D02*
X171490476Y-85662619D01*
X171776190Y-85662619D02*
X171776190Y-84662619D01*
X171776190Y-84662619D02*
X171680952Y-84805476D01*
X171680952Y-84805476D02*
X171585714Y-84900714D01*
X171585714Y-84900714D02*
X171490476Y-84948333D01*
X169007142Y-87195952D02*
X169007142Y-87862619D01*
X168769047Y-86815000D02*
X168530952Y-87529285D01*
X168530952Y-87529285D02*
X169149999Y-87529285D01*
X169435714Y-86862619D02*
X170102380Y-86862619D01*
X170102380Y-86862619D02*
X169673809Y-87862619D01*
X170673809Y-86862619D02*
X170769047Y-86862619D01*
X170769047Y-86862619D02*
X170864285Y-86910238D01*
X170864285Y-86910238D02*
X170911904Y-86957857D01*
X170911904Y-86957857D02*
X170959523Y-87053095D01*
X170959523Y-87053095D02*
X171007142Y-87243571D01*
X171007142Y-87243571D02*
X171007142Y-87481666D01*
X171007142Y-87481666D02*
X170959523Y-87672142D01*
X170959523Y-87672142D02*
X170911904Y-87767380D01*
X170911904Y-87767380D02*
X170864285Y-87815000D01*
X170864285Y-87815000D02*
X170769047Y-87862619D01*
X170769047Y-87862619D02*
X170673809Y-87862619D01*
X170673809Y-87862619D02*
X170578571Y-87815000D01*
X170578571Y-87815000D02*
X170530952Y-87767380D01*
X170530952Y-87767380D02*
X170483333Y-87672142D01*
X170483333Y-87672142D02*
X170435714Y-87481666D01*
X170435714Y-87481666D02*
X170435714Y-87243571D01*
X170435714Y-87243571D02*
X170483333Y-87053095D01*
X170483333Y-87053095D02*
X170530952Y-86957857D01*
X170530952Y-86957857D02*
X170578571Y-86910238D01*
X170578571Y-86910238D02*
X170673809Y-86862619D01*
X171435714Y-87195952D02*
X171435714Y-87862619D01*
X171435714Y-87291190D02*
X171483333Y-87243571D01*
X171483333Y-87243571D02*
X171578571Y-87195952D01*
X171578571Y-87195952D02*
X171721428Y-87195952D01*
X171721428Y-87195952D02*
X171816666Y-87243571D01*
X171816666Y-87243571D02*
X171864285Y-87338809D01*
X171864285Y-87338809D02*
X171864285Y-87862619D01*
X172673809Y-87338809D02*
X172340476Y-87338809D01*
X172340476Y-87862619D02*
X172340476Y-86862619D01*
X172340476Y-86862619D02*
X172816666Y-86862619D01*
%TO.C,J7*%
X139516666Y-109112619D02*
X139516666Y-109826904D01*
X139516666Y-109826904D02*
X139469047Y-109969761D01*
X139469047Y-109969761D02*
X139373809Y-110065000D01*
X139373809Y-110065000D02*
X139230952Y-110112619D01*
X139230952Y-110112619D02*
X139135714Y-110112619D01*
X139897619Y-109112619D02*
X140564285Y-109112619D01*
X140564285Y-109112619D02*
X140135714Y-110112619D01*
X126309523Y-107081666D02*
X127071428Y-107081666D01*
X127452380Y-106462619D02*
X128071427Y-106462619D01*
X128071427Y-106462619D02*
X127738094Y-106843571D01*
X127738094Y-106843571D02*
X127880951Y-106843571D01*
X127880951Y-106843571D02*
X127976189Y-106891190D01*
X127976189Y-106891190D02*
X128023808Y-106938809D01*
X128023808Y-106938809D02*
X128071427Y-107034047D01*
X128071427Y-107034047D02*
X128071427Y-107272142D01*
X128071427Y-107272142D02*
X128023808Y-107367380D01*
X128023808Y-107367380D02*
X127976189Y-107415000D01*
X127976189Y-107415000D02*
X127880951Y-107462619D01*
X127880951Y-107462619D02*
X127595237Y-107462619D01*
X127595237Y-107462619D02*
X127499999Y-107415000D01*
X127499999Y-107415000D02*
X127452380Y-107367380D01*
X128928570Y-106462619D02*
X128738094Y-106462619D01*
X128738094Y-106462619D02*
X128642856Y-106510238D01*
X128642856Y-106510238D02*
X128595237Y-106557857D01*
X128595237Y-106557857D02*
X128499999Y-106700714D01*
X128499999Y-106700714D02*
X128452380Y-106891190D01*
X128452380Y-106891190D02*
X128452380Y-107272142D01*
X128452380Y-107272142D02*
X128499999Y-107367380D01*
X128499999Y-107367380D02*
X128547618Y-107415000D01*
X128547618Y-107415000D02*
X128642856Y-107462619D01*
X128642856Y-107462619D02*
X128833332Y-107462619D01*
X128833332Y-107462619D02*
X128928570Y-107415000D01*
X128928570Y-107415000D02*
X128976189Y-107367380D01*
X128976189Y-107367380D02*
X129023808Y-107272142D01*
X129023808Y-107272142D02*
X129023808Y-107034047D01*
X129023808Y-107034047D02*
X128976189Y-106938809D01*
X128976189Y-106938809D02*
X128928570Y-106891190D01*
X128928570Y-106891190D02*
X128833332Y-106843571D01*
X128833332Y-106843571D02*
X128642856Y-106843571D01*
X128642856Y-106843571D02*
X128547618Y-106891190D01*
X128547618Y-106891190D02*
X128499999Y-106938809D01*
X128499999Y-106938809D02*
X128452380Y-107034047D01*
X130166666Y-107415000D02*
X130309523Y-107462619D01*
X130309523Y-107462619D02*
X130547618Y-107462619D01*
X130547618Y-107462619D02*
X130642856Y-107415000D01*
X130642856Y-107415000D02*
X130690475Y-107367380D01*
X130690475Y-107367380D02*
X130738094Y-107272142D01*
X130738094Y-107272142D02*
X130738094Y-107176904D01*
X130738094Y-107176904D02*
X130690475Y-107081666D01*
X130690475Y-107081666D02*
X130642856Y-107034047D01*
X130642856Y-107034047D02*
X130547618Y-106986428D01*
X130547618Y-106986428D02*
X130357142Y-106938809D01*
X130357142Y-106938809D02*
X130261904Y-106891190D01*
X130261904Y-106891190D02*
X130214285Y-106843571D01*
X130214285Y-106843571D02*
X130166666Y-106748333D01*
X130166666Y-106748333D02*
X130166666Y-106653095D01*
X130166666Y-106653095D02*
X130214285Y-106557857D01*
X130214285Y-106557857D02*
X130261904Y-106510238D01*
X130261904Y-106510238D02*
X130357142Y-106462619D01*
X130357142Y-106462619D02*
X130595237Y-106462619D01*
X130595237Y-106462619D02*
X130738094Y-106510238D01*
X131071428Y-106795952D02*
X131261904Y-107462619D01*
X131261904Y-107462619D02*
X131452380Y-106986428D01*
X131452380Y-106986428D02*
X131642856Y-107462619D01*
X131642856Y-107462619D02*
X131833332Y-106795952D01*
X132214285Y-107462619D02*
X132214285Y-106795952D01*
X132214285Y-106462619D02*
X132166666Y-106510238D01*
X132166666Y-106510238D02*
X132214285Y-106557857D01*
X132214285Y-106557857D02*
X132261904Y-106510238D01*
X132261904Y-106510238D02*
X132214285Y-106462619D01*
X132214285Y-106462619D02*
X132214285Y-106557857D01*
X132547618Y-106795952D02*
X132928570Y-106795952D01*
X132690475Y-106462619D02*
X132690475Y-107319761D01*
X132690475Y-107319761D02*
X132738094Y-107415000D01*
X132738094Y-107415000D02*
X132833332Y-107462619D01*
X132833332Y-107462619D02*
X132928570Y-107462619D01*
X133690475Y-107415000D02*
X133595237Y-107462619D01*
X133595237Y-107462619D02*
X133404761Y-107462619D01*
X133404761Y-107462619D02*
X133309523Y-107415000D01*
X133309523Y-107415000D02*
X133261904Y-107367380D01*
X133261904Y-107367380D02*
X133214285Y-107272142D01*
X133214285Y-107272142D02*
X133214285Y-106986428D01*
X133214285Y-106986428D02*
X133261904Y-106891190D01*
X133261904Y-106891190D02*
X133309523Y-106843571D01*
X133309523Y-106843571D02*
X133404761Y-106795952D01*
X133404761Y-106795952D02*
X133595237Y-106795952D01*
X133595237Y-106795952D02*
X133690475Y-106843571D01*
X134119047Y-107462619D02*
X134119047Y-106462619D01*
X134547618Y-107462619D02*
X134547618Y-106938809D01*
X134547618Y-106938809D02*
X134499999Y-106843571D01*
X134499999Y-106843571D02*
X134404761Y-106795952D01*
X134404761Y-106795952D02*
X134261904Y-106795952D01*
X134261904Y-106795952D02*
X134166666Y-106843571D01*
X134166666Y-106843571D02*
X134119047Y-106891190D01*
X135642857Y-106462619D02*
X136214285Y-106462619D01*
X135928571Y-107462619D02*
X135928571Y-106462619D01*
X136928571Y-107415000D02*
X136833333Y-107462619D01*
X136833333Y-107462619D02*
X136642857Y-107462619D01*
X136642857Y-107462619D02*
X136547619Y-107415000D01*
X136547619Y-107415000D02*
X136500000Y-107319761D01*
X136500000Y-107319761D02*
X136500000Y-106938809D01*
X136500000Y-106938809D02*
X136547619Y-106843571D01*
X136547619Y-106843571D02*
X136642857Y-106795952D01*
X136642857Y-106795952D02*
X136833333Y-106795952D01*
X136833333Y-106795952D02*
X136928571Y-106843571D01*
X136928571Y-106843571D02*
X136976190Y-106938809D01*
X136976190Y-106938809D02*
X136976190Y-107034047D01*
X136976190Y-107034047D02*
X136500000Y-107129285D01*
X137404762Y-107462619D02*
X137404762Y-106795952D01*
X137404762Y-106986428D02*
X137452381Y-106891190D01*
X137452381Y-106891190D02*
X137500000Y-106843571D01*
X137500000Y-106843571D02*
X137595238Y-106795952D01*
X137595238Y-106795952D02*
X137690476Y-106795952D01*
X138023810Y-107462619D02*
X138023810Y-106795952D01*
X138023810Y-106891190D02*
X138071429Y-106843571D01*
X138071429Y-106843571D02*
X138166667Y-106795952D01*
X138166667Y-106795952D02*
X138309524Y-106795952D01*
X138309524Y-106795952D02*
X138404762Y-106843571D01*
X138404762Y-106843571D02*
X138452381Y-106938809D01*
X138452381Y-106938809D02*
X138452381Y-107462619D01*
X138452381Y-106938809D02*
X138500000Y-106843571D01*
X138500000Y-106843571D02*
X138595238Y-106795952D01*
X138595238Y-106795952D02*
X138738095Y-106795952D01*
X138738095Y-106795952D02*
X138833334Y-106843571D01*
X138833334Y-106843571D02*
X138880953Y-106938809D01*
X138880953Y-106938809D02*
X138880953Y-107462619D01*
X139357143Y-107462619D02*
X139357143Y-106795952D01*
X139357143Y-106462619D02*
X139309524Y-106510238D01*
X139309524Y-106510238D02*
X139357143Y-106557857D01*
X139357143Y-106557857D02*
X139404762Y-106510238D01*
X139404762Y-106510238D02*
X139357143Y-106462619D01*
X139357143Y-106462619D02*
X139357143Y-106557857D01*
X139833333Y-106795952D02*
X139833333Y-107462619D01*
X139833333Y-106891190D02*
X139880952Y-106843571D01*
X139880952Y-106843571D02*
X139976190Y-106795952D01*
X139976190Y-106795952D02*
X140119047Y-106795952D01*
X140119047Y-106795952D02*
X140214285Y-106843571D01*
X140214285Y-106843571D02*
X140261904Y-106938809D01*
X140261904Y-106938809D02*
X140261904Y-107462619D01*
X141166666Y-107462619D02*
X141166666Y-106938809D01*
X141166666Y-106938809D02*
X141119047Y-106843571D01*
X141119047Y-106843571D02*
X141023809Y-106795952D01*
X141023809Y-106795952D02*
X140833333Y-106795952D01*
X140833333Y-106795952D02*
X140738095Y-106843571D01*
X141166666Y-107415000D02*
X141071428Y-107462619D01*
X141071428Y-107462619D02*
X140833333Y-107462619D01*
X140833333Y-107462619D02*
X140738095Y-107415000D01*
X140738095Y-107415000D02*
X140690476Y-107319761D01*
X140690476Y-107319761D02*
X140690476Y-107224523D01*
X140690476Y-107224523D02*
X140738095Y-107129285D01*
X140738095Y-107129285D02*
X140833333Y-107081666D01*
X140833333Y-107081666D02*
X141071428Y-107081666D01*
X141071428Y-107081666D02*
X141166666Y-107034047D01*
X141785714Y-107462619D02*
X141690476Y-107415000D01*
X141690476Y-107415000D02*
X141642857Y-107319761D01*
X141642857Y-107319761D02*
X141642857Y-106462619D01*
%TO.C,J8*%
X145431666Y-109462619D02*
X145431666Y-110176904D01*
X145431666Y-110176904D02*
X145384047Y-110319761D01*
X145384047Y-110319761D02*
X145288809Y-110415000D01*
X145288809Y-110415000D02*
X145145952Y-110462619D01*
X145145952Y-110462619D02*
X145050714Y-110462619D01*
X146050714Y-109891190D02*
X145955476Y-109843571D01*
X145955476Y-109843571D02*
X145907857Y-109795952D01*
X145907857Y-109795952D02*
X145860238Y-109700714D01*
X145860238Y-109700714D02*
X145860238Y-109653095D01*
X145860238Y-109653095D02*
X145907857Y-109557857D01*
X145907857Y-109557857D02*
X145955476Y-109510238D01*
X145955476Y-109510238D02*
X146050714Y-109462619D01*
X146050714Y-109462619D02*
X146241190Y-109462619D01*
X146241190Y-109462619D02*
X146336428Y-109510238D01*
X146336428Y-109510238D02*
X146384047Y-109557857D01*
X146384047Y-109557857D02*
X146431666Y-109653095D01*
X146431666Y-109653095D02*
X146431666Y-109700714D01*
X146431666Y-109700714D02*
X146384047Y-109795952D01*
X146384047Y-109795952D02*
X146336428Y-109843571D01*
X146336428Y-109843571D02*
X146241190Y-109891190D01*
X146241190Y-109891190D02*
X146050714Y-109891190D01*
X146050714Y-109891190D02*
X145955476Y-109938809D01*
X145955476Y-109938809D02*
X145907857Y-109986428D01*
X145907857Y-109986428D02*
X145860238Y-110081666D01*
X145860238Y-110081666D02*
X145860238Y-110272142D01*
X145860238Y-110272142D02*
X145907857Y-110367380D01*
X145907857Y-110367380D02*
X145955476Y-110415000D01*
X145955476Y-110415000D02*
X146050714Y-110462619D01*
X146050714Y-110462619D02*
X146241190Y-110462619D01*
X146241190Y-110462619D02*
X146336428Y-110415000D01*
X146336428Y-110415000D02*
X146384047Y-110367380D01*
X146384047Y-110367380D02*
X146431666Y-110272142D01*
X146431666Y-110272142D02*
X146431666Y-110081666D01*
X146431666Y-110081666D02*
X146384047Y-109986428D01*
X146384047Y-109986428D02*
X146336428Y-109938809D01*
X146336428Y-109938809D02*
X146241190Y-109891190D01*
X145089523Y-107081666D02*
X145851428Y-107081666D01*
X145470475Y-107462619D02*
X145470475Y-106700714D01*
X146232380Y-106462619D02*
X146851427Y-106462619D01*
X146851427Y-106462619D02*
X146518094Y-106843571D01*
X146518094Y-106843571D02*
X146660951Y-106843571D01*
X146660951Y-106843571D02*
X146756189Y-106891190D01*
X146756189Y-106891190D02*
X146803808Y-106938809D01*
X146803808Y-106938809D02*
X146851427Y-107034047D01*
X146851427Y-107034047D02*
X146851427Y-107272142D01*
X146851427Y-107272142D02*
X146803808Y-107367380D01*
X146803808Y-107367380D02*
X146756189Y-107415000D01*
X146756189Y-107415000D02*
X146660951Y-107462619D01*
X146660951Y-107462619D02*
X146375237Y-107462619D01*
X146375237Y-107462619D02*
X146279999Y-107415000D01*
X146279999Y-107415000D02*
X146232380Y-107367380D01*
X147708570Y-106462619D02*
X147518094Y-106462619D01*
X147518094Y-106462619D02*
X147422856Y-106510238D01*
X147422856Y-106510238D02*
X147375237Y-106557857D01*
X147375237Y-106557857D02*
X147279999Y-106700714D01*
X147279999Y-106700714D02*
X147232380Y-106891190D01*
X147232380Y-106891190D02*
X147232380Y-107272142D01*
X147232380Y-107272142D02*
X147279999Y-107367380D01*
X147279999Y-107367380D02*
X147327618Y-107415000D01*
X147327618Y-107415000D02*
X147422856Y-107462619D01*
X147422856Y-107462619D02*
X147613332Y-107462619D01*
X147613332Y-107462619D02*
X147708570Y-107415000D01*
X147708570Y-107415000D02*
X147756189Y-107367380D01*
X147756189Y-107367380D02*
X147803808Y-107272142D01*
X147803808Y-107272142D02*
X147803808Y-107034047D01*
X147803808Y-107034047D02*
X147756189Y-106938809D01*
X147756189Y-106938809D02*
X147708570Y-106891190D01*
X147708570Y-106891190D02*
X147613332Y-106843571D01*
X147613332Y-106843571D02*
X147422856Y-106843571D01*
X147422856Y-106843571D02*
X147327618Y-106891190D01*
X147327618Y-106891190D02*
X147279999Y-106938809D01*
X147279999Y-106938809D02*
X147232380Y-107034047D01*
X148946666Y-107415000D02*
X149089523Y-107462619D01*
X149089523Y-107462619D02*
X149327618Y-107462619D01*
X149327618Y-107462619D02*
X149422856Y-107415000D01*
X149422856Y-107415000D02*
X149470475Y-107367380D01*
X149470475Y-107367380D02*
X149518094Y-107272142D01*
X149518094Y-107272142D02*
X149518094Y-107176904D01*
X149518094Y-107176904D02*
X149470475Y-107081666D01*
X149470475Y-107081666D02*
X149422856Y-107034047D01*
X149422856Y-107034047D02*
X149327618Y-106986428D01*
X149327618Y-106986428D02*
X149137142Y-106938809D01*
X149137142Y-106938809D02*
X149041904Y-106891190D01*
X149041904Y-106891190D02*
X148994285Y-106843571D01*
X148994285Y-106843571D02*
X148946666Y-106748333D01*
X148946666Y-106748333D02*
X148946666Y-106653095D01*
X148946666Y-106653095D02*
X148994285Y-106557857D01*
X148994285Y-106557857D02*
X149041904Y-106510238D01*
X149041904Y-106510238D02*
X149137142Y-106462619D01*
X149137142Y-106462619D02*
X149375237Y-106462619D01*
X149375237Y-106462619D02*
X149518094Y-106510238D01*
X149851428Y-106795952D02*
X150041904Y-107462619D01*
X150041904Y-107462619D02*
X150232380Y-106986428D01*
X150232380Y-106986428D02*
X150422856Y-107462619D01*
X150422856Y-107462619D02*
X150613332Y-106795952D01*
X150994285Y-107462619D02*
X150994285Y-106795952D01*
X150994285Y-106462619D02*
X150946666Y-106510238D01*
X150946666Y-106510238D02*
X150994285Y-106557857D01*
X150994285Y-106557857D02*
X151041904Y-106510238D01*
X151041904Y-106510238D02*
X150994285Y-106462619D01*
X150994285Y-106462619D02*
X150994285Y-106557857D01*
X151327618Y-106795952D02*
X151708570Y-106795952D01*
X151470475Y-106462619D02*
X151470475Y-107319761D01*
X151470475Y-107319761D02*
X151518094Y-107415000D01*
X151518094Y-107415000D02*
X151613332Y-107462619D01*
X151613332Y-107462619D02*
X151708570Y-107462619D01*
X152470475Y-107415000D02*
X152375237Y-107462619D01*
X152375237Y-107462619D02*
X152184761Y-107462619D01*
X152184761Y-107462619D02*
X152089523Y-107415000D01*
X152089523Y-107415000D02*
X152041904Y-107367380D01*
X152041904Y-107367380D02*
X151994285Y-107272142D01*
X151994285Y-107272142D02*
X151994285Y-106986428D01*
X151994285Y-106986428D02*
X152041904Y-106891190D01*
X152041904Y-106891190D02*
X152089523Y-106843571D01*
X152089523Y-106843571D02*
X152184761Y-106795952D01*
X152184761Y-106795952D02*
X152375237Y-106795952D01*
X152375237Y-106795952D02*
X152470475Y-106843571D01*
X152899047Y-107462619D02*
X152899047Y-106462619D01*
X153327618Y-107462619D02*
X153327618Y-106938809D01*
X153327618Y-106938809D02*
X153279999Y-106843571D01*
X153279999Y-106843571D02*
X153184761Y-106795952D01*
X153184761Y-106795952D02*
X153041904Y-106795952D01*
X153041904Y-106795952D02*
X152946666Y-106843571D01*
X152946666Y-106843571D02*
X152899047Y-106891190D01*
X154422857Y-106462619D02*
X154994285Y-106462619D01*
X154708571Y-107462619D02*
X154708571Y-106462619D01*
X155708571Y-107415000D02*
X155613333Y-107462619D01*
X155613333Y-107462619D02*
X155422857Y-107462619D01*
X155422857Y-107462619D02*
X155327619Y-107415000D01*
X155327619Y-107415000D02*
X155280000Y-107319761D01*
X155280000Y-107319761D02*
X155280000Y-106938809D01*
X155280000Y-106938809D02*
X155327619Y-106843571D01*
X155327619Y-106843571D02*
X155422857Y-106795952D01*
X155422857Y-106795952D02*
X155613333Y-106795952D01*
X155613333Y-106795952D02*
X155708571Y-106843571D01*
X155708571Y-106843571D02*
X155756190Y-106938809D01*
X155756190Y-106938809D02*
X155756190Y-107034047D01*
X155756190Y-107034047D02*
X155280000Y-107129285D01*
X156184762Y-107462619D02*
X156184762Y-106795952D01*
X156184762Y-106986428D02*
X156232381Y-106891190D01*
X156232381Y-106891190D02*
X156280000Y-106843571D01*
X156280000Y-106843571D02*
X156375238Y-106795952D01*
X156375238Y-106795952D02*
X156470476Y-106795952D01*
X156803810Y-107462619D02*
X156803810Y-106795952D01*
X156803810Y-106891190D02*
X156851429Y-106843571D01*
X156851429Y-106843571D02*
X156946667Y-106795952D01*
X156946667Y-106795952D02*
X157089524Y-106795952D01*
X157089524Y-106795952D02*
X157184762Y-106843571D01*
X157184762Y-106843571D02*
X157232381Y-106938809D01*
X157232381Y-106938809D02*
X157232381Y-107462619D01*
X157232381Y-106938809D02*
X157280000Y-106843571D01*
X157280000Y-106843571D02*
X157375238Y-106795952D01*
X157375238Y-106795952D02*
X157518095Y-106795952D01*
X157518095Y-106795952D02*
X157613334Y-106843571D01*
X157613334Y-106843571D02*
X157660953Y-106938809D01*
X157660953Y-106938809D02*
X157660953Y-107462619D01*
X158137143Y-107462619D02*
X158137143Y-106795952D01*
X158137143Y-106462619D02*
X158089524Y-106510238D01*
X158089524Y-106510238D02*
X158137143Y-106557857D01*
X158137143Y-106557857D02*
X158184762Y-106510238D01*
X158184762Y-106510238D02*
X158137143Y-106462619D01*
X158137143Y-106462619D02*
X158137143Y-106557857D01*
X158613333Y-106795952D02*
X158613333Y-107462619D01*
X158613333Y-106891190D02*
X158660952Y-106843571D01*
X158660952Y-106843571D02*
X158756190Y-106795952D01*
X158756190Y-106795952D02*
X158899047Y-106795952D01*
X158899047Y-106795952D02*
X158994285Y-106843571D01*
X158994285Y-106843571D02*
X159041904Y-106938809D01*
X159041904Y-106938809D02*
X159041904Y-107462619D01*
X159946666Y-107462619D02*
X159946666Y-106938809D01*
X159946666Y-106938809D02*
X159899047Y-106843571D01*
X159899047Y-106843571D02*
X159803809Y-106795952D01*
X159803809Y-106795952D02*
X159613333Y-106795952D01*
X159613333Y-106795952D02*
X159518095Y-106843571D01*
X159946666Y-107415000D02*
X159851428Y-107462619D01*
X159851428Y-107462619D02*
X159613333Y-107462619D01*
X159613333Y-107462619D02*
X159518095Y-107415000D01*
X159518095Y-107415000D02*
X159470476Y-107319761D01*
X159470476Y-107319761D02*
X159470476Y-107224523D01*
X159470476Y-107224523D02*
X159518095Y-107129285D01*
X159518095Y-107129285D02*
X159613333Y-107081666D01*
X159613333Y-107081666D02*
X159851428Y-107081666D01*
X159851428Y-107081666D02*
X159946666Y-107034047D01*
X160565714Y-107462619D02*
X160470476Y-107415000D01*
X160470476Y-107415000D02*
X160422857Y-107319761D01*
X160422857Y-107319761D02*
X160422857Y-106462619D01*
%TO.C,C13*%
X148607380Y-66965508D02*
X148655000Y-67013127D01*
X148655000Y-67013127D02*
X148702619Y-67155984D01*
X148702619Y-67155984D02*
X148702619Y-67251222D01*
X148702619Y-67251222D02*
X148655000Y-67394079D01*
X148655000Y-67394079D02*
X148559761Y-67489317D01*
X148559761Y-67489317D02*
X148464523Y-67536936D01*
X148464523Y-67536936D02*
X148274047Y-67584555D01*
X148274047Y-67584555D02*
X148131190Y-67584555D01*
X148131190Y-67584555D02*
X147940714Y-67536936D01*
X147940714Y-67536936D02*
X147845476Y-67489317D01*
X147845476Y-67489317D02*
X147750238Y-67394079D01*
X147750238Y-67394079D02*
X147702619Y-67251222D01*
X147702619Y-67251222D02*
X147702619Y-67155984D01*
X147702619Y-67155984D02*
X147750238Y-67013127D01*
X147750238Y-67013127D02*
X147797857Y-66965508D01*
X148702619Y-66013127D02*
X148702619Y-66584555D01*
X148702619Y-66298841D02*
X147702619Y-66298841D01*
X147702619Y-66298841D02*
X147845476Y-66394079D01*
X147845476Y-66394079D02*
X147940714Y-66489317D01*
X147940714Y-66489317D02*
X147988333Y-66584555D01*
X147702619Y-65679793D02*
X147702619Y-65060746D01*
X147702619Y-65060746D02*
X148083571Y-65394079D01*
X148083571Y-65394079D02*
X148083571Y-65251222D01*
X148083571Y-65251222D02*
X148131190Y-65155984D01*
X148131190Y-65155984D02*
X148178809Y-65108365D01*
X148178809Y-65108365D02*
X148274047Y-65060746D01*
X148274047Y-65060746D02*
X148512142Y-65060746D01*
X148512142Y-65060746D02*
X148607380Y-65108365D01*
X148607380Y-65108365D02*
X148655000Y-65155984D01*
X148655000Y-65155984D02*
X148702619Y-65251222D01*
X148702619Y-65251222D02*
X148702619Y-65536936D01*
X148702619Y-65536936D02*
X148655000Y-65632174D01*
X148655000Y-65632174D02*
X148607380Y-65679793D01*
X159112619Y-65771428D02*
X159112619Y-66342856D01*
X159112619Y-66057142D02*
X158112619Y-66057142D01*
X158112619Y-66057142D02*
X158255476Y-66152380D01*
X158255476Y-66152380D02*
X158350714Y-66247618D01*
X158350714Y-66247618D02*
X158398333Y-66342856D01*
X158112619Y-65152380D02*
X158112619Y-65057142D01*
X158112619Y-65057142D02*
X158160238Y-64961904D01*
X158160238Y-64961904D02*
X158207857Y-64914285D01*
X158207857Y-64914285D02*
X158303095Y-64866666D01*
X158303095Y-64866666D02*
X158493571Y-64819047D01*
X158493571Y-64819047D02*
X158731666Y-64819047D01*
X158731666Y-64819047D02*
X158922142Y-64866666D01*
X158922142Y-64866666D02*
X159017380Y-64914285D01*
X159017380Y-64914285D02*
X159065000Y-64961904D01*
X159065000Y-64961904D02*
X159112619Y-65057142D01*
X159112619Y-65057142D02*
X159112619Y-65152380D01*
X159112619Y-65152380D02*
X159065000Y-65247618D01*
X159065000Y-65247618D02*
X159017380Y-65295237D01*
X159017380Y-65295237D02*
X158922142Y-65342856D01*
X158922142Y-65342856D02*
X158731666Y-65390475D01*
X158731666Y-65390475D02*
X158493571Y-65390475D01*
X158493571Y-65390475D02*
X158303095Y-65342856D01*
X158303095Y-65342856D02*
X158207857Y-65295237D01*
X158207857Y-65295237D02*
X158160238Y-65247618D01*
X158160238Y-65247618D02*
X158112619Y-65152380D01*
X158445952Y-63961904D02*
X159112619Y-63961904D01*
X158445952Y-64390475D02*
X158969761Y-64390475D01*
X158969761Y-64390475D02*
X159065000Y-64342856D01*
X159065000Y-64342856D02*
X159112619Y-64247618D01*
X159112619Y-64247618D02*
X159112619Y-64104761D01*
X159112619Y-64104761D02*
X159065000Y-64009523D01*
X159065000Y-64009523D02*
X159017380Y-63961904D01*
X158588809Y-63152380D02*
X158588809Y-63485713D01*
X159112619Y-63485713D02*
X158112619Y-63485713D01*
X158112619Y-63485713D02*
X158112619Y-63009523D01*
%TO.C,C8*%
X180903333Y-87797380D02*
X180855714Y-87845000D01*
X180855714Y-87845000D02*
X180712857Y-87892619D01*
X180712857Y-87892619D02*
X180617619Y-87892619D01*
X180617619Y-87892619D02*
X180474762Y-87845000D01*
X180474762Y-87845000D02*
X180379524Y-87749761D01*
X180379524Y-87749761D02*
X180331905Y-87654523D01*
X180331905Y-87654523D02*
X180284286Y-87464047D01*
X180284286Y-87464047D02*
X180284286Y-87321190D01*
X180284286Y-87321190D02*
X180331905Y-87130714D01*
X180331905Y-87130714D02*
X180379524Y-87035476D01*
X180379524Y-87035476D02*
X180474762Y-86940238D01*
X180474762Y-86940238D02*
X180617619Y-86892619D01*
X180617619Y-86892619D02*
X180712857Y-86892619D01*
X180712857Y-86892619D02*
X180855714Y-86940238D01*
X180855714Y-86940238D02*
X180903333Y-86987857D01*
X181474762Y-87321190D02*
X181379524Y-87273571D01*
X181379524Y-87273571D02*
X181331905Y-87225952D01*
X181331905Y-87225952D02*
X181284286Y-87130714D01*
X181284286Y-87130714D02*
X181284286Y-87083095D01*
X181284286Y-87083095D02*
X181331905Y-86987857D01*
X181331905Y-86987857D02*
X181379524Y-86940238D01*
X181379524Y-86940238D02*
X181474762Y-86892619D01*
X181474762Y-86892619D02*
X181665238Y-86892619D01*
X181665238Y-86892619D02*
X181760476Y-86940238D01*
X181760476Y-86940238D02*
X181808095Y-86987857D01*
X181808095Y-86987857D02*
X181855714Y-87083095D01*
X181855714Y-87083095D02*
X181855714Y-87130714D01*
X181855714Y-87130714D02*
X181808095Y-87225952D01*
X181808095Y-87225952D02*
X181760476Y-87273571D01*
X181760476Y-87273571D02*
X181665238Y-87321190D01*
X181665238Y-87321190D02*
X181474762Y-87321190D01*
X181474762Y-87321190D02*
X181379524Y-87368809D01*
X181379524Y-87368809D02*
X181331905Y-87416428D01*
X181331905Y-87416428D02*
X181284286Y-87511666D01*
X181284286Y-87511666D02*
X181284286Y-87702142D01*
X181284286Y-87702142D02*
X181331905Y-87797380D01*
X181331905Y-87797380D02*
X181379524Y-87845000D01*
X181379524Y-87845000D02*
X181474762Y-87892619D01*
X181474762Y-87892619D02*
X181665238Y-87892619D01*
X181665238Y-87892619D02*
X181760476Y-87845000D01*
X181760476Y-87845000D02*
X181808095Y-87797380D01*
X181808095Y-87797380D02*
X181855714Y-87702142D01*
X181855714Y-87702142D02*
X181855714Y-87511666D01*
X181855714Y-87511666D02*
X181808095Y-87416428D01*
X181808095Y-87416428D02*
X181760476Y-87368809D01*
X181760476Y-87368809D02*
X181665238Y-87321190D01*
X182807143Y-86907857D02*
X182854762Y-86860238D01*
X182854762Y-86860238D02*
X182950000Y-86812619D01*
X182950000Y-86812619D02*
X183188095Y-86812619D01*
X183188095Y-86812619D02*
X183283333Y-86860238D01*
X183283333Y-86860238D02*
X183330952Y-86907857D01*
X183330952Y-86907857D02*
X183378571Y-87003095D01*
X183378571Y-87003095D02*
X183378571Y-87098333D01*
X183378571Y-87098333D02*
X183330952Y-87241190D01*
X183330952Y-87241190D02*
X182759524Y-87812619D01*
X182759524Y-87812619D02*
X183378571Y-87812619D01*
X183759524Y-86907857D02*
X183807143Y-86860238D01*
X183807143Y-86860238D02*
X183902381Y-86812619D01*
X183902381Y-86812619D02*
X184140476Y-86812619D01*
X184140476Y-86812619D02*
X184235714Y-86860238D01*
X184235714Y-86860238D02*
X184283333Y-86907857D01*
X184283333Y-86907857D02*
X184330952Y-87003095D01*
X184330952Y-87003095D02*
X184330952Y-87098333D01*
X184330952Y-87098333D02*
X184283333Y-87241190D01*
X184283333Y-87241190D02*
X183711905Y-87812619D01*
X183711905Y-87812619D02*
X184330952Y-87812619D01*
X185188095Y-87145952D02*
X185188095Y-87812619D01*
X184759524Y-87145952D02*
X184759524Y-87669761D01*
X184759524Y-87669761D02*
X184807143Y-87765000D01*
X184807143Y-87765000D02*
X184902381Y-87812619D01*
X184902381Y-87812619D02*
X185045238Y-87812619D01*
X185045238Y-87812619D02*
X185140476Y-87765000D01*
X185140476Y-87765000D02*
X185188095Y-87717380D01*
X185997619Y-87288809D02*
X185664286Y-87288809D01*
X185664286Y-87812619D02*
X185664286Y-86812619D01*
X185664286Y-86812619D02*
X186140476Y-86812619D01*
%TO.C,J1*%
X181866666Y-96462619D02*
X181866666Y-97176904D01*
X181866666Y-97176904D02*
X181819047Y-97319761D01*
X181819047Y-97319761D02*
X181723809Y-97415000D01*
X181723809Y-97415000D02*
X181580952Y-97462619D01*
X181580952Y-97462619D02*
X181485714Y-97462619D01*
X182866666Y-97462619D02*
X182295238Y-97462619D01*
X182580952Y-97462619D02*
X182580952Y-96462619D01*
X182580952Y-96462619D02*
X182485714Y-96605476D01*
X182485714Y-96605476D02*
X182390476Y-96700714D01*
X182390476Y-96700714D02*
X182295238Y-96748333D01*
X186119047Y-89476904D02*
X186595237Y-89476904D01*
X186023809Y-89762619D02*
X186357142Y-88762619D01*
X186357142Y-88762619D02*
X186690475Y-89762619D01*
X187452380Y-89095952D02*
X187452380Y-89762619D01*
X187023809Y-89095952D02*
X187023809Y-89619761D01*
X187023809Y-89619761D02*
X187071428Y-89715000D01*
X187071428Y-89715000D02*
X187166666Y-89762619D01*
X187166666Y-89762619D02*
X187309523Y-89762619D01*
X187309523Y-89762619D02*
X187404761Y-89715000D01*
X187404761Y-89715000D02*
X187452380Y-89667380D01*
X188357142Y-89762619D02*
X188357142Y-88762619D01*
X188357142Y-89715000D02*
X188261904Y-89762619D01*
X188261904Y-89762619D02*
X188071428Y-89762619D01*
X188071428Y-89762619D02*
X187976190Y-89715000D01*
X187976190Y-89715000D02*
X187928571Y-89667380D01*
X187928571Y-89667380D02*
X187880952Y-89572142D01*
X187880952Y-89572142D02*
X187880952Y-89286428D01*
X187880952Y-89286428D02*
X187928571Y-89191190D01*
X187928571Y-89191190D02*
X187976190Y-89143571D01*
X187976190Y-89143571D02*
X188071428Y-89095952D01*
X188071428Y-89095952D02*
X188261904Y-89095952D01*
X188261904Y-89095952D02*
X188357142Y-89143571D01*
X188833333Y-89762619D02*
X188833333Y-89095952D01*
X188833333Y-88762619D02*
X188785714Y-88810238D01*
X188785714Y-88810238D02*
X188833333Y-88857857D01*
X188833333Y-88857857D02*
X188880952Y-88810238D01*
X188880952Y-88810238D02*
X188833333Y-88762619D01*
X188833333Y-88762619D02*
X188833333Y-88857857D01*
X189452380Y-89762619D02*
X189357142Y-89715000D01*
X189357142Y-89715000D02*
X189309523Y-89667380D01*
X189309523Y-89667380D02*
X189261904Y-89572142D01*
X189261904Y-89572142D02*
X189261904Y-89286428D01*
X189261904Y-89286428D02*
X189309523Y-89191190D01*
X189309523Y-89191190D02*
X189357142Y-89143571D01*
X189357142Y-89143571D02*
X189452380Y-89095952D01*
X189452380Y-89095952D02*
X189595237Y-89095952D01*
X189595237Y-89095952D02*
X189690475Y-89143571D01*
X189690475Y-89143571D02*
X189738094Y-89191190D01*
X189738094Y-89191190D02*
X189785713Y-89286428D01*
X189785713Y-89286428D02*
X189785713Y-89572142D01*
X189785713Y-89572142D02*
X189738094Y-89667380D01*
X189738094Y-89667380D02*
X189690475Y-89715000D01*
X189690475Y-89715000D02*
X189595237Y-89762619D01*
X189595237Y-89762619D02*
X189452380Y-89762619D01*
X191261904Y-88762619D02*
X191261904Y-89476904D01*
X191261904Y-89476904D02*
X191214285Y-89619761D01*
X191214285Y-89619761D02*
X191119047Y-89715000D01*
X191119047Y-89715000D02*
X190976190Y-89762619D01*
X190976190Y-89762619D02*
X190880952Y-89762619D01*
X192166666Y-89762619D02*
X192166666Y-89238809D01*
X192166666Y-89238809D02*
X192119047Y-89143571D01*
X192119047Y-89143571D02*
X192023809Y-89095952D01*
X192023809Y-89095952D02*
X191833333Y-89095952D01*
X191833333Y-89095952D02*
X191738095Y-89143571D01*
X192166666Y-89715000D02*
X192071428Y-89762619D01*
X192071428Y-89762619D02*
X191833333Y-89762619D01*
X191833333Y-89762619D02*
X191738095Y-89715000D01*
X191738095Y-89715000D02*
X191690476Y-89619761D01*
X191690476Y-89619761D02*
X191690476Y-89524523D01*
X191690476Y-89524523D02*
X191738095Y-89429285D01*
X191738095Y-89429285D02*
X191833333Y-89381666D01*
X191833333Y-89381666D02*
X192071428Y-89381666D01*
X192071428Y-89381666D02*
X192166666Y-89334047D01*
X193071428Y-89715000D02*
X192976190Y-89762619D01*
X192976190Y-89762619D02*
X192785714Y-89762619D01*
X192785714Y-89762619D02*
X192690476Y-89715000D01*
X192690476Y-89715000D02*
X192642857Y-89667380D01*
X192642857Y-89667380D02*
X192595238Y-89572142D01*
X192595238Y-89572142D02*
X192595238Y-89286428D01*
X192595238Y-89286428D02*
X192642857Y-89191190D01*
X192642857Y-89191190D02*
X192690476Y-89143571D01*
X192690476Y-89143571D02*
X192785714Y-89095952D01*
X192785714Y-89095952D02*
X192976190Y-89095952D01*
X192976190Y-89095952D02*
X193071428Y-89143571D01*
X193500000Y-89762619D02*
X193500000Y-88762619D01*
X193595238Y-89381666D02*
X193880952Y-89762619D01*
X193880952Y-89095952D02*
X193500000Y-89476904D01*
%TO.C,J4*%
X117616666Y-116212619D02*
X117616666Y-116926904D01*
X117616666Y-116926904D02*
X117569047Y-117069761D01*
X117569047Y-117069761D02*
X117473809Y-117165000D01*
X117473809Y-117165000D02*
X117330952Y-117212619D01*
X117330952Y-117212619D02*
X117235714Y-117212619D01*
X118521428Y-116545952D02*
X118521428Y-117212619D01*
X118283333Y-116165000D02*
X118045238Y-116879285D01*
X118045238Y-116879285D02*
X118664285Y-116879285D01*
X115428571Y-103381666D02*
X116190476Y-103381666D01*
X116571428Y-102762619D02*
X117190475Y-102762619D01*
X117190475Y-102762619D02*
X116857142Y-103143571D01*
X116857142Y-103143571D02*
X116999999Y-103143571D01*
X116999999Y-103143571D02*
X117095237Y-103191190D01*
X117095237Y-103191190D02*
X117142856Y-103238809D01*
X117142856Y-103238809D02*
X117190475Y-103334047D01*
X117190475Y-103334047D02*
X117190475Y-103572142D01*
X117190475Y-103572142D02*
X117142856Y-103667380D01*
X117142856Y-103667380D02*
X117095237Y-103715000D01*
X117095237Y-103715000D02*
X116999999Y-103762619D01*
X116999999Y-103762619D02*
X116714285Y-103762619D01*
X116714285Y-103762619D02*
X116619047Y-103715000D01*
X116619047Y-103715000D02*
X116571428Y-103667380D01*
X118047618Y-102762619D02*
X117857142Y-102762619D01*
X117857142Y-102762619D02*
X117761904Y-102810238D01*
X117761904Y-102810238D02*
X117714285Y-102857857D01*
X117714285Y-102857857D02*
X117619047Y-103000714D01*
X117619047Y-103000714D02*
X117571428Y-103191190D01*
X117571428Y-103191190D02*
X117571428Y-103572142D01*
X117571428Y-103572142D02*
X117619047Y-103667380D01*
X117619047Y-103667380D02*
X117666666Y-103715000D01*
X117666666Y-103715000D02*
X117761904Y-103762619D01*
X117761904Y-103762619D02*
X117952380Y-103762619D01*
X117952380Y-103762619D02*
X118047618Y-103715000D01*
X118047618Y-103715000D02*
X118095237Y-103667380D01*
X118095237Y-103667380D02*
X118142856Y-103572142D01*
X118142856Y-103572142D02*
X118142856Y-103334047D01*
X118142856Y-103334047D02*
X118095237Y-103238809D01*
X118095237Y-103238809D02*
X118047618Y-103191190D01*
X118047618Y-103191190D02*
X117952380Y-103143571D01*
X117952380Y-103143571D02*
X117761904Y-103143571D01*
X117761904Y-103143571D02*
X117666666Y-103191190D01*
X117666666Y-103191190D02*
X117619047Y-103238809D01*
X117619047Y-103238809D02*
X117571428Y-103334047D01*
X118571428Y-103762619D02*
X118571428Y-102762619D01*
X118571428Y-102762619D02*
X118809523Y-102762619D01*
X118809523Y-102762619D02*
X118952380Y-102810238D01*
X118952380Y-102810238D02*
X119047618Y-102905476D01*
X119047618Y-102905476D02*
X119095237Y-103000714D01*
X119095237Y-103000714D02*
X119142856Y-103191190D01*
X119142856Y-103191190D02*
X119142856Y-103334047D01*
X119142856Y-103334047D02*
X119095237Y-103524523D01*
X119095237Y-103524523D02*
X119047618Y-103619761D01*
X119047618Y-103619761D02*
X118952380Y-103715000D01*
X118952380Y-103715000D02*
X118809523Y-103762619D01*
X118809523Y-103762619D02*
X118571428Y-103762619D01*
X120142856Y-103667380D02*
X120095237Y-103715000D01*
X120095237Y-103715000D02*
X119952380Y-103762619D01*
X119952380Y-103762619D02*
X119857142Y-103762619D01*
X119857142Y-103762619D02*
X119714285Y-103715000D01*
X119714285Y-103715000D02*
X119619047Y-103619761D01*
X119619047Y-103619761D02*
X119571428Y-103524523D01*
X119571428Y-103524523D02*
X119523809Y-103334047D01*
X119523809Y-103334047D02*
X119523809Y-103191190D01*
X119523809Y-103191190D02*
X119571428Y-103000714D01*
X119571428Y-103000714D02*
X119619047Y-102905476D01*
X119619047Y-102905476D02*
X119714285Y-102810238D01*
X119714285Y-102810238D02*
X119857142Y-102762619D01*
X119857142Y-102762619D02*
X119952380Y-102762619D01*
X119952380Y-102762619D02*
X120095237Y-102810238D01*
X120095237Y-102810238D02*
X120142856Y-102857857D01*
X121904761Y-103667380D02*
X121857142Y-103715000D01*
X121857142Y-103715000D02*
X121714285Y-103762619D01*
X121714285Y-103762619D02*
X121619047Y-103762619D01*
X121619047Y-103762619D02*
X121476190Y-103715000D01*
X121476190Y-103715000D02*
X121380952Y-103619761D01*
X121380952Y-103619761D02*
X121333333Y-103524523D01*
X121333333Y-103524523D02*
X121285714Y-103334047D01*
X121285714Y-103334047D02*
X121285714Y-103191190D01*
X121285714Y-103191190D02*
X121333333Y-103000714D01*
X121333333Y-103000714D02*
X121380952Y-102905476D01*
X121380952Y-102905476D02*
X121476190Y-102810238D01*
X121476190Y-102810238D02*
X121619047Y-102762619D01*
X121619047Y-102762619D02*
X121714285Y-102762619D01*
X121714285Y-102762619D02*
X121857142Y-102810238D01*
X121857142Y-102810238D02*
X121904761Y-102857857D01*
X122476190Y-103762619D02*
X122380952Y-103715000D01*
X122380952Y-103715000D02*
X122333333Y-103667380D01*
X122333333Y-103667380D02*
X122285714Y-103572142D01*
X122285714Y-103572142D02*
X122285714Y-103286428D01*
X122285714Y-103286428D02*
X122333333Y-103191190D01*
X122333333Y-103191190D02*
X122380952Y-103143571D01*
X122380952Y-103143571D02*
X122476190Y-103095952D01*
X122476190Y-103095952D02*
X122619047Y-103095952D01*
X122619047Y-103095952D02*
X122714285Y-103143571D01*
X122714285Y-103143571D02*
X122761904Y-103191190D01*
X122761904Y-103191190D02*
X122809523Y-103286428D01*
X122809523Y-103286428D02*
X122809523Y-103572142D01*
X122809523Y-103572142D02*
X122761904Y-103667380D01*
X122761904Y-103667380D02*
X122714285Y-103715000D01*
X122714285Y-103715000D02*
X122619047Y-103762619D01*
X122619047Y-103762619D02*
X122476190Y-103762619D01*
X123238095Y-103095952D02*
X123238095Y-103762619D01*
X123238095Y-103191190D02*
X123285714Y-103143571D01*
X123285714Y-103143571D02*
X123380952Y-103095952D01*
X123380952Y-103095952D02*
X123523809Y-103095952D01*
X123523809Y-103095952D02*
X123619047Y-103143571D01*
X123619047Y-103143571D02*
X123666666Y-103238809D01*
X123666666Y-103238809D02*
X123666666Y-103762619D01*
X124142857Y-103095952D02*
X124142857Y-103762619D01*
X124142857Y-103191190D02*
X124190476Y-103143571D01*
X124190476Y-103143571D02*
X124285714Y-103095952D01*
X124285714Y-103095952D02*
X124428571Y-103095952D01*
X124428571Y-103095952D02*
X124523809Y-103143571D01*
X124523809Y-103143571D02*
X124571428Y-103238809D01*
X124571428Y-103238809D02*
X124571428Y-103762619D01*
%TO.C,C16*%
X145357142Y-96617380D02*
X145309523Y-96665000D01*
X145309523Y-96665000D02*
X145166666Y-96712619D01*
X145166666Y-96712619D02*
X145071428Y-96712619D01*
X145071428Y-96712619D02*
X144928571Y-96665000D01*
X144928571Y-96665000D02*
X144833333Y-96569761D01*
X144833333Y-96569761D02*
X144785714Y-96474523D01*
X144785714Y-96474523D02*
X144738095Y-96284047D01*
X144738095Y-96284047D02*
X144738095Y-96141190D01*
X144738095Y-96141190D02*
X144785714Y-95950714D01*
X144785714Y-95950714D02*
X144833333Y-95855476D01*
X144833333Y-95855476D02*
X144928571Y-95760238D01*
X144928571Y-95760238D02*
X145071428Y-95712619D01*
X145071428Y-95712619D02*
X145166666Y-95712619D01*
X145166666Y-95712619D02*
X145309523Y-95760238D01*
X145309523Y-95760238D02*
X145357142Y-95807857D01*
X146309523Y-96712619D02*
X145738095Y-96712619D01*
X146023809Y-96712619D02*
X146023809Y-95712619D01*
X146023809Y-95712619D02*
X145928571Y-95855476D01*
X145928571Y-95855476D02*
X145833333Y-95950714D01*
X145833333Y-95950714D02*
X145738095Y-95998333D01*
X147166666Y-95712619D02*
X146976190Y-95712619D01*
X146976190Y-95712619D02*
X146880952Y-95760238D01*
X146880952Y-95760238D02*
X146833333Y-95807857D01*
X146833333Y-95807857D02*
X146738095Y-95950714D01*
X146738095Y-95950714D02*
X146690476Y-96141190D01*
X146690476Y-96141190D02*
X146690476Y-96522142D01*
X146690476Y-96522142D02*
X146738095Y-96617380D01*
X146738095Y-96617380D02*
X146785714Y-96665000D01*
X146785714Y-96665000D02*
X146880952Y-96712619D01*
X146880952Y-96712619D02*
X147071428Y-96712619D01*
X147071428Y-96712619D02*
X147166666Y-96665000D01*
X147166666Y-96665000D02*
X147214285Y-96617380D01*
X147214285Y-96617380D02*
X147261904Y-96522142D01*
X147261904Y-96522142D02*
X147261904Y-96284047D01*
X147261904Y-96284047D02*
X147214285Y-96188809D01*
X147214285Y-96188809D02*
X147166666Y-96141190D01*
X147166666Y-96141190D02*
X147071428Y-96093571D01*
X147071428Y-96093571D02*
X146880952Y-96093571D01*
X146880952Y-96093571D02*
X146785714Y-96141190D01*
X146785714Y-96141190D02*
X146738095Y-96188809D01*
X146738095Y-96188809D02*
X146690476Y-96284047D01*
X144702380Y-94612619D02*
X144130952Y-94612619D01*
X144416666Y-94612619D02*
X144416666Y-93612619D01*
X144416666Y-93612619D02*
X144321428Y-93755476D01*
X144321428Y-93755476D02*
X144226190Y-93850714D01*
X144226190Y-93850714D02*
X144130952Y-93898333D01*
X145321428Y-93612619D02*
X145416666Y-93612619D01*
X145416666Y-93612619D02*
X145511904Y-93660238D01*
X145511904Y-93660238D02*
X145559523Y-93707857D01*
X145559523Y-93707857D02*
X145607142Y-93803095D01*
X145607142Y-93803095D02*
X145654761Y-93993571D01*
X145654761Y-93993571D02*
X145654761Y-94231666D01*
X145654761Y-94231666D02*
X145607142Y-94422142D01*
X145607142Y-94422142D02*
X145559523Y-94517380D01*
X145559523Y-94517380D02*
X145511904Y-94565000D01*
X145511904Y-94565000D02*
X145416666Y-94612619D01*
X145416666Y-94612619D02*
X145321428Y-94612619D01*
X145321428Y-94612619D02*
X145226190Y-94565000D01*
X145226190Y-94565000D02*
X145178571Y-94517380D01*
X145178571Y-94517380D02*
X145130952Y-94422142D01*
X145130952Y-94422142D02*
X145083333Y-94231666D01*
X145083333Y-94231666D02*
X145083333Y-93993571D01*
X145083333Y-93993571D02*
X145130952Y-93803095D01*
X145130952Y-93803095D02*
X145178571Y-93707857D01*
X145178571Y-93707857D02*
X145226190Y-93660238D01*
X145226190Y-93660238D02*
X145321428Y-93612619D01*
X146273809Y-93612619D02*
X146369047Y-93612619D01*
X146369047Y-93612619D02*
X146464285Y-93660238D01*
X146464285Y-93660238D02*
X146511904Y-93707857D01*
X146511904Y-93707857D02*
X146559523Y-93803095D01*
X146559523Y-93803095D02*
X146607142Y-93993571D01*
X146607142Y-93993571D02*
X146607142Y-94231666D01*
X146607142Y-94231666D02*
X146559523Y-94422142D01*
X146559523Y-94422142D02*
X146511904Y-94517380D01*
X146511904Y-94517380D02*
X146464285Y-94565000D01*
X146464285Y-94565000D02*
X146369047Y-94612619D01*
X146369047Y-94612619D02*
X146273809Y-94612619D01*
X146273809Y-94612619D02*
X146178571Y-94565000D01*
X146178571Y-94565000D02*
X146130952Y-94517380D01*
X146130952Y-94517380D02*
X146083333Y-94422142D01*
X146083333Y-94422142D02*
X146035714Y-94231666D01*
X146035714Y-94231666D02*
X146035714Y-93993571D01*
X146035714Y-93993571D02*
X146083333Y-93803095D01*
X146083333Y-93803095D02*
X146130952Y-93707857D01*
X146130952Y-93707857D02*
X146178571Y-93660238D01*
X146178571Y-93660238D02*
X146273809Y-93612619D01*
X147035714Y-93945952D02*
X147035714Y-94612619D01*
X147035714Y-94041190D02*
X147083333Y-93993571D01*
X147083333Y-93993571D02*
X147178571Y-93945952D01*
X147178571Y-93945952D02*
X147321428Y-93945952D01*
X147321428Y-93945952D02*
X147416666Y-93993571D01*
X147416666Y-93993571D02*
X147464285Y-94088809D01*
X147464285Y-94088809D02*
X147464285Y-94612619D01*
X148273809Y-94088809D02*
X147940476Y-94088809D01*
X147940476Y-94612619D02*
X147940476Y-93612619D01*
X147940476Y-93612619D02*
X148416666Y-93612619D01*
%TO.C,C14*%
X168007142Y-98317380D02*
X167959523Y-98365000D01*
X167959523Y-98365000D02*
X167816666Y-98412619D01*
X167816666Y-98412619D02*
X167721428Y-98412619D01*
X167721428Y-98412619D02*
X167578571Y-98365000D01*
X167578571Y-98365000D02*
X167483333Y-98269761D01*
X167483333Y-98269761D02*
X167435714Y-98174523D01*
X167435714Y-98174523D02*
X167388095Y-97984047D01*
X167388095Y-97984047D02*
X167388095Y-97841190D01*
X167388095Y-97841190D02*
X167435714Y-97650714D01*
X167435714Y-97650714D02*
X167483333Y-97555476D01*
X167483333Y-97555476D02*
X167578571Y-97460238D01*
X167578571Y-97460238D02*
X167721428Y-97412619D01*
X167721428Y-97412619D02*
X167816666Y-97412619D01*
X167816666Y-97412619D02*
X167959523Y-97460238D01*
X167959523Y-97460238D02*
X168007142Y-97507857D01*
X168959523Y-98412619D02*
X168388095Y-98412619D01*
X168673809Y-98412619D02*
X168673809Y-97412619D01*
X168673809Y-97412619D02*
X168578571Y-97555476D01*
X168578571Y-97555476D02*
X168483333Y-97650714D01*
X168483333Y-97650714D02*
X168388095Y-97698333D01*
X169816666Y-97745952D02*
X169816666Y-98412619D01*
X169578571Y-97365000D02*
X169340476Y-98079285D01*
X169340476Y-98079285D02*
X169959523Y-98079285D01*
X167976190Y-100462619D02*
X167404762Y-100462619D01*
X167690476Y-100462619D02*
X167690476Y-99462619D01*
X167690476Y-99462619D02*
X167595238Y-99605476D01*
X167595238Y-99605476D02*
X167500000Y-99700714D01*
X167500000Y-99700714D02*
X167404762Y-99748333D01*
X168595238Y-99462619D02*
X168690476Y-99462619D01*
X168690476Y-99462619D02*
X168785714Y-99510238D01*
X168785714Y-99510238D02*
X168833333Y-99557857D01*
X168833333Y-99557857D02*
X168880952Y-99653095D01*
X168880952Y-99653095D02*
X168928571Y-99843571D01*
X168928571Y-99843571D02*
X168928571Y-100081666D01*
X168928571Y-100081666D02*
X168880952Y-100272142D01*
X168880952Y-100272142D02*
X168833333Y-100367380D01*
X168833333Y-100367380D02*
X168785714Y-100415000D01*
X168785714Y-100415000D02*
X168690476Y-100462619D01*
X168690476Y-100462619D02*
X168595238Y-100462619D01*
X168595238Y-100462619D02*
X168500000Y-100415000D01*
X168500000Y-100415000D02*
X168452381Y-100367380D01*
X168452381Y-100367380D02*
X168404762Y-100272142D01*
X168404762Y-100272142D02*
X168357143Y-100081666D01*
X168357143Y-100081666D02*
X168357143Y-99843571D01*
X168357143Y-99843571D02*
X168404762Y-99653095D01*
X168404762Y-99653095D02*
X168452381Y-99557857D01*
X168452381Y-99557857D02*
X168500000Y-99510238D01*
X168500000Y-99510238D02*
X168595238Y-99462619D01*
X169547619Y-99462619D02*
X169642857Y-99462619D01*
X169642857Y-99462619D02*
X169738095Y-99510238D01*
X169738095Y-99510238D02*
X169785714Y-99557857D01*
X169785714Y-99557857D02*
X169833333Y-99653095D01*
X169833333Y-99653095D02*
X169880952Y-99843571D01*
X169880952Y-99843571D02*
X169880952Y-100081666D01*
X169880952Y-100081666D02*
X169833333Y-100272142D01*
X169833333Y-100272142D02*
X169785714Y-100367380D01*
X169785714Y-100367380D02*
X169738095Y-100415000D01*
X169738095Y-100415000D02*
X169642857Y-100462619D01*
X169642857Y-100462619D02*
X169547619Y-100462619D01*
X169547619Y-100462619D02*
X169452381Y-100415000D01*
X169452381Y-100415000D02*
X169404762Y-100367380D01*
X169404762Y-100367380D02*
X169357143Y-100272142D01*
X169357143Y-100272142D02*
X169309524Y-100081666D01*
X169309524Y-100081666D02*
X169309524Y-99843571D01*
X169309524Y-99843571D02*
X169357143Y-99653095D01*
X169357143Y-99653095D02*
X169404762Y-99557857D01*
X169404762Y-99557857D02*
X169452381Y-99510238D01*
X169452381Y-99510238D02*
X169547619Y-99462619D01*
X170500000Y-99462619D02*
X170595238Y-99462619D01*
X170595238Y-99462619D02*
X170690476Y-99510238D01*
X170690476Y-99510238D02*
X170738095Y-99557857D01*
X170738095Y-99557857D02*
X170785714Y-99653095D01*
X170785714Y-99653095D02*
X170833333Y-99843571D01*
X170833333Y-99843571D02*
X170833333Y-100081666D01*
X170833333Y-100081666D02*
X170785714Y-100272142D01*
X170785714Y-100272142D02*
X170738095Y-100367380D01*
X170738095Y-100367380D02*
X170690476Y-100415000D01*
X170690476Y-100415000D02*
X170595238Y-100462619D01*
X170595238Y-100462619D02*
X170500000Y-100462619D01*
X170500000Y-100462619D02*
X170404762Y-100415000D01*
X170404762Y-100415000D02*
X170357143Y-100367380D01*
X170357143Y-100367380D02*
X170309524Y-100272142D01*
X170309524Y-100272142D02*
X170261905Y-100081666D01*
X170261905Y-100081666D02*
X170261905Y-99843571D01*
X170261905Y-99843571D02*
X170309524Y-99653095D01*
X170309524Y-99653095D02*
X170357143Y-99557857D01*
X170357143Y-99557857D02*
X170404762Y-99510238D01*
X170404762Y-99510238D02*
X170500000Y-99462619D01*
X171690476Y-99795952D02*
X171690476Y-100462619D01*
X171261905Y-99795952D02*
X171261905Y-100319761D01*
X171261905Y-100319761D02*
X171309524Y-100415000D01*
X171309524Y-100415000D02*
X171404762Y-100462619D01*
X171404762Y-100462619D02*
X171547619Y-100462619D01*
X171547619Y-100462619D02*
X171642857Y-100415000D01*
X171642857Y-100415000D02*
X171690476Y-100367380D01*
X172500000Y-99938809D02*
X172166667Y-99938809D01*
X172166667Y-100462619D02*
X172166667Y-99462619D01*
X172166667Y-99462619D02*
X172642857Y-99462619D01*
%TO.C,R11*%
X175537142Y-51872619D02*
X175203809Y-51396428D01*
X174965714Y-51872619D02*
X174965714Y-50872619D01*
X174965714Y-50872619D02*
X175346666Y-50872619D01*
X175346666Y-50872619D02*
X175441904Y-50920238D01*
X175441904Y-50920238D02*
X175489523Y-50967857D01*
X175489523Y-50967857D02*
X175537142Y-51063095D01*
X175537142Y-51063095D02*
X175537142Y-51205952D01*
X175537142Y-51205952D02*
X175489523Y-51301190D01*
X175489523Y-51301190D02*
X175441904Y-51348809D01*
X175441904Y-51348809D02*
X175346666Y-51396428D01*
X175346666Y-51396428D02*
X174965714Y-51396428D01*
X176489523Y-51872619D02*
X175918095Y-51872619D01*
X176203809Y-51872619D02*
X176203809Y-50872619D01*
X176203809Y-50872619D02*
X176108571Y-51015476D01*
X176108571Y-51015476D02*
X176013333Y-51110714D01*
X176013333Y-51110714D02*
X175918095Y-51158333D01*
X177441904Y-51872619D02*
X176870476Y-51872619D01*
X177156190Y-51872619D02*
X177156190Y-50872619D01*
X177156190Y-50872619D02*
X177060952Y-51015476D01*
X177060952Y-51015476D02*
X176965714Y-51110714D01*
X176965714Y-51110714D02*
X176870476Y-51158333D01*
X175133333Y-48957857D02*
X175180952Y-48910238D01*
X175180952Y-48910238D02*
X175276190Y-48862619D01*
X175276190Y-48862619D02*
X175514285Y-48862619D01*
X175514285Y-48862619D02*
X175609523Y-48910238D01*
X175609523Y-48910238D02*
X175657142Y-48957857D01*
X175657142Y-48957857D02*
X175704761Y-49053095D01*
X175704761Y-49053095D02*
X175704761Y-49148333D01*
X175704761Y-49148333D02*
X175657142Y-49291190D01*
X175657142Y-49291190D02*
X175085714Y-49862619D01*
X175085714Y-49862619D02*
X175704761Y-49862619D01*
X176085714Y-48957857D02*
X176133333Y-48910238D01*
X176133333Y-48910238D02*
X176228571Y-48862619D01*
X176228571Y-48862619D02*
X176466666Y-48862619D01*
X176466666Y-48862619D02*
X176561904Y-48910238D01*
X176561904Y-48910238D02*
X176609523Y-48957857D01*
X176609523Y-48957857D02*
X176657142Y-49053095D01*
X176657142Y-49053095D02*
X176657142Y-49148333D01*
X176657142Y-49148333D02*
X176609523Y-49291190D01*
X176609523Y-49291190D02*
X176038095Y-49862619D01*
X176038095Y-49862619D02*
X176657142Y-49862619D01*
X177085714Y-49862619D02*
X177085714Y-48862619D01*
X177180952Y-49481666D02*
X177466666Y-49862619D01*
X177466666Y-49195952D02*
X177085714Y-49576904D01*
%TO.C,R8*%
X190883333Y-79362619D02*
X190550000Y-78886428D01*
X190311905Y-79362619D02*
X190311905Y-78362619D01*
X190311905Y-78362619D02*
X190692857Y-78362619D01*
X190692857Y-78362619D02*
X190788095Y-78410238D01*
X190788095Y-78410238D02*
X190835714Y-78457857D01*
X190835714Y-78457857D02*
X190883333Y-78553095D01*
X190883333Y-78553095D02*
X190883333Y-78695952D01*
X190883333Y-78695952D02*
X190835714Y-78791190D01*
X190835714Y-78791190D02*
X190788095Y-78838809D01*
X190788095Y-78838809D02*
X190692857Y-78886428D01*
X190692857Y-78886428D02*
X190311905Y-78886428D01*
X191454762Y-78791190D02*
X191359524Y-78743571D01*
X191359524Y-78743571D02*
X191311905Y-78695952D01*
X191311905Y-78695952D02*
X191264286Y-78600714D01*
X191264286Y-78600714D02*
X191264286Y-78553095D01*
X191264286Y-78553095D02*
X191311905Y-78457857D01*
X191311905Y-78457857D02*
X191359524Y-78410238D01*
X191359524Y-78410238D02*
X191454762Y-78362619D01*
X191454762Y-78362619D02*
X191645238Y-78362619D01*
X191645238Y-78362619D02*
X191740476Y-78410238D01*
X191740476Y-78410238D02*
X191788095Y-78457857D01*
X191788095Y-78457857D02*
X191835714Y-78553095D01*
X191835714Y-78553095D02*
X191835714Y-78600714D01*
X191835714Y-78600714D02*
X191788095Y-78695952D01*
X191788095Y-78695952D02*
X191740476Y-78743571D01*
X191740476Y-78743571D02*
X191645238Y-78791190D01*
X191645238Y-78791190D02*
X191454762Y-78791190D01*
X191454762Y-78791190D02*
X191359524Y-78838809D01*
X191359524Y-78838809D02*
X191311905Y-78886428D01*
X191311905Y-78886428D02*
X191264286Y-78981666D01*
X191264286Y-78981666D02*
X191264286Y-79172142D01*
X191264286Y-79172142D02*
X191311905Y-79267380D01*
X191311905Y-79267380D02*
X191359524Y-79315000D01*
X191359524Y-79315000D02*
X191454762Y-79362619D01*
X191454762Y-79362619D02*
X191645238Y-79362619D01*
X191645238Y-79362619D02*
X191740476Y-79315000D01*
X191740476Y-79315000D02*
X191788095Y-79267380D01*
X191788095Y-79267380D02*
X191835714Y-79172142D01*
X191835714Y-79172142D02*
X191835714Y-78981666D01*
X191835714Y-78981666D02*
X191788095Y-78886428D01*
X191788095Y-78886428D02*
X191740476Y-78838809D01*
X191740476Y-78838809D02*
X191645238Y-78791190D01*
X190738095Y-79962619D02*
X190547619Y-79962619D01*
X190547619Y-79962619D02*
X190452381Y-80010238D01*
X190452381Y-80010238D02*
X190404762Y-80057857D01*
X190404762Y-80057857D02*
X190309524Y-80200714D01*
X190309524Y-80200714D02*
X190261905Y-80391190D01*
X190261905Y-80391190D02*
X190261905Y-80772142D01*
X190261905Y-80772142D02*
X190309524Y-80867380D01*
X190309524Y-80867380D02*
X190357143Y-80915000D01*
X190357143Y-80915000D02*
X190452381Y-80962619D01*
X190452381Y-80962619D02*
X190642857Y-80962619D01*
X190642857Y-80962619D02*
X190738095Y-80915000D01*
X190738095Y-80915000D02*
X190785714Y-80867380D01*
X190785714Y-80867380D02*
X190833333Y-80772142D01*
X190833333Y-80772142D02*
X190833333Y-80534047D01*
X190833333Y-80534047D02*
X190785714Y-80438809D01*
X190785714Y-80438809D02*
X190738095Y-80391190D01*
X190738095Y-80391190D02*
X190642857Y-80343571D01*
X190642857Y-80343571D02*
X190452381Y-80343571D01*
X190452381Y-80343571D02*
X190357143Y-80391190D01*
X190357143Y-80391190D02*
X190309524Y-80438809D01*
X190309524Y-80438809D02*
X190261905Y-80534047D01*
X191404762Y-80391190D02*
X191309524Y-80343571D01*
X191309524Y-80343571D02*
X191261905Y-80295952D01*
X191261905Y-80295952D02*
X191214286Y-80200714D01*
X191214286Y-80200714D02*
X191214286Y-80153095D01*
X191214286Y-80153095D02*
X191261905Y-80057857D01*
X191261905Y-80057857D02*
X191309524Y-80010238D01*
X191309524Y-80010238D02*
X191404762Y-79962619D01*
X191404762Y-79962619D02*
X191595238Y-79962619D01*
X191595238Y-79962619D02*
X191690476Y-80010238D01*
X191690476Y-80010238D02*
X191738095Y-80057857D01*
X191738095Y-80057857D02*
X191785714Y-80153095D01*
X191785714Y-80153095D02*
X191785714Y-80200714D01*
X191785714Y-80200714D02*
X191738095Y-80295952D01*
X191738095Y-80295952D02*
X191690476Y-80343571D01*
X191690476Y-80343571D02*
X191595238Y-80391190D01*
X191595238Y-80391190D02*
X191404762Y-80391190D01*
X191404762Y-80391190D02*
X191309524Y-80438809D01*
X191309524Y-80438809D02*
X191261905Y-80486428D01*
X191261905Y-80486428D02*
X191214286Y-80581666D01*
X191214286Y-80581666D02*
X191214286Y-80772142D01*
X191214286Y-80772142D02*
X191261905Y-80867380D01*
X191261905Y-80867380D02*
X191309524Y-80915000D01*
X191309524Y-80915000D02*
X191404762Y-80962619D01*
X191404762Y-80962619D02*
X191595238Y-80962619D01*
X191595238Y-80962619D02*
X191690476Y-80915000D01*
X191690476Y-80915000D02*
X191738095Y-80867380D01*
X191738095Y-80867380D02*
X191785714Y-80772142D01*
X191785714Y-80772142D02*
X191785714Y-80581666D01*
X191785714Y-80581666D02*
X191738095Y-80486428D01*
X191738095Y-80486428D02*
X191690476Y-80438809D01*
X191690476Y-80438809D02*
X191595238Y-80391190D01*
X192404762Y-79962619D02*
X192500000Y-79962619D01*
X192500000Y-79962619D02*
X192595238Y-80010238D01*
X192595238Y-80010238D02*
X192642857Y-80057857D01*
X192642857Y-80057857D02*
X192690476Y-80153095D01*
X192690476Y-80153095D02*
X192738095Y-80343571D01*
X192738095Y-80343571D02*
X192738095Y-80581666D01*
X192738095Y-80581666D02*
X192690476Y-80772142D01*
X192690476Y-80772142D02*
X192642857Y-80867380D01*
X192642857Y-80867380D02*
X192595238Y-80915000D01*
X192595238Y-80915000D02*
X192500000Y-80962619D01*
X192500000Y-80962619D02*
X192404762Y-80962619D01*
X192404762Y-80962619D02*
X192309524Y-80915000D01*
X192309524Y-80915000D02*
X192261905Y-80867380D01*
X192261905Y-80867380D02*
X192214286Y-80772142D01*
X192214286Y-80772142D02*
X192166667Y-80581666D01*
X192166667Y-80581666D02*
X192166667Y-80343571D01*
X192166667Y-80343571D02*
X192214286Y-80153095D01*
X192214286Y-80153095D02*
X192261905Y-80057857D01*
X192261905Y-80057857D02*
X192309524Y-80010238D01*
X192309524Y-80010238D02*
X192404762Y-79962619D01*
%TO.C,C17*%
X117457142Y-96167380D02*
X117409523Y-96215000D01*
X117409523Y-96215000D02*
X117266666Y-96262619D01*
X117266666Y-96262619D02*
X117171428Y-96262619D01*
X117171428Y-96262619D02*
X117028571Y-96215000D01*
X117028571Y-96215000D02*
X116933333Y-96119761D01*
X116933333Y-96119761D02*
X116885714Y-96024523D01*
X116885714Y-96024523D02*
X116838095Y-95834047D01*
X116838095Y-95834047D02*
X116838095Y-95691190D01*
X116838095Y-95691190D02*
X116885714Y-95500714D01*
X116885714Y-95500714D02*
X116933333Y-95405476D01*
X116933333Y-95405476D02*
X117028571Y-95310238D01*
X117028571Y-95310238D02*
X117171428Y-95262619D01*
X117171428Y-95262619D02*
X117266666Y-95262619D01*
X117266666Y-95262619D02*
X117409523Y-95310238D01*
X117409523Y-95310238D02*
X117457142Y-95357857D01*
X118409523Y-96262619D02*
X117838095Y-96262619D01*
X118123809Y-96262619D02*
X118123809Y-95262619D01*
X118123809Y-95262619D02*
X118028571Y-95405476D01*
X118028571Y-95405476D02*
X117933333Y-95500714D01*
X117933333Y-95500714D02*
X117838095Y-95548333D01*
X118742857Y-95262619D02*
X119409523Y-95262619D01*
X119409523Y-95262619D02*
X118980952Y-96262619D01*
X116352380Y-98662619D02*
X115780952Y-98662619D01*
X116066666Y-98662619D02*
X116066666Y-97662619D01*
X116066666Y-97662619D02*
X115971428Y-97805476D01*
X115971428Y-97805476D02*
X115876190Y-97900714D01*
X115876190Y-97900714D02*
X115780952Y-97948333D01*
X116971428Y-97662619D02*
X117066666Y-97662619D01*
X117066666Y-97662619D02*
X117161904Y-97710238D01*
X117161904Y-97710238D02*
X117209523Y-97757857D01*
X117209523Y-97757857D02*
X117257142Y-97853095D01*
X117257142Y-97853095D02*
X117304761Y-98043571D01*
X117304761Y-98043571D02*
X117304761Y-98281666D01*
X117304761Y-98281666D02*
X117257142Y-98472142D01*
X117257142Y-98472142D02*
X117209523Y-98567380D01*
X117209523Y-98567380D02*
X117161904Y-98615000D01*
X117161904Y-98615000D02*
X117066666Y-98662619D01*
X117066666Y-98662619D02*
X116971428Y-98662619D01*
X116971428Y-98662619D02*
X116876190Y-98615000D01*
X116876190Y-98615000D02*
X116828571Y-98567380D01*
X116828571Y-98567380D02*
X116780952Y-98472142D01*
X116780952Y-98472142D02*
X116733333Y-98281666D01*
X116733333Y-98281666D02*
X116733333Y-98043571D01*
X116733333Y-98043571D02*
X116780952Y-97853095D01*
X116780952Y-97853095D02*
X116828571Y-97757857D01*
X116828571Y-97757857D02*
X116876190Y-97710238D01*
X116876190Y-97710238D02*
X116971428Y-97662619D01*
X117923809Y-97662619D02*
X118019047Y-97662619D01*
X118019047Y-97662619D02*
X118114285Y-97710238D01*
X118114285Y-97710238D02*
X118161904Y-97757857D01*
X118161904Y-97757857D02*
X118209523Y-97853095D01*
X118209523Y-97853095D02*
X118257142Y-98043571D01*
X118257142Y-98043571D02*
X118257142Y-98281666D01*
X118257142Y-98281666D02*
X118209523Y-98472142D01*
X118209523Y-98472142D02*
X118161904Y-98567380D01*
X118161904Y-98567380D02*
X118114285Y-98615000D01*
X118114285Y-98615000D02*
X118019047Y-98662619D01*
X118019047Y-98662619D02*
X117923809Y-98662619D01*
X117923809Y-98662619D02*
X117828571Y-98615000D01*
X117828571Y-98615000D02*
X117780952Y-98567380D01*
X117780952Y-98567380D02*
X117733333Y-98472142D01*
X117733333Y-98472142D02*
X117685714Y-98281666D01*
X117685714Y-98281666D02*
X117685714Y-98043571D01*
X117685714Y-98043571D02*
X117733333Y-97853095D01*
X117733333Y-97853095D02*
X117780952Y-97757857D01*
X117780952Y-97757857D02*
X117828571Y-97710238D01*
X117828571Y-97710238D02*
X117923809Y-97662619D01*
X118685714Y-97995952D02*
X118685714Y-98662619D01*
X118685714Y-98091190D02*
X118733333Y-98043571D01*
X118733333Y-98043571D02*
X118828571Y-97995952D01*
X118828571Y-97995952D02*
X118971428Y-97995952D01*
X118971428Y-97995952D02*
X119066666Y-98043571D01*
X119066666Y-98043571D02*
X119114285Y-98138809D01*
X119114285Y-98138809D02*
X119114285Y-98662619D01*
X119923809Y-98138809D02*
X119590476Y-98138809D01*
X119590476Y-98662619D02*
X119590476Y-97662619D01*
X119590476Y-97662619D02*
X120066666Y-97662619D01*
%TO.C,J5*%
X183066666Y-108312619D02*
X183066666Y-109026904D01*
X183066666Y-109026904D02*
X183019047Y-109169761D01*
X183019047Y-109169761D02*
X182923809Y-109265000D01*
X182923809Y-109265000D02*
X182780952Y-109312619D01*
X182780952Y-109312619D02*
X182685714Y-109312619D01*
X184019047Y-108312619D02*
X183542857Y-108312619D01*
X183542857Y-108312619D02*
X183495238Y-108788809D01*
X183495238Y-108788809D02*
X183542857Y-108741190D01*
X183542857Y-108741190D02*
X183638095Y-108693571D01*
X183638095Y-108693571D02*
X183876190Y-108693571D01*
X183876190Y-108693571D02*
X183971428Y-108741190D01*
X183971428Y-108741190D02*
X184019047Y-108788809D01*
X184019047Y-108788809D02*
X184066666Y-108884047D01*
X184066666Y-108884047D02*
X184066666Y-109122142D01*
X184066666Y-109122142D02*
X184019047Y-109217380D01*
X184019047Y-109217380D02*
X183971428Y-109265000D01*
X183971428Y-109265000D02*
X183876190Y-109312619D01*
X183876190Y-109312619D02*
X183638095Y-109312619D01*
X183638095Y-109312619D02*
X183542857Y-109265000D01*
X183542857Y-109265000D02*
X183495238Y-109217380D01*
X171428571Y-104731666D02*
X172190476Y-104731666D01*
X171809523Y-105112619D02*
X171809523Y-104350714D01*
X172571428Y-104112619D02*
X173190475Y-104112619D01*
X173190475Y-104112619D02*
X172857142Y-104493571D01*
X172857142Y-104493571D02*
X172999999Y-104493571D01*
X172999999Y-104493571D02*
X173095237Y-104541190D01*
X173095237Y-104541190D02*
X173142856Y-104588809D01*
X173142856Y-104588809D02*
X173190475Y-104684047D01*
X173190475Y-104684047D02*
X173190475Y-104922142D01*
X173190475Y-104922142D02*
X173142856Y-105017380D01*
X173142856Y-105017380D02*
X173095237Y-105065000D01*
X173095237Y-105065000D02*
X172999999Y-105112619D01*
X172999999Y-105112619D02*
X172714285Y-105112619D01*
X172714285Y-105112619D02*
X172619047Y-105065000D01*
X172619047Y-105065000D02*
X172571428Y-105017380D01*
X174047618Y-104112619D02*
X173857142Y-104112619D01*
X173857142Y-104112619D02*
X173761904Y-104160238D01*
X173761904Y-104160238D02*
X173714285Y-104207857D01*
X173714285Y-104207857D02*
X173619047Y-104350714D01*
X173619047Y-104350714D02*
X173571428Y-104541190D01*
X173571428Y-104541190D02*
X173571428Y-104922142D01*
X173571428Y-104922142D02*
X173619047Y-105017380D01*
X173619047Y-105017380D02*
X173666666Y-105065000D01*
X173666666Y-105065000D02*
X173761904Y-105112619D01*
X173761904Y-105112619D02*
X173952380Y-105112619D01*
X173952380Y-105112619D02*
X174047618Y-105065000D01*
X174047618Y-105065000D02*
X174095237Y-105017380D01*
X174095237Y-105017380D02*
X174142856Y-104922142D01*
X174142856Y-104922142D02*
X174142856Y-104684047D01*
X174142856Y-104684047D02*
X174095237Y-104588809D01*
X174095237Y-104588809D02*
X174047618Y-104541190D01*
X174047618Y-104541190D02*
X173952380Y-104493571D01*
X173952380Y-104493571D02*
X173761904Y-104493571D01*
X173761904Y-104493571D02*
X173666666Y-104541190D01*
X173666666Y-104541190D02*
X173619047Y-104588809D01*
X173619047Y-104588809D02*
X173571428Y-104684047D01*
X174571428Y-105112619D02*
X174571428Y-104112619D01*
X174571428Y-104112619D02*
X174809523Y-104112619D01*
X174809523Y-104112619D02*
X174952380Y-104160238D01*
X174952380Y-104160238D02*
X175047618Y-104255476D01*
X175047618Y-104255476D02*
X175095237Y-104350714D01*
X175095237Y-104350714D02*
X175142856Y-104541190D01*
X175142856Y-104541190D02*
X175142856Y-104684047D01*
X175142856Y-104684047D02*
X175095237Y-104874523D01*
X175095237Y-104874523D02*
X175047618Y-104969761D01*
X175047618Y-104969761D02*
X174952380Y-105065000D01*
X174952380Y-105065000D02*
X174809523Y-105112619D01*
X174809523Y-105112619D02*
X174571428Y-105112619D01*
X176142856Y-105017380D02*
X176095237Y-105065000D01*
X176095237Y-105065000D02*
X175952380Y-105112619D01*
X175952380Y-105112619D02*
X175857142Y-105112619D01*
X175857142Y-105112619D02*
X175714285Y-105065000D01*
X175714285Y-105065000D02*
X175619047Y-104969761D01*
X175619047Y-104969761D02*
X175571428Y-104874523D01*
X175571428Y-104874523D02*
X175523809Y-104684047D01*
X175523809Y-104684047D02*
X175523809Y-104541190D01*
X175523809Y-104541190D02*
X175571428Y-104350714D01*
X175571428Y-104350714D02*
X175619047Y-104255476D01*
X175619047Y-104255476D02*
X175714285Y-104160238D01*
X175714285Y-104160238D02*
X175857142Y-104112619D01*
X175857142Y-104112619D02*
X175952380Y-104112619D01*
X175952380Y-104112619D02*
X176095237Y-104160238D01*
X176095237Y-104160238D02*
X176142856Y-104207857D01*
X177904761Y-105017380D02*
X177857142Y-105065000D01*
X177857142Y-105065000D02*
X177714285Y-105112619D01*
X177714285Y-105112619D02*
X177619047Y-105112619D01*
X177619047Y-105112619D02*
X177476190Y-105065000D01*
X177476190Y-105065000D02*
X177380952Y-104969761D01*
X177380952Y-104969761D02*
X177333333Y-104874523D01*
X177333333Y-104874523D02*
X177285714Y-104684047D01*
X177285714Y-104684047D02*
X177285714Y-104541190D01*
X177285714Y-104541190D02*
X177333333Y-104350714D01*
X177333333Y-104350714D02*
X177380952Y-104255476D01*
X177380952Y-104255476D02*
X177476190Y-104160238D01*
X177476190Y-104160238D02*
X177619047Y-104112619D01*
X177619047Y-104112619D02*
X177714285Y-104112619D01*
X177714285Y-104112619D02*
X177857142Y-104160238D01*
X177857142Y-104160238D02*
X177904761Y-104207857D01*
X178476190Y-105112619D02*
X178380952Y-105065000D01*
X178380952Y-105065000D02*
X178333333Y-105017380D01*
X178333333Y-105017380D02*
X178285714Y-104922142D01*
X178285714Y-104922142D02*
X178285714Y-104636428D01*
X178285714Y-104636428D02*
X178333333Y-104541190D01*
X178333333Y-104541190D02*
X178380952Y-104493571D01*
X178380952Y-104493571D02*
X178476190Y-104445952D01*
X178476190Y-104445952D02*
X178619047Y-104445952D01*
X178619047Y-104445952D02*
X178714285Y-104493571D01*
X178714285Y-104493571D02*
X178761904Y-104541190D01*
X178761904Y-104541190D02*
X178809523Y-104636428D01*
X178809523Y-104636428D02*
X178809523Y-104922142D01*
X178809523Y-104922142D02*
X178761904Y-105017380D01*
X178761904Y-105017380D02*
X178714285Y-105065000D01*
X178714285Y-105065000D02*
X178619047Y-105112619D01*
X178619047Y-105112619D02*
X178476190Y-105112619D01*
X179238095Y-104445952D02*
X179238095Y-105112619D01*
X179238095Y-104541190D02*
X179285714Y-104493571D01*
X179285714Y-104493571D02*
X179380952Y-104445952D01*
X179380952Y-104445952D02*
X179523809Y-104445952D01*
X179523809Y-104445952D02*
X179619047Y-104493571D01*
X179619047Y-104493571D02*
X179666666Y-104588809D01*
X179666666Y-104588809D02*
X179666666Y-105112619D01*
X180142857Y-104445952D02*
X180142857Y-105112619D01*
X180142857Y-104541190D02*
X180190476Y-104493571D01*
X180190476Y-104493571D02*
X180285714Y-104445952D01*
X180285714Y-104445952D02*
X180428571Y-104445952D01*
X180428571Y-104445952D02*
X180523809Y-104493571D01*
X180523809Y-104493571D02*
X180571428Y-104588809D01*
X180571428Y-104588809D02*
X180571428Y-105112619D01*
%TO.C,R12*%
X154457142Y-75612619D02*
X154123809Y-75136428D01*
X153885714Y-75612619D02*
X153885714Y-74612619D01*
X153885714Y-74612619D02*
X154266666Y-74612619D01*
X154266666Y-74612619D02*
X154361904Y-74660238D01*
X154361904Y-74660238D02*
X154409523Y-74707857D01*
X154409523Y-74707857D02*
X154457142Y-74803095D01*
X154457142Y-74803095D02*
X154457142Y-74945952D01*
X154457142Y-74945952D02*
X154409523Y-75041190D01*
X154409523Y-75041190D02*
X154361904Y-75088809D01*
X154361904Y-75088809D02*
X154266666Y-75136428D01*
X154266666Y-75136428D02*
X153885714Y-75136428D01*
X155409523Y-75612619D02*
X154838095Y-75612619D01*
X155123809Y-75612619D02*
X155123809Y-74612619D01*
X155123809Y-74612619D02*
X155028571Y-74755476D01*
X155028571Y-74755476D02*
X154933333Y-74850714D01*
X154933333Y-74850714D02*
X154838095Y-74898333D01*
X155790476Y-74707857D02*
X155838095Y-74660238D01*
X155838095Y-74660238D02*
X155933333Y-74612619D01*
X155933333Y-74612619D02*
X156171428Y-74612619D01*
X156171428Y-74612619D02*
X156266666Y-74660238D01*
X156266666Y-74660238D02*
X156314285Y-74707857D01*
X156314285Y-74707857D02*
X156361904Y-74803095D01*
X156361904Y-74803095D02*
X156361904Y-74898333D01*
X156361904Y-74898333D02*
X156314285Y-75041190D01*
X156314285Y-75041190D02*
X155742857Y-75612619D01*
X155742857Y-75612619D02*
X156361904Y-75612619D01*
X151204761Y-75562619D02*
X150633333Y-75562619D01*
X150919047Y-75562619D02*
X150919047Y-74562619D01*
X150919047Y-74562619D02*
X150823809Y-74705476D01*
X150823809Y-74705476D02*
X150728571Y-74800714D01*
X150728571Y-74800714D02*
X150633333Y-74848333D01*
X151823809Y-74562619D02*
X151919047Y-74562619D01*
X151919047Y-74562619D02*
X152014285Y-74610238D01*
X152014285Y-74610238D02*
X152061904Y-74657857D01*
X152061904Y-74657857D02*
X152109523Y-74753095D01*
X152109523Y-74753095D02*
X152157142Y-74943571D01*
X152157142Y-74943571D02*
X152157142Y-75181666D01*
X152157142Y-75181666D02*
X152109523Y-75372142D01*
X152109523Y-75372142D02*
X152061904Y-75467380D01*
X152061904Y-75467380D02*
X152014285Y-75515000D01*
X152014285Y-75515000D02*
X151919047Y-75562619D01*
X151919047Y-75562619D02*
X151823809Y-75562619D01*
X151823809Y-75562619D02*
X151728571Y-75515000D01*
X151728571Y-75515000D02*
X151680952Y-75467380D01*
X151680952Y-75467380D02*
X151633333Y-75372142D01*
X151633333Y-75372142D02*
X151585714Y-75181666D01*
X151585714Y-75181666D02*
X151585714Y-74943571D01*
X151585714Y-74943571D02*
X151633333Y-74753095D01*
X151633333Y-74753095D02*
X151680952Y-74657857D01*
X151680952Y-74657857D02*
X151728571Y-74610238D01*
X151728571Y-74610238D02*
X151823809Y-74562619D01*
X152585714Y-75562619D02*
X152585714Y-74562619D01*
X152680952Y-75181666D02*
X152966666Y-75562619D01*
X152966666Y-74895952D02*
X152585714Y-75276904D01*
%TO.C,C12*%
X181067142Y-60037380D02*
X181019523Y-60085000D01*
X181019523Y-60085000D02*
X180876666Y-60132619D01*
X180876666Y-60132619D02*
X180781428Y-60132619D01*
X180781428Y-60132619D02*
X180638571Y-60085000D01*
X180638571Y-60085000D02*
X180543333Y-59989761D01*
X180543333Y-59989761D02*
X180495714Y-59894523D01*
X180495714Y-59894523D02*
X180448095Y-59704047D01*
X180448095Y-59704047D02*
X180448095Y-59561190D01*
X180448095Y-59561190D02*
X180495714Y-59370714D01*
X180495714Y-59370714D02*
X180543333Y-59275476D01*
X180543333Y-59275476D02*
X180638571Y-59180238D01*
X180638571Y-59180238D02*
X180781428Y-59132619D01*
X180781428Y-59132619D02*
X180876666Y-59132619D01*
X180876666Y-59132619D02*
X181019523Y-59180238D01*
X181019523Y-59180238D02*
X181067142Y-59227857D01*
X182019523Y-60132619D02*
X181448095Y-60132619D01*
X181733809Y-60132619D02*
X181733809Y-59132619D01*
X181733809Y-59132619D02*
X181638571Y-59275476D01*
X181638571Y-59275476D02*
X181543333Y-59370714D01*
X181543333Y-59370714D02*
X181448095Y-59418333D01*
X182400476Y-59227857D02*
X182448095Y-59180238D01*
X182448095Y-59180238D02*
X182543333Y-59132619D01*
X182543333Y-59132619D02*
X182781428Y-59132619D01*
X182781428Y-59132619D02*
X182876666Y-59180238D01*
X182876666Y-59180238D02*
X182924285Y-59227857D01*
X182924285Y-59227857D02*
X182971904Y-59323095D01*
X182971904Y-59323095D02*
X182971904Y-59418333D01*
X182971904Y-59418333D02*
X182924285Y-59561190D01*
X182924285Y-59561190D02*
X182352857Y-60132619D01*
X182352857Y-60132619D02*
X182971904Y-60132619D01*
X180828571Y-58412619D02*
X180257143Y-58412619D01*
X180542857Y-58412619D02*
X180542857Y-57412619D01*
X180542857Y-57412619D02*
X180447619Y-57555476D01*
X180447619Y-57555476D02*
X180352381Y-57650714D01*
X180352381Y-57650714D02*
X180257143Y-57698333D01*
X181447619Y-57412619D02*
X181542857Y-57412619D01*
X181542857Y-57412619D02*
X181638095Y-57460238D01*
X181638095Y-57460238D02*
X181685714Y-57507857D01*
X181685714Y-57507857D02*
X181733333Y-57603095D01*
X181733333Y-57603095D02*
X181780952Y-57793571D01*
X181780952Y-57793571D02*
X181780952Y-58031666D01*
X181780952Y-58031666D02*
X181733333Y-58222142D01*
X181733333Y-58222142D02*
X181685714Y-58317380D01*
X181685714Y-58317380D02*
X181638095Y-58365000D01*
X181638095Y-58365000D02*
X181542857Y-58412619D01*
X181542857Y-58412619D02*
X181447619Y-58412619D01*
X181447619Y-58412619D02*
X181352381Y-58365000D01*
X181352381Y-58365000D02*
X181304762Y-58317380D01*
X181304762Y-58317380D02*
X181257143Y-58222142D01*
X181257143Y-58222142D02*
X181209524Y-58031666D01*
X181209524Y-58031666D02*
X181209524Y-57793571D01*
X181209524Y-57793571D02*
X181257143Y-57603095D01*
X181257143Y-57603095D02*
X181304762Y-57507857D01*
X181304762Y-57507857D02*
X181352381Y-57460238D01*
X181352381Y-57460238D02*
X181447619Y-57412619D01*
X182638095Y-57745952D02*
X182638095Y-58412619D01*
X182209524Y-57745952D02*
X182209524Y-58269761D01*
X182209524Y-58269761D02*
X182257143Y-58365000D01*
X182257143Y-58365000D02*
X182352381Y-58412619D01*
X182352381Y-58412619D02*
X182495238Y-58412619D01*
X182495238Y-58412619D02*
X182590476Y-58365000D01*
X182590476Y-58365000D02*
X182638095Y-58317380D01*
X183447619Y-57888809D02*
X183114286Y-57888809D01*
X183114286Y-58412619D02*
X183114286Y-57412619D01*
X183114286Y-57412619D02*
X183590476Y-57412619D01*
D11*
%TO.C,R9*%
X188390000Y-71250000D02*
X188390000Y-70480000D01*
X187020000Y-70480000D02*
X189760000Y-70480000D01*
X189760000Y-70480000D02*
X189760000Y-63940000D01*
X187020000Y-63940000D02*
X187020000Y-70480000D01*
X189760000Y-63940000D02*
X187020000Y-63940000D01*
X188390000Y-63170000D02*
X188390000Y-63940000D01*
%TO.C,R10*%
X148920000Y-78370000D02*
X149690000Y-78370000D01*
X149690000Y-77000000D02*
X149690000Y-79740000D01*
X149690000Y-79740000D02*
X156230000Y-79740000D01*
X156230000Y-77000000D02*
X149690000Y-77000000D01*
X156230000Y-79740000D02*
X156230000Y-77000000D01*
X157000000Y-78370000D02*
X156230000Y-78370000D01*
%TO.C,C10*%
X178175000Y-74047323D02*
X178175000Y-73047323D01*
X177675000Y-73547323D02*
X178675000Y-73547323D01*
X175970000Y-68567677D02*
X186130000Y-68567677D01*
X175970000Y-68527677D02*
X186130000Y-68527677D01*
X175970000Y-68487677D02*
X186130000Y-68487677D01*
X175971000Y-68447677D02*
X186129000Y-68447677D01*
X175972000Y-68407677D02*
X186128000Y-68407677D01*
X175973000Y-68367677D02*
X186127000Y-68367677D01*
X175975000Y-68327677D02*
X186125000Y-68327677D01*
X175977000Y-68287677D02*
X186123000Y-68287677D01*
X175980000Y-68247677D02*
X186120000Y-68247677D01*
X175982000Y-68207677D02*
X186118000Y-68207677D01*
X175985000Y-68167677D02*
X186115000Y-68167677D01*
X175988000Y-68127677D02*
X186112000Y-68127677D01*
X175992000Y-68087677D02*
X186108000Y-68087677D01*
X175996000Y-68047677D02*
X186104000Y-68047677D01*
X176000000Y-68007677D02*
X186100000Y-68007677D01*
X176005000Y-67967677D02*
X186095000Y-67967677D01*
X176010000Y-67927677D02*
X186090000Y-67927677D01*
X176015000Y-67887677D02*
X186085000Y-67887677D01*
X176020000Y-67846677D02*
X186080000Y-67846677D01*
X176026000Y-67806677D02*
X186074000Y-67806677D01*
X176032000Y-67766677D02*
X186068000Y-67766677D01*
X176039000Y-67726677D02*
X186061000Y-67726677D01*
X176046000Y-67686677D02*
X186054000Y-67686677D01*
X176053000Y-67646677D02*
X186047000Y-67646677D01*
X176060000Y-67606677D02*
X186040000Y-67606677D01*
X176068000Y-67566677D02*
X186032000Y-67566677D01*
X176076000Y-67526677D02*
X186024000Y-67526677D01*
X176085000Y-67486677D02*
X186015000Y-67486677D01*
X176094000Y-67446677D02*
X186006000Y-67446677D01*
X176103000Y-67406677D02*
X185997000Y-67406677D01*
X176112000Y-67366677D02*
X185988000Y-67366677D01*
X176122000Y-67326677D02*
X185978000Y-67326677D01*
X176132000Y-67286677D02*
X179809000Y-67286677D01*
X182291000Y-67286677D02*
X185968000Y-67286677D01*
X176143000Y-67246677D02*
X179809000Y-67246677D01*
X182291000Y-67246677D02*
X185957000Y-67246677D01*
X176153000Y-67206677D02*
X179809000Y-67206677D01*
X182291000Y-67206677D02*
X185947000Y-67206677D01*
X176165000Y-67166677D02*
X179809000Y-67166677D01*
X182291000Y-67166677D02*
X185935000Y-67166677D01*
X176176000Y-67126677D02*
X179809000Y-67126677D01*
X182291000Y-67126677D02*
X185924000Y-67126677D01*
X176188000Y-67086677D02*
X179809000Y-67086677D01*
X182291000Y-67086677D02*
X185912000Y-67086677D01*
X176200000Y-67046677D02*
X179809000Y-67046677D01*
X182291000Y-67046677D02*
X185900000Y-67046677D01*
X176213000Y-67006677D02*
X179809000Y-67006677D01*
X182291000Y-67006677D02*
X185887000Y-67006677D01*
X176226000Y-66966677D02*
X179809000Y-66966677D01*
X182291000Y-66966677D02*
X185874000Y-66966677D01*
X176239000Y-66926677D02*
X179809000Y-66926677D01*
X182291000Y-66926677D02*
X185861000Y-66926677D01*
X176253000Y-66886677D02*
X179809000Y-66886677D01*
X182291000Y-66886677D02*
X185847000Y-66886677D01*
X176267000Y-66846677D02*
X179809000Y-66846677D01*
X182291000Y-66846677D02*
X185833000Y-66846677D01*
X176282000Y-66806677D02*
X179809000Y-66806677D01*
X182291000Y-66806677D02*
X185818000Y-66806677D01*
X176296000Y-66766677D02*
X179809000Y-66766677D01*
X182291000Y-66766677D02*
X185804000Y-66766677D01*
X176312000Y-66726677D02*
X179809000Y-66726677D01*
X182291000Y-66726677D02*
X185788000Y-66726677D01*
X176327000Y-66686677D02*
X179809000Y-66686677D01*
X182291000Y-66686677D02*
X185773000Y-66686677D01*
X176343000Y-66646677D02*
X179809000Y-66646677D01*
X182291000Y-66646677D02*
X185757000Y-66646677D01*
X176360000Y-66606677D02*
X179809000Y-66606677D01*
X182291000Y-66606677D02*
X185740000Y-66606677D01*
X176376000Y-66566677D02*
X179809000Y-66566677D01*
X182291000Y-66566677D02*
X185724000Y-66566677D01*
X176393000Y-66526677D02*
X179809000Y-66526677D01*
X182291000Y-66526677D02*
X185707000Y-66526677D01*
X176411000Y-66486677D02*
X179809000Y-66486677D01*
X182291000Y-66486677D02*
X185689000Y-66486677D01*
X176429000Y-66446677D02*
X179809000Y-66446677D01*
X182291000Y-66446677D02*
X185671000Y-66446677D01*
X176447000Y-66406677D02*
X179809000Y-66406677D01*
X182291000Y-66406677D02*
X185653000Y-66406677D01*
X176466000Y-66366677D02*
X179809000Y-66366677D01*
X182291000Y-66366677D02*
X185634000Y-66366677D01*
X176486000Y-66326677D02*
X179809000Y-66326677D01*
X182291000Y-66326677D02*
X185614000Y-66326677D01*
X176505000Y-66286677D02*
X179809000Y-66286677D01*
X182291000Y-66286677D02*
X185595000Y-66286677D01*
X176525000Y-66246677D02*
X179809000Y-66246677D01*
X182291000Y-66246677D02*
X185575000Y-66246677D01*
X176546000Y-66206677D02*
X179809000Y-66206677D01*
X182291000Y-66206677D02*
X185554000Y-66206677D01*
X176567000Y-66166677D02*
X179809000Y-66166677D01*
X182291000Y-66166677D02*
X185533000Y-66166677D01*
X176588000Y-66126677D02*
X179809000Y-66126677D01*
X182291000Y-66126677D02*
X185512000Y-66126677D01*
X176610000Y-66086677D02*
X179809000Y-66086677D01*
X182291000Y-66086677D02*
X185490000Y-66086677D01*
X176633000Y-66046677D02*
X179809000Y-66046677D01*
X182291000Y-66046677D02*
X185467000Y-66046677D01*
X176655000Y-66006677D02*
X179809000Y-66006677D01*
X182291000Y-66006677D02*
X185445000Y-66006677D01*
X176679000Y-65966677D02*
X179809000Y-65966677D01*
X182291000Y-65966677D02*
X185421000Y-65966677D01*
X176703000Y-65926677D02*
X179809000Y-65926677D01*
X182291000Y-65926677D02*
X185397000Y-65926677D01*
X176727000Y-65886677D02*
X179809000Y-65886677D01*
X182291000Y-65886677D02*
X185373000Y-65886677D01*
X176752000Y-65846677D02*
X179809000Y-65846677D01*
X182291000Y-65846677D02*
X185348000Y-65846677D01*
X176777000Y-65806677D02*
X179809000Y-65806677D01*
X182291000Y-65806677D02*
X185323000Y-65806677D01*
X176803000Y-65766677D02*
X179809000Y-65766677D01*
X182291000Y-65766677D02*
X185297000Y-65766677D01*
X176829000Y-65726677D02*
X179809000Y-65726677D01*
X182291000Y-65726677D02*
X185271000Y-65726677D01*
X176856000Y-65686677D02*
X179809000Y-65686677D01*
X182291000Y-65686677D02*
X185244000Y-65686677D01*
X176884000Y-65646677D02*
X179809000Y-65646677D01*
X182291000Y-65646677D02*
X185216000Y-65646677D01*
X176912000Y-65606677D02*
X179809000Y-65606677D01*
X182291000Y-65606677D02*
X185188000Y-65606677D01*
X176940000Y-65566677D02*
X179809000Y-65566677D01*
X182291000Y-65566677D02*
X185160000Y-65566677D01*
X176970000Y-65526677D02*
X179809000Y-65526677D01*
X182291000Y-65526677D02*
X185130000Y-65526677D01*
X177000000Y-65486677D02*
X179809000Y-65486677D01*
X182291000Y-65486677D02*
X185100000Y-65486677D01*
X177030000Y-65446677D02*
X179809000Y-65446677D01*
X182291000Y-65446677D02*
X185070000Y-65446677D01*
X177061000Y-65406677D02*
X179809000Y-65406677D01*
X182291000Y-65406677D02*
X185039000Y-65406677D01*
X177093000Y-65366677D02*
X179809000Y-65366677D01*
X182291000Y-65366677D02*
X185007000Y-65366677D01*
X177125000Y-65326677D02*
X179809000Y-65326677D01*
X182291000Y-65326677D02*
X184975000Y-65326677D01*
X177158000Y-65286677D02*
X179809000Y-65286677D01*
X182291000Y-65286677D02*
X184942000Y-65286677D01*
X177192000Y-65246677D02*
X179809000Y-65246677D01*
X182291000Y-65246677D02*
X184908000Y-65246677D01*
X177226000Y-65206677D02*
X179809000Y-65206677D01*
X182291000Y-65206677D02*
X184874000Y-65206677D01*
X177261000Y-65166677D02*
X179809000Y-65166677D01*
X182291000Y-65166677D02*
X184839000Y-65166677D01*
X177297000Y-65126677D02*
X179809000Y-65126677D01*
X182291000Y-65126677D02*
X184803000Y-65126677D01*
X177334000Y-65086677D02*
X179809000Y-65086677D01*
X182291000Y-65086677D02*
X184766000Y-65086677D01*
X177371000Y-65046677D02*
X179809000Y-65046677D01*
X182291000Y-65046677D02*
X184729000Y-65046677D01*
X177410000Y-65006677D02*
X179809000Y-65006677D01*
X182291000Y-65006677D02*
X184690000Y-65006677D01*
X177449000Y-64966677D02*
X179809000Y-64966677D01*
X182291000Y-64966677D02*
X184651000Y-64966677D01*
X177489000Y-64926677D02*
X179809000Y-64926677D01*
X182291000Y-64926677D02*
X184611000Y-64926677D01*
X177530000Y-64886677D02*
X179809000Y-64886677D01*
X182291000Y-64886677D02*
X184570000Y-64886677D01*
X177572000Y-64846677D02*
X179809000Y-64846677D01*
X182291000Y-64846677D02*
X184528000Y-64846677D01*
X177614000Y-64806677D02*
X184486000Y-64806677D01*
X177658000Y-64766677D02*
X184442000Y-64766677D01*
X177703000Y-64726677D02*
X184397000Y-64726677D01*
X177749000Y-64686677D02*
X184351000Y-64686677D01*
X177796000Y-64646677D02*
X184304000Y-64646677D01*
X177844000Y-64606677D02*
X184256000Y-64606677D01*
X177894000Y-64566677D02*
X184206000Y-64566677D01*
X177944000Y-64526677D02*
X184156000Y-64526677D01*
X177996000Y-64486677D02*
X184104000Y-64486677D01*
X178050000Y-64446677D02*
X184050000Y-64446677D01*
X178105000Y-64406677D02*
X183995000Y-64406677D01*
X178161000Y-64366677D02*
X183939000Y-64366677D01*
X178220000Y-64326677D02*
X183880000Y-64326677D01*
X178280000Y-64286677D02*
X183820000Y-64286677D01*
X178341000Y-64246677D02*
X183759000Y-64246677D01*
X178405000Y-64206677D02*
X183695000Y-64206677D01*
X178471000Y-64166677D02*
X183629000Y-64166677D01*
X178540000Y-64126677D02*
X183560000Y-64126677D01*
X178611000Y-64086677D02*
X183489000Y-64086677D01*
X178685000Y-64046677D02*
X183415000Y-64046677D01*
X178761000Y-64006677D02*
X183339000Y-64006677D01*
X178841000Y-63966677D02*
X183259000Y-63966677D01*
X178925000Y-63926677D02*
X183175000Y-63926677D01*
X179013000Y-63886677D02*
X183087000Y-63886677D01*
X179106000Y-63846677D02*
X182994000Y-63846677D01*
X179204000Y-63806677D02*
X182896000Y-63806677D01*
X179308000Y-63766677D02*
X182792000Y-63766677D01*
X179420000Y-63726677D02*
X182680000Y-63726677D01*
X179540000Y-63686677D02*
X182560000Y-63686677D01*
X179672000Y-63646677D02*
X182428000Y-63646677D01*
X179820000Y-63606677D02*
X182280000Y-63606677D01*
X179988000Y-63566677D02*
X182112000Y-63566677D01*
X180188000Y-63526677D02*
X181912000Y-63526677D01*
X180451000Y-63486677D02*
X181649000Y-63486677D01*
X186170000Y-68567677D02*
G75*
G03*
X186170000Y-68567677I-5120000J0D01*
G01*
%TO.C,C15*%
X138555000Y-88560509D02*
X138555000Y-90160509D01*
X139355000Y-89360509D02*
X137755000Y-89360509D01*
X142081000Y-97250000D02*
X125919000Y-97250000D01*
X142080000Y-97290000D02*
X125920000Y-97290000D01*
X142080000Y-97330000D02*
X125920000Y-97330000D01*
X142080000Y-97370000D02*
X125920000Y-97370000D01*
X142079000Y-97410000D02*
X125921000Y-97410000D01*
X142078000Y-97450000D02*
X125922000Y-97450000D01*
X142077000Y-97490000D02*
X125923000Y-97490000D01*
X142076000Y-97530000D02*
X125924000Y-97530000D01*
X142074000Y-97570000D02*
X125926000Y-97570000D01*
X142073000Y-97610000D02*
X125927000Y-97610000D01*
X142071000Y-97650000D02*
X125929000Y-97650000D01*
X142069000Y-97690000D02*
X125931000Y-97690000D01*
X142066000Y-97730000D02*
X125934000Y-97730000D01*
X142064000Y-97770000D02*
X125936000Y-97770000D01*
X142061000Y-97810000D02*
X125939000Y-97810000D01*
X142058000Y-97850000D02*
X125942000Y-97850000D01*
X142055000Y-97890000D02*
X125945000Y-97890000D01*
X142052000Y-97930000D02*
X125948000Y-97930000D01*
X142049000Y-97971000D02*
X125951000Y-97971000D01*
X142045000Y-98011000D02*
X125955000Y-98011000D01*
X142041000Y-98051000D02*
X125959000Y-98051000D01*
X142037000Y-98091000D02*
X125963000Y-98091000D01*
X142033000Y-98131000D02*
X125967000Y-98131000D01*
X142028000Y-98171000D02*
X125972000Y-98171000D01*
X142024000Y-98211000D02*
X125976000Y-98211000D01*
X142019000Y-98251000D02*
X125981000Y-98251000D01*
X142014000Y-98291000D02*
X125986000Y-98291000D01*
X142008000Y-98331000D02*
X125992000Y-98331000D01*
X142003000Y-98371000D02*
X125997000Y-98371000D01*
X141997000Y-98411000D02*
X126003000Y-98411000D01*
X141991000Y-98451000D02*
X126009000Y-98451000D01*
X141985000Y-98491000D02*
X126015000Y-98491000D01*
X141979000Y-98531000D02*
X126021000Y-98531000D01*
X141972000Y-98571000D02*
X126028000Y-98571000D01*
X141966000Y-98611000D02*
X126034000Y-98611000D01*
X141959000Y-98651000D02*
X126041000Y-98651000D01*
X141952000Y-98691000D02*
X126048000Y-98691000D01*
X141944000Y-98731000D02*
X126056000Y-98731000D01*
X141937000Y-98771000D02*
X126063000Y-98771000D01*
X141929000Y-98811000D02*
X126071000Y-98811000D01*
X141921000Y-98851000D02*
X126079000Y-98851000D01*
X141913000Y-98891000D02*
X126087000Y-98891000D01*
X141905000Y-98931000D02*
X126095000Y-98931000D01*
X141896000Y-98971000D02*
X126104000Y-98971000D01*
X141887000Y-99011000D02*
X126113000Y-99011000D01*
X141878000Y-99051000D02*
X126122000Y-99051000D01*
X141869000Y-99091000D02*
X126131000Y-99091000D01*
X141860000Y-99131000D02*
X126140000Y-99131000D01*
X141850000Y-99171000D02*
X126150000Y-99171000D01*
X141840000Y-99211000D02*
X126160000Y-99211000D01*
X141830000Y-99251000D02*
X126170000Y-99251000D01*
X141820000Y-99291000D02*
X126180000Y-99291000D01*
X141810000Y-99331000D02*
X126190000Y-99331000D01*
X141799000Y-99371000D02*
X126201000Y-99371000D01*
X141788000Y-99411000D02*
X126212000Y-99411000D01*
X141777000Y-99451000D02*
X126223000Y-99451000D01*
X141765000Y-99491000D02*
X126235000Y-99491000D01*
X141754000Y-99531000D02*
X126246000Y-99531000D01*
X141742000Y-99571000D02*
X135440000Y-99571000D01*
X132560000Y-99571000D02*
X126258000Y-99571000D01*
X141730000Y-99611000D02*
X135440000Y-99611000D01*
X132560000Y-99611000D02*
X126270000Y-99611000D01*
X141718000Y-99651000D02*
X135440000Y-99651000D01*
X132560000Y-99651000D02*
X126282000Y-99651000D01*
X141705000Y-99691000D02*
X135440000Y-99691000D01*
X132560000Y-99691000D02*
X126295000Y-99691000D01*
X141693000Y-99731000D02*
X135440000Y-99731000D01*
X132560000Y-99731000D02*
X126307000Y-99731000D01*
X141680000Y-99771000D02*
X135440000Y-99771000D01*
X132560000Y-99771000D02*
X126320000Y-99771000D01*
X141666000Y-99811000D02*
X135440000Y-99811000D01*
X132560000Y-99811000D02*
X126334000Y-99811000D01*
X141653000Y-99851000D02*
X135440000Y-99851000D01*
X132560000Y-99851000D02*
X126347000Y-99851000D01*
X141639000Y-99891000D02*
X135440000Y-99891000D01*
X132560000Y-99891000D02*
X126361000Y-99891000D01*
X141625000Y-99931000D02*
X135440000Y-99931000D01*
X132560000Y-99931000D02*
X126375000Y-99931000D01*
X141611000Y-99971000D02*
X135440000Y-99971000D01*
X132560000Y-99971000D02*
X126389000Y-99971000D01*
X141597000Y-100011000D02*
X135440000Y-100011000D01*
X132560000Y-100011000D02*
X126403000Y-100011000D01*
X141582000Y-100051000D02*
X135440000Y-100051000D01*
X132560000Y-100051000D02*
X126418000Y-100051000D01*
X141568000Y-100091000D02*
X135440000Y-100091000D01*
X132560000Y-100091000D02*
X126432000Y-100091000D01*
X141553000Y-100131000D02*
X135440000Y-100131000D01*
X132560000Y-100131000D02*
X126447000Y-100131000D01*
X141537000Y-100171000D02*
X135440000Y-100171000D01*
X132560000Y-100171000D02*
X126463000Y-100171000D01*
X141522000Y-100211000D02*
X135440000Y-100211000D01*
X132560000Y-100211000D02*
X126478000Y-100211000D01*
X141506000Y-100251000D02*
X135440000Y-100251000D01*
X132560000Y-100251000D02*
X126494000Y-100251000D01*
X141490000Y-100291000D02*
X135440000Y-100291000D01*
X132560000Y-100291000D02*
X126510000Y-100291000D01*
X141474000Y-100331000D02*
X135440000Y-100331000D01*
X132560000Y-100331000D02*
X126526000Y-100331000D01*
X141457000Y-100371000D02*
X135440000Y-100371000D01*
X132560000Y-100371000D02*
X126543000Y-100371000D01*
X141440000Y-100411000D02*
X135440000Y-100411000D01*
X132560000Y-100411000D02*
X126560000Y-100411000D01*
X141423000Y-100451000D02*
X135440000Y-100451000D01*
X132560000Y-100451000D02*
X126577000Y-100451000D01*
X141406000Y-100491000D02*
X135440000Y-100491000D01*
X132560000Y-100491000D02*
X126594000Y-100491000D01*
X141389000Y-100531000D02*
X135440000Y-100531000D01*
X132560000Y-100531000D02*
X126611000Y-100531000D01*
X141371000Y-100571000D02*
X135440000Y-100571000D01*
X132560000Y-100571000D02*
X126629000Y-100571000D01*
X141353000Y-100611000D02*
X135440000Y-100611000D01*
X132560000Y-100611000D02*
X126647000Y-100611000D01*
X141334000Y-100651000D02*
X135440000Y-100651000D01*
X132560000Y-100651000D02*
X126666000Y-100651000D01*
X141316000Y-100691000D02*
X135440000Y-100691000D01*
X132560000Y-100691000D02*
X126684000Y-100691000D01*
X141297000Y-100731000D02*
X135440000Y-100731000D01*
X132560000Y-100731000D02*
X126703000Y-100731000D01*
X141278000Y-100771000D02*
X135440000Y-100771000D01*
X132560000Y-100771000D02*
X126722000Y-100771000D01*
X141258000Y-100811000D02*
X135440000Y-100811000D01*
X132560000Y-100811000D02*
X126742000Y-100811000D01*
X141239000Y-100851000D02*
X135440000Y-100851000D01*
X132560000Y-100851000D02*
X126761000Y-100851000D01*
X141219000Y-100891000D02*
X135440000Y-100891000D01*
X132560000Y-100891000D02*
X126781000Y-100891000D01*
X141199000Y-100931000D02*
X135440000Y-100931000D01*
X132560000Y-100931000D02*
X126801000Y-100931000D01*
X141178000Y-100971000D02*
X135440000Y-100971000D01*
X132560000Y-100971000D02*
X126822000Y-100971000D01*
X141157000Y-101011000D02*
X135440000Y-101011000D01*
X132560000Y-101011000D02*
X126843000Y-101011000D01*
X141136000Y-101051000D02*
X135440000Y-101051000D01*
X132560000Y-101051000D02*
X126864000Y-101051000D01*
X141115000Y-101091000D02*
X135440000Y-101091000D01*
X132560000Y-101091000D02*
X126885000Y-101091000D01*
X141094000Y-101131000D02*
X135440000Y-101131000D01*
X132560000Y-101131000D02*
X126906000Y-101131000D01*
X141072000Y-101171000D02*
X135440000Y-101171000D01*
X132560000Y-101171000D02*
X126928000Y-101171000D01*
X141049000Y-101211000D02*
X135440000Y-101211000D01*
X132560000Y-101211000D02*
X126951000Y-101211000D01*
X141027000Y-101251000D02*
X135440000Y-101251000D01*
X132560000Y-101251000D02*
X126973000Y-101251000D01*
X141004000Y-101291000D02*
X135440000Y-101291000D01*
X132560000Y-101291000D02*
X126996000Y-101291000D01*
X140981000Y-101331000D02*
X135440000Y-101331000D01*
X132560000Y-101331000D02*
X127019000Y-101331000D01*
X140958000Y-101371000D02*
X135440000Y-101371000D01*
X132560000Y-101371000D02*
X127042000Y-101371000D01*
X140934000Y-101411000D02*
X135440000Y-101411000D01*
X132560000Y-101411000D02*
X127066000Y-101411000D01*
X140910000Y-101451000D02*
X135440000Y-101451000D01*
X132560000Y-101451000D02*
X127090000Y-101451000D01*
X140886000Y-101491000D02*
X135440000Y-101491000D01*
X132560000Y-101491000D02*
X127114000Y-101491000D01*
X140861000Y-101531000D02*
X135440000Y-101531000D01*
X132560000Y-101531000D02*
X127139000Y-101531000D01*
X140836000Y-101571000D02*
X135440000Y-101571000D01*
X132560000Y-101571000D02*
X127164000Y-101571000D01*
X140811000Y-101611000D02*
X135440000Y-101611000D01*
X132560000Y-101611000D02*
X127189000Y-101611000D01*
X140785000Y-101651000D02*
X135440000Y-101651000D01*
X132560000Y-101651000D02*
X127215000Y-101651000D01*
X140759000Y-101691000D02*
X135440000Y-101691000D01*
X132560000Y-101691000D02*
X127241000Y-101691000D01*
X140733000Y-101731000D02*
X135440000Y-101731000D01*
X132560000Y-101731000D02*
X127267000Y-101731000D01*
X140706000Y-101771000D02*
X135440000Y-101771000D01*
X132560000Y-101771000D02*
X127294000Y-101771000D01*
X140679000Y-101811000D02*
X135440000Y-101811000D01*
X132560000Y-101811000D02*
X127321000Y-101811000D01*
X140652000Y-101851000D02*
X135440000Y-101851000D01*
X132560000Y-101851000D02*
X127348000Y-101851000D01*
X140624000Y-101891000D02*
X135440000Y-101891000D01*
X132560000Y-101891000D02*
X127376000Y-101891000D01*
X140596000Y-101931000D02*
X135440000Y-101931000D01*
X132560000Y-101931000D02*
X127404000Y-101931000D01*
X140568000Y-101971000D02*
X135440000Y-101971000D01*
X132560000Y-101971000D02*
X127432000Y-101971000D01*
X140539000Y-102011000D02*
X135440000Y-102011000D01*
X132560000Y-102011000D02*
X127461000Y-102011000D01*
X140510000Y-102051000D02*
X135440000Y-102051000D01*
X132560000Y-102051000D02*
X127490000Y-102051000D01*
X140480000Y-102091000D02*
X135440000Y-102091000D01*
X132560000Y-102091000D02*
X127520000Y-102091000D01*
X140450000Y-102131000D02*
X135440000Y-102131000D01*
X132560000Y-102131000D02*
X127550000Y-102131000D01*
X140420000Y-102171000D02*
X135440000Y-102171000D01*
X132560000Y-102171000D02*
X127580000Y-102171000D01*
X140390000Y-102211000D02*
X135440000Y-102211000D01*
X132560000Y-102211000D02*
X127610000Y-102211000D01*
X140358000Y-102251000D02*
X135440000Y-102251000D01*
X132560000Y-102251000D02*
X127642000Y-102251000D01*
X140327000Y-102291000D02*
X135440000Y-102291000D01*
X132560000Y-102291000D02*
X127673000Y-102291000D01*
X140295000Y-102331000D02*
X135440000Y-102331000D01*
X132560000Y-102331000D02*
X127705000Y-102331000D01*
X140263000Y-102371000D02*
X135440000Y-102371000D01*
X132560000Y-102371000D02*
X127737000Y-102371000D01*
X140230000Y-102411000D02*
X135440000Y-102411000D01*
X132560000Y-102411000D02*
X127770000Y-102411000D01*
X140197000Y-102451000D02*
X127803000Y-102451000D01*
X140163000Y-102491000D02*
X127837000Y-102491000D01*
X140129000Y-102531000D02*
X127871000Y-102531000D01*
X140095000Y-102571000D02*
X127905000Y-102571000D01*
X140060000Y-102611000D02*
X127940000Y-102611000D01*
X140025000Y-102651000D02*
X127975000Y-102651000D01*
X139989000Y-102691000D02*
X128011000Y-102691000D01*
X139952000Y-102731000D02*
X128048000Y-102731000D01*
X139916000Y-102771000D02*
X128084000Y-102771000D01*
X139878000Y-102811000D02*
X128122000Y-102811000D01*
X139840000Y-102851000D02*
X128160000Y-102851000D01*
X139802000Y-102891000D02*
X128198000Y-102891000D01*
X139763000Y-102931000D02*
X128237000Y-102931000D01*
X139724000Y-102971000D02*
X128276000Y-102971000D01*
X139684000Y-103011000D02*
X128316000Y-103011000D01*
X139643000Y-103051000D02*
X128357000Y-103051000D01*
X139602000Y-103091000D02*
X128398000Y-103091000D01*
X139560000Y-103131000D02*
X128440000Y-103131000D01*
X139518000Y-103171000D02*
X128482000Y-103171000D01*
X139475000Y-103211000D02*
X128525000Y-103211000D01*
X139432000Y-103251000D02*
X128568000Y-103251000D01*
X139388000Y-103291000D02*
X128612000Y-103291000D01*
X139343000Y-103331000D02*
X128657000Y-103331000D01*
X139297000Y-103371000D02*
X128703000Y-103371000D01*
X139251000Y-103411000D02*
X128749000Y-103411000D01*
X139204000Y-103451000D02*
X128796000Y-103451000D01*
X139156000Y-103491000D02*
X128844000Y-103491000D01*
X139108000Y-103531000D02*
X128892000Y-103531000D01*
X139059000Y-103571000D02*
X128941000Y-103571000D01*
X139009000Y-103611000D02*
X128991000Y-103611000D01*
X138958000Y-103651000D02*
X129042000Y-103651000D01*
X138906000Y-103691000D02*
X129094000Y-103691000D01*
X138854000Y-103731000D02*
X129146000Y-103731000D01*
X138800000Y-103771000D02*
X129200000Y-103771000D01*
X138746000Y-103811000D02*
X129254000Y-103811000D01*
X138691000Y-103851000D02*
X129309000Y-103851000D01*
X138634000Y-103891000D02*
X129366000Y-103891000D01*
X138577000Y-103931000D02*
X129423000Y-103931000D01*
X138519000Y-103971000D02*
X129481000Y-103971000D01*
X138459000Y-104011000D02*
X129541000Y-104011000D01*
X138398000Y-104051000D02*
X129602000Y-104051000D01*
X138336000Y-104091000D02*
X129664000Y-104091000D01*
X138273000Y-104131000D02*
X129727000Y-104131000D01*
X138209000Y-104171000D02*
X129791000Y-104171000D01*
X138143000Y-104211000D02*
X129857000Y-104211000D01*
X138076000Y-104251000D02*
X129924000Y-104251000D01*
X138007000Y-104291000D02*
X129993000Y-104291000D01*
X137936000Y-104331000D02*
X130064000Y-104331000D01*
X137864000Y-104371000D02*
X130136000Y-104371000D01*
X137790000Y-104411000D02*
X130210000Y-104411000D01*
X137715000Y-104451000D02*
X130285000Y-104451000D01*
X137637000Y-104491000D02*
X130363000Y-104491000D01*
X137557000Y-104531000D02*
X130443000Y-104531000D01*
X137475000Y-104571000D02*
X130525000Y-104571000D01*
X137390000Y-104611000D02*
X130610000Y-104611000D01*
X137303000Y-104651000D02*
X130697000Y-104651000D01*
X137213000Y-104691000D02*
X130787000Y-104691000D01*
X137120000Y-104731000D02*
X130880000Y-104731000D01*
X137024000Y-104771000D02*
X130976000Y-104771000D01*
X136924000Y-104811000D02*
X131076000Y-104811000D01*
X136820000Y-104851000D02*
X131180000Y-104851000D01*
X136711000Y-104891000D02*
X131289000Y-104891000D01*
X136597000Y-104931000D02*
X131403000Y-104931000D01*
X136478000Y-104971000D02*
X131522000Y-104971000D01*
X136351000Y-105011000D02*
X131649000Y-105011000D01*
X136218000Y-105051000D02*
X131782000Y-105051000D01*
X136074000Y-105091000D02*
X131926000Y-105091000D01*
X135920000Y-105131000D02*
X132080000Y-105131000D01*
X135752000Y-105171000D02*
X132248000Y-105171000D01*
X135564000Y-105211000D02*
X132436000Y-105211000D01*
X135351000Y-105251000D02*
X132649000Y-105251000D01*
X135098000Y-105291000D02*
X132902000Y-105291000D01*
X134765000Y-105331000D02*
X133235000Y-105331000D01*
X142120000Y-97250000D02*
G75*
G03*
X142120000Y-97250000I-8120000J0D01*
G01*
%TO.C,J6*%
X182750000Y-51250000D02*
X195350000Y-51250000D01*
X195350000Y-51250000D02*
X195350000Y-40900000D01*
X187550000Y-40900000D02*
X187850000Y-40400000D01*
X192950000Y-40900000D02*
X187550000Y-40900000D01*
X194400000Y-40900000D02*
X194650000Y-40400000D01*
X195350000Y-40900000D02*
X194400000Y-40900000D01*
X182750000Y-40400000D02*
X182750000Y-51250000D01*
X187850000Y-40400000D02*
X182750000Y-40400000D01*
X192700000Y-40400000D02*
X192950000Y-40900000D01*
X192750000Y-40400000D02*
X192700000Y-40400000D01*
X194650000Y-40400000D02*
X192750000Y-40400000D01*
%TO.C,J3*%
X165025000Y-76250000D02*
X165025000Y-58410000D01*
X165025000Y-76250000D02*
X162365000Y-76250000D01*
X165025000Y-58410000D02*
X162365000Y-58410000D01*
X163695000Y-78850000D02*
X162365000Y-78850000D01*
X162365000Y-78850000D02*
X162365000Y-77520000D01*
X162365000Y-76250000D02*
X162365000Y-58410000D01*
%TO.C,J2*%
X167435000Y-62280000D02*
X167435000Y-77580000D01*
X167435000Y-62280000D02*
X170095000Y-62280000D01*
X167435000Y-77580000D02*
X170095000Y-77580000D01*
X168765000Y-59680000D02*
X170095000Y-59680000D01*
X170095000Y-59680000D02*
X170095000Y-61010000D01*
X170095000Y-62280000D02*
X170095000Y-77580000D01*
%TO.C,C11*%
X173140000Y-83660000D02*
X173140000Y-83345000D01*
X173140000Y-83660000D02*
X167900000Y-83660000D01*
X173140000Y-81235000D02*
X173140000Y-80920000D01*
X173140000Y-80920000D02*
X167900000Y-80920000D01*
X167900000Y-83660000D02*
X167900000Y-83345000D01*
X167900000Y-81235000D02*
X167900000Y-80920000D01*
%TO.C,J7*%
X127585000Y-108700000D02*
X127585000Y-121300000D01*
X127585000Y-121300000D02*
X137935000Y-121300000D01*
X137935000Y-113500000D02*
X138435000Y-113800000D01*
X137935000Y-118900000D02*
X137935000Y-113500000D01*
X137935000Y-120350000D02*
X138435000Y-120600000D01*
X137935000Y-121300000D02*
X137935000Y-120350000D01*
X138435000Y-108700000D02*
X127585000Y-108700000D01*
X138435000Y-113800000D02*
X138435000Y-108700000D01*
X138435000Y-118650000D02*
X137935000Y-118900000D01*
X138435000Y-118700000D02*
X138435000Y-118650000D01*
X138435000Y-120600000D02*
X138435000Y-118700000D01*
%TO.C,J8*%
X147350000Y-108700000D02*
X147350000Y-121300000D01*
X147350000Y-121300000D02*
X157700000Y-121300000D01*
X157700000Y-113500000D02*
X158200000Y-113800000D01*
X157700000Y-118900000D02*
X157700000Y-113500000D01*
X157700000Y-120350000D02*
X158200000Y-120600000D01*
X157700000Y-121300000D02*
X157700000Y-120350000D01*
X158200000Y-108700000D02*
X147350000Y-108700000D01*
X158200000Y-113800000D02*
X158200000Y-108700000D01*
X158200000Y-118650000D02*
X157700000Y-118900000D01*
X158200000Y-118700000D02*
X158200000Y-118650000D01*
X158200000Y-120600000D02*
X158200000Y-118700000D01*
%TO.C,C13*%
X151175000Y-70732349D02*
X151175000Y-69932349D01*
X150775000Y-70332349D02*
X151575000Y-70332349D01*
X149410000Y-66322651D02*
X157570000Y-66322651D01*
X149410000Y-66282651D02*
X157570000Y-66282651D01*
X149410000Y-66242651D02*
X157570000Y-66242651D01*
X149411000Y-66202651D02*
X157569000Y-66202651D01*
X149413000Y-66162651D02*
X157567000Y-66162651D01*
X149414000Y-66122651D02*
X157566000Y-66122651D01*
X149416000Y-66082651D02*
X157564000Y-66082651D01*
X149419000Y-66042651D02*
X157561000Y-66042651D01*
X149422000Y-66002651D02*
X157558000Y-66002651D01*
X149425000Y-65962651D02*
X157555000Y-65962651D01*
X149429000Y-65922651D02*
X157551000Y-65922651D01*
X149433000Y-65882651D02*
X157547000Y-65882651D01*
X149438000Y-65842651D02*
X157542000Y-65842651D01*
X149442000Y-65802651D02*
X157538000Y-65802651D01*
X149448000Y-65762651D02*
X157532000Y-65762651D01*
X149453000Y-65722651D02*
X157527000Y-65722651D01*
X149460000Y-65682651D02*
X157520000Y-65682651D01*
X149466000Y-65642651D02*
X157514000Y-65642651D01*
X149473000Y-65601651D02*
X152450000Y-65601651D01*
X154530000Y-65601651D02*
X157507000Y-65601651D01*
X149480000Y-65561651D02*
X152450000Y-65561651D01*
X154530000Y-65561651D02*
X157500000Y-65561651D01*
X149488000Y-65521651D02*
X152450000Y-65521651D01*
X154530000Y-65521651D02*
X157492000Y-65521651D01*
X149496000Y-65481651D02*
X152450000Y-65481651D01*
X154530000Y-65481651D02*
X157484000Y-65481651D01*
X149505000Y-65441651D02*
X152450000Y-65441651D01*
X154530000Y-65441651D02*
X157475000Y-65441651D01*
X149514000Y-65401651D02*
X152450000Y-65401651D01*
X154530000Y-65401651D02*
X157466000Y-65401651D01*
X149523000Y-65361651D02*
X152450000Y-65361651D01*
X154530000Y-65361651D02*
X157457000Y-65361651D01*
X149533000Y-65321651D02*
X152450000Y-65321651D01*
X154530000Y-65321651D02*
X157447000Y-65321651D01*
X149543000Y-65281651D02*
X152450000Y-65281651D01*
X154530000Y-65281651D02*
X157437000Y-65281651D01*
X149554000Y-65241651D02*
X152450000Y-65241651D01*
X154530000Y-65241651D02*
X157426000Y-65241651D01*
X149565000Y-65201651D02*
X152450000Y-65201651D01*
X154530000Y-65201651D02*
X157415000Y-65201651D01*
X149576000Y-65161651D02*
X152450000Y-65161651D01*
X154530000Y-65161651D02*
X157404000Y-65161651D01*
X149588000Y-65121651D02*
X152450000Y-65121651D01*
X154530000Y-65121651D02*
X157392000Y-65121651D01*
X149601000Y-65081651D02*
X152450000Y-65081651D01*
X154530000Y-65081651D02*
X157379000Y-65081651D01*
X149613000Y-65041651D02*
X152450000Y-65041651D01*
X154530000Y-65041651D02*
X157367000Y-65041651D01*
X149627000Y-65001651D02*
X152450000Y-65001651D01*
X154530000Y-65001651D02*
X157353000Y-65001651D01*
X149640000Y-64961651D02*
X152450000Y-64961651D01*
X154530000Y-64961651D02*
X157340000Y-64961651D01*
X149655000Y-64921651D02*
X152450000Y-64921651D01*
X154530000Y-64921651D02*
X157325000Y-64921651D01*
X149669000Y-64881651D02*
X152450000Y-64881651D01*
X154530000Y-64881651D02*
X157311000Y-64881651D01*
X149685000Y-64841651D02*
X152450000Y-64841651D01*
X154530000Y-64841651D02*
X157295000Y-64841651D01*
X149700000Y-64801651D02*
X152450000Y-64801651D01*
X154530000Y-64801651D02*
X157280000Y-64801651D01*
X149716000Y-64761651D02*
X152450000Y-64761651D01*
X154530000Y-64761651D02*
X157264000Y-64761651D01*
X149733000Y-64721651D02*
X152450000Y-64721651D01*
X154530000Y-64721651D02*
X157247000Y-64721651D01*
X149750000Y-64681651D02*
X152450000Y-64681651D01*
X154530000Y-64681651D02*
X157230000Y-64681651D01*
X149768000Y-64641651D02*
X152450000Y-64641651D01*
X154530000Y-64641651D02*
X157212000Y-64641651D01*
X149786000Y-64601651D02*
X152450000Y-64601651D01*
X154530000Y-64601651D02*
X157194000Y-64601651D01*
X149804000Y-64561651D02*
X152450000Y-64561651D01*
X154530000Y-64561651D02*
X157176000Y-64561651D01*
X149824000Y-64521651D02*
X152450000Y-64521651D01*
X154530000Y-64521651D02*
X157156000Y-64521651D01*
X149843000Y-64481651D02*
X152450000Y-64481651D01*
X154530000Y-64481651D02*
X157137000Y-64481651D01*
X149863000Y-64441651D02*
X152450000Y-64441651D01*
X154530000Y-64441651D02*
X157117000Y-64441651D01*
X149884000Y-64401651D02*
X152450000Y-64401651D01*
X154530000Y-64401651D02*
X157096000Y-64401651D01*
X149906000Y-64361651D02*
X152450000Y-64361651D01*
X154530000Y-64361651D02*
X157074000Y-64361651D01*
X149928000Y-64321651D02*
X152450000Y-64321651D01*
X154530000Y-64321651D02*
X157052000Y-64321651D01*
X149950000Y-64281651D02*
X152450000Y-64281651D01*
X154530000Y-64281651D02*
X157030000Y-64281651D01*
X149973000Y-64241651D02*
X152450000Y-64241651D01*
X154530000Y-64241651D02*
X157007000Y-64241651D01*
X149997000Y-64201651D02*
X152450000Y-64201651D01*
X154530000Y-64201651D02*
X156983000Y-64201651D01*
X150021000Y-64161651D02*
X152450000Y-64161651D01*
X154530000Y-64161651D02*
X156959000Y-64161651D01*
X150046000Y-64121651D02*
X152450000Y-64121651D01*
X154530000Y-64121651D02*
X156934000Y-64121651D01*
X150072000Y-64081651D02*
X152450000Y-64081651D01*
X154530000Y-64081651D02*
X156908000Y-64081651D01*
X150098000Y-64041651D02*
X152450000Y-64041651D01*
X154530000Y-64041651D02*
X156882000Y-64041651D01*
X150125000Y-64001651D02*
X152450000Y-64001651D01*
X154530000Y-64001651D02*
X156855000Y-64001651D01*
X150152000Y-63961651D02*
X152450000Y-63961651D01*
X154530000Y-63961651D02*
X156828000Y-63961651D01*
X150181000Y-63921651D02*
X152450000Y-63921651D01*
X154530000Y-63921651D02*
X156799000Y-63921651D01*
X150210000Y-63881651D02*
X152450000Y-63881651D01*
X154530000Y-63881651D02*
X156770000Y-63881651D01*
X150240000Y-63841651D02*
X152450000Y-63841651D01*
X154530000Y-63841651D02*
X156740000Y-63841651D01*
X150270000Y-63801651D02*
X152450000Y-63801651D01*
X154530000Y-63801651D02*
X156710000Y-63801651D01*
X150301000Y-63761651D02*
X152450000Y-63761651D01*
X154530000Y-63761651D02*
X156679000Y-63761651D01*
X150334000Y-63721651D02*
X152450000Y-63721651D01*
X154530000Y-63721651D02*
X156646000Y-63721651D01*
X150366000Y-63681651D02*
X152450000Y-63681651D01*
X154530000Y-63681651D02*
X156614000Y-63681651D01*
X150400000Y-63641651D02*
X152450000Y-63641651D01*
X154530000Y-63641651D02*
X156580000Y-63641651D01*
X150435000Y-63601651D02*
X152450000Y-63601651D01*
X154530000Y-63601651D02*
X156545000Y-63601651D01*
X150471000Y-63561651D02*
X152450000Y-63561651D01*
X154530000Y-63561651D02*
X156509000Y-63561651D01*
X150507000Y-63521651D02*
X156473000Y-63521651D01*
X150545000Y-63481651D02*
X156435000Y-63481651D01*
X150583000Y-63441651D02*
X156397000Y-63441651D01*
X150623000Y-63401651D02*
X156357000Y-63401651D01*
X150664000Y-63361651D02*
X156316000Y-63361651D01*
X150706000Y-63321651D02*
X156274000Y-63321651D01*
X150749000Y-63281651D02*
X156231000Y-63281651D01*
X150793000Y-63241651D02*
X156187000Y-63241651D01*
X150839000Y-63201651D02*
X156141000Y-63201651D01*
X150886000Y-63161651D02*
X156094000Y-63161651D01*
X150934000Y-63121651D02*
X156046000Y-63121651D01*
X150985000Y-63081651D02*
X155995000Y-63081651D01*
X151036000Y-63041651D02*
X155944000Y-63041651D01*
X151090000Y-63001651D02*
X155890000Y-63001651D01*
X151145000Y-62961651D02*
X155835000Y-62961651D01*
X151203000Y-62921651D02*
X155777000Y-62921651D01*
X151262000Y-62881651D02*
X155718000Y-62881651D01*
X151324000Y-62841651D02*
X155656000Y-62841651D01*
X151388000Y-62801651D02*
X155592000Y-62801651D01*
X151456000Y-62761651D02*
X155524000Y-62761651D01*
X151526000Y-62721651D02*
X155454000Y-62721651D01*
X151600000Y-62681651D02*
X155380000Y-62681651D01*
X151677000Y-62641651D02*
X155303000Y-62641651D01*
X151759000Y-62601651D02*
X155221000Y-62601651D01*
X151845000Y-62561651D02*
X155135000Y-62561651D01*
X151938000Y-62521651D02*
X155042000Y-62521651D01*
X152037000Y-62481651D02*
X154943000Y-62481651D01*
X152144000Y-62441651D02*
X154836000Y-62441651D01*
X152261000Y-62401651D02*
X154719000Y-62401651D01*
X152392000Y-62361651D02*
X154588000Y-62361651D01*
X152542000Y-62321651D02*
X154438000Y-62321651D01*
X152722000Y-62281651D02*
X154258000Y-62281651D01*
X152957000Y-62241651D02*
X154023000Y-62241651D01*
X157610000Y-66322651D02*
G75*
G03*
X157610000Y-66322651I-4120000J0D01*
G01*
%TO.C,C8*%
X186549646Y-84055000D02*
X185549646Y-84055000D01*
X186049646Y-84555000D02*
X186049646Y-83555000D01*
X181070000Y-86260000D02*
X181070000Y-76100000D01*
X181030000Y-86260000D02*
X181030000Y-76100000D01*
X180990000Y-86260000D02*
X180990000Y-76100000D01*
X180950000Y-86259000D02*
X180950000Y-76101000D01*
X180910000Y-86258000D02*
X180910000Y-76102000D01*
X180870000Y-86257000D02*
X180870000Y-76103000D01*
X180830000Y-86255000D02*
X180830000Y-76105000D01*
X180790000Y-86253000D02*
X180790000Y-76107000D01*
X180750000Y-86250000D02*
X180750000Y-76110000D01*
X180710000Y-86248000D02*
X180710000Y-76112000D01*
X180670000Y-86245000D02*
X180670000Y-76115000D01*
X180630000Y-86242000D02*
X180630000Y-76118000D01*
X180590000Y-86238000D02*
X180590000Y-76122000D01*
X180550000Y-86234000D02*
X180550000Y-76126000D01*
X180510000Y-86230000D02*
X180510000Y-76130000D01*
X180470000Y-86225000D02*
X180470000Y-76135000D01*
X180430000Y-86220000D02*
X180430000Y-76140000D01*
X180390000Y-86215000D02*
X180390000Y-76145000D01*
X180349000Y-86210000D02*
X180349000Y-76150000D01*
X180309000Y-86204000D02*
X180309000Y-76156000D01*
X180269000Y-86198000D02*
X180269000Y-76162000D01*
X180229000Y-86191000D02*
X180229000Y-76169000D01*
X180189000Y-86184000D02*
X180189000Y-76176000D01*
X180149000Y-86177000D02*
X180149000Y-76183000D01*
X180109000Y-86170000D02*
X180109000Y-76190000D01*
X180069000Y-86162000D02*
X180069000Y-76198000D01*
X180029000Y-86154000D02*
X180029000Y-76206000D01*
X179989000Y-86145000D02*
X179989000Y-76215000D01*
X179949000Y-86136000D02*
X179949000Y-76224000D01*
X179909000Y-86127000D02*
X179909000Y-76233000D01*
X179869000Y-86118000D02*
X179869000Y-76242000D01*
X179829000Y-86108000D02*
X179829000Y-76252000D01*
X179789000Y-86098000D02*
X179789000Y-82421000D01*
X179789000Y-79939000D02*
X179789000Y-76262000D01*
X179749000Y-86087000D02*
X179749000Y-82421000D01*
X179749000Y-79939000D02*
X179749000Y-76273000D01*
X179709000Y-86077000D02*
X179709000Y-82421000D01*
X179709000Y-79939000D02*
X179709000Y-76283000D01*
X179669000Y-86065000D02*
X179669000Y-82421000D01*
X179669000Y-79939000D02*
X179669000Y-76295000D01*
X179629000Y-86054000D02*
X179629000Y-82421000D01*
X179629000Y-79939000D02*
X179629000Y-76306000D01*
X179589000Y-86042000D02*
X179589000Y-82421000D01*
X179589000Y-79939000D02*
X179589000Y-76318000D01*
X179549000Y-86030000D02*
X179549000Y-82421000D01*
X179549000Y-79939000D02*
X179549000Y-76330000D01*
X179509000Y-86017000D02*
X179509000Y-82421000D01*
X179509000Y-79939000D02*
X179509000Y-76343000D01*
X179469000Y-86004000D02*
X179469000Y-82421000D01*
X179469000Y-79939000D02*
X179469000Y-76356000D01*
X179429000Y-85991000D02*
X179429000Y-82421000D01*
X179429000Y-79939000D02*
X179429000Y-76369000D01*
X179389000Y-85977000D02*
X179389000Y-82421000D01*
X179389000Y-79939000D02*
X179389000Y-76383000D01*
X179349000Y-85963000D02*
X179349000Y-82421000D01*
X179349000Y-79939000D02*
X179349000Y-76397000D01*
X179309000Y-85948000D02*
X179309000Y-82421000D01*
X179309000Y-79939000D02*
X179309000Y-76412000D01*
X179269000Y-85934000D02*
X179269000Y-82421000D01*
X179269000Y-79939000D02*
X179269000Y-76426000D01*
X179229000Y-85918000D02*
X179229000Y-82421000D01*
X179229000Y-79939000D02*
X179229000Y-76442000D01*
X179189000Y-85903000D02*
X179189000Y-82421000D01*
X179189000Y-79939000D02*
X179189000Y-76457000D01*
X179149000Y-85887000D02*
X179149000Y-82421000D01*
X179149000Y-79939000D02*
X179149000Y-76473000D01*
X179109000Y-85870000D02*
X179109000Y-82421000D01*
X179109000Y-79939000D02*
X179109000Y-76490000D01*
X179069000Y-85854000D02*
X179069000Y-82421000D01*
X179069000Y-79939000D02*
X179069000Y-76506000D01*
X179029000Y-85837000D02*
X179029000Y-82421000D01*
X179029000Y-79939000D02*
X179029000Y-76523000D01*
X178989000Y-85819000D02*
X178989000Y-82421000D01*
X178989000Y-79939000D02*
X178989000Y-76541000D01*
X178949000Y-85801000D02*
X178949000Y-82421000D01*
X178949000Y-79939000D02*
X178949000Y-76559000D01*
X178909000Y-85783000D02*
X178909000Y-82421000D01*
X178909000Y-79939000D02*
X178909000Y-76577000D01*
X178869000Y-85764000D02*
X178869000Y-82421000D01*
X178869000Y-79939000D02*
X178869000Y-76596000D01*
X178829000Y-85744000D02*
X178829000Y-82421000D01*
X178829000Y-79939000D02*
X178829000Y-76616000D01*
X178789000Y-85725000D02*
X178789000Y-82421000D01*
X178789000Y-79939000D02*
X178789000Y-76635000D01*
X178749000Y-85705000D02*
X178749000Y-82421000D01*
X178749000Y-79939000D02*
X178749000Y-76655000D01*
X178709000Y-85684000D02*
X178709000Y-82421000D01*
X178709000Y-79939000D02*
X178709000Y-76676000D01*
X178669000Y-85663000D02*
X178669000Y-82421000D01*
X178669000Y-79939000D02*
X178669000Y-76697000D01*
X178629000Y-85642000D02*
X178629000Y-82421000D01*
X178629000Y-79939000D02*
X178629000Y-76718000D01*
X178589000Y-85620000D02*
X178589000Y-82421000D01*
X178589000Y-79939000D02*
X178589000Y-76740000D01*
X178549000Y-85597000D02*
X178549000Y-82421000D01*
X178549000Y-79939000D02*
X178549000Y-76763000D01*
X178509000Y-85575000D02*
X178509000Y-82421000D01*
X178509000Y-79939000D02*
X178509000Y-76785000D01*
X178469000Y-85551000D02*
X178469000Y-82421000D01*
X178469000Y-79939000D02*
X178469000Y-76809000D01*
X178429000Y-85527000D02*
X178429000Y-82421000D01*
X178429000Y-79939000D02*
X178429000Y-76833000D01*
X178389000Y-85503000D02*
X178389000Y-82421000D01*
X178389000Y-79939000D02*
X178389000Y-76857000D01*
X178349000Y-85478000D02*
X178349000Y-82421000D01*
X178349000Y-79939000D02*
X178349000Y-76882000D01*
X178309000Y-85453000D02*
X178309000Y-82421000D01*
X178309000Y-79939000D02*
X178309000Y-76907000D01*
X178269000Y-85427000D02*
X178269000Y-82421000D01*
X178269000Y-79939000D02*
X178269000Y-76933000D01*
X178229000Y-85401000D02*
X178229000Y-82421000D01*
X178229000Y-79939000D02*
X178229000Y-76959000D01*
X178189000Y-85374000D02*
X178189000Y-82421000D01*
X178189000Y-79939000D02*
X178189000Y-76986000D01*
X178149000Y-85346000D02*
X178149000Y-82421000D01*
X178149000Y-79939000D02*
X178149000Y-77014000D01*
X178109000Y-85318000D02*
X178109000Y-82421000D01*
X178109000Y-79939000D02*
X178109000Y-77042000D01*
X178069000Y-85290000D02*
X178069000Y-82421000D01*
X178069000Y-79939000D02*
X178069000Y-77070000D01*
X178029000Y-85260000D02*
X178029000Y-82421000D01*
X178029000Y-79939000D02*
X178029000Y-77100000D01*
X177989000Y-85230000D02*
X177989000Y-82421000D01*
X177989000Y-79939000D02*
X177989000Y-77130000D01*
X177949000Y-85200000D02*
X177949000Y-82421000D01*
X177949000Y-79939000D02*
X177949000Y-77160000D01*
X177909000Y-85169000D02*
X177909000Y-82421000D01*
X177909000Y-79939000D02*
X177909000Y-77191000D01*
X177869000Y-85137000D02*
X177869000Y-82421000D01*
X177869000Y-79939000D02*
X177869000Y-77223000D01*
X177829000Y-85105000D02*
X177829000Y-82421000D01*
X177829000Y-79939000D02*
X177829000Y-77255000D01*
X177789000Y-85072000D02*
X177789000Y-82421000D01*
X177789000Y-79939000D02*
X177789000Y-77288000D01*
X177749000Y-85038000D02*
X177749000Y-82421000D01*
X177749000Y-79939000D02*
X177749000Y-77322000D01*
X177709000Y-85004000D02*
X177709000Y-82421000D01*
X177709000Y-79939000D02*
X177709000Y-77356000D01*
X177669000Y-84969000D02*
X177669000Y-82421000D01*
X177669000Y-79939000D02*
X177669000Y-77391000D01*
X177629000Y-84933000D02*
X177629000Y-82421000D01*
X177629000Y-79939000D02*
X177629000Y-77427000D01*
X177589000Y-84896000D02*
X177589000Y-82421000D01*
X177589000Y-79939000D02*
X177589000Y-77464000D01*
X177549000Y-84859000D02*
X177549000Y-82421000D01*
X177549000Y-79939000D02*
X177549000Y-77501000D01*
X177509000Y-84820000D02*
X177509000Y-82421000D01*
X177509000Y-79939000D02*
X177509000Y-77540000D01*
X177469000Y-84781000D02*
X177469000Y-82421000D01*
X177469000Y-79939000D02*
X177469000Y-77579000D01*
X177429000Y-84741000D02*
X177429000Y-82421000D01*
X177429000Y-79939000D02*
X177429000Y-77619000D01*
X177389000Y-84700000D02*
X177389000Y-82421000D01*
X177389000Y-79939000D02*
X177389000Y-77660000D01*
X177349000Y-84658000D02*
X177349000Y-82421000D01*
X177349000Y-79939000D02*
X177349000Y-77702000D01*
X177309000Y-84616000D02*
X177309000Y-77744000D01*
X177269000Y-84572000D02*
X177269000Y-77788000D01*
X177229000Y-84527000D02*
X177229000Y-77833000D01*
X177189000Y-84481000D02*
X177189000Y-77879000D01*
X177149000Y-84434000D02*
X177149000Y-77926000D01*
X177109000Y-84386000D02*
X177109000Y-77974000D01*
X177069000Y-84336000D02*
X177069000Y-78024000D01*
X177029000Y-84286000D02*
X177029000Y-78074000D01*
X176989000Y-84234000D02*
X176989000Y-78126000D01*
X176949000Y-84180000D02*
X176949000Y-78180000D01*
X176909000Y-84125000D02*
X176909000Y-78235000D01*
X176869000Y-84069000D02*
X176869000Y-78291000D01*
X176829000Y-84010000D02*
X176829000Y-78350000D01*
X176789000Y-83950000D02*
X176789000Y-78410000D01*
X176749000Y-83889000D02*
X176749000Y-78471000D01*
X176709000Y-83825000D02*
X176709000Y-78535000D01*
X176669000Y-83759000D02*
X176669000Y-78601000D01*
X176629000Y-83690000D02*
X176629000Y-78670000D01*
X176589000Y-83619000D02*
X176589000Y-78741000D01*
X176549000Y-83545000D02*
X176549000Y-78815000D01*
X176509000Y-83469000D02*
X176509000Y-78891000D01*
X176469000Y-83389000D02*
X176469000Y-78971000D01*
X176429000Y-83305000D02*
X176429000Y-79055000D01*
X176389000Y-83217000D02*
X176389000Y-79143000D01*
X176349000Y-83124000D02*
X176349000Y-79236000D01*
X176309000Y-83026000D02*
X176309000Y-79334000D01*
X176269000Y-82922000D02*
X176269000Y-79438000D01*
X176229000Y-82810000D02*
X176229000Y-79550000D01*
X176189000Y-82690000D02*
X176189000Y-79670000D01*
X176149000Y-82558000D02*
X176149000Y-79802000D01*
X176109000Y-82410000D02*
X176109000Y-79950000D01*
X176069000Y-82242000D02*
X176069000Y-80118000D01*
X176029000Y-82042000D02*
X176029000Y-80318000D01*
X175989000Y-81779000D02*
X175989000Y-80581000D01*
X186190000Y-81180000D02*
G75*
G03*
X186190000Y-81180000I-5120000J0D01*
G01*
%TO.C,J1*%
X183300000Y-103000000D02*
X183300000Y-91000000D01*
X194300000Y-103000000D02*
X183300000Y-103000000D01*
X194300000Y-101500000D02*
X194300000Y-103000000D01*
X195500000Y-101500000D02*
X194300000Y-101500000D01*
X195500000Y-100000000D02*
X195500000Y-101500000D01*
X197300000Y-100000000D02*
X195500000Y-100000000D01*
X194300000Y-99000000D02*
X197300000Y-99000000D01*
X194300000Y-95000000D02*
X194300000Y-99000000D01*
X197300000Y-95000000D02*
X194300000Y-95000000D01*
X195500000Y-94000000D02*
X197300000Y-94000000D01*
X197300000Y-94000000D02*
X197300000Y-100000000D01*
X194300000Y-92500000D02*
X195500000Y-92500000D01*
X195500000Y-92500000D02*
X195500000Y-94000000D01*
X183300000Y-91000000D02*
X194300000Y-91000000D01*
X194300000Y-91000000D02*
X194300000Y-92500000D01*
D12*
%TO.C,J4*%
X111000000Y-104750000D02*
X124500000Y-104750000D01*
X111000000Y-113750000D02*
X111000000Y-104750000D01*
X119450000Y-113750000D02*
X111000000Y-113750000D01*
X124500000Y-104750000D02*
X124500000Y-106900000D01*
X124500000Y-111600000D02*
X124500000Y-113750000D01*
X124500000Y-113750000D02*
X124150000Y-113750000D01*
D13*
X126400000Y-109250000D02*
G75*
G03*
X126400000Y-109250000I-100000J0D01*
G01*
D11*
%TO.C,C16*%
X147370000Y-98380000D02*
X147055000Y-98380000D01*
X147370000Y-98380000D02*
X147370000Y-103620000D01*
X144945000Y-98380000D02*
X144630000Y-98380000D01*
X144630000Y-98380000D02*
X144630000Y-103620000D01*
X147370000Y-103620000D02*
X147055000Y-103620000D01*
X144945000Y-103620000D02*
X144630000Y-103620000D01*
%TO.C,C14*%
X153445000Y-106439491D02*
X153445000Y-104839491D01*
X152645000Y-105639491D02*
X154245000Y-105639491D01*
X149919000Y-97750000D02*
X166081000Y-97750000D01*
X149920000Y-97710000D02*
X166080000Y-97710000D01*
X149920000Y-97670000D02*
X166080000Y-97670000D01*
X149920000Y-97630000D02*
X166080000Y-97630000D01*
X149921000Y-97590000D02*
X166079000Y-97590000D01*
X149922000Y-97550000D02*
X166078000Y-97550000D01*
X149923000Y-97510000D02*
X166077000Y-97510000D01*
X149924000Y-97470000D02*
X166076000Y-97470000D01*
X149926000Y-97430000D02*
X166074000Y-97430000D01*
X149927000Y-97390000D02*
X166073000Y-97390000D01*
X149929000Y-97350000D02*
X166071000Y-97350000D01*
X149931000Y-97310000D02*
X166069000Y-97310000D01*
X149934000Y-97270000D02*
X166066000Y-97270000D01*
X149936000Y-97230000D02*
X166064000Y-97230000D01*
X149939000Y-97190000D02*
X166061000Y-97190000D01*
X149942000Y-97150000D02*
X166058000Y-97150000D01*
X149945000Y-97110000D02*
X166055000Y-97110000D01*
X149948000Y-97070000D02*
X166052000Y-97070000D01*
X149951000Y-97029000D02*
X166049000Y-97029000D01*
X149955000Y-96989000D02*
X166045000Y-96989000D01*
X149959000Y-96949000D02*
X166041000Y-96949000D01*
X149963000Y-96909000D02*
X166037000Y-96909000D01*
X149967000Y-96869000D02*
X166033000Y-96869000D01*
X149972000Y-96829000D02*
X166028000Y-96829000D01*
X149976000Y-96789000D02*
X166024000Y-96789000D01*
X149981000Y-96749000D02*
X166019000Y-96749000D01*
X149986000Y-96709000D02*
X166014000Y-96709000D01*
X149992000Y-96669000D02*
X166008000Y-96669000D01*
X149997000Y-96629000D02*
X166003000Y-96629000D01*
X150003000Y-96589000D02*
X165997000Y-96589000D01*
X150009000Y-96549000D02*
X165991000Y-96549000D01*
X150015000Y-96509000D02*
X165985000Y-96509000D01*
X150021000Y-96469000D02*
X165979000Y-96469000D01*
X150028000Y-96429000D02*
X165972000Y-96429000D01*
X150034000Y-96389000D02*
X165966000Y-96389000D01*
X150041000Y-96349000D02*
X165959000Y-96349000D01*
X150048000Y-96309000D02*
X165952000Y-96309000D01*
X150056000Y-96269000D02*
X165944000Y-96269000D01*
X150063000Y-96229000D02*
X165937000Y-96229000D01*
X150071000Y-96189000D02*
X165929000Y-96189000D01*
X150079000Y-96149000D02*
X165921000Y-96149000D01*
X150087000Y-96109000D02*
X165913000Y-96109000D01*
X150095000Y-96069000D02*
X165905000Y-96069000D01*
X150104000Y-96029000D02*
X165896000Y-96029000D01*
X150113000Y-95989000D02*
X165887000Y-95989000D01*
X150122000Y-95949000D02*
X165878000Y-95949000D01*
X150131000Y-95909000D02*
X165869000Y-95909000D01*
X150140000Y-95869000D02*
X165860000Y-95869000D01*
X150150000Y-95829000D02*
X165850000Y-95829000D01*
X150160000Y-95789000D02*
X165840000Y-95789000D01*
X150170000Y-95749000D02*
X165830000Y-95749000D01*
X150180000Y-95709000D02*
X165820000Y-95709000D01*
X150190000Y-95669000D02*
X165810000Y-95669000D01*
X150201000Y-95629000D02*
X165799000Y-95629000D01*
X150212000Y-95589000D02*
X165788000Y-95589000D01*
X150223000Y-95549000D02*
X165777000Y-95549000D01*
X150235000Y-95509000D02*
X165765000Y-95509000D01*
X150246000Y-95469000D02*
X165754000Y-95469000D01*
X150258000Y-95429000D02*
X156560000Y-95429000D01*
X159440000Y-95429000D02*
X165742000Y-95429000D01*
X150270000Y-95389000D02*
X156560000Y-95389000D01*
X159440000Y-95389000D02*
X165730000Y-95389000D01*
X150282000Y-95349000D02*
X156560000Y-95349000D01*
X159440000Y-95349000D02*
X165718000Y-95349000D01*
X150295000Y-95309000D02*
X156560000Y-95309000D01*
X159440000Y-95309000D02*
X165705000Y-95309000D01*
X150307000Y-95269000D02*
X156560000Y-95269000D01*
X159440000Y-95269000D02*
X165693000Y-95269000D01*
X150320000Y-95229000D02*
X156560000Y-95229000D01*
X159440000Y-95229000D02*
X165680000Y-95229000D01*
X150334000Y-95189000D02*
X156560000Y-95189000D01*
X159440000Y-95189000D02*
X165666000Y-95189000D01*
X150347000Y-95149000D02*
X156560000Y-95149000D01*
X159440000Y-95149000D02*
X165653000Y-95149000D01*
X150361000Y-95109000D02*
X156560000Y-95109000D01*
X159440000Y-95109000D02*
X165639000Y-95109000D01*
X150375000Y-95069000D02*
X156560000Y-95069000D01*
X159440000Y-95069000D02*
X165625000Y-95069000D01*
X150389000Y-95029000D02*
X156560000Y-95029000D01*
X159440000Y-95029000D02*
X165611000Y-95029000D01*
X150403000Y-94989000D02*
X156560000Y-94989000D01*
X159440000Y-94989000D02*
X165597000Y-94989000D01*
X150418000Y-94949000D02*
X156560000Y-94949000D01*
X159440000Y-94949000D02*
X165582000Y-94949000D01*
X150432000Y-94909000D02*
X156560000Y-94909000D01*
X159440000Y-94909000D02*
X165568000Y-94909000D01*
X150447000Y-94869000D02*
X156560000Y-94869000D01*
X159440000Y-94869000D02*
X165553000Y-94869000D01*
X150463000Y-94829000D02*
X156560000Y-94829000D01*
X159440000Y-94829000D02*
X165537000Y-94829000D01*
X150478000Y-94789000D02*
X156560000Y-94789000D01*
X159440000Y-94789000D02*
X165522000Y-94789000D01*
X150494000Y-94749000D02*
X156560000Y-94749000D01*
X159440000Y-94749000D02*
X165506000Y-94749000D01*
X150510000Y-94709000D02*
X156560000Y-94709000D01*
X159440000Y-94709000D02*
X165490000Y-94709000D01*
X150526000Y-94669000D02*
X156560000Y-94669000D01*
X159440000Y-94669000D02*
X165474000Y-94669000D01*
X150543000Y-94629000D02*
X156560000Y-94629000D01*
X159440000Y-94629000D02*
X165457000Y-94629000D01*
X150560000Y-94589000D02*
X156560000Y-94589000D01*
X159440000Y-94589000D02*
X165440000Y-94589000D01*
X150577000Y-94549000D02*
X156560000Y-94549000D01*
X159440000Y-94549000D02*
X165423000Y-94549000D01*
X150594000Y-94509000D02*
X156560000Y-94509000D01*
X159440000Y-94509000D02*
X165406000Y-94509000D01*
X150611000Y-94469000D02*
X156560000Y-94469000D01*
X159440000Y-94469000D02*
X165389000Y-94469000D01*
X150629000Y-94429000D02*
X156560000Y-94429000D01*
X159440000Y-94429000D02*
X165371000Y-94429000D01*
X150647000Y-94389000D02*
X156560000Y-94389000D01*
X159440000Y-94389000D02*
X165353000Y-94389000D01*
X150666000Y-94349000D02*
X156560000Y-94349000D01*
X159440000Y-94349000D02*
X165334000Y-94349000D01*
X150684000Y-94309000D02*
X156560000Y-94309000D01*
X159440000Y-94309000D02*
X165316000Y-94309000D01*
X150703000Y-94269000D02*
X156560000Y-94269000D01*
X159440000Y-94269000D02*
X165297000Y-94269000D01*
X150722000Y-94229000D02*
X156560000Y-94229000D01*
X159440000Y-94229000D02*
X165278000Y-94229000D01*
X150742000Y-94189000D02*
X156560000Y-94189000D01*
X159440000Y-94189000D02*
X165258000Y-94189000D01*
X150761000Y-94149000D02*
X156560000Y-94149000D01*
X159440000Y-94149000D02*
X165239000Y-94149000D01*
X150781000Y-94109000D02*
X156560000Y-94109000D01*
X159440000Y-94109000D02*
X165219000Y-94109000D01*
X150801000Y-94069000D02*
X156560000Y-94069000D01*
X159440000Y-94069000D02*
X165199000Y-94069000D01*
X150822000Y-94029000D02*
X156560000Y-94029000D01*
X159440000Y-94029000D02*
X165178000Y-94029000D01*
X150843000Y-93989000D02*
X156560000Y-93989000D01*
X159440000Y-93989000D02*
X165157000Y-93989000D01*
X150864000Y-93949000D02*
X156560000Y-93949000D01*
X159440000Y-93949000D02*
X165136000Y-93949000D01*
X150885000Y-93909000D02*
X156560000Y-93909000D01*
X159440000Y-93909000D02*
X165115000Y-93909000D01*
X150906000Y-93869000D02*
X156560000Y-93869000D01*
X159440000Y-93869000D02*
X165094000Y-93869000D01*
X150928000Y-93829000D02*
X156560000Y-93829000D01*
X159440000Y-93829000D02*
X165072000Y-93829000D01*
X150951000Y-93789000D02*
X156560000Y-93789000D01*
X159440000Y-93789000D02*
X165049000Y-93789000D01*
X150973000Y-93749000D02*
X156560000Y-93749000D01*
X159440000Y-93749000D02*
X165027000Y-93749000D01*
X150996000Y-93709000D02*
X156560000Y-93709000D01*
X159440000Y-93709000D02*
X165004000Y-93709000D01*
X151019000Y-93669000D02*
X156560000Y-93669000D01*
X159440000Y-93669000D02*
X164981000Y-93669000D01*
X151042000Y-93629000D02*
X156560000Y-93629000D01*
X159440000Y-93629000D02*
X164958000Y-93629000D01*
X151066000Y-93589000D02*
X156560000Y-93589000D01*
X159440000Y-93589000D02*
X164934000Y-93589000D01*
X151090000Y-93549000D02*
X156560000Y-93549000D01*
X159440000Y-93549000D02*
X164910000Y-93549000D01*
X151114000Y-93509000D02*
X156560000Y-93509000D01*
X159440000Y-93509000D02*
X164886000Y-93509000D01*
X151139000Y-93469000D02*
X156560000Y-93469000D01*
X159440000Y-93469000D02*
X164861000Y-93469000D01*
X151164000Y-93429000D02*
X156560000Y-93429000D01*
X159440000Y-93429000D02*
X164836000Y-93429000D01*
X151189000Y-93389000D02*
X156560000Y-93389000D01*
X159440000Y-93389000D02*
X164811000Y-93389000D01*
X151215000Y-93349000D02*
X156560000Y-93349000D01*
X159440000Y-93349000D02*
X164785000Y-93349000D01*
X151241000Y-93309000D02*
X156560000Y-93309000D01*
X159440000Y-93309000D02*
X164759000Y-93309000D01*
X151267000Y-93269000D02*
X156560000Y-93269000D01*
X159440000Y-93269000D02*
X164733000Y-93269000D01*
X151294000Y-93229000D02*
X156560000Y-93229000D01*
X159440000Y-93229000D02*
X164706000Y-93229000D01*
X151321000Y-93189000D02*
X156560000Y-93189000D01*
X159440000Y-93189000D02*
X164679000Y-93189000D01*
X151348000Y-93149000D02*
X156560000Y-93149000D01*
X159440000Y-93149000D02*
X164652000Y-93149000D01*
X151376000Y-93109000D02*
X156560000Y-93109000D01*
X159440000Y-93109000D02*
X164624000Y-93109000D01*
X151404000Y-93069000D02*
X156560000Y-93069000D01*
X159440000Y-93069000D02*
X164596000Y-93069000D01*
X151432000Y-93029000D02*
X156560000Y-93029000D01*
X159440000Y-93029000D02*
X164568000Y-93029000D01*
X151461000Y-92989000D02*
X156560000Y-92989000D01*
X159440000Y-92989000D02*
X164539000Y-92989000D01*
X151490000Y-92949000D02*
X156560000Y-92949000D01*
X159440000Y-92949000D02*
X164510000Y-92949000D01*
X151520000Y-92909000D02*
X156560000Y-92909000D01*
X159440000Y-92909000D02*
X164480000Y-92909000D01*
X151550000Y-92869000D02*
X156560000Y-92869000D01*
X159440000Y-92869000D02*
X164450000Y-92869000D01*
X151580000Y-92829000D02*
X156560000Y-92829000D01*
X159440000Y-92829000D02*
X164420000Y-92829000D01*
X151610000Y-92789000D02*
X156560000Y-92789000D01*
X159440000Y-92789000D02*
X164390000Y-92789000D01*
X151642000Y-92749000D02*
X156560000Y-92749000D01*
X159440000Y-92749000D02*
X164358000Y-92749000D01*
X151673000Y-92709000D02*
X156560000Y-92709000D01*
X159440000Y-92709000D02*
X164327000Y-92709000D01*
X151705000Y-92669000D02*
X156560000Y-92669000D01*
X159440000Y-92669000D02*
X164295000Y-92669000D01*
X151737000Y-92629000D02*
X156560000Y-92629000D01*
X159440000Y-92629000D02*
X164263000Y-92629000D01*
X151770000Y-92589000D02*
X156560000Y-92589000D01*
X159440000Y-92589000D02*
X164230000Y-92589000D01*
X151803000Y-92549000D02*
X164197000Y-92549000D01*
X151837000Y-92509000D02*
X164163000Y-92509000D01*
X151871000Y-92469000D02*
X164129000Y-92469000D01*
X151905000Y-92429000D02*
X164095000Y-92429000D01*
X151940000Y-92389000D02*
X164060000Y-92389000D01*
X151975000Y-92349000D02*
X164025000Y-92349000D01*
X152011000Y-92309000D02*
X163989000Y-92309000D01*
X152048000Y-92269000D02*
X163952000Y-92269000D01*
X152084000Y-92229000D02*
X163916000Y-92229000D01*
X152122000Y-92189000D02*
X163878000Y-92189000D01*
X152160000Y-92149000D02*
X163840000Y-92149000D01*
X152198000Y-92109000D02*
X163802000Y-92109000D01*
X152237000Y-92069000D02*
X163763000Y-92069000D01*
X152276000Y-92029000D02*
X163724000Y-92029000D01*
X152316000Y-91989000D02*
X163684000Y-91989000D01*
X152357000Y-91949000D02*
X163643000Y-91949000D01*
X152398000Y-91909000D02*
X163602000Y-91909000D01*
X152440000Y-91869000D02*
X163560000Y-91869000D01*
X152482000Y-91829000D02*
X163518000Y-91829000D01*
X152525000Y-91789000D02*
X163475000Y-91789000D01*
X152568000Y-91749000D02*
X163432000Y-91749000D01*
X152612000Y-91709000D02*
X163388000Y-91709000D01*
X152657000Y-91669000D02*
X163343000Y-91669000D01*
X152703000Y-91629000D02*
X163297000Y-91629000D01*
X152749000Y-91589000D02*
X163251000Y-91589000D01*
X152796000Y-91549000D02*
X163204000Y-91549000D01*
X152844000Y-91509000D02*
X163156000Y-91509000D01*
X152892000Y-91469000D02*
X163108000Y-91469000D01*
X152941000Y-91429000D02*
X163059000Y-91429000D01*
X152991000Y-91389000D02*
X163009000Y-91389000D01*
X153042000Y-91349000D02*
X162958000Y-91349000D01*
X153094000Y-91309000D02*
X162906000Y-91309000D01*
X153146000Y-91269000D02*
X162854000Y-91269000D01*
X153200000Y-91229000D02*
X162800000Y-91229000D01*
X153254000Y-91189000D02*
X162746000Y-91189000D01*
X153309000Y-91149000D02*
X162691000Y-91149000D01*
X153366000Y-91109000D02*
X162634000Y-91109000D01*
X153423000Y-91069000D02*
X162577000Y-91069000D01*
X153481000Y-91029000D02*
X162519000Y-91029000D01*
X153541000Y-90989000D02*
X162459000Y-90989000D01*
X153602000Y-90949000D02*
X162398000Y-90949000D01*
X153664000Y-90909000D02*
X162336000Y-90909000D01*
X153727000Y-90869000D02*
X162273000Y-90869000D01*
X153791000Y-90829000D02*
X162209000Y-90829000D01*
X153857000Y-90789000D02*
X162143000Y-90789000D01*
X153924000Y-90749000D02*
X162076000Y-90749000D01*
X153993000Y-90709000D02*
X162007000Y-90709000D01*
X154064000Y-90669000D02*
X161936000Y-90669000D01*
X154136000Y-90629000D02*
X161864000Y-90629000D01*
X154210000Y-90589000D02*
X161790000Y-90589000D01*
X154285000Y-90549000D02*
X161715000Y-90549000D01*
X154363000Y-90509000D02*
X161637000Y-90509000D01*
X154443000Y-90469000D02*
X161557000Y-90469000D01*
X154525000Y-90429000D02*
X161475000Y-90429000D01*
X154610000Y-90389000D02*
X161390000Y-90389000D01*
X154697000Y-90349000D02*
X161303000Y-90349000D01*
X154787000Y-90309000D02*
X161213000Y-90309000D01*
X154880000Y-90269000D02*
X161120000Y-90269000D01*
X154976000Y-90229000D02*
X161024000Y-90229000D01*
X155076000Y-90189000D02*
X160924000Y-90189000D01*
X155180000Y-90149000D02*
X160820000Y-90149000D01*
X155289000Y-90109000D02*
X160711000Y-90109000D01*
X155403000Y-90069000D02*
X160597000Y-90069000D01*
X155522000Y-90029000D02*
X160478000Y-90029000D01*
X155649000Y-89989000D02*
X160351000Y-89989000D01*
X155782000Y-89949000D02*
X160218000Y-89949000D01*
X155926000Y-89909000D02*
X160074000Y-89909000D01*
X156080000Y-89869000D02*
X159920000Y-89869000D01*
X156248000Y-89829000D02*
X159752000Y-89829000D01*
X156436000Y-89789000D02*
X159564000Y-89789000D01*
X156649000Y-89749000D02*
X159351000Y-89749000D01*
X156902000Y-89709000D02*
X159098000Y-89709000D01*
X157235000Y-89669000D02*
X158765000Y-89669000D01*
X166120000Y-97750000D02*
G75*
G03*
X166120000Y-97750000I-8120000J0D01*
G01*
%TO.C,R11*%
X172140000Y-53780000D02*
X172910000Y-53780000D01*
X172910000Y-52410000D02*
X172910000Y-55150000D01*
X172910000Y-55150000D02*
X179450000Y-55150000D01*
X179450000Y-52410000D02*
X172910000Y-52410000D01*
X179450000Y-55150000D02*
X179450000Y-52410000D01*
X180220000Y-53780000D02*
X179450000Y-53780000D01*
%TO.C,R8*%
X187860000Y-84550000D02*
X187860000Y-83780000D01*
X186490000Y-83780000D02*
X189230000Y-83780000D01*
X189230000Y-83780000D02*
X189230000Y-77240000D01*
X186490000Y-77240000D02*
X186490000Y-83780000D01*
X189230000Y-77240000D02*
X186490000Y-77240000D01*
X187860000Y-76470000D02*
X187860000Y-77240000D01*
%TO.C,C17*%
X120630000Y-100620000D02*
X120945000Y-100620000D01*
X120630000Y-100620000D02*
X120630000Y-95380000D01*
X123055000Y-100620000D02*
X123370000Y-100620000D01*
X123370000Y-100620000D02*
X123370000Y-95380000D01*
X120630000Y-95380000D02*
X120945000Y-95380000D01*
X123055000Y-95380000D02*
X123370000Y-95380000D01*
D12*
%TO.C,J5*%
X171500000Y-121600000D02*
X171500000Y-108100000D01*
X180500000Y-121600000D02*
X171500000Y-121600000D01*
X180500000Y-113150000D02*
X180500000Y-121600000D01*
X171500000Y-108100000D02*
X173650000Y-108100000D01*
X178350000Y-108100000D02*
X180500000Y-108100000D01*
X180500000Y-108100000D02*
X180500000Y-108450000D01*
D13*
X176100000Y-106300000D02*
G75*
G03*
X176100000Y-106300000I-100000J0D01*
G01*
D11*
%TO.C,R12*%
X159380000Y-72350000D02*
X158610000Y-72350000D01*
X158610000Y-73720000D02*
X158610000Y-70980000D01*
X158610000Y-70980000D02*
X152070000Y-70980000D01*
X152070000Y-73720000D02*
X158610000Y-73720000D01*
X152070000Y-70980000D02*
X152070000Y-73720000D01*
X151300000Y-72350000D02*
X152070000Y-72350000D01*
%TO.C,C12*%
X171540302Y-58185000D02*
X172340302Y-58185000D01*
X171940302Y-57785000D02*
X171940302Y-58585000D01*
X175950000Y-56420000D02*
X175950000Y-64580000D01*
X175990000Y-56420000D02*
X175990000Y-64580000D01*
X176030000Y-56420000D02*
X176030000Y-64580000D01*
X176070000Y-56421000D02*
X176070000Y-64579000D01*
X176110000Y-56423000D02*
X176110000Y-64577000D01*
X176150000Y-56424000D02*
X176150000Y-64576000D01*
X176190000Y-56426000D02*
X176190000Y-64574000D01*
X176230000Y-56429000D02*
X176230000Y-64571000D01*
X176270000Y-56432000D02*
X176270000Y-64568000D01*
X176310000Y-56435000D02*
X176310000Y-64565000D01*
X176350000Y-56439000D02*
X176350000Y-64561000D01*
X176390000Y-56443000D02*
X176390000Y-64557000D01*
X176430000Y-56448000D02*
X176430000Y-64552000D01*
X176470000Y-56452000D02*
X176470000Y-64548000D01*
X176510000Y-56458000D02*
X176510000Y-64542000D01*
X176550000Y-56463000D02*
X176550000Y-64537000D01*
X176590000Y-56470000D02*
X176590000Y-64530000D01*
X176630000Y-56476000D02*
X176630000Y-64524000D01*
X176671000Y-56483000D02*
X176671000Y-59460000D01*
X176671000Y-61540000D02*
X176671000Y-64517000D01*
X176711000Y-56490000D02*
X176711000Y-59460000D01*
X176711000Y-61540000D02*
X176711000Y-64510000D01*
X176751000Y-56498000D02*
X176751000Y-59460000D01*
X176751000Y-61540000D02*
X176751000Y-64502000D01*
X176791000Y-56506000D02*
X176791000Y-59460000D01*
X176791000Y-61540000D02*
X176791000Y-64494000D01*
X176831000Y-56515000D02*
X176831000Y-59460000D01*
X176831000Y-61540000D02*
X176831000Y-64485000D01*
X176871000Y-56524000D02*
X176871000Y-59460000D01*
X176871000Y-61540000D02*
X176871000Y-64476000D01*
X176911000Y-56533000D02*
X176911000Y-59460000D01*
X176911000Y-61540000D02*
X176911000Y-64467000D01*
X176951000Y-56543000D02*
X176951000Y-59460000D01*
X176951000Y-61540000D02*
X176951000Y-64457000D01*
X176991000Y-56553000D02*
X176991000Y-59460000D01*
X176991000Y-61540000D02*
X176991000Y-64447000D01*
X177031000Y-56564000D02*
X177031000Y-59460000D01*
X177031000Y-61540000D02*
X177031000Y-64436000D01*
X177071000Y-56575000D02*
X177071000Y-59460000D01*
X177071000Y-61540000D02*
X177071000Y-64425000D01*
X177111000Y-56586000D02*
X177111000Y-59460000D01*
X177111000Y-61540000D02*
X177111000Y-64414000D01*
X177151000Y-56598000D02*
X177151000Y-59460000D01*
X177151000Y-61540000D02*
X177151000Y-64402000D01*
X177191000Y-56611000D02*
X177191000Y-59460000D01*
X177191000Y-61540000D02*
X177191000Y-64389000D01*
X177231000Y-56623000D02*
X177231000Y-59460000D01*
X177231000Y-61540000D02*
X177231000Y-64377000D01*
X177271000Y-56637000D02*
X177271000Y-59460000D01*
X177271000Y-61540000D02*
X177271000Y-64363000D01*
X177311000Y-56650000D02*
X177311000Y-59460000D01*
X177311000Y-61540000D02*
X177311000Y-64350000D01*
X177351000Y-56665000D02*
X177351000Y-59460000D01*
X177351000Y-61540000D02*
X177351000Y-64335000D01*
X177391000Y-56679000D02*
X177391000Y-59460000D01*
X177391000Y-61540000D02*
X177391000Y-64321000D01*
X177431000Y-56695000D02*
X177431000Y-59460000D01*
X177431000Y-61540000D02*
X177431000Y-64305000D01*
X177471000Y-56710000D02*
X177471000Y-59460000D01*
X177471000Y-61540000D02*
X177471000Y-64290000D01*
X177511000Y-56726000D02*
X177511000Y-59460000D01*
X177511000Y-61540000D02*
X177511000Y-64274000D01*
X177551000Y-56743000D02*
X177551000Y-59460000D01*
X177551000Y-61540000D02*
X177551000Y-64257000D01*
X177591000Y-56760000D02*
X177591000Y-59460000D01*
X177591000Y-61540000D02*
X177591000Y-64240000D01*
X177631000Y-56778000D02*
X177631000Y-59460000D01*
X177631000Y-61540000D02*
X177631000Y-64222000D01*
X177671000Y-56796000D02*
X177671000Y-59460000D01*
X177671000Y-61540000D02*
X177671000Y-64204000D01*
X177711000Y-56814000D02*
X177711000Y-59460000D01*
X177711000Y-61540000D02*
X177711000Y-64186000D01*
X177751000Y-56834000D02*
X177751000Y-59460000D01*
X177751000Y-61540000D02*
X177751000Y-64166000D01*
X177791000Y-56853000D02*
X177791000Y-59460000D01*
X177791000Y-61540000D02*
X177791000Y-64147000D01*
X177831000Y-56873000D02*
X177831000Y-59460000D01*
X177831000Y-61540000D02*
X177831000Y-64127000D01*
X177871000Y-56894000D02*
X177871000Y-59460000D01*
X177871000Y-61540000D02*
X177871000Y-64106000D01*
X177911000Y-56916000D02*
X177911000Y-59460000D01*
X177911000Y-61540000D02*
X177911000Y-64084000D01*
X177951000Y-56938000D02*
X177951000Y-59460000D01*
X177951000Y-61540000D02*
X177951000Y-64062000D01*
X177991000Y-56960000D02*
X177991000Y-59460000D01*
X177991000Y-61540000D02*
X177991000Y-64040000D01*
X178031000Y-56983000D02*
X178031000Y-59460000D01*
X178031000Y-61540000D02*
X178031000Y-64017000D01*
X178071000Y-57007000D02*
X178071000Y-59460000D01*
X178071000Y-61540000D02*
X178071000Y-63993000D01*
X178111000Y-57031000D02*
X178111000Y-59460000D01*
X178111000Y-61540000D02*
X178111000Y-63969000D01*
X178151000Y-57056000D02*
X178151000Y-59460000D01*
X178151000Y-61540000D02*
X178151000Y-63944000D01*
X178191000Y-57082000D02*
X178191000Y-59460000D01*
X178191000Y-61540000D02*
X178191000Y-63918000D01*
X178231000Y-57108000D02*
X178231000Y-59460000D01*
X178231000Y-61540000D02*
X178231000Y-63892000D01*
X178271000Y-57135000D02*
X178271000Y-59460000D01*
X178271000Y-61540000D02*
X178271000Y-63865000D01*
X178311000Y-57162000D02*
X178311000Y-59460000D01*
X178311000Y-61540000D02*
X178311000Y-63838000D01*
X178351000Y-57191000D02*
X178351000Y-59460000D01*
X178351000Y-61540000D02*
X178351000Y-63809000D01*
X178391000Y-57220000D02*
X178391000Y-59460000D01*
X178391000Y-61540000D02*
X178391000Y-63780000D01*
X178431000Y-57250000D02*
X178431000Y-59460000D01*
X178431000Y-61540000D02*
X178431000Y-63750000D01*
X178471000Y-57280000D02*
X178471000Y-59460000D01*
X178471000Y-61540000D02*
X178471000Y-63720000D01*
X178511000Y-57311000D02*
X178511000Y-59460000D01*
X178511000Y-61540000D02*
X178511000Y-63689000D01*
X178551000Y-57344000D02*
X178551000Y-59460000D01*
X178551000Y-61540000D02*
X178551000Y-63656000D01*
X178591000Y-57376000D02*
X178591000Y-59460000D01*
X178591000Y-61540000D02*
X178591000Y-63624000D01*
X178631000Y-57410000D02*
X178631000Y-59460000D01*
X178631000Y-61540000D02*
X178631000Y-63590000D01*
X178671000Y-57445000D02*
X178671000Y-59460000D01*
X178671000Y-61540000D02*
X178671000Y-63555000D01*
X178711000Y-57481000D02*
X178711000Y-59460000D01*
X178711000Y-61540000D02*
X178711000Y-63519000D01*
X178751000Y-57517000D02*
X178751000Y-63483000D01*
X178791000Y-57555000D02*
X178791000Y-63445000D01*
X178831000Y-57593000D02*
X178831000Y-63407000D01*
X178871000Y-57633000D02*
X178871000Y-63367000D01*
X178911000Y-57674000D02*
X178911000Y-63326000D01*
X178951000Y-57716000D02*
X178951000Y-63284000D01*
X178991000Y-57759000D02*
X178991000Y-63241000D01*
X179031000Y-57803000D02*
X179031000Y-63197000D01*
X179071000Y-57849000D02*
X179071000Y-63151000D01*
X179111000Y-57896000D02*
X179111000Y-63104000D01*
X179151000Y-57944000D02*
X179151000Y-63056000D01*
X179191000Y-57995000D02*
X179191000Y-63005000D01*
X179231000Y-58046000D02*
X179231000Y-62954000D01*
X179271000Y-58100000D02*
X179271000Y-62900000D01*
X179311000Y-58155000D02*
X179311000Y-62845000D01*
X179351000Y-58213000D02*
X179351000Y-62787000D01*
X179391000Y-58272000D02*
X179391000Y-62728000D01*
X179431000Y-58334000D02*
X179431000Y-62666000D01*
X179471000Y-58398000D02*
X179471000Y-62602000D01*
X179511000Y-58466000D02*
X179511000Y-62534000D01*
X179551000Y-58536000D02*
X179551000Y-62464000D01*
X179591000Y-58610000D02*
X179591000Y-62390000D01*
X179631000Y-58687000D02*
X179631000Y-62313000D01*
X179671000Y-58769000D02*
X179671000Y-62231000D01*
X179711000Y-58855000D02*
X179711000Y-62145000D01*
X179751000Y-58948000D02*
X179751000Y-62052000D01*
X179791000Y-59047000D02*
X179791000Y-61953000D01*
X179831000Y-59154000D02*
X179831000Y-61846000D01*
X179871000Y-59271000D02*
X179871000Y-61729000D01*
X179911000Y-59402000D02*
X179911000Y-61598000D01*
X179951000Y-59552000D02*
X179951000Y-61448000D01*
X179991000Y-59732000D02*
X179991000Y-61268000D01*
X180031000Y-59967000D02*
X180031000Y-61033000D01*
X180070000Y-60500000D02*
G75*
G03*
X180070000Y-60500000I-4120000J0D01*
G01*
%TD*%
M02*
