%TF.GenerationSoftware,KiCad,Pcbnew,7.0.1-0*%
%TF.CreationDate,2023-05-21T16:13:56-06:00*%
%TF.ProjectId,100W Amplifier IS,31303057-2041-46d7-906c-696669657220,rev?*%
%TF.SameCoordinates,Original*%
%TF.FileFunction,Soldermask,Bot*%
%TF.FilePolarity,Negative*%
%FSLAX46Y46*%
G04 Gerber Fmt 4.6, Leading zero omitted, Abs format (unit mm)*
G04 Created by KiCad (PCBNEW 7.0.1-0) date 2023-05-21 16:13:56*
%MOMM*%
%LPD*%
G01*
G04 APERTURE LIST*
%ADD10C,3.800000*%
%ADD11C,1.600000*%
%ADD12O,1.600000X1.600000*%
%ADD13R,2.000000X2.000000*%
%ADD14C,2.000000*%
%ADD15R,2.400000X2.400000*%
%ADD16C,2.400000*%
%ADD17R,3.960000X1.980000*%
%ADD18O,3.960000X1.980000*%
%ADD19R,1.700000X1.700000*%
%ADD20O,1.700000X1.700000*%
%ADD21R,1.980000X3.960000*%
%ADD22O,1.980000X3.960000*%
%ADD23R,1.600000X1.600000*%
%ADD24O,2.200000X1.200000*%
%ADD25O,1.200000X2.200000*%
%ADD26O,2.000000X4.000000*%
%ADD27O,4.000000X2.000000*%
G04 APERTURE END LIST*
D10*
%TO.C,REF\u002A\u002A*%
X115500000Y-87300000D03*
%TD*%
%TO.C,*%
X115500000Y-87300000D03*
%TD*%
%TO.C,REF\u002A\u002A*%
X115600000Y-48350000D03*
%TD*%
%TO.C,*%
X115600000Y-48350000D03*
%TD*%
%TO.C,REF\u002A\u002A*%
X175400000Y-42250000D03*
%TD*%
%TO.C,*%
X175400000Y-42250000D03*
%TD*%
%TO.C,REF\u002A\u002A*%
X189500000Y-115700000D03*
%TD*%
D11*
%TO.C,R9*%
X188390000Y-72290000D03*
D12*
X188390000Y-62130000D03*
%TD*%
D11*
%TO.C,R10*%
X147880000Y-78370000D03*
D12*
X158040000Y-78370000D03*
%TD*%
D13*
%TO.C,C10*%
X181050000Y-71067677D03*
D14*
X181050000Y-66067677D03*
%TD*%
D15*
%TO.C,C15*%
X134000000Y-93500000D03*
D16*
X134000000Y-101000000D03*
%TD*%
D17*
%TO.C,J6*%
X189050000Y-48600000D03*
D18*
X189050000Y-43600000D03*
%TD*%
D19*
%TO.C,J3*%
X163695000Y-77520000D03*
D20*
X163695000Y-74980000D03*
X163695000Y-72440000D03*
X163695000Y-69900000D03*
X163695000Y-67360000D03*
X163695000Y-64820000D03*
X163695000Y-62280000D03*
X163695000Y-59740000D03*
%TD*%
D19*
%TO.C,J2*%
X168765000Y-61010000D03*
D20*
X168765000Y-63550000D03*
X168765000Y-66090000D03*
X168765000Y-68630000D03*
X168765000Y-71170000D03*
X168765000Y-73710000D03*
X168765000Y-76250000D03*
%TD*%
D11*
%TO.C,C11*%
X173020000Y-82290000D03*
X168020000Y-82290000D03*
%TD*%
D21*
%TO.C,J7*%
X130235000Y-115000000D03*
D22*
X135235000Y-115000000D03*
%TD*%
D21*
%TO.C,J8*%
X150000000Y-115000000D03*
D22*
X155000000Y-115000000D03*
%TD*%
D23*
%TO.C,C13*%
X153490000Y-68072651D03*
D11*
X153490000Y-64572651D03*
%TD*%
D13*
%TO.C,C8*%
X183570000Y-81180000D03*
D14*
X178570000Y-81180000D03*
%TD*%
D24*
%TO.C,J1*%
X186000000Y-102000000D03*
D25*
X191000000Y-97000000D03*
D24*
X186000000Y-92000000D03*
%TD*%
D26*
%TO.C,J4*%
X124600000Y-109250000D03*
D27*
X121800000Y-113850000D03*
D26*
X118500000Y-109250000D03*
%TD*%
D11*
%TO.C,C16*%
X146000000Y-98500000D03*
X146000000Y-103500000D03*
%TD*%
D15*
%TO.C,C14*%
X158000000Y-101500000D03*
D16*
X158000000Y-94000000D03*
%TD*%
D11*
%TO.C,R11*%
X171100000Y-53780000D03*
D12*
X181260000Y-53780000D03*
%TD*%
D11*
%TO.C,R8*%
X187860000Y-85590000D03*
D12*
X187860000Y-75430000D03*
%TD*%
D11*
%TO.C,C17*%
X122000000Y-100500000D03*
X122000000Y-95500000D03*
%TD*%
D27*
%TO.C,J5*%
X176000000Y-108000000D03*
D26*
X180600000Y-110800000D03*
D27*
X176000000Y-114100000D03*
%TD*%
D11*
%TO.C,R12*%
X160420000Y-72350000D03*
D12*
X150260000Y-72350000D03*
%TD*%
D23*
%TO.C,C12*%
X174200000Y-60500000D03*
D11*
X177700000Y-60500000D03*
%TD*%
M02*
