%TF.GenerationSoftware,KiCad,Pcbnew,7.0.1-0*%
%TF.CreationDate,2023-04-12T17:34:26-06:00*%
%TF.ProjectId,100W Amplifier IS,31303057-2041-46d7-906c-696669657220,rev?*%
%TF.SameCoordinates,Original*%
%TF.FileFunction,Copper,L1,Top*%
%TF.FilePolarity,Positive*%
%FSLAX46Y46*%
G04 Gerber Fmt 4.6, Leading zero omitted, Abs format (unit mm)*
G04 Created by KiCad (PCBNEW 7.0.1-0) date 2023-04-12 17:34:26*
%MOMM*%
%LPD*%
G01*
G04 APERTURE LIST*
%TA.AperFunction,ComponentPad*%
%ADD10R,1.700000X1.700000*%
%TD*%
%TA.AperFunction,ComponentPad*%
%ADD11O,1.700000X1.700000*%
%TD*%
%TA.AperFunction,Conductor*%
%ADD12C,0.250000*%
%TD*%
%TA.AperFunction,Conductor*%
%ADD13C,0.508000*%
%TD*%
G04 APERTURE END LIST*
D10*
%TO.P,J1,1,Pin_1*%
%TO.N,Net-(J1-Pin_1)*%
X134010000Y-33670000D03*
D11*
%TO.P,J1,2,Pin_2*%
%TO.N,Net-(J1-Pin_2)*%
X134010000Y-36210000D03*
%TO.P,J1,3,Pin_3*%
%TO.N,Net-(J1-Pin_3)*%
X134010000Y-38750000D03*
%TO.P,J1,4,Pin_4*%
%TO.N,Net-(J1-Pin_4)*%
X134010000Y-41290000D03*
%TO.P,J1,5,Pin_5*%
%TO.N,Net-(J1-Pin_5)*%
X134010000Y-43830000D03*
%TO.P,J1,6,Pin_6*%
%TO.N,Net-(J1-Pin_6)*%
X134010000Y-46370000D03*
%TO.P,J1,7,Pin_7*%
%TO.N,Net-(J1-Pin_7)*%
X134010000Y-48910000D03*
%TO.P,J1,8,Pin_8*%
%TO.N,Net-(J1-Pin_8)*%
X134010000Y-51450000D03*
%TD*%
D10*
%TO.P,J4,1,Pin_1*%
%TO.N,Net-(J2-Pin_1)*%
X139090000Y-34940000D03*
D11*
%TO.P,J4,2,Pin_2*%
%TO.N,Net-(J2-Pin_2)*%
X139090000Y-37480000D03*
%TO.P,J4,3,Pin_3*%
%TO.N,Net-(J2-Pin_3)*%
X139090000Y-40020000D03*
%TO.P,J4,4,Pin_4*%
%TO.N,Net-(J2-Pin_4)*%
X139090000Y-42560000D03*
%TO.P,J4,5,Pin_5*%
%TO.N,Net-(J2-Pin_5)*%
X139090000Y-45100000D03*
%TO.P,J4,6,Pin_6*%
%TO.N,Net-(J2-Pin_6)*%
X139090000Y-47640000D03*
%TO.P,J4,7,Pin_7*%
%TO.N,Net-(J2-Pin_7)*%
X139090000Y-50180000D03*
%TD*%
D10*
%TO.P,J2,1,Pin_1*%
%TO.N,Net-(J2-Pin_1)*%
X142875000Y-33655000D03*
D11*
%TO.P,J2,2,Pin_2*%
%TO.N,Net-(J2-Pin_2)*%
X142875000Y-36195000D03*
%TO.P,J2,3,Pin_3*%
%TO.N,Net-(J2-Pin_3)*%
X142875000Y-38735000D03*
%TO.P,J2,4,Pin_4*%
%TO.N,Net-(J2-Pin_4)*%
X142875000Y-41275000D03*
%TO.P,J2,5,Pin_5*%
%TO.N,Net-(J2-Pin_5)*%
X142875000Y-43815000D03*
%TO.P,J2,6,Pin_6*%
%TO.N,Net-(J2-Pin_6)*%
X142875000Y-46355000D03*
%TO.P,J2,7,Pin_7*%
%TO.N,Net-(J2-Pin_7)*%
X142875000Y-48895000D03*
%TD*%
D10*
%TO.P,J3,1,Pin_1*%
%TO.N,Net-(J1-Pin_1)*%
X130175000Y-33655000D03*
D11*
%TO.P,J3,2,Pin_2*%
%TO.N,Net-(J1-Pin_2)*%
X130175000Y-36195000D03*
%TO.P,J3,3,Pin_3*%
%TO.N,Net-(J1-Pin_3)*%
X130175000Y-38735000D03*
%TO.P,J3,4,Pin_4*%
%TO.N,Net-(J1-Pin_4)*%
X130175000Y-41275000D03*
%TO.P,J3,5,Pin_5*%
%TO.N,Net-(J1-Pin_5)*%
X130175000Y-43815000D03*
%TO.P,J3,6,Pin_6*%
%TO.N,Net-(J1-Pin_6)*%
X130175000Y-46355000D03*
%TO.P,J3,7,Pin_7*%
%TO.N,Net-(J1-Pin_7)*%
X130175000Y-48895000D03*
%TO.P,J3,8,Pin_8*%
%TO.N,Net-(J1-Pin_8)*%
X130175000Y-51435000D03*
%TD*%
D12*
%TO.N,Net-(J1-Pin_1)*%
X134010000Y-33670000D02*
X130190000Y-33670000D01*
X130190000Y-33670000D02*
X130175000Y-33655000D01*
%TO.N,Net-(J1-Pin_2)*%
X134010000Y-36210000D02*
X130190000Y-36210000D01*
X130190000Y-36210000D02*
X130175000Y-36195000D01*
%TO.N,Net-(J1-Pin_3)*%
X134010000Y-38750000D02*
X130190000Y-38750000D01*
X130190000Y-38750000D02*
X130175000Y-38735000D01*
%TO.N,Net-(J1-Pin_4)*%
X134010000Y-41290000D02*
X130190000Y-41290000D01*
X130190000Y-41290000D02*
X130175000Y-41275000D01*
%TO.N,Net-(J1-Pin_5)*%
X130190000Y-43830000D02*
X130175000Y-43815000D01*
X134010000Y-43830000D02*
X130190000Y-43830000D01*
%TO.N,Net-(J1-Pin_6)*%
X130190000Y-46370000D02*
X130175000Y-46355000D01*
X134010000Y-46370000D02*
X130190000Y-46370000D01*
D13*
%TO.N,Net-(J1-Pin_7)*%
X134010000Y-48910000D02*
X130190000Y-48910000D01*
D12*
X130190000Y-48910000D02*
X130175000Y-48895000D01*
D13*
%TO.N,Net-(J1-Pin_8)*%
X134010000Y-51450000D02*
X130190000Y-51450000D01*
D12*
X130190000Y-51450000D02*
X130175000Y-51435000D01*
%TO.N,Net-(J2-Pin_1)*%
X141590000Y-34940000D02*
X142875000Y-33655000D01*
X139090000Y-34940000D02*
X141590000Y-34940000D01*
%TO.N,Net-(J2-Pin_2)*%
X141590000Y-37480000D02*
X142875000Y-36195000D01*
X139090000Y-37480000D02*
X141590000Y-37480000D01*
%TO.N,Net-(J2-Pin_3)*%
X141590000Y-40020000D02*
X142875000Y-38735000D01*
X139090000Y-40020000D02*
X141590000Y-40020000D01*
%TO.N,Net-(J2-Pin_4)*%
X139090000Y-42560000D02*
X141590000Y-42560000D01*
X141590000Y-42560000D02*
X142875000Y-41275000D01*
%TO.N,Net-(J2-Pin_5)*%
X141590000Y-45100000D02*
X142875000Y-43815000D01*
X139090000Y-45100000D02*
X141590000Y-45100000D01*
%TO.N,Net-(J2-Pin_6)*%
X141590000Y-47640000D02*
X142875000Y-46355000D01*
X139090000Y-47640000D02*
X141590000Y-47640000D01*
%TO.N,Net-(J2-Pin_7)*%
X139090000Y-50180000D02*
X141590000Y-50180000D01*
X141590000Y-50180000D02*
X142875000Y-48895000D01*
%TD*%
M02*
