M48
; DRILL file {KiCad 7.0.1-0} date 2023 April 12, Wednesday 17:34:23
; FORMAT={-:-/ absolute / inch / decimal}
; #@! TF.CreationDate,2023-04-12T17:34:23-06:00
; #@! TF.GenerationSoftware,Kicad,Pcbnew,7.0.1-0
; #@! TF.FileFunction,Plated,1,2,PTH
FMAT,2
INCH
; #@! TA.AperFunction,Plated,PTH,ComponentDrill
T1C0.0394
%
G90
G05
T1
X5.125Y-1.325
X5.125Y-1.425
X5.125Y-1.525
X5.125Y-1.625
X5.125Y-1.725
X5.125Y-1.825
X5.125Y-1.925
X5.125Y-2.025
X5.276Y-1.3256
X5.276Y-1.4256
X5.276Y-1.5256
X5.276Y-1.6256
X5.276Y-1.7256
X5.276Y-1.8256
X5.276Y-1.9256
X5.276Y-2.0256
X5.476Y-1.3756
X5.476Y-1.4756
X5.476Y-1.5756
X5.476Y-1.6756
X5.476Y-1.7756
X5.476Y-1.8756
X5.476Y-1.9756
X5.625Y-1.325
X5.625Y-1.425
X5.625Y-1.525
X5.625Y-1.625
X5.625Y-1.725
X5.625Y-1.825
X5.625Y-1.925
T0
M30
